G04 #@! TF.GenerationSoftware,KiCad,Pcbnew,5.0.0*
G04 #@! TF.CreationDate,2018-11-11T17:05:44-05:00*
G04 #@! TF.ProjectId,I2C_PWM_Driver,4932435F50574D5F4472697665722E6B,rev?*
G04 #@! TF.SameCoordinates,Original*
G04 #@! TF.FileFunction,Copper,L2,Bot,Signal*
G04 #@! TF.FilePolarity,Positive*
%FSLAX46Y46*%
G04 Gerber Fmt 4.6, Leading zero omitted, Abs format (unit mm)*
G04 Created by KiCad (PCBNEW 5.0.0) date Sun Nov 11 17:05:44 2018*
%MOMM*%
%LPD*%
G01*
G04 APERTURE LIST*
G04 #@! TA.AperFunction,ComponentPad*
%ADD10C,2.000000*%
G04 #@! TD*
G04 #@! TA.AperFunction,ComponentPad*
%ADD11R,1.700000X1.700000*%
G04 #@! TD*
G04 #@! TA.AperFunction,ComponentPad*
%ADD12O,1.700000X1.700000*%
G04 #@! TD*
G04 #@! TA.AperFunction,ComponentPad*
%ADD13C,2.500000*%
G04 #@! TD*
G04 #@! TA.AperFunction,ComponentPad*
%ADD14C,1.200000*%
G04 #@! TD*
G04 #@! TA.AperFunction,ComponentPad*
%ADD15R,1.200000X1.200000*%
G04 #@! TD*
G04 #@! TA.AperFunction,SMDPad,CuDef*
%ADD16C,0.500000*%
G04 #@! TD*
G04 #@! TA.AperFunction,Conductor*
%ADD17C,0.100000*%
G04 #@! TD*
G04 #@! TA.AperFunction,ViaPad*
%ADD18C,0.800000*%
G04 #@! TD*
G04 #@! TA.AperFunction,ViaPad*
%ADD19C,0.750000*%
G04 #@! TD*
G04 #@! TA.AperFunction,Conductor*
%ADD20C,0.500000*%
G04 #@! TD*
G04 #@! TA.AperFunction,Conductor*
%ADD21C,5.000000*%
G04 #@! TD*
G04 #@! TA.AperFunction,Conductor*
%ADD22C,0.250000*%
G04 #@! TD*
G04 #@! TA.AperFunction,Conductor*
%ADD23C,1.000000*%
G04 #@! TD*
G04 #@! TA.AperFunction,Conductor*
%ADD24C,1.500000*%
G04 #@! TD*
G04 #@! TA.AperFunction,Conductor*
%ADD25C,0.254000*%
G04 #@! TD*
G04 APERTURE END LIST*
D10*
G04 #@! TO.P,J1,1*
G04 #@! TO.N,+VDC*
X77600000Y-63750000D03*
G04 #@! TO.P,J1,2*
G04 #@! TO.N,GND*
X77600000Y-67250000D03*
G04 #@! TD*
G04 #@! TO.P,J3,1*
G04 #@! TO.N,SDA*
X77600000Y-79750000D03*
G04 #@! TO.P,J3,2*
G04 #@! TO.N,SCL*
X77600000Y-83250000D03*
G04 #@! TD*
D11*
G04 #@! TO.P,J2,1*
G04 #@! TO.N,VCC*
X80500000Y-74100000D03*
D12*
G04 #@! TO.P,J2,2*
G04 #@! TO.N,GND*
X77960000Y-74100000D03*
G04 #@! TD*
D13*
G04 #@! TO.P,J4,16*
G04 #@! TO.N,Out15*
X158000000Y-81928572D03*
G04 #@! TO.P,J4,15*
G04 #@! TO.N,Out14*
X158000000Y-77714282D03*
G04 #@! TO.P,J4,14*
G04 #@! TO.N,Out13*
X158000000Y-73499997D03*
G04 #@! TO.P,J4,13*
G04 #@! TO.N,Out12*
X158000000Y-69285712D03*
G04 #@! TO.P,J4,12*
G04 #@! TO.N,Out11*
X158000000Y-65071427D03*
G04 #@! TO.P,J4,11*
G04 #@! TO.N,Out10*
X158000000Y-60857142D03*
G04 #@! TO.P,J4,10*
G04 #@! TO.N,Out9*
X158000000Y-56642857D03*
G04 #@! TO.P,J4,9*
G04 #@! TO.N,Out8*
X158000000Y-52428572D03*
G04 #@! TO.P,J4,8*
G04 #@! TO.N,Out7*
X154250000Y-81928572D03*
G04 #@! TO.P,J4,7*
G04 #@! TO.N,Out6*
X154250000Y-77714282D03*
G04 #@! TO.P,J4,6*
G04 #@! TO.N,Out5*
X154250000Y-73499997D03*
G04 #@! TO.P,J4,5*
G04 #@! TO.N,Out4*
X154250000Y-69285712D03*
G04 #@! TO.P,J4,4*
G04 #@! TO.N,Out3*
X154250000Y-65071427D03*
G04 #@! TO.P,J4,3*
G04 #@! TO.N,Out2*
X154250000Y-60857142D03*
G04 #@! TO.P,J4,2*
G04 #@! TO.N,Out1*
X154250000Y-56642857D03*
G04 #@! TO.P,J4,1*
G04 #@! TO.N,Out0*
X154250000Y-52428572D03*
G04 #@! TD*
D14*
G04 #@! TO.P,C2,2*
G04 #@! TO.N,GND*
X80500000Y-57000000D03*
D15*
G04 #@! TO.P,C2,1*
G04 #@! TO.N,+VDC*
X82000000Y-57000000D03*
G04 #@! TD*
G04 #@! TO.P,C4,1*
G04 #@! TO.N,VCC*
X86500000Y-58000000D03*
D14*
G04 #@! TO.P,C4,2*
G04 #@! TO.N,GND*
X86500000Y-59500000D03*
G04 #@! TD*
D16*
G04 #@! TO.P,JP6,1*
G04 #@! TO.N,VCC*
X84079900Y-61900557D03*
D17*
G04 #@! TD*
G04 #@! TO.N,VCC*
G04 #@! TO.C,JP6*
G36*
X83329900Y-62400557D02*
X83329900Y-61900557D01*
X83330502Y-61900557D01*
X83330502Y-61876023D01*
X83335312Y-61827192D01*
X83344884Y-61779067D01*
X83359128Y-61732112D01*
X83377905Y-61686779D01*
X83401036Y-61643506D01*
X83428296Y-61602707D01*
X83459424Y-61564778D01*
X83494121Y-61530081D01*
X83532050Y-61498953D01*
X83572849Y-61471693D01*
X83616122Y-61448562D01*
X83661455Y-61429785D01*
X83708410Y-61415541D01*
X83756535Y-61405969D01*
X83805366Y-61401159D01*
X83829900Y-61401159D01*
X83829900Y-61400557D01*
X84329900Y-61400557D01*
X84329900Y-61401159D01*
X84354434Y-61401159D01*
X84403265Y-61405969D01*
X84451390Y-61415541D01*
X84498345Y-61429785D01*
X84543678Y-61448562D01*
X84586951Y-61471693D01*
X84627750Y-61498953D01*
X84665679Y-61530081D01*
X84700376Y-61564778D01*
X84731504Y-61602707D01*
X84758764Y-61643506D01*
X84781895Y-61686779D01*
X84800672Y-61732112D01*
X84814916Y-61779067D01*
X84824488Y-61827192D01*
X84829298Y-61876023D01*
X84829298Y-61900557D01*
X84829900Y-61900557D01*
X84829900Y-62400557D01*
X83329900Y-62400557D01*
X83329900Y-62400557D01*
G37*
D16*
G04 #@! TO.P,JP6,2*
G04 #@! TO.N,A5*
X84079900Y-63200557D03*
D17*
G04 #@! TD*
G04 #@! TO.N,A5*
G04 #@! TO.C,JP6*
G36*
X84829298Y-63200557D02*
X84829298Y-63225091D01*
X84824488Y-63273922D01*
X84814916Y-63322047D01*
X84800672Y-63369002D01*
X84781895Y-63414335D01*
X84758764Y-63457608D01*
X84731504Y-63498407D01*
X84700376Y-63536336D01*
X84665679Y-63571033D01*
X84627750Y-63602161D01*
X84586951Y-63629421D01*
X84543678Y-63652552D01*
X84498345Y-63671329D01*
X84451390Y-63685573D01*
X84403265Y-63695145D01*
X84354434Y-63699955D01*
X84329900Y-63699955D01*
X84329900Y-63700557D01*
X83829900Y-63700557D01*
X83829900Y-63699955D01*
X83805366Y-63699955D01*
X83756535Y-63695145D01*
X83708410Y-63685573D01*
X83661455Y-63671329D01*
X83616122Y-63652552D01*
X83572849Y-63629421D01*
X83532050Y-63602161D01*
X83494121Y-63571033D01*
X83459424Y-63536336D01*
X83428296Y-63498407D01*
X83401036Y-63457608D01*
X83377905Y-63414335D01*
X83359128Y-63369002D01*
X83344884Y-63322047D01*
X83335312Y-63273922D01*
X83330502Y-63225091D01*
X83330502Y-63200557D01*
X83329900Y-63200557D01*
X83329900Y-62700557D01*
X84829900Y-62700557D01*
X84829900Y-63200557D01*
X84829298Y-63200557D01*
X84829298Y-63200557D01*
G37*
D16*
G04 #@! TO.P,JP5,2*
G04 #@! TO.N,A4*
X89079900Y-63200557D03*
D17*
G04 #@! TD*
G04 #@! TO.N,A4*
G04 #@! TO.C,JP5*
G36*
X89829298Y-63200557D02*
X89829298Y-63225091D01*
X89824488Y-63273922D01*
X89814916Y-63322047D01*
X89800672Y-63369002D01*
X89781895Y-63414335D01*
X89758764Y-63457608D01*
X89731504Y-63498407D01*
X89700376Y-63536336D01*
X89665679Y-63571033D01*
X89627750Y-63602161D01*
X89586951Y-63629421D01*
X89543678Y-63652552D01*
X89498345Y-63671329D01*
X89451390Y-63685573D01*
X89403265Y-63695145D01*
X89354434Y-63699955D01*
X89329900Y-63699955D01*
X89329900Y-63700557D01*
X88829900Y-63700557D01*
X88829900Y-63699955D01*
X88805366Y-63699955D01*
X88756535Y-63695145D01*
X88708410Y-63685573D01*
X88661455Y-63671329D01*
X88616122Y-63652552D01*
X88572849Y-63629421D01*
X88532050Y-63602161D01*
X88494121Y-63571033D01*
X88459424Y-63536336D01*
X88428296Y-63498407D01*
X88401036Y-63457608D01*
X88377905Y-63414335D01*
X88359128Y-63369002D01*
X88344884Y-63322047D01*
X88335312Y-63273922D01*
X88330502Y-63225091D01*
X88330502Y-63200557D01*
X88329900Y-63200557D01*
X88329900Y-62700557D01*
X89829900Y-62700557D01*
X89829900Y-63200557D01*
X89829298Y-63200557D01*
X89829298Y-63200557D01*
G37*
D16*
G04 #@! TO.P,JP5,1*
G04 #@! TO.N,VCC*
X89079900Y-61900557D03*
D17*
G04 #@! TD*
G04 #@! TO.N,VCC*
G04 #@! TO.C,JP5*
G36*
X88329900Y-62400557D02*
X88329900Y-61900557D01*
X88330502Y-61900557D01*
X88330502Y-61876023D01*
X88335312Y-61827192D01*
X88344884Y-61779067D01*
X88359128Y-61732112D01*
X88377905Y-61686779D01*
X88401036Y-61643506D01*
X88428296Y-61602707D01*
X88459424Y-61564778D01*
X88494121Y-61530081D01*
X88532050Y-61498953D01*
X88572849Y-61471693D01*
X88616122Y-61448562D01*
X88661455Y-61429785D01*
X88708410Y-61415541D01*
X88756535Y-61405969D01*
X88805366Y-61401159D01*
X88829900Y-61401159D01*
X88829900Y-61400557D01*
X89329900Y-61400557D01*
X89329900Y-61401159D01*
X89354434Y-61401159D01*
X89403265Y-61405969D01*
X89451390Y-61415541D01*
X89498345Y-61429785D01*
X89543678Y-61448562D01*
X89586951Y-61471693D01*
X89627750Y-61498953D01*
X89665679Y-61530081D01*
X89700376Y-61564778D01*
X89731504Y-61602707D01*
X89758764Y-61643506D01*
X89781895Y-61686779D01*
X89800672Y-61732112D01*
X89814916Y-61779067D01*
X89824488Y-61827192D01*
X89829298Y-61876023D01*
X89829298Y-61900557D01*
X89829900Y-61900557D01*
X89829900Y-62400557D01*
X88329900Y-62400557D01*
X88329900Y-62400557D01*
G37*
D16*
G04 #@! TO.P,JP3,1*
G04 #@! TO.N,VCC*
X99079900Y-61900557D03*
D17*
G04 #@! TD*
G04 #@! TO.N,VCC*
G04 #@! TO.C,JP3*
G36*
X98329900Y-62400557D02*
X98329900Y-61900557D01*
X98330502Y-61900557D01*
X98330502Y-61876023D01*
X98335312Y-61827192D01*
X98344884Y-61779067D01*
X98359128Y-61732112D01*
X98377905Y-61686779D01*
X98401036Y-61643506D01*
X98428296Y-61602707D01*
X98459424Y-61564778D01*
X98494121Y-61530081D01*
X98532050Y-61498953D01*
X98572849Y-61471693D01*
X98616122Y-61448562D01*
X98661455Y-61429785D01*
X98708410Y-61415541D01*
X98756535Y-61405969D01*
X98805366Y-61401159D01*
X98829900Y-61401159D01*
X98829900Y-61400557D01*
X99329900Y-61400557D01*
X99329900Y-61401159D01*
X99354434Y-61401159D01*
X99403265Y-61405969D01*
X99451390Y-61415541D01*
X99498345Y-61429785D01*
X99543678Y-61448562D01*
X99586951Y-61471693D01*
X99627750Y-61498953D01*
X99665679Y-61530081D01*
X99700376Y-61564778D01*
X99731504Y-61602707D01*
X99758764Y-61643506D01*
X99781895Y-61686779D01*
X99800672Y-61732112D01*
X99814916Y-61779067D01*
X99824488Y-61827192D01*
X99829298Y-61876023D01*
X99829298Y-61900557D01*
X99829900Y-61900557D01*
X99829900Y-62400557D01*
X98329900Y-62400557D01*
X98329900Y-62400557D01*
G37*
D16*
G04 #@! TO.P,JP3,2*
G04 #@! TO.N,A2*
X99079900Y-63200557D03*
D17*
G04 #@! TD*
G04 #@! TO.N,A2*
G04 #@! TO.C,JP3*
G36*
X99829298Y-63200557D02*
X99829298Y-63225091D01*
X99824488Y-63273922D01*
X99814916Y-63322047D01*
X99800672Y-63369002D01*
X99781895Y-63414335D01*
X99758764Y-63457608D01*
X99731504Y-63498407D01*
X99700376Y-63536336D01*
X99665679Y-63571033D01*
X99627750Y-63602161D01*
X99586951Y-63629421D01*
X99543678Y-63652552D01*
X99498345Y-63671329D01*
X99451390Y-63685573D01*
X99403265Y-63695145D01*
X99354434Y-63699955D01*
X99329900Y-63699955D01*
X99329900Y-63700557D01*
X98829900Y-63700557D01*
X98829900Y-63699955D01*
X98805366Y-63699955D01*
X98756535Y-63695145D01*
X98708410Y-63685573D01*
X98661455Y-63671329D01*
X98616122Y-63652552D01*
X98572849Y-63629421D01*
X98532050Y-63602161D01*
X98494121Y-63571033D01*
X98459424Y-63536336D01*
X98428296Y-63498407D01*
X98401036Y-63457608D01*
X98377905Y-63414335D01*
X98359128Y-63369002D01*
X98344884Y-63322047D01*
X98335312Y-63273922D01*
X98330502Y-63225091D01*
X98330502Y-63200557D01*
X98329900Y-63200557D01*
X98329900Y-62700557D01*
X99829900Y-62700557D01*
X99829900Y-63200557D01*
X99829298Y-63200557D01*
X99829298Y-63200557D01*
G37*
D16*
G04 #@! TO.P,JP2,2*
G04 #@! TO.N,A1*
X104079900Y-61900557D03*
D17*
G04 #@! TD*
G04 #@! TO.N,A1*
G04 #@! TO.C,JP2*
G36*
X103330502Y-61900557D02*
X103330502Y-61876023D01*
X103335312Y-61827192D01*
X103344884Y-61779067D01*
X103359128Y-61732112D01*
X103377905Y-61686779D01*
X103401036Y-61643506D01*
X103428296Y-61602707D01*
X103459424Y-61564778D01*
X103494121Y-61530081D01*
X103532050Y-61498953D01*
X103572849Y-61471693D01*
X103616122Y-61448562D01*
X103661455Y-61429785D01*
X103708410Y-61415541D01*
X103756535Y-61405969D01*
X103805366Y-61401159D01*
X103829900Y-61401159D01*
X103829900Y-61400557D01*
X104329900Y-61400557D01*
X104329900Y-61401159D01*
X104354434Y-61401159D01*
X104403265Y-61405969D01*
X104451390Y-61415541D01*
X104498345Y-61429785D01*
X104543678Y-61448562D01*
X104586951Y-61471693D01*
X104627750Y-61498953D01*
X104665679Y-61530081D01*
X104700376Y-61564778D01*
X104731504Y-61602707D01*
X104758764Y-61643506D01*
X104781895Y-61686779D01*
X104800672Y-61732112D01*
X104814916Y-61779067D01*
X104824488Y-61827192D01*
X104829298Y-61876023D01*
X104829298Y-61900557D01*
X104829900Y-61900557D01*
X104829900Y-62400557D01*
X103329900Y-62400557D01*
X103329900Y-61900557D01*
X103330502Y-61900557D01*
X103330502Y-61900557D01*
G37*
D16*
G04 #@! TO.P,JP2,1*
G04 #@! TO.N,VCC*
X104079900Y-63200557D03*
D17*
G04 #@! TD*
G04 #@! TO.N,VCC*
G04 #@! TO.C,JP2*
G36*
X104829900Y-62700557D02*
X104829900Y-63200557D01*
X104829298Y-63200557D01*
X104829298Y-63225091D01*
X104824488Y-63273922D01*
X104814916Y-63322047D01*
X104800672Y-63369002D01*
X104781895Y-63414335D01*
X104758764Y-63457608D01*
X104731504Y-63498407D01*
X104700376Y-63536336D01*
X104665679Y-63571033D01*
X104627750Y-63602161D01*
X104586951Y-63629421D01*
X104543678Y-63652552D01*
X104498345Y-63671329D01*
X104451390Y-63685573D01*
X104403265Y-63695145D01*
X104354434Y-63699955D01*
X104329900Y-63699955D01*
X104329900Y-63700557D01*
X103829900Y-63700557D01*
X103829900Y-63699955D01*
X103805366Y-63699955D01*
X103756535Y-63695145D01*
X103708410Y-63685573D01*
X103661455Y-63671329D01*
X103616122Y-63652552D01*
X103572849Y-63629421D01*
X103532050Y-63602161D01*
X103494121Y-63571033D01*
X103459424Y-63536336D01*
X103428296Y-63498407D01*
X103401036Y-63457608D01*
X103377905Y-63414335D01*
X103359128Y-63369002D01*
X103344884Y-63322047D01*
X103335312Y-63273922D01*
X103330502Y-63225091D01*
X103330502Y-63200557D01*
X103329900Y-63200557D01*
X103329900Y-62700557D01*
X104829900Y-62700557D01*
X104829900Y-62700557D01*
G37*
D16*
G04 #@! TO.P,JP1,1*
G04 #@! TO.N,VCC*
X109079900Y-63200557D03*
D17*
G04 #@! TD*
G04 #@! TO.N,VCC*
G04 #@! TO.C,JP1*
G36*
X109829900Y-62700557D02*
X109829900Y-63200557D01*
X109829298Y-63200557D01*
X109829298Y-63225091D01*
X109824488Y-63273922D01*
X109814916Y-63322047D01*
X109800672Y-63369002D01*
X109781895Y-63414335D01*
X109758764Y-63457608D01*
X109731504Y-63498407D01*
X109700376Y-63536336D01*
X109665679Y-63571033D01*
X109627750Y-63602161D01*
X109586951Y-63629421D01*
X109543678Y-63652552D01*
X109498345Y-63671329D01*
X109451390Y-63685573D01*
X109403265Y-63695145D01*
X109354434Y-63699955D01*
X109329900Y-63699955D01*
X109329900Y-63700557D01*
X108829900Y-63700557D01*
X108829900Y-63699955D01*
X108805366Y-63699955D01*
X108756535Y-63695145D01*
X108708410Y-63685573D01*
X108661455Y-63671329D01*
X108616122Y-63652552D01*
X108572849Y-63629421D01*
X108532050Y-63602161D01*
X108494121Y-63571033D01*
X108459424Y-63536336D01*
X108428296Y-63498407D01*
X108401036Y-63457608D01*
X108377905Y-63414335D01*
X108359128Y-63369002D01*
X108344884Y-63322047D01*
X108335312Y-63273922D01*
X108330502Y-63225091D01*
X108330502Y-63200557D01*
X108329900Y-63200557D01*
X108329900Y-62700557D01*
X109829900Y-62700557D01*
X109829900Y-62700557D01*
G37*
D16*
G04 #@! TO.P,JP1,2*
G04 #@! TO.N,A0*
X109079900Y-61900557D03*
D17*
G04 #@! TD*
G04 #@! TO.N,A0*
G04 #@! TO.C,JP1*
G36*
X108330502Y-61900557D02*
X108330502Y-61876023D01*
X108335312Y-61827192D01*
X108344884Y-61779067D01*
X108359128Y-61732112D01*
X108377905Y-61686779D01*
X108401036Y-61643506D01*
X108428296Y-61602707D01*
X108459424Y-61564778D01*
X108494121Y-61530081D01*
X108532050Y-61498953D01*
X108572849Y-61471693D01*
X108616122Y-61448562D01*
X108661455Y-61429785D01*
X108708410Y-61415541D01*
X108756535Y-61405969D01*
X108805366Y-61401159D01*
X108829900Y-61401159D01*
X108829900Y-61400557D01*
X109329900Y-61400557D01*
X109329900Y-61401159D01*
X109354434Y-61401159D01*
X109403265Y-61405969D01*
X109451390Y-61415541D01*
X109498345Y-61429785D01*
X109543678Y-61448562D01*
X109586951Y-61471693D01*
X109627750Y-61498953D01*
X109665679Y-61530081D01*
X109700376Y-61564778D01*
X109731504Y-61602707D01*
X109758764Y-61643506D01*
X109781895Y-61686779D01*
X109800672Y-61732112D01*
X109814916Y-61779067D01*
X109824488Y-61827192D01*
X109829298Y-61876023D01*
X109829298Y-61900557D01*
X109829900Y-61900557D01*
X109829900Y-62400557D01*
X108329900Y-62400557D01*
X108329900Y-61900557D01*
X108330502Y-61900557D01*
X108330502Y-61900557D01*
G37*
D16*
G04 #@! TO.P,JP4,2*
G04 #@! TO.N,A3*
X94079900Y-62900000D03*
D17*
G04 #@! TD*
G04 #@! TO.N,A3*
G04 #@! TO.C,JP4*
G36*
X94829298Y-62900000D02*
X94829298Y-62924534D01*
X94824488Y-62973365D01*
X94814916Y-63021490D01*
X94800672Y-63068445D01*
X94781895Y-63113778D01*
X94758764Y-63157051D01*
X94731504Y-63197850D01*
X94700376Y-63235779D01*
X94665679Y-63270476D01*
X94627750Y-63301604D01*
X94586951Y-63328864D01*
X94543678Y-63351995D01*
X94498345Y-63370772D01*
X94451390Y-63385016D01*
X94403265Y-63394588D01*
X94354434Y-63399398D01*
X94329900Y-63399398D01*
X94329900Y-63400000D01*
X93829900Y-63400000D01*
X93829900Y-63399398D01*
X93805366Y-63399398D01*
X93756535Y-63394588D01*
X93708410Y-63385016D01*
X93661455Y-63370772D01*
X93616122Y-63351995D01*
X93572849Y-63328864D01*
X93532050Y-63301604D01*
X93494121Y-63270476D01*
X93459424Y-63235779D01*
X93428296Y-63197850D01*
X93401036Y-63157051D01*
X93377905Y-63113778D01*
X93359128Y-63068445D01*
X93344884Y-63021490D01*
X93335312Y-62973365D01*
X93330502Y-62924534D01*
X93330502Y-62900000D01*
X93329900Y-62900000D01*
X93329900Y-62400000D01*
X94829900Y-62400000D01*
X94829900Y-62900000D01*
X94829298Y-62900000D01*
X94829298Y-62900000D01*
G37*
D16*
G04 #@! TO.P,JP4,1*
G04 #@! TO.N,VCC*
X94079900Y-61600000D03*
D17*
G04 #@! TD*
G04 #@! TO.N,VCC*
G04 #@! TO.C,JP4*
G36*
X93329900Y-62100000D02*
X93329900Y-61600000D01*
X93330502Y-61600000D01*
X93330502Y-61575466D01*
X93335312Y-61526635D01*
X93344884Y-61478510D01*
X93359128Y-61431555D01*
X93377905Y-61386222D01*
X93401036Y-61342949D01*
X93428296Y-61302150D01*
X93459424Y-61264221D01*
X93494121Y-61229524D01*
X93532050Y-61198396D01*
X93572849Y-61171136D01*
X93616122Y-61148005D01*
X93661455Y-61129228D01*
X93708410Y-61114984D01*
X93756535Y-61105412D01*
X93805366Y-61100602D01*
X93829900Y-61100602D01*
X93829900Y-61100000D01*
X94329900Y-61100000D01*
X94329900Y-61100602D01*
X94354434Y-61100602D01*
X94403265Y-61105412D01*
X94451390Y-61114984D01*
X94498345Y-61129228D01*
X94543678Y-61148005D01*
X94586951Y-61171136D01*
X94627750Y-61198396D01*
X94665679Y-61229524D01*
X94700376Y-61264221D01*
X94731504Y-61302150D01*
X94758764Y-61342949D01*
X94781895Y-61386222D01*
X94800672Y-61431555D01*
X94814916Y-61478510D01*
X94824488Y-61526635D01*
X94829298Y-61575466D01*
X94829298Y-61600000D01*
X94829900Y-61600000D01*
X94829900Y-62100000D01*
X93329900Y-62100000D01*
X93329900Y-62100000D01*
G37*
D18*
G04 #@! TO.N,GND*
X96000000Y-62000000D03*
X99000000Y-55500000D03*
X112000000Y-56500000D03*
X117000000Y-83000000D03*
X80250000Y-54250000D03*
X81500000Y-54250000D03*
X95750000Y-59000000D03*
X112750000Y-64750000D03*
X108250000Y-65000000D03*
X100500000Y-66750000D03*
X87000000Y-66000000D03*
X92000000Y-78750000D03*
X93250000Y-74250000D03*
X97000000Y-76250000D03*
X100500000Y-75000000D03*
X106500000Y-74500000D03*
X107500000Y-74500000D03*
X115000000Y-74000000D03*
X92750000Y-60500000D03*
X108000000Y-84000000D03*
G04 #@! TO.N,+VDC*
X83500000Y-50000000D03*
X120000000Y-56000000D03*
X117000000Y-56000000D03*
X146150000Y-56100000D03*
X143850000Y-56100000D03*
X149000000Y-53000000D03*
X98500000Y-50500000D03*
X87000000Y-51000000D03*
X88000000Y-51000000D03*
X88000000Y-52000000D03*
X87000000Y-52000000D03*
X88000000Y-53000000D03*
X87000000Y-53000000D03*
X136000000Y-64000000D03*
X136000000Y-65000000D03*
X133000000Y-65000000D03*
X141000000Y-64000000D03*
X144000000Y-65000000D03*
X128000000Y-65000000D03*
X122000000Y-66000000D03*
X121000000Y-66000000D03*
X120000000Y-66000000D03*
X119000000Y-66000000D03*
X119500000Y-73125010D03*
X128000000Y-74000000D03*
X122500000Y-74500000D03*
X125750000Y-73750000D03*
X136000000Y-73000000D03*
X136000000Y-74000000D03*
X144000000Y-74000000D03*
X144000000Y-73000000D03*
X144000000Y-82000000D03*
X144000000Y-83000000D03*
X136000000Y-83000000D03*
X133000000Y-83000000D03*
X128000000Y-83000000D03*
X125000000Y-83000000D03*
X120000000Y-83000000D03*
X125000000Y-65000000D03*
X128000000Y-55000000D03*
X128000000Y-55937500D03*
X136250000Y-55250000D03*
X135511998Y-55500000D03*
X120000000Y-82000000D03*
X120250000Y-74750000D03*
G04 #@! TO.N,Sig10*
X87000000Y-71000000D03*
X99500000Y-67250000D03*
G04 #@! TO.N,Sig11*
X87750000Y-70000000D03*
X97100000Y-68500000D03*
G04 #@! TO.N,Sig12*
X101400000Y-73000000D03*
X89200000Y-71400000D03*
G04 #@! TO.N,Sig13*
X90300000Y-71400000D03*
X101500000Y-70900000D03*
G04 #@! TO.N,A5*
X84000000Y-75000000D03*
G04 #@! TO.N,A4*
X92478957Y-65478957D03*
G04 #@! TO.N,A3*
X92500000Y-61750000D03*
G04 #@! TO.N,A2*
X94100000Y-66000000D03*
G04 #@! TO.N,A1*
X95750000Y-60250000D03*
G04 #@! TO.N,A0*
X96750000Y-66000000D03*
G04 #@! TO.N,Sig1*
X106000000Y-57000000D03*
X108000000Y-57500000D03*
G04 #@! TO.N,VCC*
X87500000Y-79500000D03*
X88500000Y-79500000D03*
X89500000Y-79500000D03*
X86500000Y-82000000D03*
X87800000Y-61250000D03*
X89300000Y-59700000D03*
X91250000Y-56250000D03*
X92300000Y-56700000D03*
X87500000Y-82000000D03*
X88500000Y-82000000D03*
X89500000Y-82000000D03*
X86500000Y-79500000D03*
X91300000Y-57700000D03*
X90300000Y-58700000D03*
X90250000Y-56250000D03*
X89500000Y-57750000D03*
X88500000Y-57750000D03*
X96000000Y-77000000D03*
G04 #@! TO.N,GND*
X102000000Y-83750000D03*
D19*
X94500000Y-55750000D03*
X95200000Y-63900000D03*
D18*
G04 #@! TO.N,Net-(Q14-Pad1)*
X140750000Y-67500000D03*
X144000000Y-63050000D03*
G04 #@! TO.N,Net-(Q30-Pad1)*
X140750000Y-82250000D03*
X140750000Y-85500000D03*
G04 #@! TO.N,Net-(Q22-Pad1)*
X140500000Y-73500000D03*
X139500000Y-76500000D03*
G04 #@! TO.N,Net-(Q6-Pad1)*
X143450000Y-52850000D03*
X136900000Y-52300000D03*
G04 #@! TD*
D20*
G04 #@! TO.N,GND*
X80250000Y-56750000D02*
X80500000Y-57000000D01*
X80250000Y-54250000D02*
X80250000Y-56750000D01*
D21*
G04 #@! TO.N,+VDC*
X136111998Y-56100000D02*
X135511998Y-55500000D01*
X145584315Y-56100000D02*
X146150000Y-56100000D01*
X131511998Y-51500000D02*
X136111998Y-56100000D01*
X98000000Y-51500000D02*
X131511998Y-51500000D01*
X146150000Y-56100000D02*
X146150000Y-55850000D01*
X149000000Y-53250000D02*
X146150000Y-56100000D01*
X149000000Y-53000000D02*
X149000000Y-53250000D01*
X98000000Y-51500000D02*
X88000000Y-51500000D01*
X88000000Y-51500000D02*
X84500000Y-51500000D01*
X88000000Y-51500000D02*
X88000000Y-51500000D01*
X88000000Y-51500000D02*
X88000000Y-51500000D01*
X88000000Y-51500000D02*
X88000000Y-51500000D01*
X88000000Y-51500000D02*
X88000000Y-51500000D01*
X136111998Y-56100000D02*
X145584315Y-56100000D01*
X135511998Y-55500000D02*
X136111998Y-56100000D01*
D22*
X78934315Y-61500000D02*
X79500000Y-61500000D01*
X77114998Y-61500000D02*
X78934315Y-61500000D01*
D21*
X77600000Y-60585787D02*
X77600000Y-62000000D01*
X77149999Y-60135786D02*
X77600000Y-60585787D01*
X77149999Y-52761999D02*
X77149999Y-60135786D01*
X78761999Y-51149999D02*
X77149999Y-52761999D01*
X82988001Y-51149999D02*
X78761999Y-51149999D01*
X83838002Y-52000000D02*
X82988001Y-51149999D01*
X87000000Y-52000000D02*
X83838002Y-52000000D01*
D22*
G04 #@! TO.N,Sig11*
X95500000Y-70000000D02*
X97000000Y-68500000D01*
G04 #@! TO.N,Sig12*
X101500000Y-73000000D02*
X89684315Y-73000000D01*
X89250000Y-72565685D02*
X89250000Y-71750000D01*
X89684315Y-73000000D02*
X89250000Y-72565685D01*
G04 #@! TO.N,Sig13*
X101500000Y-71000000D02*
X97000000Y-71000000D01*
X97000000Y-71000000D02*
X96000000Y-72000000D01*
G04 #@! TO.N,A5*
X84000000Y-63280457D02*
X84079900Y-63200557D01*
X84000000Y-75000000D02*
X84000000Y-63280457D01*
G04 #@! TO.N,A4*
X91913272Y-65478957D02*
X92478957Y-65478957D01*
X90758300Y-65478957D02*
X91913272Y-65478957D01*
X89079900Y-63800557D02*
X90758300Y-65478957D01*
X89079900Y-63200557D02*
X89079900Y-63800557D01*
G04 #@! TO.N,A3*
X92750000Y-62718249D02*
X93232308Y-63200557D01*
X93232308Y-63200557D02*
X94079900Y-63200557D01*
X92750000Y-61750000D02*
X92750000Y-62718249D01*
G04 #@! TO.N,A1*
X102429343Y-60250000D02*
X104079900Y-61900557D01*
X95750000Y-60250000D02*
X102429343Y-60250000D01*
G04 #@! TO.N,A0*
X108670264Y-61900557D02*
X109079900Y-61900557D01*
X104570821Y-66000000D02*
X108670264Y-61900557D01*
X96750000Y-66000000D02*
X104570821Y-66000000D01*
G04 #@! TO.N,Sig1*
X106500000Y-57500000D02*
X106000000Y-57000000D01*
X108000000Y-57500000D02*
X106500000Y-57500000D01*
D23*
G04 #@! TO.N,VCC*
X89269543Y-61250000D02*
X89500000Y-61480457D01*
X88000000Y-61250000D02*
X89269543Y-61250000D01*
X87349443Y-61900557D02*
X88000000Y-61250000D01*
X84079900Y-61900557D02*
X87349443Y-61900557D01*
D20*
X88429343Y-61250000D02*
X89079900Y-61900557D01*
X88000000Y-61250000D02*
X88429343Y-61250000D01*
D23*
X91750000Y-56750000D02*
X91250000Y-56250000D01*
X92500000Y-56750000D02*
X91750000Y-56750000D01*
X92500000Y-56750000D02*
X89500000Y-59750000D01*
X89500000Y-59750000D02*
X88000000Y-61250000D01*
X89500000Y-59750000D02*
X89500000Y-61480457D01*
X91500000Y-57500000D02*
X90250000Y-56250000D01*
X91500000Y-57750000D02*
X91500000Y-57500000D01*
X90500000Y-58750000D02*
X89500000Y-57750000D01*
X90250000Y-58500000D02*
X90500000Y-58750000D01*
X90250000Y-56250000D02*
X90250000Y-58500000D01*
D22*
X103232308Y-63200557D02*
X104079900Y-63200557D01*
X84079900Y-61900557D02*
X89079900Y-61900557D01*
X103670264Y-63200557D02*
X104079900Y-63200557D01*
X102370264Y-61900557D02*
X103670264Y-63200557D01*
X99079900Y-61900557D02*
X102370264Y-61900557D01*
X110154910Y-62973139D02*
X109927492Y-63200557D01*
X109927492Y-63200557D02*
X109079900Y-63200557D01*
X110154910Y-61562229D02*
X110154910Y-62973139D01*
X109668228Y-61075547D02*
X110154910Y-61562229D01*
X108491572Y-61075547D02*
X109668228Y-61075547D01*
X106366562Y-63200557D02*
X108491572Y-61075547D01*
X104079900Y-63200557D02*
X106366562Y-63200557D01*
D23*
X83139934Y-61900557D02*
X79300001Y-65740490D01*
X79300001Y-65740490D02*
X79300001Y-71349999D01*
X84079900Y-61900557D02*
X83139934Y-61900557D01*
X89500000Y-57000000D02*
X90250000Y-56250000D01*
X89500000Y-57750000D02*
X89500000Y-57000000D01*
X89500000Y-61480457D02*
X89079900Y-61900557D01*
D24*
X86500000Y-79500000D02*
X86500000Y-82000000D01*
X87500000Y-82000000D02*
X87500000Y-79500000D01*
X88500000Y-79500000D02*
X88500000Y-82000000D01*
X89500000Y-82000000D02*
X89500000Y-79500000D01*
X89500000Y-79500000D02*
X86500000Y-79500000D01*
X86500000Y-82000000D02*
X89500000Y-82000000D01*
D22*
X94604674Y-61375783D02*
X94079900Y-61900557D01*
X95005456Y-60975001D02*
X94604674Y-61375783D01*
X98154344Y-60975001D02*
X95005456Y-60975001D01*
X99079900Y-61900557D02*
X98154344Y-60975001D01*
G04 #@! TO.N,Sig10*
X98250000Y-68250000D02*
X99250000Y-67250000D01*
X98250000Y-68565685D02*
X98250000Y-68250000D01*
X87565685Y-71000000D02*
X87000000Y-71000000D01*
X87823002Y-71000000D02*
X87565685Y-71000000D01*
X96365675Y-70450010D02*
X88372992Y-70450010D01*
X88372992Y-70450010D02*
X87823002Y-71000000D01*
X98250000Y-68565685D02*
X96365675Y-70450010D01*
G04 #@! TO.N,Sig11*
X88000000Y-70000000D02*
X88250000Y-70000000D01*
X87750000Y-70000000D02*
X88250000Y-70000000D01*
X88250000Y-70000000D02*
X95500000Y-70000000D01*
G04 #@! TO.N,Sig12*
X89100000Y-71600000D02*
X89250000Y-71750000D01*
X89100000Y-71400000D02*
X89100000Y-71600000D01*
G04 #@! TO.N,Sig13*
X90334315Y-72000000D02*
X96000000Y-72000000D01*
X90300000Y-71965685D02*
X90334315Y-72000000D01*
X90300000Y-71400000D02*
X90300000Y-71965685D01*
G04 #@! TO.N,A2*
X97163033Y-63200557D02*
X98232308Y-63200557D01*
X94763589Y-65600001D02*
X97163033Y-63200557D01*
X98232308Y-63200557D02*
X99079900Y-63200557D01*
X94399999Y-65600001D02*
X94763589Y-65600001D01*
X94000000Y-66000000D02*
X94399999Y-65600001D01*
G04 #@! TO.N,VCC*
X89604674Y-61375783D02*
X89079900Y-61900557D01*
X91205458Y-59774999D02*
X89604674Y-61375783D01*
X93098001Y-59774999D02*
X91205458Y-59774999D01*
X94079900Y-60756898D02*
X93098001Y-59774999D01*
X94079900Y-61600000D02*
X94079900Y-60756898D01*
D23*
X80500000Y-72250000D02*
X80500000Y-74100000D01*
X79599999Y-71349999D02*
X80500000Y-72250000D01*
X79300001Y-71349999D02*
X79599999Y-71349999D01*
D22*
G04 #@! TO.N,Net-(Q14-Pad1)*
X140750000Y-66300000D02*
X144000000Y-63050000D01*
X140750000Y-67500000D02*
X140750000Y-66300000D01*
G04 #@! TO.N,Net-(Q30-Pad1)*
X140750000Y-82250000D02*
X140750000Y-85500000D01*
G04 #@! TO.N,Net-(Q22-Pad1)*
X139500000Y-76500000D02*
X140500000Y-75500000D01*
X140500000Y-75500000D02*
X140500000Y-73500000D01*
G04 #@! TO.N,Net-(Q6-Pad1)*
X137450000Y-52850000D02*
X136900000Y-52300000D01*
X143450000Y-52850000D02*
X137450000Y-52850000D01*
G04 #@! TD*
D25*
G04 #@! TO.N,GND*
G36*
X82614786Y-54953105D02*
X83529233Y-55135000D01*
X83529234Y-55135000D01*
X83838002Y-55196418D01*
X84146770Y-55135000D01*
X87308769Y-55135000D01*
X88223216Y-54953105D01*
X88699294Y-54635000D01*
X117623000Y-54635000D01*
X117623000Y-55159289D01*
X117586280Y-55122569D01*
X117205874Y-54965000D01*
X116794126Y-54965000D01*
X116413720Y-55122569D01*
X116122569Y-55413720D01*
X115965000Y-55794126D01*
X115965000Y-56205874D01*
X116122569Y-56586280D01*
X116413720Y-56877431D01*
X116794126Y-57035000D01*
X117205874Y-57035000D01*
X117586280Y-56877431D01*
X117623000Y-56840711D01*
X117623000Y-89290000D01*
X74710000Y-89290000D01*
X74710000Y-82924778D01*
X75965000Y-82924778D01*
X75965000Y-83575222D01*
X76213914Y-84176153D01*
X76673847Y-84636086D01*
X77274778Y-84885000D01*
X77925222Y-84885000D01*
X78526153Y-84636086D01*
X78986086Y-84176153D01*
X79235000Y-83575222D01*
X79235000Y-82924778D01*
X78986086Y-82323847D01*
X78526153Y-81863914D01*
X77925222Y-81615000D01*
X77274778Y-81615000D01*
X76673847Y-81863914D01*
X76213914Y-82323847D01*
X75965000Y-82924778D01*
X74710000Y-82924778D01*
X74710000Y-79424778D01*
X75965000Y-79424778D01*
X75965000Y-80075222D01*
X76213914Y-80676153D01*
X76673847Y-81136086D01*
X77274778Y-81385000D01*
X77925222Y-81385000D01*
X78526153Y-81136086D01*
X78986086Y-80676153D01*
X79235000Y-80075222D01*
X79235000Y-79500000D01*
X85087867Y-79500000D01*
X85115000Y-79636408D01*
X85115001Y-81863588D01*
X85087867Y-82000000D01*
X85195359Y-82540400D01*
X85501471Y-82998529D01*
X85959600Y-83304641D01*
X86363593Y-83385000D01*
X86500000Y-83412133D01*
X86636407Y-83385000D01*
X87363593Y-83385000D01*
X87500000Y-83412133D01*
X87636407Y-83385000D01*
X88363593Y-83385000D01*
X88500000Y-83412133D01*
X88636407Y-83385000D01*
X89363593Y-83385000D01*
X89500000Y-83412133D01*
X89636407Y-83385000D01*
X90040400Y-83304641D01*
X90498529Y-82998529D01*
X90804641Y-82540400D01*
X90912133Y-82000000D01*
X90885000Y-81863593D01*
X90885000Y-79636407D01*
X90912133Y-79500000D01*
X90804641Y-78959600D01*
X90498529Y-78501471D01*
X90040400Y-78195359D01*
X89636407Y-78115000D01*
X89500000Y-78087867D01*
X89363593Y-78115000D01*
X88636407Y-78115000D01*
X88500000Y-78087867D01*
X88363593Y-78115000D01*
X87636407Y-78115000D01*
X87500000Y-78087867D01*
X87363593Y-78115000D01*
X86636407Y-78115000D01*
X86500000Y-78087867D01*
X86363593Y-78115000D01*
X85959600Y-78195359D01*
X85501471Y-78501471D01*
X85195359Y-78959600D01*
X85087867Y-79500000D01*
X79235000Y-79500000D01*
X79235000Y-79424778D01*
X78986086Y-78823847D01*
X78526153Y-78363914D01*
X77925222Y-78115000D01*
X77274778Y-78115000D01*
X76673847Y-78363914D01*
X76213914Y-78823847D01*
X75965000Y-79424778D01*
X74710000Y-79424778D01*
X74710000Y-76794126D01*
X94965000Y-76794126D01*
X94965000Y-77205874D01*
X95122569Y-77586280D01*
X95413720Y-77877431D01*
X95794126Y-78035000D01*
X96205874Y-78035000D01*
X96586280Y-77877431D01*
X96877431Y-77586280D01*
X97035000Y-77205874D01*
X97035000Y-76794126D01*
X96877431Y-76413720D01*
X96586280Y-76122569D01*
X96205874Y-75965000D01*
X95794126Y-75965000D01*
X95413720Y-76122569D01*
X95122569Y-76413720D01*
X94965000Y-76794126D01*
X74710000Y-76794126D01*
X74710000Y-74573992D01*
X76552658Y-74573992D01*
X76841174Y-75076478D01*
X77300022Y-75430304D01*
X77486011Y-75507323D01*
X77712000Y-75402857D01*
X77712000Y-74348000D01*
X76654586Y-74348000D01*
X76552658Y-74573992D01*
X74710000Y-74573992D01*
X74710000Y-73626008D01*
X76552658Y-73626008D01*
X76654586Y-73852000D01*
X77712000Y-73852000D01*
X77712000Y-72797143D01*
X77486011Y-72692677D01*
X77300022Y-72769696D01*
X76841174Y-73123522D01*
X76552658Y-73626008D01*
X74710000Y-73626008D01*
X74710000Y-67106317D01*
X75939171Y-67106317D01*
X76010609Y-67752826D01*
X76120579Y-68018317D01*
X76372637Y-68126638D01*
X77249275Y-67250000D01*
X76372637Y-66373362D01*
X76120579Y-66481683D01*
X75939171Y-67106317D01*
X74710000Y-67106317D01*
X74710000Y-63317659D01*
X75339791Y-64260209D01*
X76376785Y-64953105D01*
X76519193Y-64981432D01*
X76673847Y-65136086D01*
X77274778Y-65385000D01*
X77925222Y-65385000D01*
X78267102Y-65243388D01*
X78230855Y-65297636D01*
X78149426Y-65707008D01*
X77743683Y-65589171D01*
X77097174Y-65660609D01*
X76831683Y-65770579D01*
X76723362Y-66022637D01*
X77600000Y-66899275D01*
X77614143Y-66885133D01*
X77964868Y-67235858D01*
X77950725Y-67250000D01*
X77964868Y-67264143D01*
X77614143Y-67614868D01*
X77600000Y-67600725D01*
X76723362Y-68477363D01*
X76831683Y-68729421D01*
X77456317Y-68910829D01*
X78102826Y-68839391D01*
X78165002Y-68813637D01*
X78165002Y-71238211D01*
X78142766Y-71349999D01*
X78230855Y-71792854D01*
X78481712Y-72168288D01*
X78857146Y-72419145D01*
X79115379Y-72470511D01*
X79338978Y-72694110D01*
X79192191Y-72792191D01*
X79051843Y-73002235D01*
X79034514Y-73089353D01*
X78619978Y-72769696D01*
X78433989Y-72692677D01*
X78208000Y-72797143D01*
X78208000Y-73852000D01*
X78228000Y-73852000D01*
X78228000Y-74348000D01*
X78208000Y-74348000D01*
X78208000Y-75402857D01*
X78433989Y-75507323D01*
X78619978Y-75430304D01*
X79034514Y-75110647D01*
X79051843Y-75197765D01*
X79192191Y-75407809D01*
X79402235Y-75548157D01*
X79650000Y-75597440D01*
X81350000Y-75597440D01*
X81597765Y-75548157D01*
X81807809Y-75407809D01*
X81948157Y-75197765D01*
X81997440Y-74950000D01*
X81997440Y-73250000D01*
X81948157Y-73002235D01*
X81807809Y-72792191D01*
X81635000Y-72676723D01*
X81635000Y-72361783D01*
X81657235Y-72250000D01*
X81569146Y-71807145D01*
X81549292Y-71777431D01*
X81318289Y-71431711D01*
X81223521Y-71368389D01*
X80481612Y-70626480D01*
X80435001Y-70556723D01*
X80435001Y-66210621D01*
X82850284Y-63795339D01*
X82850613Y-63795954D01*
X82905069Y-63877453D01*
X82985586Y-63975563D01*
X83054894Y-64044871D01*
X83153004Y-64125388D01*
X83234503Y-64179844D01*
X83240001Y-64182783D01*
X83240000Y-74296289D01*
X83122569Y-74413720D01*
X82965000Y-74794126D01*
X82965000Y-75205874D01*
X83122569Y-75586280D01*
X83413720Y-75877431D01*
X83794126Y-76035000D01*
X84205874Y-76035000D01*
X84586280Y-75877431D01*
X84877431Y-75586280D01*
X85035000Y-75205874D01*
X85035000Y-74794126D01*
X84877431Y-74413720D01*
X84760000Y-74296289D01*
X84760000Y-64261778D01*
X84813360Y-64239676D01*
X84925297Y-64179844D01*
X85006796Y-64125388D01*
X85104906Y-64044871D01*
X85174214Y-63975563D01*
X85254731Y-63877453D01*
X85309187Y-63795954D01*
X85369019Y-63684017D01*
X85406528Y-63593461D01*
X85443370Y-63472008D01*
X85462492Y-63375875D01*
X85474932Y-63249566D01*
X85474932Y-63212663D01*
X85477340Y-63200557D01*
X85477340Y-63035557D01*
X87237660Y-63035557D01*
X87349443Y-63057792D01*
X87461226Y-63035557D01*
X87682460Y-62991551D01*
X87682460Y-63200557D01*
X87684868Y-63212663D01*
X87684868Y-63249566D01*
X87697308Y-63375875D01*
X87716430Y-63472008D01*
X87753272Y-63593461D01*
X87790781Y-63684017D01*
X87850613Y-63795954D01*
X87905069Y-63877453D01*
X87985586Y-63975563D01*
X88054894Y-64044871D01*
X88153004Y-64125388D01*
X88234503Y-64179844D01*
X88346440Y-64239676D01*
X88436996Y-64277185D01*
X88496363Y-64295194D01*
X88531972Y-64348486D01*
X88595428Y-64390886D01*
X90167971Y-65963430D01*
X90210371Y-66026886D01*
X90461763Y-66194861D01*
X90683448Y-66238957D01*
X90683452Y-66238957D01*
X90758299Y-66253845D01*
X90833146Y-66238957D01*
X91775246Y-66238957D01*
X91892677Y-66356388D01*
X92273083Y-66513957D01*
X92684831Y-66513957D01*
X93065237Y-66356388D01*
X93109154Y-66312471D01*
X93222569Y-66586280D01*
X93513720Y-66877431D01*
X93894126Y-67035000D01*
X94305874Y-67035000D01*
X94686280Y-66877431D01*
X94977431Y-66586280D01*
X95100636Y-66288837D01*
X95311518Y-66147930D01*
X95353920Y-66084471D01*
X95765017Y-65673374D01*
X95715000Y-65794126D01*
X95715000Y-66205874D01*
X95872569Y-66586280D01*
X96163720Y-66877431D01*
X96544126Y-67035000D01*
X96955874Y-67035000D01*
X97336280Y-66877431D01*
X97453711Y-66760000D01*
X98582689Y-66760000D01*
X98524346Y-66900853D01*
X97765529Y-67659670D01*
X97740263Y-67676552D01*
X97686280Y-67622569D01*
X97305874Y-67465000D01*
X96894126Y-67465000D01*
X96513720Y-67622569D01*
X96222569Y-67913720D01*
X96065000Y-68294126D01*
X96065000Y-68360198D01*
X95185199Y-69240000D01*
X88453711Y-69240000D01*
X88336280Y-69122569D01*
X87955874Y-68965000D01*
X87544126Y-68965000D01*
X87163720Y-69122569D01*
X86872569Y-69413720D01*
X86715000Y-69794126D01*
X86715000Y-69997775D01*
X86413720Y-70122569D01*
X86122569Y-70413720D01*
X85965000Y-70794126D01*
X85965000Y-71205874D01*
X86122569Y-71586280D01*
X86413720Y-71877431D01*
X86794126Y-72035000D01*
X87205874Y-72035000D01*
X87586280Y-71877431D01*
X87703711Y-71760000D01*
X87748155Y-71760000D01*
X87823002Y-71774888D01*
X87897849Y-71760000D01*
X87897854Y-71760000D01*
X88119539Y-71715904D01*
X88190842Y-71668261D01*
X88322569Y-71986280D01*
X88490000Y-72153711D01*
X88490000Y-72490838D01*
X88475112Y-72565685D01*
X88490000Y-72640532D01*
X88490000Y-72640536D01*
X88534096Y-72862221D01*
X88702071Y-73113614D01*
X88765530Y-73156016D01*
X89093984Y-73484470D01*
X89136386Y-73547929D01*
X89387778Y-73715904D01*
X89609463Y-73760000D01*
X89609467Y-73760000D01*
X89684314Y-73774888D01*
X89759161Y-73760000D01*
X100696289Y-73760000D01*
X100813720Y-73877431D01*
X101194126Y-74035000D01*
X101605874Y-74035000D01*
X101986280Y-73877431D01*
X102277431Y-73586280D01*
X102435000Y-73205874D01*
X102435000Y-72794126D01*
X102277431Y-72413720D01*
X101986280Y-72122569D01*
X101605874Y-71965000D01*
X101194126Y-71965000D01*
X100813720Y-72122569D01*
X100696289Y-72240000D01*
X96834801Y-72240000D01*
X97314802Y-71760000D01*
X100896289Y-71760000D01*
X100913720Y-71777431D01*
X101294126Y-71935000D01*
X101705874Y-71935000D01*
X102086280Y-71777431D01*
X102377431Y-71486280D01*
X102535000Y-71105874D01*
X102535000Y-70694126D01*
X102377431Y-70313720D01*
X102086280Y-70022569D01*
X101705874Y-69865000D01*
X101294126Y-69865000D01*
X100913720Y-70022569D01*
X100696289Y-70240000D01*
X97650486Y-70240000D01*
X98734473Y-69156014D01*
X98797929Y-69113614D01*
X98965904Y-68862222D01*
X99010000Y-68640537D01*
X99010000Y-68640532D01*
X99024888Y-68565685D01*
X99022271Y-68552530D01*
X99291068Y-68283733D01*
X99294126Y-68285000D01*
X99705874Y-68285000D01*
X100086280Y-68127431D01*
X100377431Y-67836280D01*
X100535000Y-67455874D01*
X100535000Y-67044126D01*
X100417311Y-66760000D01*
X104495974Y-66760000D01*
X104570821Y-66774888D01*
X104645668Y-66760000D01*
X104645673Y-66760000D01*
X104867358Y-66715904D01*
X105118750Y-66547929D01*
X105161152Y-66484470D01*
X107850284Y-63795339D01*
X107850613Y-63795954D01*
X107905069Y-63877453D01*
X107985586Y-63975563D01*
X108054894Y-64044871D01*
X108153004Y-64125388D01*
X108234503Y-64179844D01*
X108346440Y-64239676D01*
X108436996Y-64277185D01*
X108558449Y-64314027D01*
X108654582Y-64333149D01*
X108780891Y-64345589D01*
X108817794Y-64345589D01*
X108829900Y-64347997D01*
X109329900Y-64347997D01*
X109342006Y-64345589D01*
X109378909Y-64345589D01*
X109505218Y-64333149D01*
X109601351Y-64314027D01*
X109722804Y-64277185D01*
X109813360Y-64239676D01*
X109925297Y-64179844D01*
X110006796Y-64125388D01*
X110104906Y-64044871D01*
X110174214Y-63975563D01*
X110222462Y-63916773D01*
X110224029Y-63916461D01*
X110475421Y-63748486D01*
X110517823Y-63685027D01*
X110639380Y-63563470D01*
X110702839Y-63521068D01*
X110870814Y-63269676D01*
X110914910Y-63047991D01*
X110914910Y-63047987D01*
X110929798Y-62973139D01*
X110914910Y-62898291D01*
X110914910Y-61637075D01*
X110929798Y-61562228D01*
X110914910Y-61487381D01*
X110914910Y-61487377D01*
X110870814Y-61265692D01*
X110702839Y-61014300D01*
X110639383Y-60971900D01*
X110258559Y-60591076D01*
X110216157Y-60527618D01*
X109964765Y-60359643D01*
X109743080Y-60315547D01*
X109743075Y-60315547D01*
X109668228Y-60300659D01*
X109593381Y-60315547D01*
X108566419Y-60315547D01*
X108491572Y-60300659D01*
X108416725Y-60315547D01*
X108416720Y-60315547D01*
X108195035Y-60359643D01*
X107943643Y-60527618D01*
X107901243Y-60591074D01*
X106051761Y-62440557D01*
X105469384Y-62440557D01*
X105477340Y-62400557D01*
X105477340Y-61900557D01*
X105474932Y-61888451D01*
X105474932Y-61851548D01*
X105462492Y-61725239D01*
X105443370Y-61629106D01*
X105406528Y-61507653D01*
X105369019Y-61417097D01*
X105309187Y-61305160D01*
X105254731Y-61223661D01*
X105174214Y-61125551D01*
X105104906Y-61056243D01*
X105006796Y-60975726D01*
X104925297Y-60921270D01*
X104813360Y-60861438D01*
X104722804Y-60823929D01*
X104601351Y-60787087D01*
X104505218Y-60767965D01*
X104378909Y-60755525D01*
X104342006Y-60755525D01*
X104329900Y-60753117D01*
X104007262Y-60753117D01*
X103019674Y-59765530D01*
X102977272Y-59702071D01*
X102725880Y-59534096D01*
X102504195Y-59490000D01*
X102504190Y-59490000D01*
X102429343Y-59475112D01*
X102354496Y-59490000D01*
X96453711Y-59490000D01*
X96336280Y-59372569D01*
X95955874Y-59215000D01*
X95544126Y-59215000D01*
X95163720Y-59372569D01*
X94872569Y-59663720D01*
X94715000Y-60044126D01*
X94715000Y-60257887D01*
X94708919Y-60259097D01*
X94676014Y-60281083D01*
X94627829Y-60208969D01*
X94564373Y-60166569D01*
X93688332Y-59290529D01*
X93645930Y-59227070D01*
X93394538Y-59059095D01*
X93172853Y-59014999D01*
X93172848Y-59014999D01*
X93098001Y-59000111D01*
X93023154Y-59014999D01*
X91840133Y-59014999D01*
X92223521Y-58631611D01*
X92318289Y-58568289D01*
X92381612Y-58473520D01*
X93223521Y-57631611D01*
X93318289Y-57568289D01*
X93569146Y-57192855D01*
X93648457Y-56794126D01*
X104965000Y-56794126D01*
X104965000Y-57205874D01*
X105122569Y-57586280D01*
X105413720Y-57877431D01*
X105794126Y-58035000D01*
X105943432Y-58035000D01*
X105952071Y-58047929D01*
X106015527Y-58090329D01*
X106203462Y-58215904D01*
X106251605Y-58225480D01*
X106425148Y-58260000D01*
X106425152Y-58260000D01*
X106500000Y-58274888D01*
X106574848Y-58260000D01*
X107296289Y-58260000D01*
X107413720Y-58377431D01*
X107794126Y-58535000D01*
X108205874Y-58535000D01*
X108586280Y-58377431D01*
X108877431Y-58086280D01*
X109035000Y-57705874D01*
X109035000Y-57294126D01*
X108877431Y-56913720D01*
X108586280Y-56622569D01*
X108205874Y-56465000D01*
X107794126Y-56465000D01*
X107413720Y-56622569D01*
X107296289Y-56740000D01*
X107012580Y-56740000D01*
X106877431Y-56413720D01*
X106586280Y-56122569D01*
X106205874Y-55965000D01*
X105794126Y-55965000D01*
X105413720Y-56122569D01*
X105122569Y-56413720D01*
X104965000Y-56794126D01*
X93648457Y-56794126D01*
X93657235Y-56750000D01*
X93569146Y-56307145D01*
X93318289Y-55931711D01*
X92942855Y-55680854D01*
X92611783Y-55615000D01*
X92500000Y-55592765D01*
X92388217Y-55615000D01*
X92220131Y-55615000D01*
X91973523Y-55368392D01*
X91692854Y-55180854D01*
X91250000Y-55092765D01*
X90807146Y-55180854D01*
X90750000Y-55219038D01*
X90692854Y-55180854D01*
X90250000Y-55092765D01*
X90249999Y-55092765D01*
X89807145Y-55180854D01*
X89431711Y-55431711D01*
X89368389Y-55526479D01*
X88776479Y-56118389D01*
X88681712Y-56181711D01*
X88430854Y-56557145D01*
X88403860Y-56692854D01*
X88399455Y-56715000D01*
X88294126Y-56715000D01*
X87913720Y-56872569D01*
X87672481Y-57113808D01*
X87557809Y-56942191D01*
X87347765Y-56801843D01*
X87100000Y-56752560D01*
X85900000Y-56752560D01*
X85652235Y-56801843D01*
X85442191Y-56942191D01*
X85301843Y-57152235D01*
X85252560Y-57400000D01*
X85252560Y-58600000D01*
X85301843Y-58847765D01*
X85382006Y-58967737D01*
X85355472Y-58974997D01*
X85241684Y-59452952D01*
X85319463Y-59938070D01*
X85355472Y-60025003D01*
X85566523Y-60082752D01*
X86149275Y-59500000D01*
X86135133Y-59485858D01*
X86373550Y-59247440D01*
X86626450Y-59247440D01*
X86864868Y-59485858D01*
X86850725Y-59500000D01*
X86864868Y-59514143D01*
X86514143Y-59864868D01*
X86500000Y-59850725D01*
X85917248Y-60433477D01*
X85974997Y-60644528D01*
X86452952Y-60758316D01*
X86914005Y-60684395D01*
X86881147Y-60763721D01*
X86879311Y-60765557D01*
X84480768Y-60765557D01*
X84378909Y-60755525D01*
X84342006Y-60755525D01*
X84329900Y-60753117D01*
X83829900Y-60753117D01*
X83817794Y-60755525D01*
X83780891Y-60755525D01*
X83679032Y-60765557D01*
X83251715Y-60765557D01*
X83139933Y-60743322D01*
X83028151Y-60765557D01*
X82697079Y-60831411D01*
X82321645Y-61082268D01*
X82258323Y-61177036D01*
X80637767Y-62797593D01*
X80735000Y-62308768D01*
X80735000Y-60894556D01*
X80796418Y-60585787D01*
X80706907Y-60135786D01*
X80553105Y-59362571D01*
X80284999Y-58961322D01*
X80284999Y-58218331D01*
X80452952Y-58258316D01*
X80938070Y-58180537D01*
X81025003Y-58144528D01*
X81032263Y-58117994D01*
X81152235Y-58198157D01*
X81400000Y-58247440D01*
X82600000Y-58247440D01*
X82847765Y-58198157D01*
X83057809Y-58057809D01*
X83198157Y-57847765D01*
X83247440Y-57600000D01*
X83247440Y-56400000D01*
X83198157Y-56152235D01*
X83057809Y-55942191D01*
X82847765Y-55801843D01*
X82600000Y-55752560D01*
X81400000Y-55752560D01*
X81152235Y-55801843D01*
X81032263Y-55882006D01*
X81025003Y-55855472D01*
X80547048Y-55741684D01*
X80284999Y-55783698D01*
X80284999Y-54284999D01*
X81614894Y-54284999D01*
X82614786Y-54953105D01*
X82614786Y-54953105D01*
G37*
X82614786Y-54953105D02*
X83529233Y-55135000D01*
X83529234Y-55135000D01*
X83838002Y-55196418D01*
X84146770Y-55135000D01*
X87308769Y-55135000D01*
X88223216Y-54953105D01*
X88699294Y-54635000D01*
X117623000Y-54635000D01*
X117623000Y-55159289D01*
X117586280Y-55122569D01*
X117205874Y-54965000D01*
X116794126Y-54965000D01*
X116413720Y-55122569D01*
X116122569Y-55413720D01*
X115965000Y-55794126D01*
X115965000Y-56205874D01*
X116122569Y-56586280D01*
X116413720Y-56877431D01*
X116794126Y-57035000D01*
X117205874Y-57035000D01*
X117586280Y-56877431D01*
X117623000Y-56840711D01*
X117623000Y-89290000D01*
X74710000Y-89290000D01*
X74710000Y-82924778D01*
X75965000Y-82924778D01*
X75965000Y-83575222D01*
X76213914Y-84176153D01*
X76673847Y-84636086D01*
X77274778Y-84885000D01*
X77925222Y-84885000D01*
X78526153Y-84636086D01*
X78986086Y-84176153D01*
X79235000Y-83575222D01*
X79235000Y-82924778D01*
X78986086Y-82323847D01*
X78526153Y-81863914D01*
X77925222Y-81615000D01*
X77274778Y-81615000D01*
X76673847Y-81863914D01*
X76213914Y-82323847D01*
X75965000Y-82924778D01*
X74710000Y-82924778D01*
X74710000Y-79424778D01*
X75965000Y-79424778D01*
X75965000Y-80075222D01*
X76213914Y-80676153D01*
X76673847Y-81136086D01*
X77274778Y-81385000D01*
X77925222Y-81385000D01*
X78526153Y-81136086D01*
X78986086Y-80676153D01*
X79235000Y-80075222D01*
X79235000Y-79500000D01*
X85087867Y-79500000D01*
X85115000Y-79636408D01*
X85115001Y-81863588D01*
X85087867Y-82000000D01*
X85195359Y-82540400D01*
X85501471Y-82998529D01*
X85959600Y-83304641D01*
X86363593Y-83385000D01*
X86500000Y-83412133D01*
X86636407Y-83385000D01*
X87363593Y-83385000D01*
X87500000Y-83412133D01*
X87636407Y-83385000D01*
X88363593Y-83385000D01*
X88500000Y-83412133D01*
X88636407Y-83385000D01*
X89363593Y-83385000D01*
X89500000Y-83412133D01*
X89636407Y-83385000D01*
X90040400Y-83304641D01*
X90498529Y-82998529D01*
X90804641Y-82540400D01*
X90912133Y-82000000D01*
X90885000Y-81863593D01*
X90885000Y-79636407D01*
X90912133Y-79500000D01*
X90804641Y-78959600D01*
X90498529Y-78501471D01*
X90040400Y-78195359D01*
X89636407Y-78115000D01*
X89500000Y-78087867D01*
X89363593Y-78115000D01*
X88636407Y-78115000D01*
X88500000Y-78087867D01*
X88363593Y-78115000D01*
X87636407Y-78115000D01*
X87500000Y-78087867D01*
X87363593Y-78115000D01*
X86636407Y-78115000D01*
X86500000Y-78087867D01*
X86363593Y-78115000D01*
X85959600Y-78195359D01*
X85501471Y-78501471D01*
X85195359Y-78959600D01*
X85087867Y-79500000D01*
X79235000Y-79500000D01*
X79235000Y-79424778D01*
X78986086Y-78823847D01*
X78526153Y-78363914D01*
X77925222Y-78115000D01*
X77274778Y-78115000D01*
X76673847Y-78363914D01*
X76213914Y-78823847D01*
X75965000Y-79424778D01*
X74710000Y-79424778D01*
X74710000Y-76794126D01*
X94965000Y-76794126D01*
X94965000Y-77205874D01*
X95122569Y-77586280D01*
X95413720Y-77877431D01*
X95794126Y-78035000D01*
X96205874Y-78035000D01*
X96586280Y-77877431D01*
X96877431Y-77586280D01*
X97035000Y-77205874D01*
X97035000Y-76794126D01*
X96877431Y-76413720D01*
X96586280Y-76122569D01*
X96205874Y-75965000D01*
X95794126Y-75965000D01*
X95413720Y-76122569D01*
X95122569Y-76413720D01*
X94965000Y-76794126D01*
X74710000Y-76794126D01*
X74710000Y-74573992D01*
X76552658Y-74573992D01*
X76841174Y-75076478D01*
X77300022Y-75430304D01*
X77486011Y-75507323D01*
X77712000Y-75402857D01*
X77712000Y-74348000D01*
X76654586Y-74348000D01*
X76552658Y-74573992D01*
X74710000Y-74573992D01*
X74710000Y-73626008D01*
X76552658Y-73626008D01*
X76654586Y-73852000D01*
X77712000Y-73852000D01*
X77712000Y-72797143D01*
X77486011Y-72692677D01*
X77300022Y-72769696D01*
X76841174Y-73123522D01*
X76552658Y-73626008D01*
X74710000Y-73626008D01*
X74710000Y-67106317D01*
X75939171Y-67106317D01*
X76010609Y-67752826D01*
X76120579Y-68018317D01*
X76372637Y-68126638D01*
X77249275Y-67250000D01*
X76372637Y-66373362D01*
X76120579Y-66481683D01*
X75939171Y-67106317D01*
X74710000Y-67106317D01*
X74710000Y-63317659D01*
X75339791Y-64260209D01*
X76376785Y-64953105D01*
X76519193Y-64981432D01*
X76673847Y-65136086D01*
X77274778Y-65385000D01*
X77925222Y-65385000D01*
X78267102Y-65243388D01*
X78230855Y-65297636D01*
X78149426Y-65707008D01*
X77743683Y-65589171D01*
X77097174Y-65660609D01*
X76831683Y-65770579D01*
X76723362Y-66022637D01*
X77600000Y-66899275D01*
X77614143Y-66885133D01*
X77964868Y-67235858D01*
X77950725Y-67250000D01*
X77964868Y-67264143D01*
X77614143Y-67614868D01*
X77600000Y-67600725D01*
X76723362Y-68477363D01*
X76831683Y-68729421D01*
X77456317Y-68910829D01*
X78102826Y-68839391D01*
X78165002Y-68813637D01*
X78165002Y-71238211D01*
X78142766Y-71349999D01*
X78230855Y-71792854D01*
X78481712Y-72168288D01*
X78857146Y-72419145D01*
X79115379Y-72470511D01*
X79338978Y-72694110D01*
X79192191Y-72792191D01*
X79051843Y-73002235D01*
X79034514Y-73089353D01*
X78619978Y-72769696D01*
X78433989Y-72692677D01*
X78208000Y-72797143D01*
X78208000Y-73852000D01*
X78228000Y-73852000D01*
X78228000Y-74348000D01*
X78208000Y-74348000D01*
X78208000Y-75402857D01*
X78433989Y-75507323D01*
X78619978Y-75430304D01*
X79034514Y-75110647D01*
X79051843Y-75197765D01*
X79192191Y-75407809D01*
X79402235Y-75548157D01*
X79650000Y-75597440D01*
X81350000Y-75597440D01*
X81597765Y-75548157D01*
X81807809Y-75407809D01*
X81948157Y-75197765D01*
X81997440Y-74950000D01*
X81997440Y-73250000D01*
X81948157Y-73002235D01*
X81807809Y-72792191D01*
X81635000Y-72676723D01*
X81635000Y-72361783D01*
X81657235Y-72250000D01*
X81569146Y-71807145D01*
X81549292Y-71777431D01*
X81318289Y-71431711D01*
X81223521Y-71368389D01*
X80481612Y-70626480D01*
X80435001Y-70556723D01*
X80435001Y-66210621D01*
X82850284Y-63795339D01*
X82850613Y-63795954D01*
X82905069Y-63877453D01*
X82985586Y-63975563D01*
X83054894Y-64044871D01*
X83153004Y-64125388D01*
X83234503Y-64179844D01*
X83240001Y-64182783D01*
X83240000Y-74296289D01*
X83122569Y-74413720D01*
X82965000Y-74794126D01*
X82965000Y-75205874D01*
X83122569Y-75586280D01*
X83413720Y-75877431D01*
X83794126Y-76035000D01*
X84205874Y-76035000D01*
X84586280Y-75877431D01*
X84877431Y-75586280D01*
X85035000Y-75205874D01*
X85035000Y-74794126D01*
X84877431Y-74413720D01*
X84760000Y-74296289D01*
X84760000Y-64261778D01*
X84813360Y-64239676D01*
X84925297Y-64179844D01*
X85006796Y-64125388D01*
X85104906Y-64044871D01*
X85174214Y-63975563D01*
X85254731Y-63877453D01*
X85309187Y-63795954D01*
X85369019Y-63684017D01*
X85406528Y-63593461D01*
X85443370Y-63472008D01*
X85462492Y-63375875D01*
X85474932Y-63249566D01*
X85474932Y-63212663D01*
X85477340Y-63200557D01*
X85477340Y-63035557D01*
X87237660Y-63035557D01*
X87349443Y-63057792D01*
X87461226Y-63035557D01*
X87682460Y-62991551D01*
X87682460Y-63200557D01*
X87684868Y-63212663D01*
X87684868Y-63249566D01*
X87697308Y-63375875D01*
X87716430Y-63472008D01*
X87753272Y-63593461D01*
X87790781Y-63684017D01*
X87850613Y-63795954D01*
X87905069Y-63877453D01*
X87985586Y-63975563D01*
X88054894Y-64044871D01*
X88153004Y-64125388D01*
X88234503Y-64179844D01*
X88346440Y-64239676D01*
X88436996Y-64277185D01*
X88496363Y-64295194D01*
X88531972Y-64348486D01*
X88595428Y-64390886D01*
X90167971Y-65963430D01*
X90210371Y-66026886D01*
X90461763Y-66194861D01*
X90683448Y-66238957D01*
X90683452Y-66238957D01*
X90758299Y-66253845D01*
X90833146Y-66238957D01*
X91775246Y-66238957D01*
X91892677Y-66356388D01*
X92273083Y-66513957D01*
X92684831Y-66513957D01*
X93065237Y-66356388D01*
X93109154Y-66312471D01*
X93222569Y-66586280D01*
X93513720Y-66877431D01*
X93894126Y-67035000D01*
X94305874Y-67035000D01*
X94686280Y-66877431D01*
X94977431Y-66586280D01*
X95100636Y-66288837D01*
X95311518Y-66147930D01*
X95353920Y-66084471D01*
X95765017Y-65673374D01*
X95715000Y-65794126D01*
X95715000Y-66205874D01*
X95872569Y-66586280D01*
X96163720Y-66877431D01*
X96544126Y-67035000D01*
X96955874Y-67035000D01*
X97336280Y-66877431D01*
X97453711Y-66760000D01*
X98582689Y-66760000D01*
X98524346Y-66900853D01*
X97765529Y-67659670D01*
X97740263Y-67676552D01*
X97686280Y-67622569D01*
X97305874Y-67465000D01*
X96894126Y-67465000D01*
X96513720Y-67622569D01*
X96222569Y-67913720D01*
X96065000Y-68294126D01*
X96065000Y-68360198D01*
X95185199Y-69240000D01*
X88453711Y-69240000D01*
X88336280Y-69122569D01*
X87955874Y-68965000D01*
X87544126Y-68965000D01*
X87163720Y-69122569D01*
X86872569Y-69413720D01*
X86715000Y-69794126D01*
X86715000Y-69997775D01*
X86413720Y-70122569D01*
X86122569Y-70413720D01*
X85965000Y-70794126D01*
X85965000Y-71205874D01*
X86122569Y-71586280D01*
X86413720Y-71877431D01*
X86794126Y-72035000D01*
X87205874Y-72035000D01*
X87586280Y-71877431D01*
X87703711Y-71760000D01*
X87748155Y-71760000D01*
X87823002Y-71774888D01*
X87897849Y-71760000D01*
X87897854Y-71760000D01*
X88119539Y-71715904D01*
X88190842Y-71668261D01*
X88322569Y-71986280D01*
X88490000Y-72153711D01*
X88490000Y-72490838D01*
X88475112Y-72565685D01*
X88490000Y-72640532D01*
X88490000Y-72640536D01*
X88534096Y-72862221D01*
X88702071Y-73113614D01*
X88765530Y-73156016D01*
X89093984Y-73484470D01*
X89136386Y-73547929D01*
X89387778Y-73715904D01*
X89609463Y-73760000D01*
X89609467Y-73760000D01*
X89684314Y-73774888D01*
X89759161Y-73760000D01*
X100696289Y-73760000D01*
X100813720Y-73877431D01*
X101194126Y-74035000D01*
X101605874Y-74035000D01*
X101986280Y-73877431D01*
X102277431Y-73586280D01*
X102435000Y-73205874D01*
X102435000Y-72794126D01*
X102277431Y-72413720D01*
X101986280Y-72122569D01*
X101605874Y-71965000D01*
X101194126Y-71965000D01*
X100813720Y-72122569D01*
X100696289Y-72240000D01*
X96834801Y-72240000D01*
X97314802Y-71760000D01*
X100896289Y-71760000D01*
X100913720Y-71777431D01*
X101294126Y-71935000D01*
X101705874Y-71935000D01*
X102086280Y-71777431D01*
X102377431Y-71486280D01*
X102535000Y-71105874D01*
X102535000Y-70694126D01*
X102377431Y-70313720D01*
X102086280Y-70022569D01*
X101705874Y-69865000D01*
X101294126Y-69865000D01*
X100913720Y-70022569D01*
X100696289Y-70240000D01*
X97650486Y-70240000D01*
X98734473Y-69156014D01*
X98797929Y-69113614D01*
X98965904Y-68862222D01*
X99010000Y-68640537D01*
X99010000Y-68640532D01*
X99024888Y-68565685D01*
X99022271Y-68552530D01*
X99291068Y-68283733D01*
X99294126Y-68285000D01*
X99705874Y-68285000D01*
X100086280Y-68127431D01*
X100377431Y-67836280D01*
X100535000Y-67455874D01*
X100535000Y-67044126D01*
X100417311Y-66760000D01*
X104495974Y-66760000D01*
X104570821Y-66774888D01*
X104645668Y-66760000D01*
X104645673Y-66760000D01*
X104867358Y-66715904D01*
X105118750Y-66547929D01*
X105161152Y-66484470D01*
X107850284Y-63795339D01*
X107850613Y-63795954D01*
X107905069Y-63877453D01*
X107985586Y-63975563D01*
X108054894Y-64044871D01*
X108153004Y-64125388D01*
X108234503Y-64179844D01*
X108346440Y-64239676D01*
X108436996Y-64277185D01*
X108558449Y-64314027D01*
X108654582Y-64333149D01*
X108780891Y-64345589D01*
X108817794Y-64345589D01*
X108829900Y-64347997D01*
X109329900Y-64347997D01*
X109342006Y-64345589D01*
X109378909Y-64345589D01*
X109505218Y-64333149D01*
X109601351Y-64314027D01*
X109722804Y-64277185D01*
X109813360Y-64239676D01*
X109925297Y-64179844D01*
X110006796Y-64125388D01*
X110104906Y-64044871D01*
X110174214Y-63975563D01*
X110222462Y-63916773D01*
X110224029Y-63916461D01*
X110475421Y-63748486D01*
X110517823Y-63685027D01*
X110639380Y-63563470D01*
X110702839Y-63521068D01*
X110870814Y-63269676D01*
X110914910Y-63047991D01*
X110914910Y-63047987D01*
X110929798Y-62973139D01*
X110914910Y-62898291D01*
X110914910Y-61637075D01*
X110929798Y-61562228D01*
X110914910Y-61487381D01*
X110914910Y-61487377D01*
X110870814Y-61265692D01*
X110702839Y-61014300D01*
X110639383Y-60971900D01*
X110258559Y-60591076D01*
X110216157Y-60527618D01*
X109964765Y-60359643D01*
X109743080Y-60315547D01*
X109743075Y-60315547D01*
X109668228Y-60300659D01*
X109593381Y-60315547D01*
X108566419Y-60315547D01*
X108491572Y-60300659D01*
X108416725Y-60315547D01*
X108416720Y-60315547D01*
X108195035Y-60359643D01*
X107943643Y-60527618D01*
X107901243Y-60591074D01*
X106051761Y-62440557D01*
X105469384Y-62440557D01*
X105477340Y-62400557D01*
X105477340Y-61900557D01*
X105474932Y-61888451D01*
X105474932Y-61851548D01*
X105462492Y-61725239D01*
X105443370Y-61629106D01*
X105406528Y-61507653D01*
X105369019Y-61417097D01*
X105309187Y-61305160D01*
X105254731Y-61223661D01*
X105174214Y-61125551D01*
X105104906Y-61056243D01*
X105006796Y-60975726D01*
X104925297Y-60921270D01*
X104813360Y-60861438D01*
X104722804Y-60823929D01*
X104601351Y-60787087D01*
X104505218Y-60767965D01*
X104378909Y-60755525D01*
X104342006Y-60755525D01*
X104329900Y-60753117D01*
X104007262Y-60753117D01*
X103019674Y-59765530D01*
X102977272Y-59702071D01*
X102725880Y-59534096D01*
X102504195Y-59490000D01*
X102504190Y-59490000D01*
X102429343Y-59475112D01*
X102354496Y-59490000D01*
X96453711Y-59490000D01*
X96336280Y-59372569D01*
X95955874Y-59215000D01*
X95544126Y-59215000D01*
X95163720Y-59372569D01*
X94872569Y-59663720D01*
X94715000Y-60044126D01*
X94715000Y-60257887D01*
X94708919Y-60259097D01*
X94676014Y-60281083D01*
X94627829Y-60208969D01*
X94564373Y-60166569D01*
X93688332Y-59290529D01*
X93645930Y-59227070D01*
X93394538Y-59059095D01*
X93172853Y-59014999D01*
X93172848Y-59014999D01*
X93098001Y-59000111D01*
X93023154Y-59014999D01*
X91840133Y-59014999D01*
X92223521Y-58631611D01*
X92318289Y-58568289D01*
X92381612Y-58473520D01*
X93223521Y-57631611D01*
X93318289Y-57568289D01*
X93569146Y-57192855D01*
X93648457Y-56794126D01*
X104965000Y-56794126D01*
X104965000Y-57205874D01*
X105122569Y-57586280D01*
X105413720Y-57877431D01*
X105794126Y-58035000D01*
X105943432Y-58035000D01*
X105952071Y-58047929D01*
X106015527Y-58090329D01*
X106203462Y-58215904D01*
X106251605Y-58225480D01*
X106425148Y-58260000D01*
X106425152Y-58260000D01*
X106500000Y-58274888D01*
X106574848Y-58260000D01*
X107296289Y-58260000D01*
X107413720Y-58377431D01*
X107794126Y-58535000D01*
X108205874Y-58535000D01*
X108586280Y-58377431D01*
X108877431Y-58086280D01*
X109035000Y-57705874D01*
X109035000Y-57294126D01*
X108877431Y-56913720D01*
X108586280Y-56622569D01*
X108205874Y-56465000D01*
X107794126Y-56465000D01*
X107413720Y-56622569D01*
X107296289Y-56740000D01*
X107012580Y-56740000D01*
X106877431Y-56413720D01*
X106586280Y-56122569D01*
X106205874Y-55965000D01*
X105794126Y-55965000D01*
X105413720Y-56122569D01*
X105122569Y-56413720D01*
X104965000Y-56794126D01*
X93648457Y-56794126D01*
X93657235Y-56750000D01*
X93569146Y-56307145D01*
X93318289Y-55931711D01*
X92942855Y-55680854D01*
X92611783Y-55615000D01*
X92500000Y-55592765D01*
X92388217Y-55615000D01*
X92220131Y-55615000D01*
X91973523Y-55368392D01*
X91692854Y-55180854D01*
X91250000Y-55092765D01*
X90807146Y-55180854D01*
X90750000Y-55219038D01*
X90692854Y-55180854D01*
X90250000Y-55092765D01*
X90249999Y-55092765D01*
X89807145Y-55180854D01*
X89431711Y-55431711D01*
X89368389Y-55526479D01*
X88776479Y-56118389D01*
X88681712Y-56181711D01*
X88430854Y-56557145D01*
X88403860Y-56692854D01*
X88399455Y-56715000D01*
X88294126Y-56715000D01*
X87913720Y-56872569D01*
X87672481Y-57113808D01*
X87557809Y-56942191D01*
X87347765Y-56801843D01*
X87100000Y-56752560D01*
X85900000Y-56752560D01*
X85652235Y-56801843D01*
X85442191Y-56942191D01*
X85301843Y-57152235D01*
X85252560Y-57400000D01*
X85252560Y-58600000D01*
X85301843Y-58847765D01*
X85382006Y-58967737D01*
X85355472Y-58974997D01*
X85241684Y-59452952D01*
X85319463Y-59938070D01*
X85355472Y-60025003D01*
X85566523Y-60082752D01*
X86149275Y-59500000D01*
X86135133Y-59485858D01*
X86373550Y-59247440D01*
X86626450Y-59247440D01*
X86864868Y-59485858D01*
X86850725Y-59500000D01*
X86864868Y-59514143D01*
X86514143Y-59864868D01*
X86500000Y-59850725D01*
X85917248Y-60433477D01*
X85974997Y-60644528D01*
X86452952Y-60758316D01*
X86914005Y-60684395D01*
X86881147Y-60763721D01*
X86879311Y-60765557D01*
X84480768Y-60765557D01*
X84378909Y-60755525D01*
X84342006Y-60755525D01*
X84329900Y-60753117D01*
X83829900Y-60753117D01*
X83817794Y-60755525D01*
X83780891Y-60755525D01*
X83679032Y-60765557D01*
X83251715Y-60765557D01*
X83139933Y-60743322D01*
X83028151Y-60765557D01*
X82697079Y-60831411D01*
X82321645Y-61082268D01*
X82258323Y-61177036D01*
X80637767Y-62797593D01*
X80735000Y-62308768D01*
X80735000Y-60894556D01*
X80796418Y-60585787D01*
X80706907Y-60135786D01*
X80553105Y-59362571D01*
X80284999Y-58961322D01*
X80284999Y-58218331D01*
X80452952Y-58258316D01*
X80938070Y-58180537D01*
X81025003Y-58144528D01*
X81032263Y-58117994D01*
X81152235Y-58198157D01*
X81400000Y-58247440D01*
X82600000Y-58247440D01*
X82847765Y-58198157D01*
X83057809Y-58057809D01*
X83198157Y-57847765D01*
X83247440Y-57600000D01*
X83247440Y-56400000D01*
X83198157Y-56152235D01*
X83057809Y-55942191D01*
X82847765Y-55801843D01*
X82600000Y-55752560D01*
X81400000Y-55752560D01*
X81152235Y-55801843D01*
X81032263Y-55882006D01*
X81025003Y-55855472D01*
X80547048Y-55741684D01*
X80284999Y-55783698D01*
X80284999Y-54284999D01*
X81614894Y-54284999D01*
X82614786Y-54953105D01*
G36*
X93029390Y-60781190D02*
X92985586Y-60824994D01*
X92981993Y-60829372D01*
X92705874Y-60715000D01*
X92294126Y-60715000D01*
X91913720Y-60872569D01*
X91622569Y-61163720D01*
X91465000Y-61544126D01*
X91465000Y-61955874D01*
X91622569Y-62336280D01*
X91913720Y-62627431D01*
X91987129Y-62657838D01*
X91975112Y-62718249D01*
X91990001Y-62793101D01*
X92034097Y-63014786D01*
X92202072Y-63266178D01*
X92265528Y-63308578D01*
X92641977Y-63685027D01*
X92684379Y-63748486D01*
X92935771Y-63916461D01*
X93157456Y-63960557D01*
X93157460Y-63960557D01*
X93232308Y-63975445D01*
X93307156Y-63960557D01*
X93398197Y-63960557D01*
X93436996Y-63976628D01*
X93558449Y-64013470D01*
X93654582Y-64032592D01*
X93780891Y-64045032D01*
X93817794Y-64045032D01*
X93829900Y-64047440D01*
X94329900Y-64047440D01*
X94342006Y-64045032D01*
X94378909Y-64045032D01*
X94505218Y-64032592D01*
X94601351Y-64013470D01*
X94722804Y-63976628D01*
X94813360Y-63939119D01*
X94925297Y-63879287D01*
X95006796Y-63824831D01*
X95104906Y-63744314D01*
X95174214Y-63675006D01*
X95254731Y-63576896D01*
X95309187Y-63495397D01*
X95369019Y-63383460D01*
X95406528Y-63292904D01*
X95443370Y-63171451D01*
X95462492Y-63075318D01*
X95474932Y-62949009D01*
X95474932Y-62912106D01*
X95477340Y-62900000D01*
X95477340Y-62400000D01*
X95447503Y-62250000D01*
X95477340Y-62100000D01*
X95477340Y-61735001D01*
X97696347Y-61735001D01*
X97684868Y-61851548D01*
X97684868Y-61888451D01*
X97682460Y-61900557D01*
X97682460Y-62400557D01*
X97690416Y-62440557D01*
X97237879Y-62440557D01*
X97163032Y-62425669D01*
X97088185Y-62440557D01*
X97088181Y-62440557D01*
X96866496Y-62484653D01*
X96615104Y-62652628D01*
X96572704Y-62716084D01*
X94453111Y-64835678D01*
X94399998Y-64825113D01*
X94325151Y-64840001D01*
X94325147Y-64840001D01*
X94103462Y-64884097D01*
X93982382Y-64965000D01*
X93894126Y-64965000D01*
X93513720Y-65122569D01*
X93469803Y-65166486D01*
X93356388Y-64892677D01*
X93065237Y-64601526D01*
X92684831Y-64443957D01*
X92273083Y-64443957D01*
X91892677Y-64601526D01*
X91775246Y-64718957D01*
X91073102Y-64718957D01*
X90244303Y-63890159D01*
X90254731Y-63877453D01*
X90309187Y-63795954D01*
X90369019Y-63684017D01*
X90406528Y-63593461D01*
X90443370Y-63472008D01*
X90462492Y-63375875D01*
X90474932Y-63249566D01*
X90474932Y-63212663D01*
X90477340Y-63200557D01*
X90477340Y-62700557D01*
X90447503Y-62550557D01*
X90477340Y-62400557D01*
X90477340Y-62060709D01*
X90569146Y-61923312D01*
X90615374Y-61690905D01*
X90657235Y-61480458D01*
X90651866Y-61453463D01*
X90643558Y-61411700D01*
X91520261Y-60534999D01*
X92783200Y-60534999D01*
X93029390Y-60781190D01*
X93029390Y-60781190D01*
G37*
X93029390Y-60781190D02*
X92985586Y-60824994D01*
X92981993Y-60829372D01*
X92705874Y-60715000D01*
X92294126Y-60715000D01*
X91913720Y-60872569D01*
X91622569Y-61163720D01*
X91465000Y-61544126D01*
X91465000Y-61955874D01*
X91622569Y-62336280D01*
X91913720Y-62627431D01*
X91987129Y-62657838D01*
X91975112Y-62718249D01*
X91990001Y-62793101D01*
X92034097Y-63014786D01*
X92202072Y-63266178D01*
X92265528Y-63308578D01*
X92641977Y-63685027D01*
X92684379Y-63748486D01*
X92935771Y-63916461D01*
X93157456Y-63960557D01*
X93157460Y-63960557D01*
X93232308Y-63975445D01*
X93307156Y-63960557D01*
X93398197Y-63960557D01*
X93436996Y-63976628D01*
X93558449Y-64013470D01*
X93654582Y-64032592D01*
X93780891Y-64045032D01*
X93817794Y-64045032D01*
X93829900Y-64047440D01*
X94329900Y-64047440D01*
X94342006Y-64045032D01*
X94378909Y-64045032D01*
X94505218Y-64032592D01*
X94601351Y-64013470D01*
X94722804Y-63976628D01*
X94813360Y-63939119D01*
X94925297Y-63879287D01*
X95006796Y-63824831D01*
X95104906Y-63744314D01*
X95174214Y-63675006D01*
X95254731Y-63576896D01*
X95309187Y-63495397D01*
X95369019Y-63383460D01*
X95406528Y-63292904D01*
X95443370Y-63171451D01*
X95462492Y-63075318D01*
X95474932Y-62949009D01*
X95474932Y-62912106D01*
X95477340Y-62900000D01*
X95477340Y-62400000D01*
X95447503Y-62250000D01*
X95477340Y-62100000D01*
X95477340Y-61735001D01*
X97696347Y-61735001D01*
X97684868Y-61851548D01*
X97684868Y-61888451D01*
X97682460Y-61900557D01*
X97682460Y-62400557D01*
X97690416Y-62440557D01*
X97237879Y-62440557D01*
X97163032Y-62425669D01*
X97088185Y-62440557D01*
X97088181Y-62440557D01*
X96866496Y-62484653D01*
X96615104Y-62652628D01*
X96572704Y-62716084D01*
X94453111Y-64835678D01*
X94399998Y-64825113D01*
X94325151Y-64840001D01*
X94325147Y-64840001D01*
X94103462Y-64884097D01*
X93982382Y-64965000D01*
X93894126Y-64965000D01*
X93513720Y-65122569D01*
X93469803Y-65166486D01*
X93356388Y-64892677D01*
X93065237Y-64601526D01*
X92684831Y-64443957D01*
X92273083Y-64443957D01*
X91892677Y-64601526D01*
X91775246Y-64718957D01*
X91073102Y-64718957D01*
X90244303Y-63890159D01*
X90254731Y-63877453D01*
X90309187Y-63795954D01*
X90369019Y-63684017D01*
X90406528Y-63593461D01*
X90443370Y-63472008D01*
X90462492Y-63375875D01*
X90474932Y-63249566D01*
X90474932Y-63212663D01*
X90477340Y-63200557D01*
X90477340Y-62700557D01*
X90447503Y-62550557D01*
X90477340Y-62400557D01*
X90477340Y-62060709D01*
X90569146Y-61923312D01*
X90615374Y-61690905D01*
X90657235Y-61480458D01*
X90651866Y-61453463D01*
X90643558Y-61411700D01*
X91520261Y-60534999D01*
X92783200Y-60534999D01*
X93029390Y-60781190D01*
G36*
X80752560Y-56873550D02*
X80752560Y-57126450D01*
X80514143Y-57364868D01*
X80500000Y-57350725D01*
X80485858Y-57364868D01*
X80284999Y-57164009D01*
X80284999Y-56835991D01*
X80485858Y-56635133D01*
X80500000Y-56649275D01*
X80514143Y-56635133D01*
X80752560Y-56873550D01*
X80752560Y-56873550D01*
G37*
X80752560Y-56873550D02*
X80752560Y-57126450D01*
X80514143Y-57364868D01*
X80500000Y-57350725D01*
X80485858Y-57364868D01*
X80284999Y-57164009D01*
X80284999Y-56835991D01*
X80485858Y-56635133D01*
X80500000Y-56649275D01*
X80514143Y-56635133D01*
X80752560Y-56873550D01*
G04 #@! TO.N,+VDC*
G36*
X162290001Y-89290000D02*
X118627000Y-89290000D01*
X118627000Y-82044126D01*
X139715000Y-82044126D01*
X139715000Y-82455874D01*
X139872569Y-82836280D01*
X139990000Y-82953711D01*
X139990001Y-84796288D01*
X139872569Y-84913720D01*
X139715000Y-85294126D01*
X139715000Y-85705874D01*
X139872569Y-86086280D01*
X140163720Y-86377431D01*
X140544126Y-86535000D01*
X140955874Y-86535000D01*
X141336280Y-86377431D01*
X141627431Y-86086280D01*
X141785000Y-85705874D01*
X141785000Y-85294126D01*
X141627431Y-84913720D01*
X141510000Y-84796289D01*
X141510000Y-82953711D01*
X141627431Y-82836280D01*
X141785000Y-82455874D01*
X141785000Y-82044126D01*
X141627431Y-81663720D01*
X141517333Y-81553622D01*
X152365000Y-81553622D01*
X152365000Y-82303522D01*
X152651974Y-82996339D01*
X153182233Y-83526598D01*
X153875050Y-83813572D01*
X154624950Y-83813572D01*
X155317767Y-83526598D01*
X155848026Y-82996339D01*
X156125000Y-82327664D01*
X156401974Y-82996339D01*
X156932233Y-83526598D01*
X157625050Y-83813572D01*
X158374950Y-83813572D01*
X159067767Y-83526598D01*
X159598026Y-82996339D01*
X159885000Y-82303522D01*
X159885000Y-81553622D01*
X159598026Y-80860805D01*
X159067767Y-80330546D01*
X158374950Y-80043572D01*
X157625050Y-80043572D01*
X156932233Y-80330546D01*
X156401974Y-80860805D01*
X156125000Y-81529480D01*
X155848026Y-80860805D01*
X155317767Y-80330546D01*
X154624950Y-80043572D01*
X153875050Y-80043572D01*
X153182233Y-80330546D01*
X152651974Y-80860805D01*
X152365000Y-81553622D01*
X141517333Y-81553622D01*
X141336280Y-81372569D01*
X140955874Y-81215000D01*
X140544126Y-81215000D01*
X140163720Y-81372569D01*
X139872569Y-81663720D01*
X139715000Y-82044126D01*
X118627000Y-82044126D01*
X118627000Y-76294126D01*
X138465000Y-76294126D01*
X138465000Y-76705874D01*
X138622569Y-77086280D01*
X138913720Y-77377431D01*
X139294126Y-77535000D01*
X139705874Y-77535000D01*
X140086280Y-77377431D01*
X140124379Y-77339332D01*
X152365000Y-77339332D01*
X152365000Y-78089232D01*
X152651974Y-78782049D01*
X153182233Y-79312308D01*
X153875050Y-79599282D01*
X154624950Y-79599282D01*
X155317767Y-79312308D01*
X155848026Y-78782049D01*
X156125000Y-78113374D01*
X156401974Y-78782049D01*
X156932233Y-79312308D01*
X157625050Y-79599282D01*
X158374950Y-79599282D01*
X159067767Y-79312308D01*
X159598026Y-78782049D01*
X159885000Y-78089232D01*
X159885000Y-77339332D01*
X159598026Y-76646515D01*
X159067767Y-76116256D01*
X158374950Y-75829282D01*
X157625050Y-75829282D01*
X156932233Y-76116256D01*
X156401974Y-76646515D01*
X156125000Y-77315190D01*
X155848026Y-76646515D01*
X155317767Y-76116256D01*
X154624950Y-75829282D01*
X153875050Y-75829282D01*
X153182233Y-76116256D01*
X152651974Y-76646515D01*
X152365000Y-77339332D01*
X140124379Y-77339332D01*
X140377431Y-77086280D01*
X140535000Y-76705874D01*
X140535000Y-76539801D01*
X140984473Y-76090329D01*
X141047929Y-76047929D01*
X141215904Y-75796537D01*
X141260000Y-75574852D01*
X141260000Y-75574848D01*
X141274888Y-75500000D01*
X141260000Y-75425152D01*
X141260000Y-74203711D01*
X141377431Y-74086280D01*
X141535000Y-73705874D01*
X141535000Y-73294126D01*
X141464966Y-73125047D01*
X152365000Y-73125047D01*
X152365000Y-73874947D01*
X152651974Y-74567764D01*
X153182233Y-75098023D01*
X153875050Y-75384997D01*
X154624950Y-75384997D01*
X155317767Y-75098023D01*
X155848026Y-74567764D01*
X156125000Y-73899089D01*
X156401974Y-74567764D01*
X156932233Y-75098023D01*
X157625050Y-75384997D01*
X158374950Y-75384997D01*
X159067767Y-75098023D01*
X159598026Y-74567764D01*
X159885000Y-73874947D01*
X159885000Y-73125047D01*
X159598026Y-72432230D01*
X159067767Y-71901971D01*
X158374950Y-71614997D01*
X157625050Y-71614997D01*
X156932233Y-71901971D01*
X156401974Y-72432230D01*
X156125000Y-73100905D01*
X155848026Y-72432230D01*
X155317767Y-71901971D01*
X154624950Y-71614997D01*
X153875050Y-71614997D01*
X153182233Y-71901971D01*
X152651974Y-72432230D01*
X152365000Y-73125047D01*
X141464966Y-73125047D01*
X141377431Y-72913720D01*
X141086280Y-72622569D01*
X140705874Y-72465000D01*
X140294126Y-72465000D01*
X139913720Y-72622569D01*
X139622569Y-72913720D01*
X139465000Y-73294126D01*
X139465000Y-73705874D01*
X139622569Y-74086280D01*
X139740001Y-74203712D01*
X139740000Y-75185198D01*
X139460199Y-75465000D01*
X139294126Y-75465000D01*
X138913720Y-75622569D01*
X138622569Y-75913720D01*
X138465000Y-76294126D01*
X118627000Y-76294126D01*
X118627000Y-68910762D01*
X152365000Y-68910762D01*
X152365000Y-69660662D01*
X152651974Y-70353479D01*
X153182233Y-70883738D01*
X153875050Y-71170712D01*
X154624950Y-71170712D01*
X155317767Y-70883738D01*
X155848026Y-70353479D01*
X156125000Y-69684804D01*
X156401974Y-70353479D01*
X156932233Y-70883738D01*
X157625050Y-71170712D01*
X158374950Y-71170712D01*
X159067767Y-70883738D01*
X159598026Y-70353479D01*
X159885000Y-69660662D01*
X159885000Y-68910762D01*
X159598026Y-68217945D01*
X159067767Y-67687686D01*
X158374950Y-67400712D01*
X157625050Y-67400712D01*
X156932233Y-67687686D01*
X156401974Y-68217945D01*
X156125000Y-68886620D01*
X155848026Y-68217945D01*
X155317767Y-67687686D01*
X154624950Y-67400712D01*
X153875050Y-67400712D01*
X153182233Y-67687686D01*
X152651974Y-68217945D01*
X152365000Y-68910762D01*
X118627000Y-68910762D01*
X118627000Y-67294126D01*
X139715000Y-67294126D01*
X139715000Y-67705874D01*
X139872569Y-68086280D01*
X140163720Y-68377431D01*
X140544126Y-68535000D01*
X140955874Y-68535000D01*
X141336280Y-68377431D01*
X141627431Y-68086280D01*
X141785000Y-67705874D01*
X141785000Y-67294126D01*
X141627431Y-66913720D01*
X141510000Y-66796289D01*
X141510000Y-66614801D01*
X143428324Y-64696477D01*
X152365000Y-64696477D01*
X152365000Y-65446377D01*
X152651974Y-66139194D01*
X153182233Y-66669453D01*
X153875050Y-66956427D01*
X154624950Y-66956427D01*
X155317767Y-66669453D01*
X155848026Y-66139194D01*
X156125000Y-65470519D01*
X156401974Y-66139194D01*
X156932233Y-66669453D01*
X157625050Y-66956427D01*
X158374950Y-66956427D01*
X159067767Y-66669453D01*
X159598026Y-66139194D01*
X159885000Y-65446377D01*
X159885000Y-64696477D01*
X159598026Y-64003660D01*
X159067767Y-63473401D01*
X158374950Y-63186427D01*
X157625050Y-63186427D01*
X156932233Y-63473401D01*
X156401974Y-64003660D01*
X156125000Y-64672335D01*
X155848026Y-64003660D01*
X155317767Y-63473401D01*
X154624950Y-63186427D01*
X153875050Y-63186427D01*
X153182233Y-63473401D01*
X152651974Y-64003660D01*
X152365000Y-64696477D01*
X143428324Y-64696477D01*
X144039802Y-64085000D01*
X144205874Y-64085000D01*
X144586280Y-63927431D01*
X144877431Y-63636280D01*
X145035000Y-63255874D01*
X145035000Y-62844126D01*
X144877431Y-62463720D01*
X144586280Y-62172569D01*
X144205874Y-62015000D01*
X143794126Y-62015000D01*
X143413720Y-62172569D01*
X143122569Y-62463720D01*
X142965000Y-62844126D01*
X142965000Y-63010198D01*
X140265528Y-65709671D01*
X140202072Y-65752071D01*
X140159672Y-65815527D01*
X140159671Y-65815528D01*
X140034097Y-66003463D01*
X139975112Y-66300000D01*
X139990001Y-66374851D01*
X139990001Y-66796288D01*
X139872569Y-66913720D01*
X139715000Y-67294126D01*
X118627000Y-67294126D01*
X118627000Y-60482192D01*
X152365000Y-60482192D01*
X152365000Y-61232092D01*
X152651974Y-61924909D01*
X153182233Y-62455168D01*
X153875050Y-62742142D01*
X154624950Y-62742142D01*
X155317767Y-62455168D01*
X155848026Y-61924909D01*
X156125000Y-61256234D01*
X156401974Y-61924909D01*
X156932233Y-62455168D01*
X157625050Y-62742142D01*
X158374950Y-62742142D01*
X159067767Y-62455168D01*
X159598026Y-61924909D01*
X159885000Y-61232092D01*
X159885000Y-60482192D01*
X159598026Y-59789375D01*
X159067767Y-59259116D01*
X158374950Y-58972142D01*
X157625050Y-58972142D01*
X156932233Y-59259116D01*
X156401974Y-59789375D01*
X156125000Y-60458050D01*
X155848026Y-59789375D01*
X155317767Y-59259116D01*
X154624950Y-58972142D01*
X153875050Y-58972142D01*
X153182233Y-59259116D01*
X152651974Y-59789375D01*
X152365000Y-60482192D01*
X118627000Y-60482192D01*
X118627000Y-56267907D01*
X152365000Y-56267907D01*
X152365000Y-57017807D01*
X152651974Y-57710624D01*
X153182233Y-58240883D01*
X153875050Y-58527857D01*
X154624950Y-58527857D01*
X155317767Y-58240883D01*
X155848026Y-57710624D01*
X156125000Y-57041949D01*
X156401974Y-57710624D01*
X156932233Y-58240883D01*
X157625050Y-58527857D01*
X158374950Y-58527857D01*
X159067767Y-58240883D01*
X159598026Y-57710624D01*
X159885000Y-57017807D01*
X159885000Y-56267907D01*
X159598026Y-55575090D01*
X159067767Y-55044831D01*
X158374950Y-54757857D01*
X157625050Y-54757857D01*
X156932233Y-55044831D01*
X156401974Y-55575090D01*
X156125000Y-56243765D01*
X155848026Y-55575090D01*
X155317767Y-55044831D01*
X154624950Y-54757857D01*
X153875050Y-54757857D01*
X153182233Y-55044831D01*
X152651974Y-55575090D01*
X152365000Y-56267907D01*
X118627000Y-56267907D01*
X118627000Y-52094126D01*
X135865000Y-52094126D01*
X135865000Y-52505874D01*
X136022569Y-52886280D01*
X136313720Y-53177431D01*
X136694126Y-53335000D01*
X136860023Y-53335000D01*
X136902071Y-53397929D01*
X136965524Y-53440327D01*
X136965526Y-53440329D01*
X137090902Y-53524102D01*
X137153463Y-53565904D01*
X137375148Y-53610000D01*
X137375152Y-53610000D01*
X137449999Y-53624888D01*
X137524846Y-53610000D01*
X142746289Y-53610000D01*
X142863720Y-53727431D01*
X143244126Y-53885000D01*
X143655874Y-53885000D01*
X144036280Y-53727431D01*
X144327431Y-53436280D01*
X144485000Y-53055874D01*
X144485000Y-52644126D01*
X144327431Y-52263720D01*
X144117333Y-52053622D01*
X152365000Y-52053622D01*
X152365000Y-52803522D01*
X152651974Y-53496339D01*
X153182233Y-54026598D01*
X153875050Y-54313572D01*
X154624950Y-54313572D01*
X155317767Y-54026598D01*
X155848026Y-53496339D01*
X156125000Y-52827664D01*
X156401974Y-53496339D01*
X156932233Y-54026598D01*
X157625050Y-54313572D01*
X158374950Y-54313572D01*
X159067767Y-54026598D01*
X159598026Y-53496339D01*
X159885000Y-52803522D01*
X159885000Y-52053622D01*
X159598026Y-51360805D01*
X159067767Y-50830546D01*
X158374950Y-50543572D01*
X157625050Y-50543572D01*
X156932233Y-50830546D01*
X156401974Y-51360805D01*
X156125000Y-52029480D01*
X155848026Y-51360805D01*
X155317767Y-50830546D01*
X154624950Y-50543572D01*
X153875050Y-50543572D01*
X153182233Y-50830546D01*
X152651974Y-51360805D01*
X152365000Y-52053622D01*
X144117333Y-52053622D01*
X144036280Y-51972569D01*
X143655874Y-51815000D01*
X143244126Y-51815000D01*
X142863720Y-51972569D01*
X142746289Y-52090000D01*
X137933291Y-52090000D01*
X137777431Y-51713720D01*
X137486280Y-51422569D01*
X137105874Y-51265000D01*
X136694126Y-51265000D01*
X136313720Y-51422569D01*
X136022569Y-51713720D01*
X135865000Y-52094126D01*
X118627000Y-52094126D01*
X118627000Y-48710000D01*
X162290000Y-48710000D01*
X162290001Y-89290000D01*
X162290001Y-89290000D01*
G37*
X162290001Y-89290000D02*
X118627000Y-89290000D01*
X118627000Y-82044126D01*
X139715000Y-82044126D01*
X139715000Y-82455874D01*
X139872569Y-82836280D01*
X139990000Y-82953711D01*
X139990001Y-84796288D01*
X139872569Y-84913720D01*
X139715000Y-85294126D01*
X139715000Y-85705874D01*
X139872569Y-86086280D01*
X140163720Y-86377431D01*
X140544126Y-86535000D01*
X140955874Y-86535000D01*
X141336280Y-86377431D01*
X141627431Y-86086280D01*
X141785000Y-85705874D01*
X141785000Y-85294126D01*
X141627431Y-84913720D01*
X141510000Y-84796289D01*
X141510000Y-82953711D01*
X141627431Y-82836280D01*
X141785000Y-82455874D01*
X141785000Y-82044126D01*
X141627431Y-81663720D01*
X141517333Y-81553622D01*
X152365000Y-81553622D01*
X152365000Y-82303522D01*
X152651974Y-82996339D01*
X153182233Y-83526598D01*
X153875050Y-83813572D01*
X154624950Y-83813572D01*
X155317767Y-83526598D01*
X155848026Y-82996339D01*
X156125000Y-82327664D01*
X156401974Y-82996339D01*
X156932233Y-83526598D01*
X157625050Y-83813572D01*
X158374950Y-83813572D01*
X159067767Y-83526598D01*
X159598026Y-82996339D01*
X159885000Y-82303522D01*
X159885000Y-81553622D01*
X159598026Y-80860805D01*
X159067767Y-80330546D01*
X158374950Y-80043572D01*
X157625050Y-80043572D01*
X156932233Y-80330546D01*
X156401974Y-80860805D01*
X156125000Y-81529480D01*
X155848026Y-80860805D01*
X155317767Y-80330546D01*
X154624950Y-80043572D01*
X153875050Y-80043572D01*
X153182233Y-80330546D01*
X152651974Y-80860805D01*
X152365000Y-81553622D01*
X141517333Y-81553622D01*
X141336280Y-81372569D01*
X140955874Y-81215000D01*
X140544126Y-81215000D01*
X140163720Y-81372569D01*
X139872569Y-81663720D01*
X139715000Y-82044126D01*
X118627000Y-82044126D01*
X118627000Y-76294126D01*
X138465000Y-76294126D01*
X138465000Y-76705874D01*
X138622569Y-77086280D01*
X138913720Y-77377431D01*
X139294126Y-77535000D01*
X139705874Y-77535000D01*
X140086280Y-77377431D01*
X140124379Y-77339332D01*
X152365000Y-77339332D01*
X152365000Y-78089232D01*
X152651974Y-78782049D01*
X153182233Y-79312308D01*
X153875050Y-79599282D01*
X154624950Y-79599282D01*
X155317767Y-79312308D01*
X155848026Y-78782049D01*
X156125000Y-78113374D01*
X156401974Y-78782049D01*
X156932233Y-79312308D01*
X157625050Y-79599282D01*
X158374950Y-79599282D01*
X159067767Y-79312308D01*
X159598026Y-78782049D01*
X159885000Y-78089232D01*
X159885000Y-77339332D01*
X159598026Y-76646515D01*
X159067767Y-76116256D01*
X158374950Y-75829282D01*
X157625050Y-75829282D01*
X156932233Y-76116256D01*
X156401974Y-76646515D01*
X156125000Y-77315190D01*
X155848026Y-76646515D01*
X155317767Y-76116256D01*
X154624950Y-75829282D01*
X153875050Y-75829282D01*
X153182233Y-76116256D01*
X152651974Y-76646515D01*
X152365000Y-77339332D01*
X140124379Y-77339332D01*
X140377431Y-77086280D01*
X140535000Y-76705874D01*
X140535000Y-76539801D01*
X140984473Y-76090329D01*
X141047929Y-76047929D01*
X141215904Y-75796537D01*
X141260000Y-75574852D01*
X141260000Y-75574848D01*
X141274888Y-75500000D01*
X141260000Y-75425152D01*
X141260000Y-74203711D01*
X141377431Y-74086280D01*
X141535000Y-73705874D01*
X141535000Y-73294126D01*
X141464966Y-73125047D01*
X152365000Y-73125047D01*
X152365000Y-73874947D01*
X152651974Y-74567764D01*
X153182233Y-75098023D01*
X153875050Y-75384997D01*
X154624950Y-75384997D01*
X155317767Y-75098023D01*
X155848026Y-74567764D01*
X156125000Y-73899089D01*
X156401974Y-74567764D01*
X156932233Y-75098023D01*
X157625050Y-75384997D01*
X158374950Y-75384997D01*
X159067767Y-75098023D01*
X159598026Y-74567764D01*
X159885000Y-73874947D01*
X159885000Y-73125047D01*
X159598026Y-72432230D01*
X159067767Y-71901971D01*
X158374950Y-71614997D01*
X157625050Y-71614997D01*
X156932233Y-71901971D01*
X156401974Y-72432230D01*
X156125000Y-73100905D01*
X155848026Y-72432230D01*
X155317767Y-71901971D01*
X154624950Y-71614997D01*
X153875050Y-71614997D01*
X153182233Y-71901971D01*
X152651974Y-72432230D01*
X152365000Y-73125047D01*
X141464966Y-73125047D01*
X141377431Y-72913720D01*
X141086280Y-72622569D01*
X140705874Y-72465000D01*
X140294126Y-72465000D01*
X139913720Y-72622569D01*
X139622569Y-72913720D01*
X139465000Y-73294126D01*
X139465000Y-73705874D01*
X139622569Y-74086280D01*
X139740001Y-74203712D01*
X139740000Y-75185198D01*
X139460199Y-75465000D01*
X139294126Y-75465000D01*
X138913720Y-75622569D01*
X138622569Y-75913720D01*
X138465000Y-76294126D01*
X118627000Y-76294126D01*
X118627000Y-68910762D01*
X152365000Y-68910762D01*
X152365000Y-69660662D01*
X152651974Y-70353479D01*
X153182233Y-70883738D01*
X153875050Y-71170712D01*
X154624950Y-71170712D01*
X155317767Y-70883738D01*
X155848026Y-70353479D01*
X156125000Y-69684804D01*
X156401974Y-70353479D01*
X156932233Y-70883738D01*
X157625050Y-71170712D01*
X158374950Y-71170712D01*
X159067767Y-70883738D01*
X159598026Y-70353479D01*
X159885000Y-69660662D01*
X159885000Y-68910762D01*
X159598026Y-68217945D01*
X159067767Y-67687686D01*
X158374950Y-67400712D01*
X157625050Y-67400712D01*
X156932233Y-67687686D01*
X156401974Y-68217945D01*
X156125000Y-68886620D01*
X155848026Y-68217945D01*
X155317767Y-67687686D01*
X154624950Y-67400712D01*
X153875050Y-67400712D01*
X153182233Y-67687686D01*
X152651974Y-68217945D01*
X152365000Y-68910762D01*
X118627000Y-68910762D01*
X118627000Y-67294126D01*
X139715000Y-67294126D01*
X139715000Y-67705874D01*
X139872569Y-68086280D01*
X140163720Y-68377431D01*
X140544126Y-68535000D01*
X140955874Y-68535000D01*
X141336280Y-68377431D01*
X141627431Y-68086280D01*
X141785000Y-67705874D01*
X141785000Y-67294126D01*
X141627431Y-66913720D01*
X141510000Y-66796289D01*
X141510000Y-66614801D01*
X143428324Y-64696477D01*
X152365000Y-64696477D01*
X152365000Y-65446377D01*
X152651974Y-66139194D01*
X153182233Y-66669453D01*
X153875050Y-66956427D01*
X154624950Y-66956427D01*
X155317767Y-66669453D01*
X155848026Y-66139194D01*
X156125000Y-65470519D01*
X156401974Y-66139194D01*
X156932233Y-66669453D01*
X157625050Y-66956427D01*
X158374950Y-66956427D01*
X159067767Y-66669453D01*
X159598026Y-66139194D01*
X159885000Y-65446377D01*
X159885000Y-64696477D01*
X159598026Y-64003660D01*
X159067767Y-63473401D01*
X158374950Y-63186427D01*
X157625050Y-63186427D01*
X156932233Y-63473401D01*
X156401974Y-64003660D01*
X156125000Y-64672335D01*
X155848026Y-64003660D01*
X155317767Y-63473401D01*
X154624950Y-63186427D01*
X153875050Y-63186427D01*
X153182233Y-63473401D01*
X152651974Y-64003660D01*
X152365000Y-64696477D01*
X143428324Y-64696477D01*
X144039802Y-64085000D01*
X144205874Y-64085000D01*
X144586280Y-63927431D01*
X144877431Y-63636280D01*
X145035000Y-63255874D01*
X145035000Y-62844126D01*
X144877431Y-62463720D01*
X144586280Y-62172569D01*
X144205874Y-62015000D01*
X143794126Y-62015000D01*
X143413720Y-62172569D01*
X143122569Y-62463720D01*
X142965000Y-62844126D01*
X142965000Y-63010198D01*
X140265528Y-65709671D01*
X140202072Y-65752071D01*
X140159672Y-65815527D01*
X140159671Y-65815528D01*
X140034097Y-66003463D01*
X139975112Y-66300000D01*
X139990001Y-66374851D01*
X139990001Y-66796288D01*
X139872569Y-66913720D01*
X139715000Y-67294126D01*
X118627000Y-67294126D01*
X118627000Y-60482192D01*
X152365000Y-60482192D01*
X152365000Y-61232092D01*
X152651974Y-61924909D01*
X153182233Y-62455168D01*
X153875050Y-62742142D01*
X154624950Y-62742142D01*
X155317767Y-62455168D01*
X155848026Y-61924909D01*
X156125000Y-61256234D01*
X156401974Y-61924909D01*
X156932233Y-62455168D01*
X157625050Y-62742142D01*
X158374950Y-62742142D01*
X159067767Y-62455168D01*
X159598026Y-61924909D01*
X159885000Y-61232092D01*
X159885000Y-60482192D01*
X159598026Y-59789375D01*
X159067767Y-59259116D01*
X158374950Y-58972142D01*
X157625050Y-58972142D01*
X156932233Y-59259116D01*
X156401974Y-59789375D01*
X156125000Y-60458050D01*
X155848026Y-59789375D01*
X155317767Y-59259116D01*
X154624950Y-58972142D01*
X153875050Y-58972142D01*
X153182233Y-59259116D01*
X152651974Y-59789375D01*
X152365000Y-60482192D01*
X118627000Y-60482192D01*
X118627000Y-56267907D01*
X152365000Y-56267907D01*
X152365000Y-57017807D01*
X152651974Y-57710624D01*
X153182233Y-58240883D01*
X153875050Y-58527857D01*
X154624950Y-58527857D01*
X155317767Y-58240883D01*
X155848026Y-57710624D01*
X156125000Y-57041949D01*
X156401974Y-57710624D01*
X156932233Y-58240883D01*
X157625050Y-58527857D01*
X158374950Y-58527857D01*
X159067767Y-58240883D01*
X159598026Y-57710624D01*
X159885000Y-57017807D01*
X159885000Y-56267907D01*
X159598026Y-55575090D01*
X159067767Y-55044831D01*
X158374950Y-54757857D01*
X157625050Y-54757857D01*
X156932233Y-55044831D01*
X156401974Y-55575090D01*
X156125000Y-56243765D01*
X155848026Y-55575090D01*
X155317767Y-55044831D01*
X154624950Y-54757857D01*
X153875050Y-54757857D01*
X153182233Y-55044831D01*
X152651974Y-55575090D01*
X152365000Y-56267907D01*
X118627000Y-56267907D01*
X118627000Y-52094126D01*
X135865000Y-52094126D01*
X135865000Y-52505874D01*
X136022569Y-52886280D01*
X136313720Y-53177431D01*
X136694126Y-53335000D01*
X136860023Y-53335000D01*
X136902071Y-53397929D01*
X136965524Y-53440327D01*
X136965526Y-53440329D01*
X137090902Y-53524102D01*
X137153463Y-53565904D01*
X137375148Y-53610000D01*
X137375152Y-53610000D01*
X137449999Y-53624888D01*
X137524846Y-53610000D01*
X142746289Y-53610000D01*
X142863720Y-53727431D01*
X143244126Y-53885000D01*
X143655874Y-53885000D01*
X144036280Y-53727431D01*
X144327431Y-53436280D01*
X144485000Y-53055874D01*
X144485000Y-52644126D01*
X144327431Y-52263720D01*
X144117333Y-52053622D01*
X152365000Y-52053622D01*
X152365000Y-52803522D01*
X152651974Y-53496339D01*
X153182233Y-54026598D01*
X153875050Y-54313572D01*
X154624950Y-54313572D01*
X155317767Y-54026598D01*
X155848026Y-53496339D01*
X156125000Y-52827664D01*
X156401974Y-53496339D01*
X156932233Y-54026598D01*
X157625050Y-54313572D01*
X158374950Y-54313572D01*
X159067767Y-54026598D01*
X159598026Y-53496339D01*
X159885000Y-52803522D01*
X159885000Y-52053622D01*
X159598026Y-51360805D01*
X159067767Y-50830546D01*
X158374950Y-50543572D01*
X157625050Y-50543572D01*
X156932233Y-50830546D01*
X156401974Y-51360805D01*
X156125000Y-52029480D01*
X155848026Y-51360805D01*
X155317767Y-50830546D01*
X154624950Y-50543572D01*
X153875050Y-50543572D01*
X153182233Y-50830546D01*
X152651974Y-51360805D01*
X152365000Y-52053622D01*
X144117333Y-52053622D01*
X144036280Y-51972569D01*
X143655874Y-51815000D01*
X143244126Y-51815000D01*
X142863720Y-51972569D01*
X142746289Y-52090000D01*
X137933291Y-52090000D01*
X137777431Y-51713720D01*
X137486280Y-51422569D01*
X137105874Y-51265000D01*
X136694126Y-51265000D01*
X136313720Y-51422569D01*
X136022569Y-51713720D01*
X135865000Y-52094126D01*
X118627000Y-52094126D01*
X118627000Y-48710000D01*
X162290000Y-48710000D01*
X162290001Y-89290000D01*
G04 #@! TD*
M02*
