G04 #@! TF.GenerationSoftware,KiCad,Pcbnew,5.0.0*
G04 #@! TF.CreationDate,2018-11-11T17:05:44-05:00*
G04 #@! TF.ProjectId,I2C_PWM_Driver,4932435F50574D5F4472697665722E6B,rev?*
G04 #@! TF.SameCoordinates,Original*
G04 #@! TF.FileFunction,Paste,Top*
G04 #@! TF.FilePolarity,Positive*
%FSLAX46Y46*%
G04 Gerber Fmt 4.6, Leading zero omitted, Abs format (unit mm)*
G04 Created by KiCad (PCBNEW 5.0.0) date Sun Nov 11 17:05:44 2018*
%MOMM*%
%LPD*%
G01*
G04 APERTURE LIST*
%ADD10C,0.100000*%
%ADD11C,0.975000*%
%ADD12R,1.050000X1.400000*%
%ADD13R,1.550000X0.600000*%
%ADD14R,0.400000X1.100000*%
%ADD15R,0.900000X0.800000*%
G04 APERTURE END LIST*
D10*
G04 #@! TO.C,D1*
G36*
X78205142Y-70051174D02*
X78228803Y-70054684D01*
X78252007Y-70060496D01*
X78274529Y-70068554D01*
X78296153Y-70078782D01*
X78316670Y-70091079D01*
X78335883Y-70105329D01*
X78353607Y-70121393D01*
X78369671Y-70139117D01*
X78383921Y-70158330D01*
X78396218Y-70178847D01*
X78406446Y-70200471D01*
X78414504Y-70222993D01*
X78420316Y-70246197D01*
X78423826Y-70269858D01*
X78425000Y-70293750D01*
X78425000Y-71206250D01*
X78423826Y-71230142D01*
X78420316Y-71253803D01*
X78414504Y-71277007D01*
X78406446Y-71299529D01*
X78396218Y-71321153D01*
X78383921Y-71341670D01*
X78369671Y-71360883D01*
X78353607Y-71378607D01*
X78335883Y-71394671D01*
X78316670Y-71408921D01*
X78296153Y-71421218D01*
X78274529Y-71431446D01*
X78252007Y-71439504D01*
X78228803Y-71445316D01*
X78205142Y-71448826D01*
X78181250Y-71450000D01*
X77693750Y-71450000D01*
X77669858Y-71448826D01*
X77646197Y-71445316D01*
X77622993Y-71439504D01*
X77600471Y-71431446D01*
X77578847Y-71421218D01*
X77558330Y-71408921D01*
X77539117Y-71394671D01*
X77521393Y-71378607D01*
X77505329Y-71360883D01*
X77491079Y-71341670D01*
X77478782Y-71321153D01*
X77468554Y-71299529D01*
X77460496Y-71277007D01*
X77454684Y-71253803D01*
X77451174Y-71230142D01*
X77450000Y-71206250D01*
X77450000Y-70293750D01*
X77451174Y-70269858D01*
X77454684Y-70246197D01*
X77460496Y-70222993D01*
X77468554Y-70200471D01*
X77478782Y-70178847D01*
X77491079Y-70158330D01*
X77505329Y-70139117D01*
X77521393Y-70121393D01*
X77539117Y-70105329D01*
X77558330Y-70091079D01*
X77578847Y-70078782D01*
X77600471Y-70068554D01*
X77622993Y-70060496D01*
X77646197Y-70054684D01*
X77669858Y-70051174D01*
X77693750Y-70050000D01*
X78181250Y-70050000D01*
X78205142Y-70051174D01*
X78205142Y-70051174D01*
G37*
D11*
X77937500Y-70750000D03*
D10*
G36*
X76330142Y-70051174D02*
X76353803Y-70054684D01*
X76377007Y-70060496D01*
X76399529Y-70068554D01*
X76421153Y-70078782D01*
X76441670Y-70091079D01*
X76460883Y-70105329D01*
X76478607Y-70121393D01*
X76494671Y-70139117D01*
X76508921Y-70158330D01*
X76521218Y-70178847D01*
X76531446Y-70200471D01*
X76539504Y-70222993D01*
X76545316Y-70246197D01*
X76548826Y-70269858D01*
X76550000Y-70293750D01*
X76550000Y-71206250D01*
X76548826Y-71230142D01*
X76545316Y-71253803D01*
X76539504Y-71277007D01*
X76531446Y-71299529D01*
X76521218Y-71321153D01*
X76508921Y-71341670D01*
X76494671Y-71360883D01*
X76478607Y-71378607D01*
X76460883Y-71394671D01*
X76441670Y-71408921D01*
X76421153Y-71421218D01*
X76399529Y-71431446D01*
X76377007Y-71439504D01*
X76353803Y-71445316D01*
X76330142Y-71448826D01*
X76306250Y-71450000D01*
X75818750Y-71450000D01*
X75794858Y-71448826D01*
X75771197Y-71445316D01*
X75747993Y-71439504D01*
X75725471Y-71431446D01*
X75703847Y-71421218D01*
X75683330Y-71408921D01*
X75664117Y-71394671D01*
X75646393Y-71378607D01*
X75630329Y-71360883D01*
X75616079Y-71341670D01*
X75603782Y-71321153D01*
X75593554Y-71299529D01*
X75585496Y-71277007D01*
X75579684Y-71253803D01*
X75576174Y-71230142D01*
X75575000Y-71206250D01*
X75575000Y-70293750D01*
X75576174Y-70269858D01*
X75579684Y-70246197D01*
X75585496Y-70222993D01*
X75593554Y-70200471D01*
X75603782Y-70178847D01*
X75616079Y-70158330D01*
X75630329Y-70139117D01*
X75646393Y-70121393D01*
X75664117Y-70105329D01*
X75683330Y-70091079D01*
X75703847Y-70078782D01*
X75725471Y-70068554D01*
X75747993Y-70060496D01*
X75771197Y-70054684D01*
X75794858Y-70051174D01*
X75818750Y-70050000D01*
X76306250Y-70050000D01*
X76330142Y-70051174D01*
X76330142Y-70051174D01*
G37*
D11*
X76062500Y-70750000D03*
G04 #@! TD*
D10*
G04 #@! TO.C,R45*
G36*
X80580142Y-70051174D02*
X80603803Y-70054684D01*
X80627007Y-70060496D01*
X80649529Y-70068554D01*
X80671153Y-70078782D01*
X80691670Y-70091079D01*
X80710883Y-70105329D01*
X80728607Y-70121393D01*
X80744671Y-70139117D01*
X80758921Y-70158330D01*
X80771218Y-70178847D01*
X80781446Y-70200471D01*
X80789504Y-70222993D01*
X80795316Y-70246197D01*
X80798826Y-70269858D01*
X80800000Y-70293750D01*
X80800000Y-71206250D01*
X80798826Y-71230142D01*
X80795316Y-71253803D01*
X80789504Y-71277007D01*
X80781446Y-71299529D01*
X80771218Y-71321153D01*
X80758921Y-71341670D01*
X80744671Y-71360883D01*
X80728607Y-71378607D01*
X80710883Y-71394671D01*
X80691670Y-71408921D01*
X80671153Y-71421218D01*
X80649529Y-71431446D01*
X80627007Y-71439504D01*
X80603803Y-71445316D01*
X80580142Y-71448826D01*
X80556250Y-71450000D01*
X80068750Y-71450000D01*
X80044858Y-71448826D01*
X80021197Y-71445316D01*
X79997993Y-71439504D01*
X79975471Y-71431446D01*
X79953847Y-71421218D01*
X79933330Y-71408921D01*
X79914117Y-71394671D01*
X79896393Y-71378607D01*
X79880329Y-71360883D01*
X79866079Y-71341670D01*
X79853782Y-71321153D01*
X79843554Y-71299529D01*
X79835496Y-71277007D01*
X79829684Y-71253803D01*
X79826174Y-71230142D01*
X79825000Y-71206250D01*
X79825000Y-70293750D01*
X79826174Y-70269858D01*
X79829684Y-70246197D01*
X79835496Y-70222993D01*
X79843554Y-70200471D01*
X79853782Y-70178847D01*
X79866079Y-70158330D01*
X79880329Y-70139117D01*
X79896393Y-70121393D01*
X79914117Y-70105329D01*
X79933330Y-70091079D01*
X79953847Y-70078782D01*
X79975471Y-70068554D01*
X79997993Y-70060496D01*
X80021197Y-70054684D01*
X80044858Y-70051174D01*
X80068750Y-70050000D01*
X80556250Y-70050000D01*
X80580142Y-70051174D01*
X80580142Y-70051174D01*
G37*
D11*
X80312500Y-70750000D03*
D10*
G36*
X82455142Y-70051174D02*
X82478803Y-70054684D01*
X82502007Y-70060496D01*
X82524529Y-70068554D01*
X82546153Y-70078782D01*
X82566670Y-70091079D01*
X82585883Y-70105329D01*
X82603607Y-70121393D01*
X82619671Y-70139117D01*
X82633921Y-70158330D01*
X82646218Y-70178847D01*
X82656446Y-70200471D01*
X82664504Y-70222993D01*
X82670316Y-70246197D01*
X82673826Y-70269858D01*
X82675000Y-70293750D01*
X82675000Y-71206250D01*
X82673826Y-71230142D01*
X82670316Y-71253803D01*
X82664504Y-71277007D01*
X82656446Y-71299529D01*
X82646218Y-71321153D01*
X82633921Y-71341670D01*
X82619671Y-71360883D01*
X82603607Y-71378607D01*
X82585883Y-71394671D01*
X82566670Y-71408921D01*
X82546153Y-71421218D01*
X82524529Y-71431446D01*
X82502007Y-71439504D01*
X82478803Y-71445316D01*
X82455142Y-71448826D01*
X82431250Y-71450000D01*
X81943750Y-71450000D01*
X81919858Y-71448826D01*
X81896197Y-71445316D01*
X81872993Y-71439504D01*
X81850471Y-71431446D01*
X81828847Y-71421218D01*
X81808330Y-71408921D01*
X81789117Y-71394671D01*
X81771393Y-71378607D01*
X81755329Y-71360883D01*
X81741079Y-71341670D01*
X81728782Y-71321153D01*
X81718554Y-71299529D01*
X81710496Y-71277007D01*
X81704684Y-71253803D01*
X81701174Y-71230142D01*
X81700000Y-71206250D01*
X81700000Y-70293750D01*
X81701174Y-70269858D01*
X81704684Y-70246197D01*
X81710496Y-70222993D01*
X81718554Y-70200471D01*
X81728782Y-70178847D01*
X81741079Y-70158330D01*
X81755329Y-70139117D01*
X81771393Y-70121393D01*
X81789117Y-70105329D01*
X81808330Y-70091079D01*
X81828847Y-70078782D01*
X81850471Y-70068554D01*
X81872993Y-70060496D01*
X81896197Y-70054684D01*
X81919858Y-70051174D01*
X81943750Y-70050000D01*
X82431250Y-70050000D01*
X82455142Y-70051174D01*
X82455142Y-70051174D01*
G37*
D11*
X82187500Y-70750000D03*
G04 #@! TD*
D12*
G04 #@! TO.C,SW1*
X75550000Y-54800000D03*
X75550000Y-51200000D03*
X77000000Y-54800000D03*
X77000000Y-51200000D03*
G04 #@! TD*
D13*
G04 #@! TO.C,U2*
X84800000Y-54905000D03*
X84800000Y-53635000D03*
X84800000Y-52365000D03*
X84800000Y-51095000D03*
X90200000Y-51095000D03*
X90200000Y-52365000D03*
X90200000Y-53635000D03*
X90200000Y-54905000D03*
G04 #@! TD*
D10*
G04 #@! TO.C,C1*
G36*
X97480142Y-74451174D02*
X97503803Y-74454684D01*
X97527007Y-74460496D01*
X97549529Y-74468554D01*
X97571153Y-74478782D01*
X97591670Y-74491079D01*
X97610883Y-74505329D01*
X97628607Y-74521393D01*
X97644671Y-74539117D01*
X97658921Y-74558330D01*
X97671218Y-74578847D01*
X97681446Y-74600471D01*
X97689504Y-74622993D01*
X97695316Y-74646197D01*
X97698826Y-74669858D01*
X97700000Y-74693750D01*
X97700000Y-75181250D01*
X97698826Y-75205142D01*
X97695316Y-75228803D01*
X97689504Y-75252007D01*
X97681446Y-75274529D01*
X97671218Y-75296153D01*
X97658921Y-75316670D01*
X97644671Y-75335883D01*
X97628607Y-75353607D01*
X97610883Y-75369671D01*
X97591670Y-75383921D01*
X97571153Y-75396218D01*
X97549529Y-75406446D01*
X97527007Y-75414504D01*
X97503803Y-75420316D01*
X97480142Y-75423826D01*
X97456250Y-75425000D01*
X96543750Y-75425000D01*
X96519858Y-75423826D01*
X96496197Y-75420316D01*
X96472993Y-75414504D01*
X96450471Y-75406446D01*
X96428847Y-75396218D01*
X96408330Y-75383921D01*
X96389117Y-75369671D01*
X96371393Y-75353607D01*
X96355329Y-75335883D01*
X96341079Y-75316670D01*
X96328782Y-75296153D01*
X96318554Y-75274529D01*
X96310496Y-75252007D01*
X96304684Y-75228803D01*
X96301174Y-75205142D01*
X96300000Y-75181250D01*
X96300000Y-74693750D01*
X96301174Y-74669858D01*
X96304684Y-74646197D01*
X96310496Y-74622993D01*
X96318554Y-74600471D01*
X96328782Y-74578847D01*
X96341079Y-74558330D01*
X96355329Y-74539117D01*
X96371393Y-74521393D01*
X96389117Y-74505329D01*
X96408330Y-74491079D01*
X96428847Y-74478782D01*
X96450471Y-74468554D01*
X96472993Y-74460496D01*
X96496197Y-74454684D01*
X96519858Y-74451174D01*
X96543750Y-74450000D01*
X97456250Y-74450000D01*
X97480142Y-74451174D01*
X97480142Y-74451174D01*
G37*
D11*
X97000000Y-74937500D03*
D10*
G36*
X97480142Y-72576174D02*
X97503803Y-72579684D01*
X97527007Y-72585496D01*
X97549529Y-72593554D01*
X97571153Y-72603782D01*
X97591670Y-72616079D01*
X97610883Y-72630329D01*
X97628607Y-72646393D01*
X97644671Y-72664117D01*
X97658921Y-72683330D01*
X97671218Y-72703847D01*
X97681446Y-72725471D01*
X97689504Y-72747993D01*
X97695316Y-72771197D01*
X97698826Y-72794858D01*
X97700000Y-72818750D01*
X97700000Y-73306250D01*
X97698826Y-73330142D01*
X97695316Y-73353803D01*
X97689504Y-73377007D01*
X97681446Y-73399529D01*
X97671218Y-73421153D01*
X97658921Y-73441670D01*
X97644671Y-73460883D01*
X97628607Y-73478607D01*
X97610883Y-73494671D01*
X97591670Y-73508921D01*
X97571153Y-73521218D01*
X97549529Y-73531446D01*
X97527007Y-73539504D01*
X97503803Y-73545316D01*
X97480142Y-73548826D01*
X97456250Y-73550000D01*
X96543750Y-73550000D01*
X96519858Y-73548826D01*
X96496197Y-73545316D01*
X96472993Y-73539504D01*
X96450471Y-73531446D01*
X96428847Y-73521218D01*
X96408330Y-73508921D01*
X96389117Y-73494671D01*
X96371393Y-73478607D01*
X96355329Y-73460883D01*
X96341079Y-73441670D01*
X96328782Y-73421153D01*
X96318554Y-73399529D01*
X96310496Y-73377007D01*
X96304684Y-73353803D01*
X96301174Y-73330142D01*
X96300000Y-73306250D01*
X96300000Y-72818750D01*
X96301174Y-72794858D01*
X96304684Y-72771197D01*
X96310496Y-72747993D01*
X96318554Y-72725471D01*
X96328782Y-72703847D01*
X96341079Y-72683330D01*
X96355329Y-72664117D01*
X96371393Y-72646393D01*
X96389117Y-72630329D01*
X96408330Y-72616079D01*
X96428847Y-72603782D01*
X96450471Y-72593554D01*
X96472993Y-72585496D01*
X96496197Y-72579684D01*
X96519858Y-72576174D01*
X96543750Y-72575000D01*
X97456250Y-72575000D01*
X97480142Y-72576174D01*
X97480142Y-72576174D01*
G37*
D11*
X97000000Y-73062500D03*
G04 #@! TD*
D10*
G04 #@! TO.C,C3*
G36*
X82730142Y-50513674D02*
X82753803Y-50517184D01*
X82777007Y-50522996D01*
X82799529Y-50531054D01*
X82821153Y-50541282D01*
X82841670Y-50553579D01*
X82860883Y-50567829D01*
X82878607Y-50583893D01*
X82894671Y-50601617D01*
X82908921Y-50620830D01*
X82921218Y-50641347D01*
X82931446Y-50662971D01*
X82939504Y-50685493D01*
X82945316Y-50708697D01*
X82948826Y-50732358D01*
X82950000Y-50756250D01*
X82950000Y-51243750D01*
X82948826Y-51267642D01*
X82945316Y-51291303D01*
X82939504Y-51314507D01*
X82931446Y-51337029D01*
X82921218Y-51358653D01*
X82908921Y-51379170D01*
X82894671Y-51398383D01*
X82878607Y-51416107D01*
X82860883Y-51432171D01*
X82841670Y-51446421D01*
X82821153Y-51458718D01*
X82799529Y-51468946D01*
X82777007Y-51477004D01*
X82753803Y-51482816D01*
X82730142Y-51486326D01*
X82706250Y-51487500D01*
X81793750Y-51487500D01*
X81769858Y-51486326D01*
X81746197Y-51482816D01*
X81722993Y-51477004D01*
X81700471Y-51468946D01*
X81678847Y-51458718D01*
X81658330Y-51446421D01*
X81639117Y-51432171D01*
X81621393Y-51416107D01*
X81605329Y-51398383D01*
X81591079Y-51379170D01*
X81578782Y-51358653D01*
X81568554Y-51337029D01*
X81560496Y-51314507D01*
X81554684Y-51291303D01*
X81551174Y-51267642D01*
X81550000Y-51243750D01*
X81550000Y-50756250D01*
X81551174Y-50732358D01*
X81554684Y-50708697D01*
X81560496Y-50685493D01*
X81568554Y-50662971D01*
X81578782Y-50641347D01*
X81591079Y-50620830D01*
X81605329Y-50601617D01*
X81621393Y-50583893D01*
X81639117Y-50567829D01*
X81658330Y-50553579D01*
X81678847Y-50541282D01*
X81700471Y-50531054D01*
X81722993Y-50522996D01*
X81746197Y-50517184D01*
X81769858Y-50513674D01*
X81793750Y-50512500D01*
X82706250Y-50512500D01*
X82730142Y-50513674D01*
X82730142Y-50513674D01*
G37*
D11*
X82250000Y-51000000D03*
D10*
G36*
X82730142Y-52388674D02*
X82753803Y-52392184D01*
X82777007Y-52397996D01*
X82799529Y-52406054D01*
X82821153Y-52416282D01*
X82841670Y-52428579D01*
X82860883Y-52442829D01*
X82878607Y-52458893D01*
X82894671Y-52476617D01*
X82908921Y-52495830D01*
X82921218Y-52516347D01*
X82931446Y-52537971D01*
X82939504Y-52560493D01*
X82945316Y-52583697D01*
X82948826Y-52607358D01*
X82950000Y-52631250D01*
X82950000Y-53118750D01*
X82948826Y-53142642D01*
X82945316Y-53166303D01*
X82939504Y-53189507D01*
X82931446Y-53212029D01*
X82921218Y-53233653D01*
X82908921Y-53254170D01*
X82894671Y-53273383D01*
X82878607Y-53291107D01*
X82860883Y-53307171D01*
X82841670Y-53321421D01*
X82821153Y-53333718D01*
X82799529Y-53343946D01*
X82777007Y-53352004D01*
X82753803Y-53357816D01*
X82730142Y-53361326D01*
X82706250Y-53362500D01*
X81793750Y-53362500D01*
X81769858Y-53361326D01*
X81746197Y-53357816D01*
X81722993Y-53352004D01*
X81700471Y-53343946D01*
X81678847Y-53333718D01*
X81658330Y-53321421D01*
X81639117Y-53307171D01*
X81621393Y-53291107D01*
X81605329Y-53273383D01*
X81591079Y-53254170D01*
X81578782Y-53233653D01*
X81568554Y-53212029D01*
X81560496Y-53189507D01*
X81554684Y-53166303D01*
X81551174Y-53142642D01*
X81550000Y-53118750D01*
X81550000Y-52631250D01*
X81551174Y-52607358D01*
X81554684Y-52583697D01*
X81560496Y-52560493D01*
X81568554Y-52537971D01*
X81578782Y-52516347D01*
X81591079Y-52495830D01*
X81605329Y-52476617D01*
X81621393Y-52458893D01*
X81639117Y-52442829D01*
X81658330Y-52428579D01*
X81678847Y-52416282D01*
X81700471Y-52406054D01*
X81722993Y-52397996D01*
X81746197Y-52392184D01*
X81769858Y-52388674D01*
X81793750Y-52387500D01*
X82706250Y-52387500D01*
X82730142Y-52388674D01*
X82730142Y-52388674D01*
G37*
D11*
X82250000Y-52875000D03*
G04 #@! TD*
D14*
G04 #@! TO.C,U1*
X95078957Y-67457857D03*
X94428957Y-67457857D03*
X93778957Y-67457857D03*
X93128957Y-67457857D03*
X92478957Y-67457857D03*
X91828957Y-67457857D03*
X91178957Y-67457857D03*
X90528957Y-67457857D03*
X89878957Y-67457857D03*
X89228957Y-67457857D03*
X88578957Y-67457857D03*
X87928957Y-67457857D03*
X87278957Y-67457857D03*
X86628957Y-67457857D03*
X86628957Y-73157857D03*
X87278957Y-73157857D03*
X87928957Y-73157857D03*
X88578957Y-73157857D03*
X89228957Y-73157857D03*
X89878957Y-73157857D03*
X90528957Y-73157857D03*
X91178957Y-73157857D03*
X91828957Y-73157857D03*
X92478957Y-73157857D03*
X93128957Y-73157857D03*
X93778957Y-73157857D03*
X94428957Y-73157857D03*
X95078957Y-73157857D03*
G04 #@! TD*
D15*
G04 #@! TO.C,Q20*
X107000000Y-73000000D03*
X105000000Y-73950000D03*
X105000000Y-72050000D03*
G04 #@! TD*
G04 #@! TO.C,Q7*
X113875000Y-54250000D03*
X113875000Y-56150000D03*
X115875000Y-55200000D03*
G04 #@! TD*
G04 #@! TO.C,Q6*
X147000000Y-55000000D03*
X145000000Y-55950000D03*
X145000000Y-54050000D03*
G04 #@! TD*
G04 #@! TO.C,Q5*
X121000000Y-54050000D03*
X121000000Y-55950000D03*
X123000000Y-55000000D03*
G04 #@! TD*
G04 #@! TO.C,Q4*
X107000000Y-55250000D03*
X105000000Y-56200000D03*
X105000000Y-54300000D03*
G04 #@! TD*
G04 #@! TO.C,Q3*
X109500000Y-54300000D03*
X109500000Y-56200000D03*
X111500000Y-55250000D03*
G04 #@! TD*
G04 #@! TO.C,Q2*
X139000000Y-55000000D03*
X137000000Y-55950000D03*
X137000000Y-54050000D03*
G04 #@! TD*
G04 #@! TO.C,Q8*
X100500000Y-54300000D03*
X100500000Y-56200000D03*
X102500000Y-55250000D03*
G04 #@! TD*
G04 #@! TO.C,Q1*
X131000000Y-55000000D03*
X129000000Y-55950000D03*
X129000000Y-54050000D03*
G04 #@! TD*
G04 #@! TO.C,Q17*
X139000000Y-73000000D03*
X137000000Y-73950000D03*
X137000000Y-72050000D03*
G04 #@! TD*
G04 #@! TO.C,Q19*
X111500000Y-73000000D03*
X109500000Y-73950000D03*
X109500000Y-72050000D03*
G04 #@! TD*
G04 #@! TO.C,Q24*
X102500000Y-73000000D03*
X100500000Y-73950000D03*
X100500000Y-72050000D03*
G04 #@! TD*
G04 #@! TO.C,Q23*
X115875000Y-72998551D03*
X113875000Y-73948551D03*
X113875000Y-72048551D03*
G04 #@! TD*
G04 #@! TO.C,Q22*
X147000000Y-73000000D03*
X145000000Y-73950000D03*
X145000000Y-72050000D03*
G04 #@! TD*
G04 #@! TO.C,Q18*
X131000000Y-73000000D03*
X129000000Y-73950000D03*
X129000000Y-72050000D03*
G04 #@! TD*
G04 #@! TO.C,Q21*
X123000000Y-73000000D03*
X121000000Y-73950000D03*
X121000000Y-72050000D03*
G04 #@! TD*
G04 #@! TO.C,Q16*
X102500000Y-63981049D03*
X100500000Y-64931049D03*
X100500000Y-63031049D03*
G04 #@! TD*
G04 #@! TO.C,Q10*
X129000000Y-63050000D03*
X129000000Y-64950000D03*
X131000000Y-64000000D03*
G04 #@! TD*
G04 #@! TO.C,Q9*
X139000000Y-64000000D03*
X137000000Y-64950000D03*
X137000000Y-63050000D03*
G04 #@! TD*
G04 #@! TO.C,Q11*
X109500000Y-63050000D03*
X109500000Y-64950000D03*
X111500000Y-64000000D03*
G04 #@! TD*
G04 #@! TO.C,Q12*
X107000000Y-64000000D03*
X105000000Y-64950000D03*
X105000000Y-63050000D03*
G04 #@! TD*
G04 #@! TO.C,Q13*
X121000000Y-63050000D03*
X121000000Y-64950000D03*
X123000000Y-64000000D03*
G04 #@! TD*
G04 #@! TO.C,Q14*
X147000000Y-64000000D03*
X145000000Y-64950000D03*
X145000000Y-63050000D03*
G04 #@! TD*
G04 #@! TO.C,Q15*
X115875000Y-64000000D03*
X113875000Y-64950000D03*
X113875000Y-63050000D03*
G04 #@! TD*
G04 #@! TO.C,Q32*
X102500000Y-82023426D03*
X100500000Y-82973426D03*
X100500000Y-81073426D03*
G04 #@! TD*
G04 #@! TO.C,Q31*
X113875000Y-81005372D03*
X113875000Y-82905372D03*
X115875000Y-81955372D03*
G04 #@! TD*
G04 #@! TO.C,Q30*
X147000000Y-82000000D03*
X145000000Y-82950000D03*
X145000000Y-81050000D03*
G04 #@! TD*
G04 #@! TO.C,Q29*
X121000000Y-81050000D03*
X121000000Y-82950000D03*
X123000000Y-82000000D03*
G04 #@! TD*
G04 #@! TO.C,Q27*
X111500000Y-82000000D03*
X109500000Y-82950000D03*
X109500000Y-81050000D03*
G04 #@! TD*
G04 #@! TO.C,Q26*
X129000000Y-81050000D03*
X129000000Y-82950000D03*
X131000000Y-82000000D03*
G04 #@! TD*
G04 #@! TO.C,Q25*
X139000000Y-82000000D03*
X137000000Y-82950000D03*
X137000000Y-81050000D03*
G04 #@! TD*
G04 #@! TO.C,Q28*
X105000000Y-81046835D03*
X105000000Y-82946835D03*
X107000000Y-81996835D03*
G04 #@! TD*
D10*
G04 #@! TO.C,R5*
G36*
X118980142Y-53576174D02*
X119003803Y-53579684D01*
X119027007Y-53585496D01*
X119049529Y-53593554D01*
X119071153Y-53603782D01*
X119091670Y-53616079D01*
X119110883Y-53630329D01*
X119128607Y-53646393D01*
X119144671Y-53664117D01*
X119158921Y-53683330D01*
X119171218Y-53703847D01*
X119181446Y-53725471D01*
X119189504Y-53747993D01*
X119195316Y-53771197D01*
X119198826Y-53794858D01*
X119200000Y-53818750D01*
X119200000Y-54306250D01*
X119198826Y-54330142D01*
X119195316Y-54353803D01*
X119189504Y-54377007D01*
X119181446Y-54399529D01*
X119171218Y-54421153D01*
X119158921Y-54441670D01*
X119144671Y-54460883D01*
X119128607Y-54478607D01*
X119110883Y-54494671D01*
X119091670Y-54508921D01*
X119071153Y-54521218D01*
X119049529Y-54531446D01*
X119027007Y-54539504D01*
X119003803Y-54545316D01*
X118980142Y-54548826D01*
X118956250Y-54550000D01*
X118043750Y-54550000D01*
X118019858Y-54548826D01*
X117996197Y-54545316D01*
X117972993Y-54539504D01*
X117950471Y-54531446D01*
X117928847Y-54521218D01*
X117908330Y-54508921D01*
X117889117Y-54494671D01*
X117871393Y-54478607D01*
X117855329Y-54460883D01*
X117841079Y-54441670D01*
X117828782Y-54421153D01*
X117818554Y-54399529D01*
X117810496Y-54377007D01*
X117804684Y-54353803D01*
X117801174Y-54330142D01*
X117800000Y-54306250D01*
X117800000Y-53818750D01*
X117801174Y-53794858D01*
X117804684Y-53771197D01*
X117810496Y-53747993D01*
X117818554Y-53725471D01*
X117828782Y-53703847D01*
X117841079Y-53683330D01*
X117855329Y-53664117D01*
X117871393Y-53646393D01*
X117889117Y-53630329D01*
X117908330Y-53616079D01*
X117928847Y-53603782D01*
X117950471Y-53593554D01*
X117972993Y-53585496D01*
X117996197Y-53579684D01*
X118019858Y-53576174D01*
X118043750Y-53575000D01*
X118956250Y-53575000D01*
X118980142Y-53576174D01*
X118980142Y-53576174D01*
G37*
D11*
X118500000Y-54062500D03*
D10*
G36*
X118980142Y-55451174D02*
X119003803Y-55454684D01*
X119027007Y-55460496D01*
X119049529Y-55468554D01*
X119071153Y-55478782D01*
X119091670Y-55491079D01*
X119110883Y-55505329D01*
X119128607Y-55521393D01*
X119144671Y-55539117D01*
X119158921Y-55558330D01*
X119171218Y-55578847D01*
X119181446Y-55600471D01*
X119189504Y-55622993D01*
X119195316Y-55646197D01*
X119198826Y-55669858D01*
X119200000Y-55693750D01*
X119200000Y-56181250D01*
X119198826Y-56205142D01*
X119195316Y-56228803D01*
X119189504Y-56252007D01*
X119181446Y-56274529D01*
X119171218Y-56296153D01*
X119158921Y-56316670D01*
X119144671Y-56335883D01*
X119128607Y-56353607D01*
X119110883Y-56369671D01*
X119091670Y-56383921D01*
X119071153Y-56396218D01*
X119049529Y-56406446D01*
X119027007Y-56414504D01*
X119003803Y-56420316D01*
X118980142Y-56423826D01*
X118956250Y-56425000D01*
X118043750Y-56425000D01*
X118019858Y-56423826D01*
X117996197Y-56420316D01*
X117972993Y-56414504D01*
X117950471Y-56406446D01*
X117928847Y-56396218D01*
X117908330Y-56383921D01*
X117889117Y-56369671D01*
X117871393Y-56353607D01*
X117855329Y-56335883D01*
X117841079Y-56316670D01*
X117828782Y-56296153D01*
X117818554Y-56274529D01*
X117810496Y-56252007D01*
X117804684Y-56228803D01*
X117801174Y-56205142D01*
X117800000Y-56181250D01*
X117800000Y-55693750D01*
X117801174Y-55669858D01*
X117804684Y-55646197D01*
X117810496Y-55622993D01*
X117818554Y-55600471D01*
X117828782Y-55578847D01*
X117841079Y-55558330D01*
X117855329Y-55539117D01*
X117871393Y-55521393D01*
X117889117Y-55505329D01*
X117908330Y-55491079D01*
X117928847Y-55478782D01*
X117950471Y-55468554D01*
X117972993Y-55460496D01*
X117996197Y-55454684D01*
X118019858Y-55451174D01*
X118043750Y-55450000D01*
X118956250Y-55450000D01*
X118980142Y-55451174D01*
X118980142Y-55451174D01*
G37*
D11*
X118500000Y-55937500D03*
G04 #@! TD*
D10*
G04 #@! TO.C,R3*
G36*
X109850142Y-51301174D02*
X109873803Y-51304684D01*
X109897007Y-51310496D01*
X109919529Y-51318554D01*
X109941153Y-51328782D01*
X109961670Y-51341079D01*
X109980883Y-51355329D01*
X109998607Y-51371393D01*
X110014671Y-51389117D01*
X110028921Y-51408330D01*
X110041218Y-51428847D01*
X110051446Y-51450471D01*
X110059504Y-51472993D01*
X110065316Y-51496197D01*
X110068826Y-51519858D01*
X110070000Y-51543750D01*
X110070000Y-52456250D01*
X110068826Y-52480142D01*
X110065316Y-52503803D01*
X110059504Y-52527007D01*
X110051446Y-52549529D01*
X110041218Y-52571153D01*
X110028921Y-52591670D01*
X110014671Y-52610883D01*
X109998607Y-52628607D01*
X109980883Y-52644671D01*
X109961670Y-52658921D01*
X109941153Y-52671218D01*
X109919529Y-52681446D01*
X109897007Y-52689504D01*
X109873803Y-52695316D01*
X109850142Y-52698826D01*
X109826250Y-52700000D01*
X109338750Y-52700000D01*
X109314858Y-52698826D01*
X109291197Y-52695316D01*
X109267993Y-52689504D01*
X109245471Y-52681446D01*
X109223847Y-52671218D01*
X109203330Y-52658921D01*
X109184117Y-52644671D01*
X109166393Y-52628607D01*
X109150329Y-52610883D01*
X109136079Y-52591670D01*
X109123782Y-52571153D01*
X109113554Y-52549529D01*
X109105496Y-52527007D01*
X109099684Y-52503803D01*
X109096174Y-52480142D01*
X109095000Y-52456250D01*
X109095000Y-51543750D01*
X109096174Y-51519858D01*
X109099684Y-51496197D01*
X109105496Y-51472993D01*
X109113554Y-51450471D01*
X109123782Y-51428847D01*
X109136079Y-51408330D01*
X109150329Y-51389117D01*
X109166393Y-51371393D01*
X109184117Y-51355329D01*
X109203330Y-51341079D01*
X109223847Y-51328782D01*
X109245471Y-51318554D01*
X109267993Y-51310496D01*
X109291197Y-51304684D01*
X109314858Y-51301174D01*
X109338750Y-51300000D01*
X109826250Y-51300000D01*
X109850142Y-51301174D01*
X109850142Y-51301174D01*
G37*
D11*
X109582500Y-52000000D03*
D10*
G36*
X111725142Y-51301174D02*
X111748803Y-51304684D01*
X111772007Y-51310496D01*
X111794529Y-51318554D01*
X111816153Y-51328782D01*
X111836670Y-51341079D01*
X111855883Y-51355329D01*
X111873607Y-51371393D01*
X111889671Y-51389117D01*
X111903921Y-51408330D01*
X111916218Y-51428847D01*
X111926446Y-51450471D01*
X111934504Y-51472993D01*
X111940316Y-51496197D01*
X111943826Y-51519858D01*
X111945000Y-51543750D01*
X111945000Y-52456250D01*
X111943826Y-52480142D01*
X111940316Y-52503803D01*
X111934504Y-52527007D01*
X111926446Y-52549529D01*
X111916218Y-52571153D01*
X111903921Y-52591670D01*
X111889671Y-52610883D01*
X111873607Y-52628607D01*
X111855883Y-52644671D01*
X111836670Y-52658921D01*
X111816153Y-52671218D01*
X111794529Y-52681446D01*
X111772007Y-52689504D01*
X111748803Y-52695316D01*
X111725142Y-52698826D01*
X111701250Y-52700000D01*
X111213750Y-52700000D01*
X111189858Y-52698826D01*
X111166197Y-52695316D01*
X111142993Y-52689504D01*
X111120471Y-52681446D01*
X111098847Y-52671218D01*
X111078330Y-52658921D01*
X111059117Y-52644671D01*
X111041393Y-52628607D01*
X111025329Y-52610883D01*
X111011079Y-52591670D01*
X110998782Y-52571153D01*
X110988554Y-52549529D01*
X110980496Y-52527007D01*
X110974684Y-52503803D01*
X110971174Y-52480142D01*
X110970000Y-52456250D01*
X110970000Y-51543750D01*
X110971174Y-51519858D01*
X110974684Y-51496197D01*
X110980496Y-51472993D01*
X110988554Y-51450471D01*
X110998782Y-51428847D01*
X111011079Y-51408330D01*
X111025329Y-51389117D01*
X111041393Y-51371393D01*
X111059117Y-51355329D01*
X111078330Y-51341079D01*
X111098847Y-51328782D01*
X111120471Y-51318554D01*
X111142993Y-51310496D01*
X111166197Y-51304684D01*
X111189858Y-51301174D01*
X111213750Y-51300000D01*
X111701250Y-51300000D01*
X111725142Y-51301174D01*
X111725142Y-51301174D01*
G37*
D11*
X111457500Y-52000000D03*
G04 #@! TD*
D10*
G04 #@! TO.C,R2*
G36*
X134980142Y-53576174D02*
X135003803Y-53579684D01*
X135027007Y-53585496D01*
X135049529Y-53593554D01*
X135071153Y-53603782D01*
X135091670Y-53616079D01*
X135110883Y-53630329D01*
X135128607Y-53646393D01*
X135144671Y-53664117D01*
X135158921Y-53683330D01*
X135171218Y-53703847D01*
X135181446Y-53725471D01*
X135189504Y-53747993D01*
X135195316Y-53771197D01*
X135198826Y-53794858D01*
X135200000Y-53818750D01*
X135200000Y-54306250D01*
X135198826Y-54330142D01*
X135195316Y-54353803D01*
X135189504Y-54377007D01*
X135181446Y-54399529D01*
X135171218Y-54421153D01*
X135158921Y-54441670D01*
X135144671Y-54460883D01*
X135128607Y-54478607D01*
X135110883Y-54494671D01*
X135091670Y-54508921D01*
X135071153Y-54521218D01*
X135049529Y-54531446D01*
X135027007Y-54539504D01*
X135003803Y-54545316D01*
X134980142Y-54548826D01*
X134956250Y-54550000D01*
X134043750Y-54550000D01*
X134019858Y-54548826D01*
X133996197Y-54545316D01*
X133972993Y-54539504D01*
X133950471Y-54531446D01*
X133928847Y-54521218D01*
X133908330Y-54508921D01*
X133889117Y-54494671D01*
X133871393Y-54478607D01*
X133855329Y-54460883D01*
X133841079Y-54441670D01*
X133828782Y-54421153D01*
X133818554Y-54399529D01*
X133810496Y-54377007D01*
X133804684Y-54353803D01*
X133801174Y-54330142D01*
X133800000Y-54306250D01*
X133800000Y-53818750D01*
X133801174Y-53794858D01*
X133804684Y-53771197D01*
X133810496Y-53747993D01*
X133818554Y-53725471D01*
X133828782Y-53703847D01*
X133841079Y-53683330D01*
X133855329Y-53664117D01*
X133871393Y-53646393D01*
X133889117Y-53630329D01*
X133908330Y-53616079D01*
X133928847Y-53603782D01*
X133950471Y-53593554D01*
X133972993Y-53585496D01*
X133996197Y-53579684D01*
X134019858Y-53576174D01*
X134043750Y-53575000D01*
X134956250Y-53575000D01*
X134980142Y-53576174D01*
X134980142Y-53576174D01*
G37*
D11*
X134500000Y-54062500D03*
D10*
G36*
X134980142Y-55451174D02*
X135003803Y-55454684D01*
X135027007Y-55460496D01*
X135049529Y-55468554D01*
X135071153Y-55478782D01*
X135091670Y-55491079D01*
X135110883Y-55505329D01*
X135128607Y-55521393D01*
X135144671Y-55539117D01*
X135158921Y-55558330D01*
X135171218Y-55578847D01*
X135181446Y-55600471D01*
X135189504Y-55622993D01*
X135195316Y-55646197D01*
X135198826Y-55669858D01*
X135200000Y-55693750D01*
X135200000Y-56181250D01*
X135198826Y-56205142D01*
X135195316Y-56228803D01*
X135189504Y-56252007D01*
X135181446Y-56274529D01*
X135171218Y-56296153D01*
X135158921Y-56316670D01*
X135144671Y-56335883D01*
X135128607Y-56353607D01*
X135110883Y-56369671D01*
X135091670Y-56383921D01*
X135071153Y-56396218D01*
X135049529Y-56406446D01*
X135027007Y-56414504D01*
X135003803Y-56420316D01*
X134980142Y-56423826D01*
X134956250Y-56425000D01*
X134043750Y-56425000D01*
X134019858Y-56423826D01*
X133996197Y-56420316D01*
X133972993Y-56414504D01*
X133950471Y-56406446D01*
X133928847Y-56396218D01*
X133908330Y-56383921D01*
X133889117Y-56369671D01*
X133871393Y-56353607D01*
X133855329Y-56335883D01*
X133841079Y-56316670D01*
X133828782Y-56296153D01*
X133818554Y-56274529D01*
X133810496Y-56252007D01*
X133804684Y-56228803D01*
X133801174Y-56205142D01*
X133800000Y-56181250D01*
X133800000Y-55693750D01*
X133801174Y-55669858D01*
X133804684Y-55646197D01*
X133810496Y-55622993D01*
X133818554Y-55600471D01*
X133828782Y-55578847D01*
X133841079Y-55558330D01*
X133855329Y-55539117D01*
X133871393Y-55521393D01*
X133889117Y-55505329D01*
X133908330Y-55491079D01*
X133928847Y-55478782D01*
X133950471Y-55468554D01*
X133972993Y-55460496D01*
X133996197Y-55454684D01*
X134019858Y-55451174D01*
X134043750Y-55450000D01*
X134956250Y-55450000D01*
X134980142Y-55451174D01*
X134980142Y-55451174D01*
G37*
D11*
X134500000Y-55937500D03*
G04 #@! TD*
D10*
G04 #@! TO.C,R32*
G36*
X93980142Y-75138674D02*
X94003803Y-75142184D01*
X94027007Y-75147996D01*
X94049529Y-75156054D01*
X94071153Y-75166282D01*
X94091670Y-75178579D01*
X94110883Y-75192829D01*
X94128607Y-75208893D01*
X94144671Y-75226617D01*
X94158921Y-75245830D01*
X94171218Y-75266347D01*
X94181446Y-75287971D01*
X94189504Y-75310493D01*
X94195316Y-75333697D01*
X94198826Y-75357358D01*
X94200000Y-75381250D01*
X94200000Y-75868750D01*
X94198826Y-75892642D01*
X94195316Y-75916303D01*
X94189504Y-75939507D01*
X94181446Y-75962029D01*
X94171218Y-75983653D01*
X94158921Y-76004170D01*
X94144671Y-76023383D01*
X94128607Y-76041107D01*
X94110883Y-76057171D01*
X94091670Y-76071421D01*
X94071153Y-76083718D01*
X94049529Y-76093946D01*
X94027007Y-76102004D01*
X94003803Y-76107816D01*
X93980142Y-76111326D01*
X93956250Y-76112500D01*
X93043750Y-76112500D01*
X93019858Y-76111326D01*
X92996197Y-76107816D01*
X92972993Y-76102004D01*
X92950471Y-76093946D01*
X92928847Y-76083718D01*
X92908330Y-76071421D01*
X92889117Y-76057171D01*
X92871393Y-76041107D01*
X92855329Y-76023383D01*
X92841079Y-76004170D01*
X92828782Y-75983653D01*
X92818554Y-75962029D01*
X92810496Y-75939507D01*
X92804684Y-75916303D01*
X92801174Y-75892642D01*
X92800000Y-75868750D01*
X92800000Y-75381250D01*
X92801174Y-75357358D01*
X92804684Y-75333697D01*
X92810496Y-75310493D01*
X92818554Y-75287971D01*
X92828782Y-75266347D01*
X92841079Y-75245830D01*
X92855329Y-75226617D01*
X92871393Y-75208893D01*
X92889117Y-75192829D01*
X92908330Y-75178579D01*
X92928847Y-75166282D01*
X92950471Y-75156054D01*
X92972993Y-75147996D01*
X92996197Y-75142184D01*
X93019858Y-75138674D01*
X93043750Y-75137500D01*
X93956250Y-75137500D01*
X93980142Y-75138674D01*
X93980142Y-75138674D01*
G37*
D11*
X93500000Y-75625000D03*
D10*
G36*
X93980142Y-77013674D02*
X94003803Y-77017184D01*
X94027007Y-77022996D01*
X94049529Y-77031054D01*
X94071153Y-77041282D01*
X94091670Y-77053579D01*
X94110883Y-77067829D01*
X94128607Y-77083893D01*
X94144671Y-77101617D01*
X94158921Y-77120830D01*
X94171218Y-77141347D01*
X94181446Y-77162971D01*
X94189504Y-77185493D01*
X94195316Y-77208697D01*
X94198826Y-77232358D01*
X94200000Y-77256250D01*
X94200000Y-77743750D01*
X94198826Y-77767642D01*
X94195316Y-77791303D01*
X94189504Y-77814507D01*
X94181446Y-77837029D01*
X94171218Y-77858653D01*
X94158921Y-77879170D01*
X94144671Y-77898383D01*
X94128607Y-77916107D01*
X94110883Y-77932171D01*
X94091670Y-77946421D01*
X94071153Y-77958718D01*
X94049529Y-77968946D01*
X94027007Y-77977004D01*
X94003803Y-77982816D01*
X93980142Y-77986326D01*
X93956250Y-77987500D01*
X93043750Y-77987500D01*
X93019858Y-77986326D01*
X92996197Y-77982816D01*
X92972993Y-77977004D01*
X92950471Y-77968946D01*
X92928847Y-77958718D01*
X92908330Y-77946421D01*
X92889117Y-77932171D01*
X92871393Y-77916107D01*
X92855329Y-77898383D01*
X92841079Y-77879170D01*
X92828782Y-77858653D01*
X92818554Y-77837029D01*
X92810496Y-77814507D01*
X92804684Y-77791303D01*
X92801174Y-77767642D01*
X92800000Y-77743750D01*
X92800000Y-77256250D01*
X92801174Y-77232358D01*
X92804684Y-77208697D01*
X92810496Y-77185493D01*
X92818554Y-77162971D01*
X92828782Y-77141347D01*
X92841079Y-77120830D01*
X92855329Y-77101617D01*
X92871393Y-77083893D01*
X92889117Y-77067829D01*
X92908330Y-77053579D01*
X92928847Y-77041282D01*
X92950471Y-77031054D01*
X92972993Y-77022996D01*
X92996197Y-77017184D01*
X93019858Y-77013674D01*
X93043750Y-77012500D01*
X93956250Y-77012500D01*
X93980142Y-77013674D01*
X93980142Y-77013674D01*
G37*
D11*
X93500000Y-77500000D03*
G04 #@! TD*
D10*
G04 #@! TO.C,R16*
G36*
X118980142Y-62576174D02*
X119003803Y-62579684D01*
X119027007Y-62585496D01*
X119049529Y-62593554D01*
X119071153Y-62603782D01*
X119091670Y-62616079D01*
X119110883Y-62630329D01*
X119128607Y-62646393D01*
X119144671Y-62664117D01*
X119158921Y-62683330D01*
X119171218Y-62703847D01*
X119181446Y-62725471D01*
X119189504Y-62747993D01*
X119195316Y-62771197D01*
X119198826Y-62794858D01*
X119200000Y-62818750D01*
X119200000Y-63306250D01*
X119198826Y-63330142D01*
X119195316Y-63353803D01*
X119189504Y-63377007D01*
X119181446Y-63399529D01*
X119171218Y-63421153D01*
X119158921Y-63441670D01*
X119144671Y-63460883D01*
X119128607Y-63478607D01*
X119110883Y-63494671D01*
X119091670Y-63508921D01*
X119071153Y-63521218D01*
X119049529Y-63531446D01*
X119027007Y-63539504D01*
X119003803Y-63545316D01*
X118980142Y-63548826D01*
X118956250Y-63550000D01*
X118043750Y-63550000D01*
X118019858Y-63548826D01*
X117996197Y-63545316D01*
X117972993Y-63539504D01*
X117950471Y-63531446D01*
X117928847Y-63521218D01*
X117908330Y-63508921D01*
X117889117Y-63494671D01*
X117871393Y-63478607D01*
X117855329Y-63460883D01*
X117841079Y-63441670D01*
X117828782Y-63421153D01*
X117818554Y-63399529D01*
X117810496Y-63377007D01*
X117804684Y-63353803D01*
X117801174Y-63330142D01*
X117800000Y-63306250D01*
X117800000Y-62818750D01*
X117801174Y-62794858D01*
X117804684Y-62771197D01*
X117810496Y-62747993D01*
X117818554Y-62725471D01*
X117828782Y-62703847D01*
X117841079Y-62683330D01*
X117855329Y-62664117D01*
X117871393Y-62646393D01*
X117889117Y-62630329D01*
X117908330Y-62616079D01*
X117928847Y-62603782D01*
X117950471Y-62593554D01*
X117972993Y-62585496D01*
X117996197Y-62579684D01*
X118019858Y-62576174D01*
X118043750Y-62575000D01*
X118956250Y-62575000D01*
X118980142Y-62576174D01*
X118980142Y-62576174D01*
G37*
D11*
X118500000Y-63062500D03*
D10*
G36*
X118980142Y-64451174D02*
X119003803Y-64454684D01*
X119027007Y-64460496D01*
X119049529Y-64468554D01*
X119071153Y-64478782D01*
X119091670Y-64491079D01*
X119110883Y-64505329D01*
X119128607Y-64521393D01*
X119144671Y-64539117D01*
X119158921Y-64558330D01*
X119171218Y-64578847D01*
X119181446Y-64600471D01*
X119189504Y-64622993D01*
X119195316Y-64646197D01*
X119198826Y-64669858D01*
X119200000Y-64693750D01*
X119200000Y-65181250D01*
X119198826Y-65205142D01*
X119195316Y-65228803D01*
X119189504Y-65252007D01*
X119181446Y-65274529D01*
X119171218Y-65296153D01*
X119158921Y-65316670D01*
X119144671Y-65335883D01*
X119128607Y-65353607D01*
X119110883Y-65369671D01*
X119091670Y-65383921D01*
X119071153Y-65396218D01*
X119049529Y-65406446D01*
X119027007Y-65414504D01*
X119003803Y-65420316D01*
X118980142Y-65423826D01*
X118956250Y-65425000D01*
X118043750Y-65425000D01*
X118019858Y-65423826D01*
X117996197Y-65420316D01*
X117972993Y-65414504D01*
X117950471Y-65406446D01*
X117928847Y-65396218D01*
X117908330Y-65383921D01*
X117889117Y-65369671D01*
X117871393Y-65353607D01*
X117855329Y-65335883D01*
X117841079Y-65316670D01*
X117828782Y-65296153D01*
X117818554Y-65274529D01*
X117810496Y-65252007D01*
X117804684Y-65228803D01*
X117801174Y-65205142D01*
X117800000Y-65181250D01*
X117800000Y-64693750D01*
X117801174Y-64669858D01*
X117804684Y-64646197D01*
X117810496Y-64622993D01*
X117818554Y-64600471D01*
X117828782Y-64578847D01*
X117841079Y-64558330D01*
X117855329Y-64539117D01*
X117871393Y-64521393D01*
X117889117Y-64505329D01*
X117908330Y-64491079D01*
X117928847Y-64478782D01*
X117950471Y-64468554D01*
X117972993Y-64460496D01*
X117996197Y-64454684D01*
X118019858Y-64451174D01*
X118043750Y-64450000D01*
X118956250Y-64450000D01*
X118980142Y-64451174D01*
X118980142Y-64451174D01*
G37*
D11*
X118500000Y-64937500D03*
G04 #@! TD*
D10*
G04 #@! TO.C,R17*
G36*
X142980142Y-64451174D02*
X143003803Y-64454684D01*
X143027007Y-64460496D01*
X143049529Y-64468554D01*
X143071153Y-64478782D01*
X143091670Y-64491079D01*
X143110883Y-64505329D01*
X143128607Y-64521393D01*
X143144671Y-64539117D01*
X143158921Y-64558330D01*
X143171218Y-64578847D01*
X143181446Y-64600471D01*
X143189504Y-64622993D01*
X143195316Y-64646197D01*
X143198826Y-64669858D01*
X143200000Y-64693750D01*
X143200000Y-65181250D01*
X143198826Y-65205142D01*
X143195316Y-65228803D01*
X143189504Y-65252007D01*
X143181446Y-65274529D01*
X143171218Y-65296153D01*
X143158921Y-65316670D01*
X143144671Y-65335883D01*
X143128607Y-65353607D01*
X143110883Y-65369671D01*
X143091670Y-65383921D01*
X143071153Y-65396218D01*
X143049529Y-65406446D01*
X143027007Y-65414504D01*
X143003803Y-65420316D01*
X142980142Y-65423826D01*
X142956250Y-65425000D01*
X142043750Y-65425000D01*
X142019858Y-65423826D01*
X141996197Y-65420316D01*
X141972993Y-65414504D01*
X141950471Y-65406446D01*
X141928847Y-65396218D01*
X141908330Y-65383921D01*
X141889117Y-65369671D01*
X141871393Y-65353607D01*
X141855329Y-65335883D01*
X141841079Y-65316670D01*
X141828782Y-65296153D01*
X141818554Y-65274529D01*
X141810496Y-65252007D01*
X141804684Y-65228803D01*
X141801174Y-65205142D01*
X141800000Y-65181250D01*
X141800000Y-64693750D01*
X141801174Y-64669858D01*
X141804684Y-64646197D01*
X141810496Y-64622993D01*
X141818554Y-64600471D01*
X141828782Y-64578847D01*
X141841079Y-64558330D01*
X141855329Y-64539117D01*
X141871393Y-64521393D01*
X141889117Y-64505329D01*
X141908330Y-64491079D01*
X141928847Y-64478782D01*
X141950471Y-64468554D01*
X141972993Y-64460496D01*
X141996197Y-64454684D01*
X142019858Y-64451174D01*
X142043750Y-64450000D01*
X142956250Y-64450000D01*
X142980142Y-64451174D01*
X142980142Y-64451174D01*
G37*
D11*
X142500000Y-64937500D03*
D10*
G36*
X142980142Y-62576174D02*
X143003803Y-62579684D01*
X143027007Y-62585496D01*
X143049529Y-62593554D01*
X143071153Y-62603782D01*
X143091670Y-62616079D01*
X143110883Y-62630329D01*
X143128607Y-62646393D01*
X143144671Y-62664117D01*
X143158921Y-62683330D01*
X143171218Y-62703847D01*
X143181446Y-62725471D01*
X143189504Y-62747993D01*
X143195316Y-62771197D01*
X143198826Y-62794858D01*
X143200000Y-62818750D01*
X143200000Y-63306250D01*
X143198826Y-63330142D01*
X143195316Y-63353803D01*
X143189504Y-63377007D01*
X143181446Y-63399529D01*
X143171218Y-63421153D01*
X143158921Y-63441670D01*
X143144671Y-63460883D01*
X143128607Y-63478607D01*
X143110883Y-63494671D01*
X143091670Y-63508921D01*
X143071153Y-63521218D01*
X143049529Y-63531446D01*
X143027007Y-63539504D01*
X143003803Y-63545316D01*
X142980142Y-63548826D01*
X142956250Y-63550000D01*
X142043750Y-63550000D01*
X142019858Y-63548826D01*
X141996197Y-63545316D01*
X141972993Y-63539504D01*
X141950471Y-63531446D01*
X141928847Y-63521218D01*
X141908330Y-63508921D01*
X141889117Y-63494671D01*
X141871393Y-63478607D01*
X141855329Y-63460883D01*
X141841079Y-63441670D01*
X141828782Y-63421153D01*
X141818554Y-63399529D01*
X141810496Y-63377007D01*
X141804684Y-63353803D01*
X141801174Y-63330142D01*
X141800000Y-63306250D01*
X141800000Y-62818750D01*
X141801174Y-62794858D01*
X141804684Y-62771197D01*
X141810496Y-62747993D01*
X141818554Y-62725471D01*
X141828782Y-62703847D01*
X141841079Y-62683330D01*
X141855329Y-62664117D01*
X141871393Y-62646393D01*
X141889117Y-62630329D01*
X141908330Y-62616079D01*
X141928847Y-62603782D01*
X141950471Y-62593554D01*
X141972993Y-62585496D01*
X141996197Y-62579684D01*
X142019858Y-62576174D01*
X142043750Y-62575000D01*
X142956250Y-62575000D01*
X142980142Y-62576174D01*
X142980142Y-62576174D01*
G37*
D11*
X142500000Y-63062500D03*
G04 #@! TD*
D10*
G04 #@! TO.C,R18*
G36*
X114225142Y-59801174D02*
X114248803Y-59804684D01*
X114272007Y-59810496D01*
X114294529Y-59818554D01*
X114316153Y-59828782D01*
X114336670Y-59841079D01*
X114355883Y-59855329D01*
X114373607Y-59871393D01*
X114389671Y-59889117D01*
X114403921Y-59908330D01*
X114416218Y-59928847D01*
X114426446Y-59950471D01*
X114434504Y-59972993D01*
X114440316Y-59996197D01*
X114443826Y-60019858D01*
X114445000Y-60043750D01*
X114445000Y-60956250D01*
X114443826Y-60980142D01*
X114440316Y-61003803D01*
X114434504Y-61027007D01*
X114426446Y-61049529D01*
X114416218Y-61071153D01*
X114403921Y-61091670D01*
X114389671Y-61110883D01*
X114373607Y-61128607D01*
X114355883Y-61144671D01*
X114336670Y-61158921D01*
X114316153Y-61171218D01*
X114294529Y-61181446D01*
X114272007Y-61189504D01*
X114248803Y-61195316D01*
X114225142Y-61198826D01*
X114201250Y-61200000D01*
X113713750Y-61200000D01*
X113689858Y-61198826D01*
X113666197Y-61195316D01*
X113642993Y-61189504D01*
X113620471Y-61181446D01*
X113598847Y-61171218D01*
X113578330Y-61158921D01*
X113559117Y-61144671D01*
X113541393Y-61128607D01*
X113525329Y-61110883D01*
X113511079Y-61091670D01*
X113498782Y-61071153D01*
X113488554Y-61049529D01*
X113480496Y-61027007D01*
X113474684Y-61003803D01*
X113471174Y-60980142D01*
X113470000Y-60956250D01*
X113470000Y-60043750D01*
X113471174Y-60019858D01*
X113474684Y-59996197D01*
X113480496Y-59972993D01*
X113488554Y-59950471D01*
X113498782Y-59928847D01*
X113511079Y-59908330D01*
X113525329Y-59889117D01*
X113541393Y-59871393D01*
X113559117Y-59855329D01*
X113578330Y-59841079D01*
X113598847Y-59828782D01*
X113620471Y-59818554D01*
X113642993Y-59810496D01*
X113666197Y-59804684D01*
X113689858Y-59801174D01*
X113713750Y-59800000D01*
X114201250Y-59800000D01*
X114225142Y-59801174D01*
X114225142Y-59801174D01*
G37*
D11*
X113957500Y-60500000D03*
D10*
G36*
X116100142Y-59801174D02*
X116123803Y-59804684D01*
X116147007Y-59810496D01*
X116169529Y-59818554D01*
X116191153Y-59828782D01*
X116211670Y-59841079D01*
X116230883Y-59855329D01*
X116248607Y-59871393D01*
X116264671Y-59889117D01*
X116278921Y-59908330D01*
X116291218Y-59928847D01*
X116301446Y-59950471D01*
X116309504Y-59972993D01*
X116315316Y-59996197D01*
X116318826Y-60019858D01*
X116320000Y-60043750D01*
X116320000Y-60956250D01*
X116318826Y-60980142D01*
X116315316Y-61003803D01*
X116309504Y-61027007D01*
X116301446Y-61049529D01*
X116291218Y-61071153D01*
X116278921Y-61091670D01*
X116264671Y-61110883D01*
X116248607Y-61128607D01*
X116230883Y-61144671D01*
X116211670Y-61158921D01*
X116191153Y-61171218D01*
X116169529Y-61181446D01*
X116147007Y-61189504D01*
X116123803Y-61195316D01*
X116100142Y-61198826D01*
X116076250Y-61200000D01*
X115588750Y-61200000D01*
X115564858Y-61198826D01*
X115541197Y-61195316D01*
X115517993Y-61189504D01*
X115495471Y-61181446D01*
X115473847Y-61171218D01*
X115453330Y-61158921D01*
X115434117Y-61144671D01*
X115416393Y-61128607D01*
X115400329Y-61110883D01*
X115386079Y-61091670D01*
X115373782Y-61071153D01*
X115363554Y-61049529D01*
X115355496Y-61027007D01*
X115349684Y-61003803D01*
X115346174Y-60980142D01*
X115345000Y-60956250D01*
X115345000Y-60043750D01*
X115346174Y-60019858D01*
X115349684Y-59996197D01*
X115355496Y-59972993D01*
X115363554Y-59950471D01*
X115373782Y-59928847D01*
X115386079Y-59908330D01*
X115400329Y-59889117D01*
X115416393Y-59871393D01*
X115434117Y-59855329D01*
X115453330Y-59841079D01*
X115473847Y-59828782D01*
X115495471Y-59818554D01*
X115517993Y-59810496D01*
X115541197Y-59804684D01*
X115564858Y-59801174D01*
X115588750Y-59800000D01*
X116076250Y-59800000D01*
X116100142Y-59801174D01*
X116100142Y-59801174D01*
G37*
D11*
X115832500Y-60500000D03*
G04 #@! TD*
D10*
G04 #@! TO.C,R19*
G36*
X102767642Y-59801174D02*
X102791303Y-59804684D01*
X102814507Y-59810496D01*
X102837029Y-59818554D01*
X102858653Y-59828782D01*
X102879170Y-59841079D01*
X102898383Y-59855329D01*
X102916107Y-59871393D01*
X102932171Y-59889117D01*
X102946421Y-59908330D01*
X102958718Y-59928847D01*
X102968946Y-59950471D01*
X102977004Y-59972993D01*
X102982816Y-59996197D01*
X102986326Y-60019858D01*
X102987500Y-60043750D01*
X102987500Y-60956250D01*
X102986326Y-60980142D01*
X102982816Y-61003803D01*
X102977004Y-61027007D01*
X102968946Y-61049529D01*
X102958718Y-61071153D01*
X102946421Y-61091670D01*
X102932171Y-61110883D01*
X102916107Y-61128607D01*
X102898383Y-61144671D01*
X102879170Y-61158921D01*
X102858653Y-61171218D01*
X102837029Y-61181446D01*
X102814507Y-61189504D01*
X102791303Y-61195316D01*
X102767642Y-61198826D01*
X102743750Y-61200000D01*
X102256250Y-61200000D01*
X102232358Y-61198826D01*
X102208697Y-61195316D01*
X102185493Y-61189504D01*
X102162971Y-61181446D01*
X102141347Y-61171218D01*
X102120830Y-61158921D01*
X102101617Y-61144671D01*
X102083893Y-61128607D01*
X102067829Y-61110883D01*
X102053579Y-61091670D01*
X102041282Y-61071153D01*
X102031054Y-61049529D01*
X102022996Y-61027007D01*
X102017184Y-61003803D01*
X102013674Y-60980142D01*
X102012500Y-60956250D01*
X102012500Y-60043750D01*
X102013674Y-60019858D01*
X102017184Y-59996197D01*
X102022996Y-59972993D01*
X102031054Y-59950471D01*
X102041282Y-59928847D01*
X102053579Y-59908330D01*
X102067829Y-59889117D01*
X102083893Y-59871393D01*
X102101617Y-59855329D01*
X102120830Y-59841079D01*
X102141347Y-59828782D01*
X102162971Y-59818554D01*
X102185493Y-59810496D01*
X102208697Y-59804684D01*
X102232358Y-59801174D01*
X102256250Y-59800000D01*
X102743750Y-59800000D01*
X102767642Y-59801174D01*
X102767642Y-59801174D01*
G37*
D11*
X102500000Y-60500000D03*
D10*
G36*
X100892642Y-59801174D02*
X100916303Y-59804684D01*
X100939507Y-59810496D01*
X100962029Y-59818554D01*
X100983653Y-59828782D01*
X101004170Y-59841079D01*
X101023383Y-59855329D01*
X101041107Y-59871393D01*
X101057171Y-59889117D01*
X101071421Y-59908330D01*
X101083718Y-59928847D01*
X101093946Y-59950471D01*
X101102004Y-59972993D01*
X101107816Y-59996197D01*
X101111326Y-60019858D01*
X101112500Y-60043750D01*
X101112500Y-60956250D01*
X101111326Y-60980142D01*
X101107816Y-61003803D01*
X101102004Y-61027007D01*
X101093946Y-61049529D01*
X101083718Y-61071153D01*
X101071421Y-61091670D01*
X101057171Y-61110883D01*
X101041107Y-61128607D01*
X101023383Y-61144671D01*
X101004170Y-61158921D01*
X100983653Y-61171218D01*
X100962029Y-61181446D01*
X100939507Y-61189504D01*
X100916303Y-61195316D01*
X100892642Y-61198826D01*
X100868750Y-61200000D01*
X100381250Y-61200000D01*
X100357358Y-61198826D01*
X100333697Y-61195316D01*
X100310493Y-61189504D01*
X100287971Y-61181446D01*
X100266347Y-61171218D01*
X100245830Y-61158921D01*
X100226617Y-61144671D01*
X100208893Y-61128607D01*
X100192829Y-61110883D01*
X100178579Y-61091670D01*
X100166282Y-61071153D01*
X100156054Y-61049529D01*
X100147996Y-61027007D01*
X100142184Y-61003803D01*
X100138674Y-60980142D01*
X100137500Y-60956250D01*
X100137500Y-60043750D01*
X100138674Y-60019858D01*
X100142184Y-59996197D01*
X100147996Y-59972993D01*
X100156054Y-59950471D01*
X100166282Y-59928847D01*
X100178579Y-59908330D01*
X100192829Y-59889117D01*
X100208893Y-59871393D01*
X100226617Y-59855329D01*
X100245830Y-59841079D01*
X100266347Y-59828782D01*
X100287971Y-59818554D01*
X100310493Y-59810496D01*
X100333697Y-59804684D01*
X100357358Y-59801174D01*
X100381250Y-59800000D01*
X100868750Y-59800000D01*
X100892642Y-59801174D01*
X100892642Y-59801174D01*
G37*
D11*
X100625000Y-60500000D03*
G04 #@! TD*
D10*
G04 #@! TO.C,R20*
G36*
X134980142Y-71576174D02*
X135003803Y-71579684D01*
X135027007Y-71585496D01*
X135049529Y-71593554D01*
X135071153Y-71603782D01*
X135091670Y-71616079D01*
X135110883Y-71630329D01*
X135128607Y-71646393D01*
X135144671Y-71664117D01*
X135158921Y-71683330D01*
X135171218Y-71703847D01*
X135181446Y-71725471D01*
X135189504Y-71747993D01*
X135195316Y-71771197D01*
X135198826Y-71794858D01*
X135200000Y-71818750D01*
X135200000Y-72306250D01*
X135198826Y-72330142D01*
X135195316Y-72353803D01*
X135189504Y-72377007D01*
X135181446Y-72399529D01*
X135171218Y-72421153D01*
X135158921Y-72441670D01*
X135144671Y-72460883D01*
X135128607Y-72478607D01*
X135110883Y-72494671D01*
X135091670Y-72508921D01*
X135071153Y-72521218D01*
X135049529Y-72531446D01*
X135027007Y-72539504D01*
X135003803Y-72545316D01*
X134980142Y-72548826D01*
X134956250Y-72550000D01*
X134043750Y-72550000D01*
X134019858Y-72548826D01*
X133996197Y-72545316D01*
X133972993Y-72539504D01*
X133950471Y-72531446D01*
X133928847Y-72521218D01*
X133908330Y-72508921D01*
X133889117Y-72494671D01*
X133871393Y-72478607D01*
X133855329Y-72460883D01*
X133841079Y-72441670D01*
X133828782Y-72421153D01*
X133818554Y-72399529D01*
X133810496Y-72377007D01*
X133804684Y-72353803D01*
X133801174Y-72330142D01*
X133800000Y-72306250D01*
X133800000Y-71818750D01*
X133801174Y-71794858D01*
X133804684Y-71771197D01*
X133810496Y-71747993D01*
X133818554Y-71725471D01*
X133828782Y-71703847D01*
X133841079Y-71683330D01*
X133855329Y-71664117D01*
X133871393Y-71646393D01*
X133889117Y-71630329D01*
X133908330Y-71616079D01*
X133928847Y-71603782D01*
X133950471Y-71593554D01*
X133972993Y-71585496D01*
X133996197Y-71579684D01*
X134019858Y-71576174D01*
X134043750Y-71575000D01*
X134956250Y-71575000D01*
X134980142Y-71576174D01*
X134980142Y-71576174D01*
G37*
D11*
X134500000Y-72062500D03*
D10*
G36*
X134980142Y-73451174D02*
X135003803Y-73454684D01*
X135027007Y-73460496D01*
X135049529Y-73468554D01*
X135071153Y-73478782D01*
X135091670Y-73491079D01*
X135110883Y-73505329D01*
X135128607Y-73521393D01*
X135144671Y-73539117D01*
X135158921Y-73558330D01*
X135171218Y-73578847D01*
X135181446Y-73600471D01*
X135189504Y-73622993D01*
X135195316Y-73646197D01*
X135198826Y-73669858D01*
X135200000Y-73693750D01*
X135200000Y-74181250D01*
X135198826Y-74205142D01*
X135195316Y-74228803D01*
X135189504Y-74252007D01*
X135181446Y-74274529D01*
X135171218Y-74296153D01*
X135158921Y-74316670D01*
X135144671Y-74335883D01*
X135128607Y-74353607D01*
X135110883Y-74369671D01*
X135091670Y-74383921D01*
X135071153Y-74396218D01*
X135049529Y-74406446D01*
X135027007Y-74414504D01*
X135003803Y-74420316D01*
X134980142Y-74423826D01*
X134956250Y-74425000D01*
X134043750Y-74425000D01*
X134019858Y-74423826D01*
X133996197Y-74420316D01*
X133972993Y-74414504D01*
X133950471Y-74406446D01*
X133928847Y-74396218D01*
X133908330Y-74383921D01*
X133889117Y-74369671D01*
X133871393Y-74353607D01*
X133855329Y-74335883D01*
X133841079Y-74316670D01*
X133828782Y-74296153D01*
X133818554Y-74274529D01*
X133810496Y-74252007D01*
X133804684Y-74228803D01*
X133801174Y-74205142D01*
X133800000Y-74181250D01*
X133800000Y-73693750D01*
X133801174Y-73669858D01*
X133804684Y-73646197D01*
X133810496Y-73622993D01*
X133818554Y-73600471D01*
X133828782Y-73578847D01*
X133841079Y-73558330D01*
X133855329Y-73539117D01*
X133871393Y-73521393D01*
X133889117Y-73505329D01*
X133908330Y-73491079D01*
X133928847Y-73478782D01*
X133950471Y-73468554D01*
X133972993Y-73460496D01*
X133996197Y-73454684D01*
X134019858Y-73451174D01*
X134043750Y-73450000D01*
X134956250Y-73450000D01*
X134980142Y-73451174D01*
X134980142Y-73451174D01*
G37*
D11*
X134500000Y-73937500D03*
G04 #@! TD*
D10*
G04 #@! TO.C,R22*
G36*
X111725142Y-68801174D02*
X111748803Y-68804684D01*
X111772007Y-68810496D01*
X111794529Y-68818554D01*
X111816153Y-68828782D01*
X111836670Y-68841079D01*
X111855883Y-68855329D01*
X111873607Y-68871393D01*
X111889671Y-68889117D01*
X111903921Y-68908330D01*
X111916218Y-68928847D01*
X111926446Y-68950471D01*
X111934504Y-68972993D01*
X111940316Y-68996197D01*
X111943826Y-69019858D01*
X111945000Y-69043750D01*
X111945000Y-69956250D01*
X111943826Y-69980142D01*
X111940316Y-70003803D01*
X111934504Y-70027007D01*
X111926446Y-70049529D01*
X111916218Y-70071153D01*
X111903921Y-70091670D01*
X111889671Y-70110883D01*
X111873607Y-70128607D01*
X111855883Y-70144671D01*
X111836670Y-70158921D01*
X111816153Y-70171218D01*
X111794529Y-70181446D01*
X111772007Y-70189504D01*
X111748803Y-70195316D01*
X111725142Y-70198826D01*
X111701250Y-70200000D01*
X111213750Y-70200000D01*
X111189858Y-70198826D01*
X111166197Y-70195316D01*
X111142993Y-70189504D01*
X111120471Y-70181446D01*
X111098847Y-70171218D01*
X111078330Y-70158921D01*
X111059117Y-70144671D01*
X111041393Y-70128607D01*
X111025329Y-70110883D01*
X111011079Y-70091670D01*
X110998782Y-70071153D01*
X110988554Y-70049529D01*
X110980496Y-70027007D01*
X110974684Y-70003803D01*
X110971174Y-69980142D01*
X110970000Y-69956250D01*
X110970000Y-69043750D01*
X110971174Y-69019858D01*
X110974684Y-68996197D01*
X110980496Y-68972993D01*
X110988554Y-68950471D01*
X110998782Y-68928847D01*
X111011079Y-68908330D01*
X111025329Y-68889117D01*
X111041393Y-68871393D01*
X111059117Y-68855329D01*
X111078330Y-68841079D01*
X111098847Y-68828782D01*
X111120471Y-68818554D01*
X111142993Y-68810496D01*
X111166197Y-68804684D01*
X111189858Y-68801174D01*
X111213750Y-68800000D01*
X111701250Y-68800000D01*
X111725142Y-68801174D01*
X111725142Y-68801174D01*
G37*
D11*
X111457500Y-69500000D03*
D10*
G36*
X109850142Y-68801174D02*
X109873803Y-68804684D01*
X109897007Y-68810496D01*
X109919529Y-68818554D01*
X109941153Y-68828782D01*
X109961670Y-68841079D01*
X109980883Y-68855329D01*
X109998607Y-68871393D01*
X110014671Y-68889117D01*
X110028921Y-68908330D01*
X110041218Y-68928847D01*
X110051446Y-68950471D01*
X110059504Y-68972993D01*
X110065316Y-68996197D01*
X110068826Y-69019858D01*
X110070000Y-69043750D01*
X110070000Y-69956250D01*
X110068826Y-69980142D01*
X110065316Y-70003803D01*
X110059504Y-70027007D01*
X110051446Y-70049529D01*
X110041218Y-70071153D01*
X110028921Y-70091670D01*
X110014671Y-70110883D01*
X109998607Y-70128607D01*
X109980883Y-70144671D01*
X109961670Y-70158921D01*
X109941153Y-70171218D01*
X109919529Y-70181446D01*
X109897007Y-70189504D01*
X109873803Y-70195316D01*
X109850142Y-70198826D01*
X109826250Y-70200000D01*
X109338750Y-70200000D01*
X109314858Y-70198826D01*
X109291197Y-70195316D01*
X109267993Y-70189504D01*
X109245471Y-70181446D01*
X109223847Y-70171218D01*
X109203330Y-70158921D01*
X109184117Y-70144671D01*
X109166393Y-70128607D01*
X109150329Y-70110883D01*
X109136079Y-70091670D01*
X109123782Y-70071153D01*
X109113554Y-70049529D01*
X109105496Y-70027007D01*
X109099684Y-70003803D01*
X109096174Y-69980142D01*
X109095000Y-69956250D01*
X109095000Y-69043750D01*
X109096174Y-69019858D01*
X109099684Y-68996197D01*
X109105496Y-68972993D01*
X109113554Y-68950471D01*
X109123782Y-68928847D01*
X109136079Y-68908330D01*
X109150329Y-68889117D01*
X109166393Y-68871393D01*
X109184117Y-68855329D01*
X109203330Y-68841079D01*
X109223847Y-68828782D01*
X109245471Y-68818554D01*
X109267993Y-68810496D01*
X109291197Y-68804684D01*
X109314858Y-68801174D01*
X109338750Y-68800000D01*
X109826250Y-68800000D01*
X109850142Y-68801174D01*
X109850142Y-68801174D01*
G37*
D11*
X109582500Y-69500000D03*
G04 #@! TD*
D10*
G04 #@! TO.C,R4*
G36*
X107205142Y-51301174D02*
X107228803Y-51304684D01*
X107252007Y-51310496D01*
X107274529Y-51318554D01*
X107296153Y-51328782D01*
X107316670Y-51341079D01*
X107335883Y-51355329D01*
X107353607Y-51371393D01*
X107369671Y-51389117D01*
X107383921Y-51408330D01*
X107396218Y-51428847D01*
X107406446Y-51450471D01*
X107414504Y-51472993D01*
X107420316Y-51496197D01*
X107423826Y-51519858D01*
X107425000Y-51543750D01*
X107425000Y-52456250D01*
X107423826Y-52480142D01*
X107420316Y-52503803D01*
X107414504Y-52527007D01*
X107406446Y-52549529D01*
X107396218Y-52571153D01*
X107383921Y-52591670D01*
X107369671Y-52610883D01*
X107353607Y-52628607D01*
X107335883Y-52644671D01*
X107316670Y-52658921D01*
X107296153Y-52671218D01*
X107274529Y-52681446D01*
X107252007Y-52689504D01*
X107228803Y-52695316D01*
X107205142Y-52698826D01*
X107181250Y-52700000D01*
X106693750Y-52700000D01*
X106669858Y-52698826D01*
X106646197Y-52695316D01*
X106622993Y-52689504D01*
X106600471Y-52681446D01*
X106578847Y-52671218D01*
X106558330Y-52658921D01*
X106539117Y-52644671D01*
X106521393Y-52628607D01*
X106505329Y-52610883D01*
X106491079Y-52591670D01*
X106478782Y-52571153D01*
X106468554Y-52549529D01*
X106460496Y-52527007D01*
X106454684Y-52503803D01*
X106451174Y-52480142D01*
X106450000Y-52456250D01*
X106450000Y-51543750D01*
X106451174Y-51519858D01*
X106454684Y-51496197D01*
X106460496Y-51472993D01*
X106468554Y-51450471D01*
X106478782Y-51428847D01*
X106491079Y-51408330D01*
X106505329Y-51389117D01*
X106521393Y-51371393D01*
X106539117Y-51355329D01*
X106558330Y-51341079D01*
X106578847Y-51328782D01*
X106600471Y-51318554D01*
X106622993Y-51310496D01*
X106646197Y-51304684D01*
X106669858Y-51301174D01*
X106693750Y-51300000D01*
X107181250Y-51300000D01*
X107205142Y-51301174D01*
X107205142Y-51301174D01*
G37*
D11*
X106937500Y-52000000D03*
D10*
G36*
X105330142Y-51301174D02*
X105353803Y-51304684D01*
X105377007Y-51310496D01*
X105399529Y-51318554D01*
X105421153Y-51328782D01*
X105441670Y-51341079D01*
X105460883Y-51355329D01*
X105478607Y-51371393D01*
X105494671Y-51389117D01*
X105508921Y-51408330D01*
X105521218Y-51428847D01*
X105531446Y-51450471D01*
X105539504Y-51472993D01*
X105545316Y-51496197D01*
X105548826Y-51519858D01*
X105550000Y-51543750D01*
X105550000Y-52456250D01*
X105548826Y-52480142D01*
X105545316Y-52503803D01*
X105539504Y-52527007D01*
X105531446Y-52549529D01*
X105521218Y-52571153D01*
X105508921Y-52591670D01*
X105494671Y-52610883D01*
X105478607Y-52628607D01*
X105460883Y-52644671D01*
X105441670Y-52658921D01*
X105421153Y-52671218D01*
X105399529Y-52681446D01*
X105377007Y-52689504D01*
X105353803Y-52695316D01*
X105330142Y-52698826D01*
X105306250Y-52700000D01*
X104818750Y-52700000D01*
X104794858Y-52698826D01*
X104771197Y-52695316D01*
X104747993Y-52689504D01*
X104725471Y-52681446D01*
X104703847Y-52671218D01*
X104683330Y-52658921D01*
X104664117Y-52644671D01*
X104646393Y-52628607D01*
X104630329Y-52610883D01*
X104616079Y-52591670D01*
X104603782Y-52571153D01*
X104593554Y-52549529D01*
X104585496Y-52527007D01*
X104579684Y-52503803D01*
X104576174Y-52480142D01*
X104575000Y-52456250D01*
X104575000Y-51543750D01*
X104576174Y-51519858D01*
X104579684Y-51496197D01*
X104585496Y-51472993D01*
X104593554Y-51450471D01*
X104603782Y-51428847D01*
X104616079Y-51408330D01*
X104630329Y-51389117D01*
X104646393Y-51371393D01*
X104664117Y-51355329D01*
X104683330Y-51341079D01*
X104703847Y-51328782D01*
X104725471Y-51318554D01*
X104747993Y-51310496D01*
X104771197Y-51304684D01*
X104794858Y-51301174D01*
X104818750Y-51300000D01*
X105306250Y-51300000D01*
X105330142Y-51301174D01*
X105330142Y-51301174D01*
G37*
D11*
X105062500Y-52000000D03*
G04 #@! TD*
D10*
G04 #@! TO.C,R6*
G36*
X142980142Y-55451174D02*
X143003803Y-55454684D01*
X143027007Y-55460496D01*
X143049529Y-55468554D01*
X143071153Y-55478782D01*
X143091670Y-55491079D01*
X143110883Y-55505329D01*
X143128607Y-55521393D01*
X143144671Y-55539117D01*
X143158921Y-55558330D01*
X143171218Y-55578847D01*
X143181446Y-55600471D01*
X143189504Y-55622993D01*
X143195316Y-55646197D01*
X143198826Y-55669858D01*
X143200000Y-55693750D01*
X143200000Y-56181250D01*
X143198826Y-56205142D01*
X143195316Y-56228803D01*
X143189504Y-56252007D01*
X143181446Y-56274529D01*
X143171218Y-56296153D01*
X143158921Y-56316670D01*
X143144671Y-56335883D01*
X143128607Y-56353607D01*
X143110883Y-56369671D01*
X143091670Y-56383921D01*
X143071153Y-56396218D01*
X143049529Y-56406446D01*
X143027007Y-56414504D01*
X143003803Y-56420316D01*
X142980142Y-56423826D01*
X142956250Y-56425000D01*
X142043750Y-56425000D01*
X142019858Y-56423826D01*
X141996197Y-56420316D01*
X141972993Y-56414504D01*
X141950471Y-56406446D01*
X141928847Y-56396218D01*
X141908330Y-56383921D01*
X141889117Y-56369671D01*
X141871393Y-56353607D01*
X141855329Y-56335883D01*
X141841079Y-56316670D01*
X141828782Y-56296153D01*
X141818554Y-56274529D01*
X141810496Y-56252007D01*
X141804684Y-56228803D01*
X141801174Y-56205142D01*
X141800000Y-56181250D01*
X141800000Y-55693750D01*
X141801174Y-55669858D01*
X141804684Y-55646197D01*
X141810496Y-55622993D01*
X141818554Y-55600471D01*
X141828782Y-55578847D01*
X141841079Y-55558330D01*
X141855329Y-55539117D01*
X141871393Y-55521393D01*
X141889117Y-55505329D01*
X141908330Y-55491079D01*
X141928847Y-55478782D01*
X141950471Y-55468554D01*
X141972993Y-55460496D01*
X141996197Y-55454684D01*
X142019858Y-55451174D01*
X142043750Y-55450000D01*
X142956250Y-55450000D01*
X142980142Y-55451174D01*
X142980142Y-55451174D01*
G37*
D11*
X142500000Y-55937500D03*
D10*
G36*
X142980142Y-53576174D02*
X143003803Y-53579684D01*
X143027007Y-53585496D01*
X143049529Y-53593554D01*
X143071153Y-53603782D01*
X143091670Y-53616079D01*
X143110883Y-53630329D01*
X143128607Y-53646393D01*
X143144671Y-53664117D01*
X143158921Y-53683330D01*
X143171218Y-53703847D01*
X143181446Y-53725471D01*
X143189504Y-53747993D01*
X143195316Y-53771197D01*
X143198826Y-53794858D01*
X143200000Y-53818750D01*
X143200000Y-54306250D01*
X143198826Y-54330142D01*
X143195316Y-54353803D01*
X143189504Y-54377007D01*
X143181446Y-54399529D01*
X143171218Y-54421153D01*
X143158921Y-54441670D01*
X143144671Y-54460883D01*
X143128607Y-54478607D01*
X143110883Y-54494671D01*
X143091670Y-54508921D01*
X143071153Y-54521218D01*
X143049529Y-54531446D01*
X143027007Y-54539504D01*
X143003803Y-54545316D01*
X142980142Y-54548826D01*
X142956250Y-54550000D01*
X142043750Y-54550000D01*
X142019858Y-54548826D01*
X141996197Y-54545316D01*
X141972993Y-54539504D01*
X141950471Y-54531446D01*
X141928847Y-54521218D01*
X141908330Y-54508921D01*
X141889117Y-54494671D01*
X141871393Y-54478607D01*
X141855329Y-54460883D01*
X141841079Y-54441670D01*
X141828782Y-54421153D01*
X141818554Y-54399529D01*
X141810496Y-54377007D01*
X141804684Y-54353803D01*
X141801174Y-54330142D01*
X141800000Y-54306250D01*
X141800000Y-53818750D01*
X141801174Y-53794858D01*
X141804684Y-53771197D01*
X141810496Y-53747993D01*
X141818554Y-53725471D01*
X141828782Y-53703847D01*
X141841079Y-53683330D01*
X141855329Y-53664117D01*
X141871393Y-53646393D01*
X141889117Y-53630329D01*
X141908330Y-53616079D01*
X141928847Y-53603782D01*
X141950471Y-53593554D01*
X141972993Y-53585496D01*
X141996197Y-53579684D01*
X142019858Y-53576174D01*
X142043750Y-53575000D01*
X142956250Y-53575000D01*
X142980142Y-53576174D01*
X142980142Y-53576174D01*
G37*
D11*
X142500000Y-54062500D03*
G04 #@! TD*
D10*
G04 #@! TO.C,R7*
G36*
X114225142Y-51301174D02*
X114248803Y-51304684D01*
X114272007Y-51310496D01*
X114294529Y-51318554D01*
X114316153Y-51328782D01*
X114336670Y-51341079D01*
X114355883Y-51355329D01*
X114373607Y-51371393D01*
X114389671Y-51389117D01*
X114403921Y-51408330D01*
X114416218Y-51428847D01*
X114426446Y-51450471D01*
X114434504Y-51472993D01*
X114440316Y-51496197D01*
X114443826Y-51519858D01*
X114445000Y-51543750D01*
X114445000Y-52456250D01*
X114443826Y-52480142D01*
X114440316Y-52503803D01*
X114434504Y-52527007D01*
X114426446Y-52549529D01*
X114416218Y-52571153D01*
X114403921Y-52591670D01*
X114389671Y-52610883D01*
X114373607Y-52628607D01*
X114355883Y-52644671D01*
X114336670Y-52658921D01*
X114316153Y-52671218D01*
X114294529Y-52681446D01*
X114272007Y-52689504D01*
X114248803Y-52695316D01*
X114225142Y-52698826D01*
X114201250Y-52700000D01*
X113713750Y-52700000D01*
X113689858Y-52698826D01*
X113666197Y-52695316D01*
X113642993Y-52689504D01*
X113620471Y-52681446D01*
X113598847Y-52671218D01*
X113578330Y-52658921D01*
X113559117Y-52644671D01*
X113541393Y-52628607D01*
X113525329Y-52610883D01*
X113511079Y-52591670D01*
X113498782Y-52571153D01*
X113488554Y-52549529D01*
X113480496Y-52527007D01*
X113474684Y-52503803D01*
X113471174Y-52480142D01*
X113470000Y-52456250D01*
X113470000Y-51543750D01*
X113471174Y-51519858D01*
X113474684Y-51496197D01*
X113480496Y-51472993D01*
X113488554Y-51450471D01*
X113498782Y-51428847D01*
X113511079Y-51408330D01*
X113525329Y-51389117D01*
X113541393Y-51371393D01*
X113559117Y-51355329D01*
X113578330Y-51341079D01*
X113598847Y-51328782D01*
X113620471Y-51318554D01*
X113642993Y-51310496D01*
X113666197Y-51304684D01*
X113689858Y-51301174D01*
X113713750Y-51300000D01*
X114201250Y-51300000D01*
X114225142Y-51301174D01*
X114225142Y-51301174D01*
G37*
D11*
X113957500Y-52000000D03*
D10*
G36*
X116100142Y-51301174D02*
X116123803Y-51304684D01*
X116147007Y-51310496D01*
X116169529Y-51318554D01*
X116191153Y-51328782D01*
X116211670Y-51341079D01*
X116230883Y-51355329D01*
X116248607Y-51371393D01*
X116264671Y-51389117D01*
X116278921Y-51408330D01*
X116291218Y-51428847D01*
X116301446Y-51450471D01*
X116309504Y-51472993D01*
X116315316Y-51496197D01*
X116318826Y-51519858D01*
X116320000Y-51543750D01*
X116320000Y-52456250D01*
X116318826Y-52480142D01*
X116315316Y-52503803D01*
X116309504Y-52527007D01*
X116301446Y-52549529D01*
X116291218Y-52571153D01*
X116278921Y-52591670D01*
X116264671Y-52610883D01*
X116248607Y-52628607D01*
X116230883Y-52644671D01*
X116211670Y-52658921D01*
X116191153Y-52671218D01*
X116169529Y-52681446D01*
X116147007Y-52689504D01*
X116123803Y-52695316D01*
X116100142Y-52698826D01*
X116076250Y-52700000D01*
X115588750Y-52700000D01*
X115564858Y-52698826D01*
X115541197Y-52695316D01*
X115517993Y-52689504D01*
X115495471Y-52681446D01*
X115473847Y-52671218D01*
X115453330Y-52658921D01*
X115434117Y-52644671D01*
X115416393Y-52628607D01*
X115400329Y-52610883D01*
X115386079Y-52591670D01*
X115373782Y-52571153D01*
X115363554Y-52549529D01*
X115355496Y-52527007D01*
X115349684Y-52503803D01*
X115346174Y-52480142D01*
X115345000Y-52456250D01*
X115345000Y-51543750D01*
X115346174Y-51519858D01*
X115349684Y-51496197D01*
X115355496Y-51472993D01*
X115363554Y-51450471D01*
X115373782Y-51428847D01*
X115386079Y-51408330D01*
X115400329Y-51389117D01*
X115416393Y-51371393D01*
X115434117Y-51355329D01*
X115453330Y-51341079D01*
X115473847Y-51328782D01*
X115495471Y-51318554D01*
X115517993Y-51310496D01*
X115541197Y-51304684D01*
X115564858Y-51301174D01*
X115588750Y-51300000D01*
X116076250Y-51300000D01*
X116100142Y-51301174D01*
X116100142Y-51301174D01*
G37*
D11*
X115832500Y-52000000D03*
G04 #@! TD*
D10*
G04 #@! TO.C,R8*
G36*
X100830142Y-51301174D02*
X100853803Y-51304684D01*
X100877007Y-51310496D01*
X100899529Y-51318554D01*
X100921153Y-51328782D01*
X100941670Y-51341079D01*
X100960883Y-51355329D01*
X100978607Y-51371393D01*
X100994671Y-51389117D01*
X101008921Y-51408330D01*
X101021218Y-51428847D01*
X101031446Y-51450471D01*
X101039504Y-51472993D01*
X101045316Y-51496197D01*
X101048826Y-51519858D01*
X101050000Y-51543750D01*
X101050000Y-52456250D01*
X101048826Y-52480142D01*
X101045316Y-52503803D01*
X101039504Y-52527007D01*
X101031446Y-52549529D01*
X101021218Y-52571153D01*
X101008921Y-52591670D01*
X100994671Y-52610883D01*
X100978607Y-52628607D01*
X100960883Y-52644671D01*
X100941670Y-52658921D01*
X100921153Y-52671218D01*
X100899529Y-52681446D01*
X100877007Y-52689504D01*
X100853803Y-52695316D01*
X100830142Y-52698826D01*
X100806250Y-52700000D01*
X100318750Y-52700000D01*
X100294858Y-52698826D01*
X100271197Y-52695316D01*
X100247993Y-52689504D01*
X100225471Y-52681446D01*
X100203847Y-52671218D01*
X100183330Y-52658921D01*
X100164117Y-52644671D01*
X100146393Y-52628607D01*
X100130329Y-52610883D01*
X100116079Y-52591670D01*
X100103782Y-52571153D01*
X100093554Y-52549529D01*
X100085496Y-52527007D01*
X100079684Y-52503803D01*
X100076174Y-52480142D01*
X100075000Y-52456250D01*
X100075000Y-51543750D01*
X100076174Y-51519858D01*
X100079684Y-51496197D01*
X100085496Y-51472993D01*
X100093554Y-51450471D01*
X100103782Y-51428847D01*
X100116079Y-51408330D01*
X100130329Y-51389117D01*
X100146393Y-51371393D01*
X100164117Y-51355329D01*
X100183330Y-51341079D01*
X100203847Y-51328782D01*
X100225471Y-51318554D01*
X100247993Y-51310496D01*
X100271197Y-51304684D01*
X100294858Y-51301174D01*
X100318750Y-51300000D01*
X100806250Y-51300000D01*
X100830142Y-51301174D01*
X100830142Y-51301174D01*
G37*
D11*
X100562500Y-52000000D03*
D10*
G36*
X102705142Y-51301174D02*
X102728803Y-51304684D01*
X102752007Y-51310496D01*
X102774529Y-51318554D01*
X102796153Y-51328782D01*
X102816670Y-51341079D01*
X102835883Y-51355329D01*
X102853607Y-51371393D01*
X102869671Y-51389117D01*
X102883921Y-51408330D01*
X102896218Y-51428847D01*
X102906446Y-51450471D01*
X102914504Y-51472993D01*
X102920316Y-51496197D01*
X102923826Y-51519858D01*
X102925000Y-51543750D01*
X102925000Y-52456250D01*
X102923826Y-52480142D01*
X102920316Y-52503803D01*
X102914504Y-52527007D01*
X102906446Y-52549529D01*
X102896218Y-52571153D01*
X102883921Y-52591670D01*
X102869671Y-52610883D01*
X102853607Y-52628607D01*
X102835883Y-52644671D01*
X102816670Y-52658921D01*
X102796153Y-52671218D01*
X102774529Y-52681446D01*
X102752007Y-52689504D01*
X102728803Y-52695316D01*
X102705142Y-52698826D01*
X102681250Y-52700000D01*
X102193750Y-52700000D01*
X102169858Y-52698826D01*
X102146197Y-52695316D01*
X102122993Y-52689504D01*
X102100471Y-52681446D01*
X102078847Y-52671218D01*
X102058330Y-52658921D01*
X102039117Y-52644671D01*
X102021393Y-52628607D01*
X102005329Y-52610883D01*
X101991079Y-52591670D01*
X101978782Y-52571153D01*
X101968554Y-52549529D01*
X101960496Y-52527007D01*
X101954684Y-52503803D01*
X101951174Y-52480142D01*
X101950000Y-52456250D01*
X101950000Y-51543750D01*
X101951174Y-51519858D01*
X101954684Y-51496197D01*
X101960496Y-51472993D01*
X101968554Y-51450471D01*
X101978782Y-51428847D01*
X101991079Y-51408330D01*
X102005329Y-51389117D01*
X102021393Y-51371393D01*
X102039117Y-51355329D01*
X102058330Y-51341079D01*
X102078847Y-51328782D01*
X102100471Y-51318554D01*
X102122993Y-51310496D01*
X102146197Y-51304684D01*
X102169858Y-51301174D01*
X102193750Y-51300000D01*
X102681250Y-51300000D01*
X102705142Y-51301174D01*
X102705142Y-51301174D01*
G37*
D11*
X102437500Y-52000000D03*
G04 #@! TD*
D10*
G04 #@! TO.C,R9*
G36*
X91480142Y-76951174D02*
X91503803Y-76954684D01*
X91527007Y-76960496D01*
X91549529Y-76968554D01*
X91571153Y-76978782D01*
X91591670Y-76991079D01*
X91610883Y-77005329D01*
X91628607Y-77021393D01*
X91644671Y-77039117D01*
X91658921Y-77058330D01*
X91671218Y-77078847D01*
X91681446Y-77100471D01*
X91689504Y-77122993D01*
X91695316Y-77146197D01*
X91698826Y-77169858D01*
X91700000Y-77193750D01*
X91700000Y-77681250D01*
X91698826Y-77705142D01*
X91695316Y-77728803D01*
X91689504Y-77752007D01*
X91681446Y-77774529D01*
X91671218Y-77796153D01*
X91658921Y-77816670D01*
X91644671Y-77835883D01*
X91628607Y-77853607D01*
X91610883Y-77869671D01*
X91591670Y-77883921D01*
X91571153Y-77896218D01*
X91549529Y-77906446D01*
X91527007Y-77914504D01*
X91503803Y-77920316D01*
X91480142Y-77923826D01*
X91456250Y-77925000D01*
X90543750Y-77925000D01*
X90519858Y-77923826D01*
X90496197Y-77920316D01*
X90472993Y-77914504D01*
X90450471Y-77906446D01*
X90428847Y-77896218D01*
X90408330Y-77883921D01*
X90389117Y-77869671D01*
X90371393Y-77853607D01*
X90355329Y-77835883D01*
X90341079Y-77816670D01*
X90328782Y-77796153D01*
X90318554Y-77774529D01*
X90310496Y-77752007D01*
X90304684Y-77728803D01*
X90301174Y-77705142D01*
X90300000Y-77681250D01*
X90300000Y-77193750D01*
X90301174Y-77169858D01*
X90304684Y-77146197D01*
X90310496Y-77122993D01*
X90318554Y-77100471D01*
X90328782Y-77078847D01*
X90341079Y-77058330D01*
X90355329Y-77039117D01*
X90371393Y-77021393D01*
X90389117Y-77005329D01*
X90408330Y-76991079D01*
X90428847Y-76978782D01*
X90450471Y-76968554D01*
X90472993Y-76960496D01*
X90496197Y-76954684D01*
X90519858Y-76951174D01*
X90543750Y-76950000D01*
X91456250Y-76950000D01*
X91480142Y-76951174D01*
X91480142Y-76951174D01*
G37*
D11*
X91000000Y-77437500D03*
D10*
G36*
X91480142Y-75076174D02*
X91503803Y-75079684D01*
X91527007Y-75085496D01*
X91549529Y-75093554D01*
X91571153Y-75103782D01*
X91591670Y-75116079D01*
X91610883Y-75130329D01*
X91628607Y-75146393D01*
X91644671Y-75164117D01*
X91658921Y-75183330D01*
X91671218Y-75203847D01*
X91681446Y-75225471D01*
X91689504Y-75247993D01*
X91695316Y-75271197D01*
X91698826Y-75294858D01*
X91700000Y-75318750D01*
X91700000Y-75806250D01*
X91698826Y-75830142D01*
X91695316Y-75853803D01*
X91689504Y-75877007D01*
X91681446Y-75899529D01*
X91671218Y-75921153D01*
X91658921Y-75941670D01*
X91644671Y-75960883D01*
X91628607Y-75978607D01*
X91610883Y-75994671D01*
X91591670Y-76008921D01*
X91571153Y-76021218D01*
X91549529Y-76031446D01*
X91527007Y-76039504D01*
X91503803Y-76045316D01*
X91480142Y-76048826D01*
X91456250Y-76050000D01*
X90543750Y-76050000D01*
X90519858Y-76048826D01*
X90496197Y-76045316D01*
X90472993Y-76039504D01*
X90450471Y-76031446D01*
X90428847Y-76021218D01*
X90408330Y-76008921D01*
X90389117Y-75994671D01*
X90371393Y-75978607D01*
X90355329Y-75960883D01*
X90341079Y-75941670D01*
X90328782Y-75921153D01*
X90318554Y-75899529D01*
X90310496Y-75877007D01*
X90304684Y-75853803D01*
X90301174Y-75830142D01*
X90300000Y-75806250D01*
X90300000Y-75318750D01*
X90301174Y-75294858D01*
X90304684Y-75271197D01*
X90310496Y-75247993D01*
X90318554Y-75225471D01*
X90328782Y-75203847D01*
X90341079Y-75183330D01*
X90355329Y-75164117D01*
X90371393Y-75146393D01*
X90389117Y-75130329D01*
X90408330Y-75116079D01*
X90428847Y-75103782D01*
X90450471Y-75093554D01*
X90472993Y-75085496D01*
X90496197Y-75079684D01*
X90519858Y-75076174D01*
X90543750Y-75075000D01*
X91456250Y-75075000D01*
X91480142Y-75076174D01*
X91480142Y-75076174D01*
G37*
D11*
X91000000Y-75562500D03*
G04 #@! TD*
D10*
G04 #@! TO.C,R10*
G36*
X134980142Y-64451174D02*
X135003803Y-64454684D01*
X135027007Y-64460496D01*
X135049529Y-64468554D01*
X135071153Y-64478782D01*
X135091670Y-64491079D01*
X135110883Y-64505329D01*
X135128607Y-64521393D01*
X135144671Y-64539117D01*
X135158921Y-64558330D01*
X135171218Y-64578847D01*
X135181446Y-64600471D01*
X135189504Y-64622993D01*
X135195316Y-64646197D01*
X135198826Y-64669858D01*
X135200000Y-64693750D01*
X135200000Y-65181250D01*
X135198826Y-65205142D01*
X135195316Y-65228803D01*
X135189504Y-65252007D01*
X135181446Y-65274529D01*
X135171218Y-65296153D01*
X135158921Y-65316670D01*
X135144671Y-65335883D01*
X135128607Y-65353607D01*
X135110883Y-65369671D01*
X135091670Y-65383921D01*
X135071153Y-65396218D01*
X135049529Y-65406446D01*
X135027007Y-65414504D01*
X135003803Y-65420316D01*
X134980142Y-65423826D01*
X134956250Y-65425000D01*
X134043750Y-65425000D01*
X134019858Y-65423826D01*
X133996197Y-65420316D01*
X133972993Y-65414504D01*
X133950471Y-65406446D01*
X133928847Y-65396218D01*
X133908330Y-65383921D01*
X133889117Y-65369671D01*
X133871393Y-65353607D01*
X133855329Y-65335883D01*
X133841079Y-65316670D01*
X133828782Y-65296153D01*
X133818554Y-65274529D01*
X133810496Y-65252007D01*
X133804684Y-65228803D01*
X133801174Y-65205142D01*
X133800000Y-65181250D01*
X133800000Y-64693750D01*
X133801174Y-64669858D01*
X133804684Y-64646197D01*
X133810496Y-64622993D01*
X133818554Y-64600471D01*
X133828782Y-64578847D01*
X133841079Y-64558330D01*
X133855329Y-64539117D01*
X133871393Y-64521393D01*
X133889117Y-64505329D01*
X133908330Y-64491079D01*
X133928847Y-64478782D01*
X133950471Y-64468554D01*
X133972993Y-64460496D01*
X133996197Y-64454684D01*
X134019858Y-64451174D01*
X134043750Y-64450000D01*
X134956250Y-64450000D01*
X134980142Y-64451174D01*
X134980142Y-64451174D01*
G37*
D11*
X134500000Y-64937500D03*
D10*
G36*
X134980142Y-62576174D02*
X135003803Y-62579684D01*
X135027007Y-62585496D01*
X135049529Y-62593554D01*
X135071153Y-62603782D01*
X135091670Y-62616079D01*
X135110883Y-62630329D01*
X135128607Y-62646393D01*
X135144671Y-62664117D01*
X135158921Y-62683330D01*
X135171218Y-62703847D01*
X135181446Y-62725471D01*
X135189504Y-62747993D01*
X135195316Y-62771197D01*
X135198826Y-62794858D01*
X135200000Y-62818750D01*
X135200000Y-63306250D01*
X135198826Y-63330142D01*
X135195316Y-63353803D01*
X135189504Y-63377007D01*
X135181446Y-63399529D01*
X135171218Y-63421153D01*
X135158921Y-63441670D01*
X135144671Y-63460883D01*
X135128607Y-63478607D01*
X135110883Y-63494671D01*
X135091670Y-63508921D01*
X135071153Y-63521218D01*
X135049529Y-63531446D01*
X135027007Y-63539504D01*
X135003803Y-63545316D01*
X134980142Y-63548826D01*
X134956250Y-63550000D01*
X134043750Y-63550000D01*
X134019858Y-63548826D01*
X133996197Y-63545316D01*
X133972993Y-63539504D01*
X133950471Y-63531446D01*
X133928847Y-63521218D01*
X133908330Y-63508921D01*
X133889117Y-63494671D01*
X133871393Y-63478607D01*
X133855329Y-63460883D01*
X133841079Y-63441670D01*
X133828782Y-63421153D01*
X133818554Y-63399529D01*
X133810496Y-63377007D01*
X133804684Y-63353803D01*
X133801174Y-63330142D01*
X133800000Y-63306250D01*
X133800000Y-62818750D01*
X133801174Y-62794858D01*
X133804684Y-62771197D01*
X133810496Y-62747993D01*
X133818554Y-62725471D01*
X133828782Y-62703847D01*
X133841079Y-62683330D01*
X133855329Y-62664117D01*
X133871393Y-62646393D01*
X133889117Y-62630329D01*
X133908330Y-62616079D01*
X133928847Y-62603782D01*
X133950471Y-62593554D01*
X133972993Y-62585496D01*
X133996197Y-62579684D01*
X134019858Y-62576174D01*
X134043750Y-62575000D01*
X134956250Y-62575000D01*
X134980142Y-62576174D01*
X134980142Y-62576174D01*
G37*
D11*
X134500000Y-63062500D03*
G04 #@! TD*
D10*
G04 #@! TO.C,R11*
G36*
X126980142Y-62576174D02*
X127003803Y-62579684D01*
X127027007Y-62585496D01*
X127049529Y-62593554D01*
X127071153Y-62603782D01*
X127091670Y-62616079D01*
X127110883Y-62630329D01*
X127128607Y-62646393D01*
X127144671Y-62664117D01*
X127158921Y-62683330D01*
X127171218Y-62703847D01*
X127181446Y-62725471D01*
X127189504Y-62747993D01*
X127195316Y-62771197D01*
X127198826Y-62794858D01*
X127200000Y-62818750D01*
X127200000Y-63306250D01*
X127198826Y-63330142D01*
X127195316Y-63353803D01*
X127189504Y-63377007D01*
X127181446Y-63399529D01*
X127171218Y-63421153D01*
X127158921Y-63441670D01*
X127144671Y-63460883D01*
X127128607Y-63478607D01*
X127110883Y-63494671D01*
X127091670Y-63508921D01*
X127071153Y-63521218D01*
X127049529Y-63531446D01*
X127027007Y-63539504D01*
X127003803Y-63545316D01*
X126980142Y-63548826D01*
X126956250Y-63550000D01*
X126043750Y-63550000D01*
X126019858Y-63548826D01*
X125996197Y-63545316D01*
X125972993Y-63539504D01*
X125950471Y-63531446D01*
X125928847Y-63521218D01*
X125908330Y-63508921D01*
X125889117Y-63494671D01*
X125871393Y-63478607D01*
X125855329Y-63460883D01*
X125841079Y-63441670D01*
X125828782Y-63421153D01*
X125818554Y-63399529D01*
X125810496Y-63377007D01*
X125804684Y-63353803D01*
X125801174Y-63330142D01*
X125800000Y-63306250D01*
X125800000Y-62818750D01*
X125801174Y-62794858D01*
X125804684Y-62771197D01*
X125810496Y-62747993D01*
X125818554Y-62725471D01*
X125828782Y-62703847D01*
X125841079Y-62683330D01*
X125855329Y-62664117D01*
X125871393Y-62646393D01*
X125889117Y-62630329D01*
X125908330Y-62616079D01*
X125928847Y-62603782D01*
X125950471Y-62593554D01*
X125972993Y-62585496D01*
X125996197Y-62579684D01*
X126019858Y-62576174D01*
X126043750Y-62575000D01*
X126956250Y-62575000D01*
X126980142Y-62576174D01*
X126980142Y-62576174D01*
G37*
D11*
X126500000Y-63062500D03*
D10*
G36*
X126980142Y-64451174D02*
X127003803Y-64454684D01*
X127027007Y-64460496D01*
X127049529Y-64468554D01*
X127071153Y-64478782D01*
X127091670Y-64491079D01*
X127110883Y-64505329D01*
X127128607Y-64521393D01*
X127144671Y-64539117D01*
X127158921Y-64558330D01*
X127171218Y-64578847D01*
X127181446Y-64600471D01*
X127189504Y-64622993D01*
X127195316Y-64646197D01*
X127198826Y-64669858D01*
X127200000Y-64693750D01*
X127200000Y-65181250D01*
X127198826Y-65205142D01*
X127195316Y-65228803D01*
X127189504Y-65252007D01*
X127181446Y-65274529D01*
X127171218Y-65296153D01*
X127158921Y-65316670D01*
X127144671Y-65335883D01*
X127128607Y-65353607D01*
X127110883Y-65369671D01*
X127091670Y-65383921D01*
X127071153Y-65396218D01*
X127049529Y-65406446D01*
X127027007Y-65414504D01*
X127003803Y-65420316D01*
X126980142Y-65423826D01*
X126956250Y-65425000D01*
X126043750Y-65425000D01*
X126019858Y-65423826D01*
X125996197Y-65420316D01*
X125972993Y-65414504D01*
X125950471Y-65406446D01*
X125928847Y-65396218D01*
X125908330Y-65383921D01*
X125889117Y-65369671D01*
X125871393Y-65353607D01*
X125855329Y-65335883D01*
X125841079Y-65316670D01*
X125828782Y-65296153D01*
X125818554Y-65274529D01*
X125810496Y-65252007D01*
X125804684Y-65228803D01*
X125801174Y-65205142D01*
X125800000Y-65181250D01*
X125800000Y-64693750D01*
X125801174Y-64669858D01*
X125804684Y-64646197D01*
X125810496Y-64622993D01*
X125818554Y-64600471D01*
X125828782Y-64578847D01*
X125841079Y-64558330D01*
X125855329Y-64539117D01*
X125871393Y-64521393D01*
X125889117Y-64505329D01*
X125908330Y-64491079D01*
X125928847Y-64478782D01*
X125950471Y-64468554D01*
X125972993Y-64460496D01*
X125996197Y-64454684D01*
X126019858Y-64451174D01*
X126043750Y-64450000D01*
X126956250Y-64450000D01*
X126980142Y-64451174D01*
X126980142Y-64451174D01*
G37*
D11*
X126500000Y-64937500D03*
G04 #@! TD*
D10*
G04 #@! TO.C,R12*
G36*
X84480142Y-78076174D02*
X84503803Y-78079684D01*
X84527007Y-78085496D01*
X84549529Y-78093554D01*
X84571153Y-78103782D01*
X84591670Y-78116079D01*
X84610883Y-78130329D01*
X84628607Y-78146393D01*
X84644671Y-78164117D01*
X84658921Y-78183330D01*
X84671218Y-78203847D01*
X84681446Y-78225471D01*
X84689504Y-78247993D01*
X84695316Y-78271197D01*
X84698826Y-78294858D01*
X84700000Y-78318750D01*
X84700000Y-78806250D01*
X84698826Y-78830142D01*
X84695316Y-78853803D01*
X84689504Y-78877007D01*
X84681446Y-78899529D01*
X84671218Y-78921153D01*
X84658921Y-78941670D01*
X84644671Y-78960883D01*
X84628607Y-78978607D01*
X84610883Y-78994671D01*
X84591670Y-79008921D01*
X84571153Y-79021218D01*
X84549529Y-79031446D01*
X84527007Y-79039504D01*
X84503803Y-79045316D01*
X84480142Y-79048826D01*
X84456250Y-79050000D01*
X83543750Y-79050000D01*
X83519858Y-79048826D01*
X83496197Y-79045316D01*
X83472993Y-79039504D01*
X83450471Y-79031446D01*
X83428847Y-79021218D01*
X83408330Y-79008921D01*
X83389117Y-78994671D01*
X83371393Y-78978607D01*
X83355329Y-78960883D01*
X83341079Y-78941670D01*
X83328782Y-78921153D01*
X83318554Y-78899529D01*
X83310496Y-78877007D01*
X83304684Y-78853803D01*
X83301174Y-78830142D01*
X83300000Y-78806250D01*
X83300000Y-78318750D01*
X83301174Y-78294858D01*
X83304684Y-78271197D01*
X83310496Y-78247993D01*
X83318554Y-78225471D01*
X83328782Y-78203847D01*
X83341079Y-78183330D01*
X83355329Y-78164117D01*
X83371393Y-78146393D01*
X83389117Y-78130329D01*
X83408330Y-78116079D01*
X83428847Y-78103782D01*
X83450471Y-78093554D01*
X83472993Y-78085496D01*
X83496197Y-78079684D01*
X83519858Y-78076174D01*
X83543750Y-78075000D01*
X84456250Y-78075000D01*
X84480142Y-78076174D01*
X84480142Y-78076174D01*
G37*
D11*
X84000000Y-78562500D03*
D10*
G36*
X84480142Y-79951174D02*
X84503803Y-79954684D01*
X84527007Y-79960496D01*
X84549529Y-79968554D01*
X84571153Y-79978782D01*
X84591670Y-79991079D01*
X84610883Y-80005329D01*
X84628607Y-80021393D01*
X84644671Y-80039117D01*
X84658921Y-80058330D01*
X84671218Y-80078847D01*
X84681446Y-80100471D01*
X84689504Y-80122993D01*
X84695316Y-80146197D01*
X84698826Y-80169858D01*
X84700000Y-80193750D01*
X84700000Y-80681250D01*
X84698826Y-80705142D01*
X84695316Y-80728803D01*
X84689504Y-80752007D01*
X84681446Y-80774529D01*
X84671218Y-80796153D01*
X84658921Y-80816670D01*
X84644671Y-80835883D01*
X84628607Y-80853607D01*
X84610883Y-80869671D01*
X84591670Y-80883921D01*
X84571153Y-80896218D01*
X84549529Y-80906446D01*
X84527007Y-80914504D01*
X84503803Y-80920316D01*
X84480142Y-80923826D01*
X84456250Y-80925000D01*
X83543750Y-80925000D01*
X83519858Y-80923826D01*
X83496197Y-80920316D01*
X83472993Y-80914504D01*
X83450471Y-80906446D01*
X83428847Y-80896218D01*
X83408330Y-80883921D01*
X83389117Y-80869671D01*
X83371393Y-80853607D01*
X83355329Y-80835883D01*
X83341079Y-80816670D01*
X83328782Y-80796153D01*
X83318554Y-80774529D01*
X83310496Y-80752007D01*
X83304684Y-80728803D01*
X83301174Y-80705142D01*
X83300000Y-80681250D01*
X83300000Y-80193750D01*
X83301174Y-80169858D01*
X83304684Y-80146197D01*
X83310496Y-80122993D01*
X83318554Y-80100471D01*
X83328782Y-80078847D01*
X83341079Y-80058330D01*
X83355329Y-80039117D01*
X83371393Y-80021393D01*
X83389117Y-80005329D01*
X83408330Y-79991079D01*
X83428847Y-79978782D01*
X83450471Y-79968554D01*
X83472993Y-79960496D01*
X83496197Y-79954684D01*
X83519858Y-79951174D01*
X83543750Y-79950000D01*
X84456250Y-79950000D01*
X84480142Y-79951174D01*
X84480142Y-79951174D01*
G37*
D11*
X84000000Y-80437500D03*
G04 #@! TD*
D10*
G04 #@! TO.C,R13*
G36*
X84480142Y-82076174D02*
X84503803Y-82079684D01*
X84527007Y-82085496D01*
X84549529Y-82093554D01*
X84571153Y-82103782D01*
X84591670Y-82116079D01*
X84610883Y-82130329D01*
X84628607Y-82146393D01*
X84644671Y-82164117D01*
X84658921Y-82183330D01*
X84671218Y-82203847D01*
X84681446Y-82225471D01*
X84689504Y-82247993D01*
X84695316Y-82271197D01*
X84698826Y-82294858D01*
X84700000Y-82318750D01*
X84700000Y-82806250D01*
X84698826Y-82830142D01*
X84695316Y-82853803D01*
X84689504Y-82877007D01*
X84681446Y-82899529D01*
X84671218Y-82921153D01*
X84658921Y-82941670D01*
X84644671Y-82960883D01*
X84628607Y-82978607D01*
X84610883Y-82994671D01*
X84591670Y-83008921D01*
X84571153Y-83021218D01*
X84549529Y-83031446D01*
X84527007Y-83039504D01*
X84503803Y-83045316D01*
X84480142Y-83048826D01*
X84456250Y-83050000D01*
X83543750Y-83050000D01*
X83519858Y-83048826D01*
X83496197Y-83045316D01*
X83472993Y-83039504D01*
X83450471Y-83031446D01*
X83428847Y-83021218D01*
X83408330Y-83008921D01*
X83389117Y-82994671D01*
X83371393Y-82978607D01*
X83355329Y-82960883D01*
X83341079Y-82941670D01*
X83328782Y-82921153D01*
X83318554Y-82899529D01*
X83310496Y-82877007D01*
X83304684Y-82853803D01*
X83301174Y-82830142D01*
X83300000Y-82806250D01*
X83300000Y-82318750D01*
X83301174Y-82294858D01*
X83304684Y-82271197D01*
X83310496Y-82247993D01*
X83318554Y-82225471D01*
X83328782Y-82203847D01*
X83341079Y-82183330D01*
X83355329Y-82164117D01*
X83371393Y-82146393D01*
X83389117Y-82130329D01*
X83408330Y-82116079D01*
X83428847Y-82103782D01*
X83450471Y-82093554D01*
X83472993Y-82085496D01*
X83496197Y-82079684D01*
X83519858Y-82076174D01*
X83543750Y-82075000D01*
X84456250Y-82075000D01*
X84480142Y-82076174D01*
X84480142Y-82076174D01*
G37*
D11*
X84000000Y-82562500D03*
D10*
G36*
X84480142Y-83951174D02*
X84503803Y-83954684D01*
X84527007Y-83960496D01*
X84549529Y-83968554D01*
X84571153Y-83978782D01*
X84591670Y-83991079D01*
X84610883Y-84005329D01*
X84628607Y-84021393D01*
X84644671Y-84039117D01*
X84658921Y-84058330D01*
X84671218Y-84078847D01*
X84681446Y-84100471D01*
X84689504Y-84122993D01*
X84695316Y-84146197D01*
X84698826Y-84169858D01*
X84700000Y-84193750D01*
X84700000Y-84681250D01*
X84698826Y-84705142D01*
X84695316Y-84728803D01*
X84689504Y-84752007D01*
X84681446Y-84774529D01*
X84671218Y-84796153D01*
X84658921Y-84816670D01*
X84644671Y-84835883D01*
X84628607Y-84853607D01*
X84610883Y-84869671D01*
X84591670Y-84883921D01*
X84571153Y-84896218D01*
X84549529Y-84906446D01*
X84527007Y-84914504D01*
X84503803Y-84920316D01*
X84480142Y-84923826D01*
X84456250Y-84925000D01*
X83543750Y-84925000D01*
X83519858Y-84923826D01*
X83496197Y-84920316D01*
X83472993Y-84914504D01*
X83450471Y-84906446D01*
X83428847Y-84896218D01*
X83408330Y-84883921D01*
X83389117Y-84869671D01*
X83371393Y-84853607D01*
X83355329Y-84835883D01*
X83341079Y-84816670D01*
X83328782Y-84796153D01*
X83318554Y-84774529D01*
X83310496Y-84752007D01*
X83304684Y-84728803D01*
X83301174Y-84705142D01*
X83300000Y-84681250D01*
X83300000Y-84193750D01*
X83301174Y-84169858D01*
X83304684Y-84146197D01*
X83310496Y-84122993D01*
X83318554Y-84100471D01*
X83328782Y-84078847D01*
X83341079Y-84058330D01*
X83355329Y-84039117D01*
X83371393Y-84021393D01*
X83389117Y-84005329D01*
X83408330Y-83991079D01*
X83428847Y-83978782D01*
X83450471Y-83968554D01*
X83472993Y-83960496D01*
X83496197Y-83954684D01*
X83519858Y-83951174D01*
X83543750Y-83950000D01*
X84456250Y-83950000D01*
X84480142Y-83951174D01*
X84480142Y-83951174D01*
G37*
D11*
X84000000Y-84437500D03*
G04 #@! TD*
D10*
G04 #@! TO.C,R14*
G36*
X111725142Y-59801174D02*
X111748803Y-59804684D01*
X111772007Y-59810496D01*
X111794529Y-59818554D01*
X111816153Y-59828782D01*
X111836670Y-59841079D01*
X111855883Y-59855329D01*
X111873607Y-59871393D01*
X111889671Y-59889117D01*
X111903921Y-59908330D01*
X111916218Y-59928847D01*
X111926446Y-59950471D01*
X111934504Y-59972993D01*
X111940316Y-59996197D01*
X111943826Y-60019858D01*
X111945000Y-60043750D01*
X111945000Y-60956250D01*
X111943826Y-60980142D01*
X111940316Y-61003803D01*
X111934504Y-61027007D01*
X111926446Y-61049529D01*
X111916218Y-61071153D01*
X111903921Y-61091670D01*
X111889671Y-61110883D01*
X111873607Y-61128607D01*
X111855883Y-61144671D01*
X111836670Y-61158921D01*
X111816153Y-61171218D01*
X111794529Y-61181446D01*
X111772007Y-61189504D01*
X111748803Y-61195316D01*
X111725142Y-61198826D01*
X111701250Y-61200000D01*
X111213750Y-61200000D01*
X111189858Y-61198826D01*
X111166197Y-61195316D01*
X111142993Y-61189504D01*
X111120471Y-61181446D01*
X111098847Y-61171218D01*
X111078330Y-61158921D01*
X111059117Y-61144671D01*
X111041393Y-61128607D01*
X111025329Y-61110883D01*
X111011079Y-61091670D01*
X110998782Y-61071153D01*
X110988554Y-61049529D01*
X110980496Y-61027007D01*
X110974684Y-61003803D01*
X110971174Y-60980142D01*
X110970000Y-60956250D01*
X110970000Y-60043750D01*
X110971174Y-60019858D01*
X110974684Y-59996197D01*
X110980496Y-59972993D01*
X110988554Y-59950471D01*
X110998782Y-59928847D01*
X111011079Y-59908330D01*
X111025329Y-59889117D01*
X111041393Y-59871393D01*
X111059117Y-59855329D01*
X111078330Y-59841079D01*
X111098847Y-59828782D01*
X111120471Y-59818554D01*
X111142993Y-59810496D01*
X111166197Y-59804684D01*
X111189858Y-59801174D01*
X111213750Y-59800000D01*
X111701250Y-59800000D01*
X111725142Y-59801174D01*
X111725142Y-59801174D01*
G37*
D11*
X111457500Y-60500000D03*
D10*
G36*
X109850142Y-59801174D02*
X109873803Y-59804684D01*
X109897007Y-59810496D01*
X109919529Y-59818554D01*
X109941153Y-59828782D01*
X109961670Y-59841079D01*
X109980883Y-59855329D01*
X109998607Y-59871393D01*
X110014671Y-59889117D01*
X110028921Y-59908330D01*
X110041218Y-59928847D01*
X110051446Y-59950471D01*
X110059504Y-59972993D01*
X110065316Y-59996197D01*
X110068826Y-60019858D01*
X110070000Y-60043750D01*
X110070000Y-60956250D01*
X110068826Y-60980142D01*
X110065316Y-61003803D01*
X110059504Y-61027007D01*
X110051446Y-61049529D01*
X110041218Y-61071153D01*
X110028921Y-61091670D01*
X110014671Y-61110883D01*
X109998607Y-61128607D01*
X109980883Y-61144671D01*
X109961670Y-61158921D01*
X109941153Y-61171218D01*
X109919529Y-61181446D01*
X109897007Y-61189504D01*
X109873803Y-61195316D01*
X109850142Y-61198826D01*
X109826250Y-61200000D01*
X109338750Y-61200000D01*
X109314858Y-61198826D01*
X109291197Y-61195316D01*
X109267993Y-61189504D01*
X109245471Y-61181446D01*
X109223847Y-61171218D01*
X109203330Y-61158921D01*
X109184117Y-61144671D01*
X109166393Y-61128607D01*
X109150329Y-61110883D01*
X109136079Y-61091670D01*
X109123782Y-61071153D01*
X109113554Y-61049529D01*
X109105496Y-61027007D01*
X109099684Y-61003803D01*
X109096174Y-60980142D01*
X109095000Y-60956250D01*
X109095000Y-60043750D01*
X109096174Y-60019858D01*
X109099684Y-59996197D01*
X109105496Y-59972993D01*
X109113554Y-59950471D01*
X109123782Y-59928847D01*
X109136079Y-59908330D01*
X109150329Y-59889117D01*
X109166393Y-59871393D01*
X109184117Y-59855329D01*
X109203330Y-59841079D01*
X109223847Y-59828782D01*
X109245471Y-59818554D01*
X109267993Y-59810496D01*
X109291197Y-59804684D01*
X109314858Y-59801174D01*
X109338750Y-59800000D01*
X109826250Y-59800000D01*
X109850142Y-59801174D01*
X109850142Y-59801174D01*
G37*
D11*
X109582500Y-60500000D03*
G04 #@! TD*
D10*
G04 #@! TO.C,R1*
G36*
X126980142Y-53576174D02*
X127003803Y-53579684D01*
X127027007Y-53585496D01*
X127049529Y-53593554D01*
X127071153Y-53603782D01*
X127091670Y-53616079D01*
X127110883Y-53630329D01*
X127128607Y-53646393D01*
X127144671Y-53664117D01*
X127158921Y-53683330D01*
X127171218Y-53703847D01*
X127181446Y-53725471D01*
X127189504Y-53747993D01*
X127195316Y-53771197D01*
X127198826Y-53794858D01*
X127200000Y-53818750D01*
X127200000Y-54306250D01*
X127198826Y-54330142D01*
X127195316Y-54353803D01*
X127189504Y-54377007D01*
X127181446Y-54399529D01*
X127171218Y-54421153D01*
X127158921Y-54441670D01*
X127144671Y-54460883D01*
X127128607Y-54478607D01*
X127110883Y-54494671D01*
X127091670Y-54508921D01*
X127071153Y-54521218D01*
X127049529Y-54531446D01*
X127027007Y-54539504D01*
X127003803Y-54545316D01*
X126980142Y-54548826D01*
X126956250Y-54550000D01*
X126043750Y-54550000D01*
X126019858Y-54548826D01*
X125996197Y-54545316D01*
X125972993Y-54539504D01*
X125950471Y-54531446D01*
X125928847Y-54521218D01*
X125908330Y-54508921D01*
X125889117Y-54494671D01*
X125871393Y-54478607D01*
X125855329Y-54460883D01*
X125841079Y-54441670D01*
X125828782Y-54421153D01*
X125818554Y-54399529D01*
X125810496Y-54377007D01*
X125804684Y-54353803D01*
X125801174Y-54330142D01*
X125800000Y-54306250D01*
X125800000Y-53818750D01*
X125801174Y-53794858D01*
X125804684Y-53771197D01*
X125810496Y-53747993D01*
X125818554Y-53725471D01*
X125828782Y-53703847D01*
X125841079Y-53683330D01*
X125855329Y-53664117D01*
X125871393Y-53646393D01*
X125889117Y-53630329D01*
X125908330Y-53616079D01*
X125928847Y-53603782D01*
X125950471Y-53593554D01*
X125972993Y-53585496D01*
X125996197Y-53579684D01*
X126019858Y-53576174D01*
X126043750Y-53575000D01*
X126956250Y-53575000D01*
X126980142Y-53576174D01*
X126980142Y-53576174D01*
G37*
D11*
X126500000Y-54062500D03*
D10*
G36*
X126980142Y-55451174D02*
X127003803Y-55454684D01*
X127027007Y-55460496D01*
X127049529Y-55468554D01*
X127071153Y-55478782D01*
X127091670Y-55491079D01*
X127110883Y-55505329D01*
X127128607Y-55521393D01*
X127144671Y-55539117D01*
X127158921Y-55558330D01*
X127171218Y-55578847D01*
X127181446Y-55600471D01*
X127189504Y-55622993D01*
X127195316Y-55646197D01*
X127198826Y-55669858D01*
X127200000Y-55693750D01*
X127200000Y-56181250D01*
X127198826Y-56205142D01*
X127195316Y-56228803D01*
X127189504Y-56252007D01*
X127181446Y-56274529D01*
X127171218Y-56296153D01*
X127158921Y-56316670D01*
X127144671Y-56335883D01*
X127128607Y-56353607D01*
X127110883Y-56369671D01*
X127091670Y-56383921D01*
X127071153Y-56396218D01*
X127049529Y-56406446D01*
X127027007Y-56414504D01*
X127003803Y-56420316D01*
X126980142Y-56423826D01*
X126956250Y-56425000D01*
X126043750Y-56425000D01*
X126019858Y-56423826D01*
X125996197Y-56420316D01*
X125972993Y-56414504D01*
X125950471Y-56406446D01*
X125928847Y-56396218D01*
X125908330Y-56383921D01*
X125889117Y-56369671D01*
X125871393Y-56353607D01*
X125855329Y-56335883D01*
X125841079Y-56316670D01*
X125828782Y-56296153D01*
X125818554Y-56274529D01*
X125810496Y-56252007D01*
X125804684Y-56228803D01*
X125801174Y-56205142D01*
X125800000Y-56181250D01*
X125800000Y-55693750D01*
X125801174Y-55669858D01*
X125804684Y-55646197D01*
X125810496Y-55622993D01*
X125818554Y-55600471D01*
X125828782Y-55578847D01*
X125841079Y-55558330D01*
X125855329Y-55539117D01*
X125871393Y-55521393D01*
X125889117Y-55505329D01*
X125908330Y-55491079D01*
X125928847Y-55478782D01*
X125950471Y-55468554D01*
X125972993Y-55460496D01*
X125996197Y-55454684D01*
X126019858Y-55451174D01*
X126043750Y-55450000D01*
X126956250Y-55450000D01*
X126980142Y-55451174D01*
X126980142Y-55451174D01*
G37*
D11*
X126500000Y-55937500D03*
G04 #@! TD*
D10*
G04 #@! TO.C,R21*
G36*
X126980142Y-73451174D02*
X127003803Y-73454684D01*
X127027007Y-73460496D01*
X127049529Y-73468554D01*
X127071153Y-73478782D01*
X127091670Y-73491079D01*
X127110883Y-73505329D01*
X127128607Y-73521393D01*
X127144671Y-73539117D01*
X127158921Y-73558330D01*
X127171218Y-73578847D01*
X127181446Y-73600471D01*
X127189504Y-73622993D01*
X127195316Y-73646197D01*
X127198826Y-73669858D01*
X127200000Y-73693750D01*
X127200000Y-74181250D01*
X127198826Y-74205142D01*
X127195316Y-74228803D01*
X127189504Y-74252007D01*
X127181446Y-74274529D01*
X127171218Y-74296153D01*
X127158921Y-74316670D01*
X127144671Y-74335883D01*
X127128607Y-74353607D01*
X127110883Y-74369671D01*
X127091670Y-74383921D01*
X127071153Y-74396218D01*
X127049529Y-74406446D01*
X127027007Y-74414504D01*
X127003803Y-74420316D01*
X126980142Y-74423826D01*
X126956250Y-74425000D01*
X126043750Y-74425000D01*
X126019858Y-74423826D01*
X125996197Y-74420316D01*
X125972993Y-74414504D01*
X125950471Y-74406446D01*
X125928847Y-74396218D01*
X125908330Y-74383921D01*
X125889117Y-74369671D01*
X125871393Y-74353607D01*
X125855329Y-74335883D01*
X125841079Y-74316670D01*
X125828782Y-74296153D01*
X125818554Y-74274529D01*
X125810496Y-74252007D01*
X125804684Y-74228803D01*
X125801174Y-74205142D01*
X125800000Y-74181250D01*
X125800000Y-73693750D01*
X125801174Y-73669858D01*
X125804684Y-73646197D01*
X125810496Y-73622993D01*
X125818554Y-73600471D01*
X125828782Y-73578847D01*
X125841079Y-73558330D01*
X125855329Y-73539117D01*
X125871393Y-73521393D01*
X125889117Y-73505329D01*
X125908330Y-73491079D01*
X125928847Y-73478782D01*
X125950471Y-73468554D01*
X125972993Y-73460496D01*
X125996197Y-73454684D01*
X126019858Y-73451174D01*
X126043750Y-73450000D01*
X126956250Y-73450000D01*
X126980142Y-73451174D01*
X126980142Y-73451174D01*
G37*
D11*
X126500000Y-73937500D03*
D10*
G36*
X126980142Y-71576174D02*
X127003803Y-71579684D01*
X127027007Y-71585496D01*
X127049529Y-71593554D01*
X127071153Y-71603782D01*
X127091670Y-71616079D01*
X127110883Y-71630329D01*
X127128607Y-71646393D01*
X127144671Y-71664117D01*
X127158921Y-71683330D01*
X127171218Y-71703847D01*
X127181446Y-71725471D01*
X127189504Y-71747993D01*
X127195316Y-71771197D01*
X127198826Y-71794858D01*
X127200000Y-71818750D01*
X127200000Y-72306250D01*
X127198826Y-72330142D01*
X127195316Y-72353803D01*
X127189504Y-72377007D01*
X127181446Y-72399529D01*
X127171218Y-72421153D01*
X127158921Y-72441670D01*
X127144671Y-72460883D01*
X127128607Y-72478607D01*
X127110883Y-72494671D01*
X127091670Y-72508921D01*
X127071153Y-72521218D01*
X127049529Y-72531446D01*
X127027007Y-72539504D01*
X127003803Y-72545316D01*
X126980142Y-72548826D01*
X126956250Y-72550000D01*
X126043750Y-72550000D01*
X126019858Y-72548826D01*
X125996197Y-72545316D01*
X125972993Y-72539504D01*
X125950471Y-72531446D01*
X125928847Y-72521218D01*
X125908330Y-72508921D01*
X125889117Y-72494671D01*
X125871393Y-72478607D01*
X125855329Y-72460883D01*
X125841079Y-72441670D01*
X125828782Y-72421153D01*
X125818554Y-72399529D01*
X125810496Y-72377007D01*
X125804684Y-72353803D01*
X125801174Y-72330142D01*
X125800000Y-72306250D01*
X125800000Y-71818750D01*
X125801174Y-71794858D01*
X125804684Y-71771197D01*
X125810496Y-71747993D01*
X125818554Y-71725471D01*
X125828782Y-71703847D01*
X125841079Y-71683330D01*
X125855329Y-71664117D01*
X125871393Y-71646393D01*
X125889117Y-71630329D01*
X125908330Y-71616079D01*
X125928847Y-71603782D01*
X125950471Y-71593554D01*
X125972993Y-71585496D01*
X125996197Y-71579684D01*
X126019858Y-71576174D01*
X126043750Y-71575000D01*
X126956250Y-71575000D01*
X126980142Y-71576174D01*
X126980142Y-71576174D01*
G37*
D11*
X126500000Y-72062500D03*
G04 #@! TD*
D10*
G04 #@! TO.C,R36*
G36*
X134980142Y-80576174D02*
X135003803Y-80579684D01*
X135027007Y-80585496D01*
X135049529Y-80593554D01*
X135071153Y-80603782D01*
X135091670Y-80616079D01*
X135110883Y-80630329D01*
X135128607Y-80646393D01*
X135144671Y-80664117D01*
X135158921Y-80683330D01*
X135171218Y-80703847D01*
X135181446Y-80725471D01*
X135189504Y-80747993D01*
X135195316Y-80771197D01*
X135198826Y-80794858D01*
X135200000Y-80818750D01*
X135200000Y-81306250D01*
X135198826Y-81330142D01*
X135195316Y-81353803D01*
X135189504Y-81377007D01*
X135181446Y-81399529D01*
X135171218Y-81421153D01*
X135158921Y-81441670D01*
X135144671Y-81460883D01*
X135128607Y-81478607D01*
X135110883Y-81494671D01*
X135091670Y-81508921D01*
X135071153Y-81521218D01*
X135049529Y-81531446D01*
X135027007Y-81539504D01*
X135003803Y-81545316D01*
X134980142Y-81548826D01*
X134956250Y-81550000D01*
X134043750Y-81550000D01*
X134019858Y-81548826D01*
X133996197Y-81545316D01*
X133972993Y-81539504D01*
X133950471Y-81531446D01*
X133928847Y-81521218D01*
X133908330Y-81508921D01*
X133889117Y-81494671D01*
X133871393Y-81478607D01*
X133855329Y-81460883D01*
X133841079Y-81441670D01*
X133828782Y-81421153D01*
X133818554Y-81399529D01*
X133810496Y-81377007D01*
X133804684Y-81353803D01*
X133801174Y-81330142D01*
X133800000Y-81306250D01*
X133800000Y-80818750D01*
X133801174Y-80794858D01*
X133804684Y-80771197D01*
X133810496Y-80747993D01*
X133818554Y-80725471D01*
X133828782Y-80703847D01*
X133841079Y-80683330D01*
X133855329Y-80664117D01*
X133871393Y-80646393D01*
X133889117Y-80630329D01*
X133908330Y-80616079D01*
X133928847Y-80603782D01*
X133950471Y-80593554D01*
X133972993Y-80585496D01*
X133996197Y-80579684D01*
X134019858Y-80576174D01*
X134043750Y-80575000D01*
X134956250Y-80575000D01*
X134980142Y-80576174D01*
X134980142Y-80576174D01*
G37*
D11*
X134500000Y-81062500D03*
D10*
G36*
X134980142Y-82451174D02*
X135003803Y-82454684D01*
X135027007Y-82460496D01*
X135049529Y-82468554D01*
X135071153Y-82478782D01*
X135091670Y-82491079D01*
X135110883Y-82505329D01*
X135128607Y-82521393D01*
X135144671Y-82539117D01*
X135158921Y-82558330D01*
X135171218Y-82578847D01*
X135181446Y-82600471D01*
X135189504Y-82622993D01*
X135195316Y-82646197D01*
X135198826Y-82669858D01*
X135200000Y-82693750D01*
X135200000Y-83181250D01*
X135198826Y-83205142D01*
X135195316Y-83228803D01*
X135189504Y-83252007D01*
X135181446Y-83274529D01*
X135171218Y-83296153D01*
X135158921Y-83316670D01*
X135144671Y-83335883D01*
X135128607Y-83353607D01*
X135110883Y-83369671D01*
X135091670Y-83383921D01*
X135071153Y-83396218D01*
X135049529Y-83406446D01*
X135027007Y-83414504D01*
X135003803Y-83420316D01*
X134980142Y-83423826D01*
X134956250Y-83425000D01*
X134043750Y-83425000D01*
X134019858Y-83423826D01*
X133996197Y-83420316D01*
X133972993Y-83414504D01*
X133950471Y-83406446D01*
X133928847Y-83396218D01*
X133908330Y-83383921D01*
X133889117Y-83369671D01*
X133871393Y-83353607D01*
X133855329Y-83335883D01*
X133841079Y-83316670D01*
X133828782Y-83296153D01*
X133818554Y-83274529D01*
X133810496Y-83252007D01*
X133804684Y-83228803D01*
X133801174Y-83205142D01*
X133800000Y-83181250D01*
X133800000Y-82693750D01*
X133801174Y-82669858D01*
X133804684Y-82646197D01*
X133810496Y-82622993D01*
X133818554Y-82600471D01*
X133828782Y-82578847D01*
X133841079Y-82558330D01*
X133855329Y-82539117D01*
X133871393Y-82521393D01*
X133889117Y-82505329D01*
X133908330Y-82491079D01*
X133928847Y-82478782D01*
X133950471Y-82468554D01*
X133972993Y-82460496D01*
X133996197Y-82454684D01*
X134019858Y-82451174D01*
X134043750Y-82450000D01*
X134956250Y-82450000D01*
X134980142Y-82451174D01*
X134980142Y-82451174D01*
G37*
D11*
X134500000Y-82937500D03*
G04 #@! TD*
D10*
G04 #@! TO.C,R37*
G36*
X126980142Y-82451174D02*
X127003803Y-82454684D01*
X127027007Y-82460496D01*
X127049529Y-82468554D01*
X127071153Y-82478782D01*
X127091670Y-82491079D01*
X127110883Y-82505329D01*
X127128607Y-82521393D01*
X127144671Y-82539117D01*
X127158921Y-82558330D01*
X127171218Y-82578847D01*
X127181446Y-82600471D01*
X127189504Y-82622993D01*
X127195316Y-82646197D01*
X127198826Y-82669858D01*
X127200000Y-82693750D01*
X127200000Y-83181250D01*
X127198826Y-83205142D01*
X127195316Y-83228803D01*
X127189504Y-83252007D01*
X127181446Y-83274529D01*
X127171218Y-83296153D01*
X127158921Y-83316670D01*
X127144671Y-83335883D01*
X127128607Y-83353607D01*
X127110883Y-83369671D01*
X127091670Y-83383921D01*
X127071153Y-83396218D01*
X127049529Y-83406446D01*
X127027007Y-83414504D01*
X127003803Y-83420316D01*
X126980142Y-83423826D01*
X126956250Y-83425000D01*
X126043750Y-83425000D01*
X126019858Y-83423826D01*
X125996197Y-83420316D01*
X125972993Y-83414504D01*
X125950471Y-83406446D01*
X125928847Y-83396218D01*
X125908330Y-83383921D01*
X125889117Y-83369671D01*
X125871393Y-83353607D01*
X125855329Y-83335883D01*
X125841079Y-83316670D01*
X125828782Y-83296153D01*
X125818554Y-83274529D01*
X125810496Y-83252007D01*
X125804684Y-83228803D01*
X125801174Y-83205142D01*
X125800000Y-83181250D01*
X125800000Y-82693750D01*
X125801174Y-82669858D01*
X125804684Y-82646197D01*
X125810496Y-82622993D01*
X125818554Y-82600471D01*
X125828782Y-82578847D01*
X125841079Y-82558330D01*
X125855329Y-82539117D01*
X125871393Y-82521393D01*
X125889117Y-82505329D01*
X125908330Y-82491079D01*
X125928847Y-82478782D01*
X125950471Y-82468554D01*
X125972993Y-82460496D01*
X125996197Y-82454684D01*
X126019858Y-82451174D01*
X126043750Y-82450000D01*
X126956250Y-82450000D01*
X126980142Y-82451174D01*
X126980142Y-82451174D01*
G37*
D11*
X126500000Y-82937500D03*
D10*
G36*
X126980142Y-80576174D02*
X127003803Y-80579684D01*
X127027007Y-80585496D01*
X127049529Y-80593554D01*
X127071153Y-80603782D01*
X127091670Y-80616079D01*
X127110883Y-80630329D01*
X127128607Y-80646393D01*
X127144671Y-80664117D01*
X127158921Y-80683330D01*
X127171218Y-80703847D01*
X127181446Y-80725471D01*
X127189504Y-80747993D01*
X127195316Y-80771197D01*
X127198826Y-80794858D01*
X127200000Y-80818750D01*
X127200000Y-81306250D01*
X127198826Y-81330142D01*
X127195316Y-81353803D01*
X127189504Y-81377007D01*
X127181446Y-81399529D01*
X127171218Y-81421153D01*
X127158921Y-81441670D01*
X127144671Y-81460883D01*
X127128607Y-81478607D01*
X127110883Y-81494671D01*
X127091670Y-81508921D01*
X127071153Y-81521218D01*
X127049529Y-81531446D01*
X127027007Y-81539504D01*
X127003803Y-81545316D01*
X126980142Y-81548826D01*
X126956250Y-81550000D01*
X126043750Y-81550000D01*
X126019858Y-81548826D01*
X125996197Y-81545316D01*
X125972993Y-81539504D01*
X125950471Y-81531446D01*
X125928847Y-81521218D01*
X125908330Y-81508921D01*
X125889117Y-81494671D01*
X125871393Y-81478607D01*
X125855329Y-81460883D01*
X125841079Y-81441670D01*
X125828782Y-81421153D01*
X125818554Y-81399529D01*
X125810496Y-81377007D01*
X125804684Y-81353803D01*
X125801174Y-81330142D01*
X125800000Y-81306250D01*
X125800000Y-80818750D01*
X125801174Y-80794858D01*
X125804684Y-80771197D01*
X125810496Y-80747993D01*
X125818554Y-80725471D01*
X125828782Y-80703847D01*
X125841079Y-80683330D01*
X125855329Y-80664117D01*
X125871393Y-80646393D01*
X125889117Y-80630329D01*
X125908330Y-80616079D01*
X125928847Y-80603782D01*
X125950471Y-80593554D01*
X125972993Y-80585496D01*
X125996197Y-80579684D01*
X126019858Y-80576174D01*
X126043750Y-80575000D01*
X126956250Y-80575000D01*
X126980142Y-80576174D01*
X126980142Y-80576174D01*
G37*
D11*
X126500000Y-81062500D03*
G04 #@! TD*
D10*
G04 #@! TO.C,R38*
G36*
X94330142Y-53301174D02*
X94353803Y-53304684D01*
X94377007Y-53310496D01*
X94399529Y-53318554D01*
X94421153Y-53328782D01*
X94441670Y-53341079D01*
X94460883Y-53355329D01*
X94478607Y-53371393D01*
X94494671Y-53389117D01*
X94508921Y-53408330D01*
X94521218Y-53428847D01*
X94531446Y-53450471D01*
X94539504Y-53472993D01*
X94545316Y-53496197D01*
X94548826Y-53519858D01*
X94550000Y-53543750D01*
X94550000Y-54456250D01*
X94548826Y-54480142D01*
X94545316Y-54503803D01*
X94539504Y-54527007D01*
X94531446Y-54549529D01*
X94521218Y-54571153D01*
X94508921Y-54591670D01*
X94494671Y-54610883D01*
X94478607Y-54628607D01*
X94460883Y-54644671D01*
X94441670Y-54658921D01*
X94421153Y-54671218D01*
X94399529Y-54681446D01*
X94377007Y-54689504D01*
X94353803Y-54695316D01*
X94330142Y-54698826D01*
X94306250Y-54700000D01*
X93818750Y-54700000D01*
X93794858Y-54698826D01*
X93771197Y-54695316D01*
X93747993Y-54689504D01*
X93725471Y-54681446D01*
X93703847Y-54671218D01*
X93683330Y-54658921D01*
X93664117Y-54644671D01*
X93646393Y-54628607D01*
X93630329Y-54610883D01*
X93616079Y-54591670D01*
X93603782Y-54571153D01*
X93593554Y-54549529D01*
X93585496Y-54527007D01*
X93579684Y-54503803D01*
X93576174Y-54480142D01*
X93575000Y-54456250D01*
X93575000Y-53543750D01*
X93576174Y-53519858D01*
X93579684Y-53496197D01*
X93585496Y-53472993D01*
X93593554Y-53450471D01*
X93603782Y-53428847D01*
X93616079Y-53408330D01*
X93630329Y-53389117D01*
X93646393Y-53371393D01*
X93664117Y-53355329D01*
X93683330Y-53341079D01*
X93703847Y-53328782D01*
X93725471Y-53318554D01*
X93747993Y-53310496D01*
X93771197Y-53304684D01*
X93794858Y-53301174D01*
X93818750Y-53300000D01*
X94306250Y-53300000D01*
X94330142Y-53301174D01*
X94330142Y-53301174D01*
G37*
D11*
X94062500Y-54000000D03*
D10*
G36*
X96205142Y-53301174D02*
X96228803Y-53304684D01*
X96252007Y-53310496D01*
X96274529Y-53318554D01*
X96296153Y-53328782D01*
X96316670Y-53341079D01*
X96335883Y-53355329D01*
X96353607Y-53371393D01*
X96369671Y-53389117D01*
X96383921Y-53408330D01*
X96396218Y-53428847D01*
X96406446Y-53450471D01*
X96414504Y-53472993D01*
X96420316Y-53496197D01*
X96423826Y-53519858D01*
X96425000Y-53543750D01*
X96425000Y-54456250D01*
X96423826Y-54480142D01*
X96420316Y-54503803D01*
X96414504Y-54527007D01*
X96406446Y-54549529D01*
X96396218Y-54571153D01*
X96383921Y-54591670D01*
X96369671Y-54610883D01*
X96353607Y-54628607D01*
X96335883Y-54644671D01*
X96316670Y-54658921D01*
X96296153Y-54671218D01*
X96274529Y-54681446D01*
X96252007Y-54689504D01*
X96228803Y-54695316D01*
X96205142Y-54698826D01*
X96181250Y-54700000D01*
X95693750Y-54700000D01*
X95669858Y-54698826D01*
X95646197Y-54695316D01*
X95622993Y-54689504D01*
X95600471Y-54681446D01*
X95578847Y-54671218D01*
X95558330Y-54658921D01*
X95539117Y-54644671D01*
X95521393Y-54628607D01*
X95505329Y-54610883D01*
X95491079Y-54591670D01*
X95478782Y-54571153D01*
X95468554Y-54549529D01*
X95460496Y-54527007D01*
X95454684Y-54503803D01*
X95451174Y-54480142D01*
X95450000Y-54456250D01*
X95450000Y-53543750D01*
X95451174Y-53519858D01*
X95454684Y-53496197D01*
X95460496Y-53472993D01*
X95468554Y-53450471D01*
X95478782Y-53428847D01*
X95491079Y-53408330D01*
X95505329Y-53389117D01*
X95521393Y-53371393D01*
X95539117Y-53355329D01*
X95558330Y-53341079D01*
X95578847Y-53328782D01*
X95600471Y-53318554D01*
X95622993Y-53310496D01*
X95646197Y-53304684D01*
X95669858Y-53301174D01*
X95693750Y-53300000D01*
X96181250Y-53300000D01*
X96205142Y-53301174D01*
X96205142Y-53301174D01*
G37*
D11*
X95937500Y-54000000D03*
G04 #@! TD*
D10*
G04 #@! TO.C,R39*
G36*
X109850142Y-77801174D02*
X109873803Y-77804684D01*
X109897007Y-77810496D01*
X109919529Y-77818554D01*
X109941153Y-77828782D01*
X109961670Y-77841079D01*
X109980883Y-77855329D01*
X109998607Y-77871393D01*
X110014671Y-77889117D01*
X110028921Y-77908330D01*
X110041218Y-77928847D01*
X110051446Y-77950471D01*
X110059504Y-77972993D01*
X110065316Y-77996197D01*
X110068826Y-78019858D01*
X110070000Y-78043750D01*
X110070000Y-78956250D01*
X110068826Y-78980142D01*
X110065316Y-79003803D01*
X110059504Y-79027007D01*
X110051446Y-79049529D01*
X110041218Y-79071153D01*
X110028921Y-79091670D01*
X110014671Y-79110883D01*
X109998607Y-79128607D01*
X109980883Y-79144671D01*
X109961670Y-79158921D01*
X109941153Y-79171218D01*
X109919529Y-79181446D01*
X109897007Y-79189504D01*
X109873803Y-79195316D01*
X109850142Y-79198826D01*
X109826250Y-79200000D01*
X109338750Y-79200000D01*
X109314858Y-79198826D01*
X109291197Y-79195316D01*
X109267993Y-79189504D01*
X109245471Y-79181446D01*
X109223847Y-79171218D01*
X109203330Y-79158921D01*
X109184117Y-79144671D01*
X109166393Y-79128607D01*
X109150329Y-79110883D01*
X109136079Y-79091670D01*
X109123782Y-79071153D01*
X109113554Y-79049529D01*
X109105496Y-79027007D01*
X109099684Y-79003803D01*
X109096174Y-78980142D01*
X109095000Y-78956250D01*
X109095000Y-78043750D01*
X109096174Y-78019858D01*
X109099684Y-77996197D01*
X109105496Y-77972993D01*
X109113554Y-77950471D01*
X109123782Y-77928847D01*
X109136079Y-77908330D01*
X109150329Y-77889117D01*
X109166393Y-77871393D01*
X109184117Y-77855329D01*
X109203330Y-77841079D01*
X109223847Y-77828782D01*
X109245471Y-77818554D01*
X109267993Y-77810496D01*
X109291197Y-77804684D01*
X109314858Y-77801174D01*
X109338750Y-77800000D01*
X109826250Y-77800000D01*
X109850142Y-77801174D01*
X109850142Y-77801174D01*
G37*
D11*
X109582500Y-78500000D03*
D10*
G36*
X111725142Y-77801174D02*
X111748803Y-77804684D01*
X111772007Y-77810496D01*
X111794529Y-77818554D01*
X111816153Y-77828782D01*
X111836670Y-77841079D01*
X111855883Y-77855329D01*
X111873607Y-77871393D01*
X111889671Y-77889117D01*
X111903921Y-77908330D01*
X111916218Y-77928847D01*
X111926446Y-77950471D01*
X111934504Y-77972993D01*
X111940316Y-77996197D01*
X111943826Y-78019858D01*
X111945000Y-78043750D01*
X111945000Y-78956250D01*
X111943826Y-78980142D01*
X111940316Y-79003803D01*
X111934504Y-79027007D01*
X111926446Y-79049529D01*
X111916218Y-79071153D01*
X111903921Y-79091670D01*
X111889671Y-79110883D01*
X111873607Y-79128607D01*
X111855883Y-79144671D01*
X111836670Y-79158921D01*
X111816153Y-79171218D01*
X111794529Y-79181446D01*
X111772007Y-79189504D01*
X111748803Y-79195316D01*
X111725142Y-79198826D01*
X111701250Y-79200000D01*
X111213750Y-79200000D01*
X111189858Y-79198826D01*
X111166197Y-79195316D01*
X111142993Y-79189504D01*
X111120471Y-79181446D01*
X111098847Y-79171218D01*
X111078330Y-79158921D01*
X111059117Y-79144671D01*
X111041393Y-79128607D01*
X111025329Y-79110883D01*
X111011079Y-79091670D01*
X110998782Y-79071153D01*
X110988554Y-79049529D01*
X110980496Y-79027007D01*
X110974684Y-79003803D01*
X110971174Y-78980142D01*
X110970000Y-78956250D01*
X110970000Y-78043750D01*
X110971174Y-78019858D01*
X110974684Y-77996197D01*
X110980496Y-77972993D01*
X110988554Y-77950471D01*
X110998782Y-77928847D01*
X111011079Y-77908330D01*
X111025329Y-77889117D01*
X111041393Y-77871393D01*
X111059117Y-77855329D01*
X111078330Y-77841079D01*
X111098847Y-77828782D01*
X111120471Y-77818554D01*
X111142993Y-77810496D01*
X111166197Y-77804684D01*
X111189858Y-77801174D01*
X111213750Y-77800000D01*
X111701250Y-77800000D01*
X111725142Y-77801174D01*
X111725142Y-77801174D01*
G37*
D11*
X111457500Y-78500000D03*
G04 #@! TD*
D10*
G04 #@! TO.C,R40*
G36*
X107205142Y-77801174D02*
X107228803Y-77804684D01*
X107252007Y-77810496D01*
X107274529Y-77818554D01*
X107296153Y-77828782D01*
X107316670Y-77841079D01*
X107335883Y-77855329D01*
X107353607Y-77871393D01*
X107369671Y-77889117D01*
X107383921Y-77908330D01*
X107396218Y-77928847D01*
X107406446Y-77950471D01*
X107414504Y-77972993D01*
X107420316Y-77996197D01*
X107423826Y-78019858D01*
X107425000Y-78043750D01*
X107425000Y-78956250D01*
X107423826Y-78980142D01*
X107420316Y-79003803D01*
X107414504Y-79027007D01*
X107406446Y-79049529D01*
X107396218Y-79071153D01*
X107383921Y-79091670D01*
X107369671Y-79110883D01*
X107353607Y-79128607D01*
X107335883Y-79144671D01*
X107316670Y-79158921D01*
X107296153Y-79171218D01*
X107274529Y-79181446D01*
X107252007Y-79189504D01*
X107228803Y-79195316D01*
X107205142Y-79198826D01*
X107181250Y-79200000D01*
X106693750Y-79200000D01*
X106669858Y-79198826D01*
X106646197Y-79195316D01*
X106622993Y-79189504D01*
X106600471Y-79181446D01*
X106578847Y-79171218D01*
X106558330Y-79158921D01*
X106539117Y-79144671D01*
X106521393Y-79128607D01*
X106505329Y-79110883D01*
X106491079Y-79091670D01*
X106478782Y-79071153D01*
X106468554Y-79049529D01*
X106460496Y-79027007D01*
X106454684Y-79003803D01*
X106451174Y-78980142D01*
X106450000Y-78956250D01*
X106450000Y-78043750D01*
X106451174Y-78019858D01*
X106454684Y-77996197D01*
X106460496Y-77972993D01*
X106468554Y-77950471D01*
X106478782Y-77928847D01*
X106491079Y-77908330D01*
X106505329Y-77889117D01*
X106521393Y-77871393D01*
X106539117Y-77855329D01*
X106558330Y-77841079D01*
X106578847Y-77828782D01*
X106600471Y-77818554D01*
X106622993Y-77810496D01*
X106646197Y-77804684D01*
X106669858Y-77801174D01*
X106693750Y-77800000D01*
X107181250Y-77800000D01*
X107205142Y-77801174D01*
X107205142Y-77801174D01*
G37*
D11*
X106937500Y-78500000D03*
D10*
G36*
X105330142Y-77801174D02*
X105353803Y-77804684D01*
X105377007Y-77810496D01*
X105399529Y-77818554D01*
X105421153Y-77828782D01*
X105441670Y-77841079D01*
X105460883Y-77855329D01*
X105478607Y-77871393D01*
X105494671Y-77889117D01*
X105508921Y-77908330D01*
X105521218Y-77928847D01*
X105531446Y-77950471D01*
X105539504Y-77972993D01*
X105545316Y-77996197D01*
X105548826Y-78019858D01*
X105550000Y-78043750D01*
X105550000Y-78956250D01*
X105548826Y-78980142D01*
X105545316Y-79003803D01*
X105539504Y-79027007D01*
X105531446Y-79049529D01*
X105521218Y-79071153D01*
X105508921Y-79091670D01*
X105494671Y-79110883D01*
X105478607Y-79128607D01*
X105460883Y-79144671D01*
X105441670Y-79158921D01*
X105421153Y-79171218D01*
X105399529Y-79181446D01*
X105377007Y-79189504D01*
X105353803Y-79195316D01*
X105330142Y-79198826D01*
X105306250Y-79200000D01*
X104818750Y-79200000D01*
X104794858Y-79198826D01*
X104771197Y-79195316D01*
X104747993Y-79189504D01*
X104725471Y-79181446D01*
X104703847Y-79171218D01*
X104683330Y-79158921D01*
X104664117Y-79144671D01*
X104646393Y-79128607D01*
X104630329Y-79110883D01*
X104616079Y-79091670D01*
X104603782Y-79071153D01*
X104593554Y-79049529D01*
X104585496Y-79027007D01*
X104579684Y-79003803D01*
X104576174Y-78980142D01*
X104575000Y-78956250D01*
X104575000Y-78043750D01*
X104576174Y-78019858D01*
X104579684Y-77996197D01*
X104585496Y-77972993D01*
X104593554Y-77950471D01*
X104603782Y-77928847D01*
X104616079Y-77908330D01*
X104630329Y-77889117D01*
X104646393Y-77871393D01*
X104664117Y-77855329D01*
X104683330Y-77841079D01*
X104703847Y-77828782D01*
X104725471Y-77818554D01*
X104747993Y-77810496D01*
X104771197Y-77804684D01*
X104794858Y-77801174D01*
X104818750Y-77800000D01*
X105306250Y-77800000D01*
X105330142Y-77801174D01*
X105330142Y-77801174D01*
G37*
D11*
X105062500Y-78500000D03*
G04 #@! TD*
D10*
G04 #@! TO.C,R41*
G36*
X118980142Y-82451174D02*
X119003803Y-82454684D01*
X119027007Y-82460496D01*
X119049529Y-82468554D01*
X119071153Y-82478782D01*
X119091670Y-82491079D01*
X119110883Y-82505329D01*
X119128607Y-82521393D01*
X119144671Y-82539117D01*
X119158921Y-82558330D01*
X119171218Y-82578847D01*
X119181446Y-82600471D01*
X119189504Y-82622993D01*
X119195316Y-82646197D01*
X119198826Y-82669858D01*
X119200000Y-82693750D01*
X119200000Y-83181250D01*
X119198826Y-83205142D01*
X119195316Y-83228803D01*
X119189504Y-83252007D01*
X119181446Y-83274529D01*
X119171218Y-83296153D01*
X119158921Y-83316670D01*
X119144671Y-83335883D01*
X119128607Y-83353607D01*
X119110883Y-83369671D01*
X119091670Y-83383921D01*
X119071153Y-83396218D01*
X119049529Y-83406446D01*
X119027007Y-83414504D01*
X119003803Y-83420316D01*
X118980142Y-83423826D01*
X118956250Y-83425000D01*
X118043750Y-83425000D01*
X118019858Y-83423826D01*
X117996197Y-83420316D01*
X117972993Y-83414504D01*
X117950471Y-83406446D01*
X117928847Y-83396218D01*
X117908330Y-83383921D01*
X117889117Y-83369671D01*
X117871393Y-83353607D01*
X117855329Y-83335883D01*
X117841079Y-83316670D01*
X117828782Y-83296153D01*
X117818554Y-83274529D01*
X117810496Y-83252007D01*
X117804684Y-83228803D01*
X117801174Y-83205142D01*
X117800000Y-83181250D01*
X117800000Y-82693750D01*
X117801174Y-82669858D01*
X117804684Y-82646197D01*
X117810496Y-82622993D01*
X117818554Y-82600471D01*
X117828782Y-82578847D01*
X117841079Y-82558330D01*
X117855329Y-82539117D01*
X117871393Y-82521393D01*
X117889117Y-82505329D01*
X117908330Y-82491079D01*
X117928847Y-82478782D01*
X117950471Y-82468554D01*
X117972993Y-82460496D01*
X117996197Y-82454684D01*
X118019858Y-82451174D01*
X118043750Y-82450000D01*
X118956250Y-82450000D01*
X118980142Y-82451174D01*
X118980142Y-82451174D01*
G37*
D11*
X118500000Y-82937500D03*
D10*
G36*
X118980142Y-80576174D02*
X119003803Y-80579684D01*
X119027007Y-80585496D01*
X119049529Y-80593554D01*
X119071153Y-80603782D01*
X119091670Y-80616079D01*
X119110883Y-80630329D01*
X119128607Y-80646393D01*
X119144671Y-80664117D01*
X119158921Y-80683330D01*
X119171218Y-80703847D01*
X119181446Y-80725471D01*
X119189504Y-80747993D01*
X119195316Y-80771197D01*
X119198826Y-80794858D01*
X119200000Y-80818750D01*
X119200000Y-81306250D01*
X119198826Y-81330142D01*
X119195316Y-81353803D01*
X119189504Y-81377007D01*
X119181446Y-81399529D01*
X119171218Y-81421153D01*
X119158921Y-81441670D01*
X119144671Y-81460883D01*
X119128607Y-81478607D01*
X119110883Y-81494671D01*
X119091670Y-81508921D01*
X119071153Y-81521218D01*
X119049529Y-81531446D01*
X119027007Y-81539504D01*
X119003803Y-81545316D01*
X118980142Y-81548826D01*
X118956250Y-81550000D01*
X118043750Y-81550000D01*
X118019858Y-81548826D01*
X117996197Y-81545316D01*
X117972993Y-81539504D01*
X117950471Y-81531446D01*
X117928847Y-81521218D01*
X117908330Y-81508921D01*
X117889117Y-81494671D01*
X117871393Y-81478607D01*
X117855329Y-81460883D01*
X117841079Y-81441670D01*
X117828782Y-81421153D01*
X117818554Y-81399529D01*
X117810496Y-81377007D01*
X117804684Y-81353803D01*
X117801174Y-81330142D01*
X117800000Y-81306250D01*
X117800000Y-80818750D01*
X117801174Y-80794858D01*
X117804684Y-80771197D01*
X117810496Y-80747993D01*
X117818554Y-80725471D01*
X117828782Y-80703847D01*
X117841079Y-80683330D01*
X117855329Y-80664117D01*
X117871393Y-80646393D01*
X117889117Y-80630329D01*
X117908330Y-80616079D01*
X117928847Y-80603782D01*
X117950471Y-80593554D01*
X117972993Y-80585496D01*
X117996197Y-80579684D01*
X118019858Y-80576174D01*
X118043750Y-80575000D01*
X118956250Y-80575000D01*
X118980142Y-80576174D01*
X118980142Y-80576174D01*
G37*
D11*
X118500000Y-81062500D03*
G04 #@! TD*
D10*
G04 #@! TO.C,R42*
G36*
X142980142Y-80576174D02*
X143003803Y-80579684D01*
X143027007Y-80585496D01*
X143049529Y-80593554D01*
X143071153Y-80603782D01*
X143091670Y-80616079D01*
X143110883Y-80630329D01*
X143128607Y-80646393D01*
X143144671Y-80664117D01*
X143158921Y-80683330D01*
X143171218Y-80703847D01*
X143181446Y-80725471D01*
X143189504Y-80747993D01*
X143195316Y-80771197D01*
X143198826Y-80794858D01*
X143200000Y-80818750D01*
X143200000Y-81306250D01*
X143198826Y-81330142D01*
X143195316Y-81353803D01*
X143189504Y-81377007D01*
X143181446Y-81399529D01*
X143171218Y-81421153D01*
X143158921Y-81441670D01*
X143144671Y-81460883D01*
X143128607Y-81478607D01*
X143110883Y-81494671D01*
X143091670Y-81508921D01*
X143071153Y-81521218D01*
X143049529Y-81531446D01*
X143027007Y-81539504D01*
X143003803Y-81545316D01*
X142980142Y-81548826D01*
X142956250Y-81550000D01*
X142043750Y-81550000D01*
X142019858Y-81548826D01*
X141996197Y-81545316D01*
X141972993Y-81539504D01*
X141950471Y-81531446D01*
X141928847Y-81521218D01*
X141908330Y-81508921D01*
X141889117Y-81494671D01*
X141871393Y-81478607D01*
X141855329Y-81460883D01*
X141841079Y-81441670D01*
X141828782Y-81421153D01*
X141818554Y-81399529D01*
X141810496Y-81377007D01*
X141804684Y-81353803D01*
X141801174Y-81330142D01*
X141800000Y-81306250D01*
X141800000Y-80818750D01*
X141801174Y-80794858D01*
X141804684Y-80771197D01*
X141810496Y-80747993D01*
X141818554Y-80725471D01*
X141828782Y-80703847D01*
X141841079Y-80683330D01*
X141855329Y-80664117D01*
X141871393Y-80646393D01*
X141889117Y-80630329D01*
X141908330Y-80616079D01*
X141928847Y-80603782D01*
X141950471Y-80593554D01*
X141972993Y-80585496D01*
X141996197Y-80579684D01*
X142019858Y-80576174D01*
X142043750Y-80575000D01*
X142956250Y-80575000D01*
X142980142Y-80576174D01*
X142980142Y-80576174D01*
G37*
D11*
X142500000Y-81062500D03*
D10*
G36*
X142980142Y-82451174D02*
X143003803Y-82454684D01*
X143027007Y-82460496D01*
X143049529Y-82468554D01*
X143071153Y-82478782D01*
X143091670Y-82491079D01*
X143110883Y-82505329D01*
X143128607Y-82521393D01*
X143144671Y-82539117D01*
X143158921Y-82558330D01*
X143171218Y-82578847D01*
X143181446Y-82600471D01*
X143189504Y-82622993D01*
X143195316Y-82646197D01*
X143198826Y-82669858D01*
X143200000Y-82693750D01*
X143200000Y-83181250D01*
X143198826Y-83205142D01*
X143195316Y-83228803D01*
X143189504Y-83252007D01*
X143181446Y-83274529D01*
X143171218Y-83296153D01*
X143158921Y-83316670D01*
X143144671Y-83335883D01*
X143128607Y-83353607D01*
X143110883Y-83369671D01*
X143091670Y-83383921D01*
X143071153Y-83396218D01*
X143049529Y-83406446D01*
X143027007Y-83414504D01*
X143003803Y-83420316D01*
X142980142Y-83423826D01*
X142956250Y-83425000D01*
X142043750Y-83425000D01*
X142019858Y-83423826D01*
X141996197Y-83420316D01*
X141972993Y-83414504D01*
X141950471Y-83406446D01*
X141928847Y-83396218D01*
X141908330Y-83383921D01*
X141889117Y-83369671D01*
X141871393Y-83353607D01*
X141855329Y-83335883D01*
X141841079Y-83316670D01*
X141828782Y-83296153D01*
X141818554Y-83274529D01*
X141810496Y-83252007D01*
X141804684Y-83228803D01*
X141801174Y-83205142D01*
X141800000Y-83181250D01*
X141800000Y-82693750D01*
X141801174Y-82669858D01*
X141804684Y-82646197D01*
X141810496Y-82622993D01*
X141818554Y-82600471D01*
X141828782Y-82578847D01*
X141841079Y-82558330D01*
X141855329Y-82539117D01*
X141871393Y-82521393D01*
X141889117Y-82505329D01*
X141908330Y-82491079D01*
X141928847Y-82478782D01*
X141950471Y-82468554D01*
X141972993Y-82460496D01*
X141996197Y-82454684D01*
X142019858Y-82451174D01*
X142043750Y-82450000D01*
X142956250Y-82450000D01*
X142980142Y-82451174D01*
X142980142Y-82451174D01*
G37*
D11*
X142500000Y-82937500D03*
G04 #@! TD*
D10*
G04 #@! TO.C,R43*
G36*
X116100142Y-77801174D02*
X116123803Y-77804684D01*
X116147007Y-77810496D01*
X116169529Y-77818554D01*
X116191153Y-77828782D01*
X116211670Y-77841079D01*
X116230883Y-77855329D01*
X116248607Y-77871393D01*
X116264671Y-77889117D01*
X116278921Y-77908330D01*
X116291218Y-77928847D01*
X116301446Y-77950471D01*
X116309504Y-77972993D01*
X116315316Y-77996197D01*
X116318826Y-78019858D01*
X116320000Y-78043750D01*
X116320000Y-78956250D01*
X116318826Y-78980142D01*
X116315316Y-79003803D01*
X116309504Y-79027007D01*
X116301446Y-79049529D01*
X116291218Y-79071153D01*
X116278921Y-79091670D01*
X116264671Y-79110883D01*
X116248607Y-79128607D01*
X116230883Y-79144671D01*
X116211670Y-79158921D01*
X116191153Y-79171218D01*
X116169529Y-79181446D01*
X116147007Y-79189504D01*
X116123803Y-79195316D01*
X116100142Y-79198826D01*
X116076250Y-79200000D01*
X115588750Y-79200000D01*
X115564858Y-79198826D01*
X115541197Y-79195316D01*
X115517993Y-79189504D01*
X115495471Y-79181446D01*
X115473847Y-79171218D01*
X115453330Y-79158921D01*
X115434117Y-79144671D01*
X115416393Y-79128607D01*
X115400329Y-79110883D01*
X115386079Y-79091670D01*
X115373782Y-79071153D01*
X115363554Y-79049529D01*
X115355496Y-79027007D01*
X115349684Y-79003803D01*
X115346174Y-78980142D01*
X115345000Y-78956250D01*
X115345000Y-78043750D01*
X115346174Y-78019858D01*
X115349684Y-77996197D01*
X115355496Y-77972993D01*
X115363554Y-77950471D01*
X115373782Y-77928847D01*
X115386079Y-77908330D01*
X115400329Y-77889117D01*
X115416393Y-77871393D01*
X115434117Y-77855329D01*
X115453330Y-77841079D01*
X115473847Y-77828782D01*
X115495471Y-77818554D01*
X115517993Y-77810496D01*
X115541197Y-77804684D01*
X115564858Y-77801174D01*
X115588750Y-77800000D01*
X116076250Y-77800000D01*
X116100142Y-77801174D01*
X116100142Y-77801174D01*
G37*
D11*
X115832500Y-78500000D03*
D10*
G36*
X114225142Y-77801174D02*
X114248803Y-77804684D01*
X114272007Y-77810496D01*
X114294529Y-77818554D01*
X114316153Y-77828782D01*
X114336670Y-77841079D01*
X114355883Y-77855329D01*
X114373607Y-77871393D01*
X114389671Y-77889117D01*
X114403921Y-77908330D01*
X114416218Y-77928847D01*
X114426446Y-77950471D01*
X114434504Y-77972993D01*
X114440316Y-77996197D01*
X114443826Y-78019858D01*
X114445000Y-78043750D01*
X114445000Y-78956250D01*
X114443826Y-78980142D01*
X114440316Y-79003803D01*
X114434504Y-79027007D01*
X114426446Y-79049529D01*
X114416218Y-79071153D01*
X114403921Y-79091670D01*
X114389671Y-79110883D01*
X114373607Y-79128607D01*
X114355883Y-79144671D01*
X114336670Y-79158921D01*
X114316153Y-79171218D01*
X114294529Y-79181446D01*
X114272007Y-79189504D01*
X114248803Y-79195316D01*
X114225142Y-79198826D01*
X114201250Y-79200000D01*
X113713750Y-79200000D01*
X113689858Y-79198826D01*
X113666197Y-79195316D01*
X113642993Y-79189504D01*
X113620471Y-79181446D01*
X113598847Y-79171218D01*
X113578330Y-79158921D01*
X113559117Y-79144671D01*
X113541393Y-79128607D01*
X113525329Y-79110883D01*
X113511079Y-79091670D01*
X113498782Y-79071153D01*
X113488554Y-79049529D01*
X113480496Y-79027007D01*
X113474684Y-79003803D01*
X113471174Y-78980142D01*
X113470000Y-78956250D01*
X113470000Y-78043750D01*
X113471174Y-78019858D01*
X113474684Y-77996197D01*
X113480496Y-77972993D01*
X113488554Y-77950471D01*
X113498782Y-77928847D01*
X113511079Y-77908330D01*
X113525329Y-77889117D01*
X113541393Y-77871393D01*
X113559117Y-77855329D01*
X113578330Y-77841079D01*
X113598847Y-77828782D01*
X113620471Y-77818554D01*
X113642993Y-77810496D01*
X113666197Y-77804684D01*
X113689858Y-77801174D01*
X113713750Y-77800000D01*
X114201250Y-77800000D01*
X114225142Y-77801174D01*
X114225142Y-77801174D01*
G37*
D11*
X113957500Y-78500000D03*
G04 #@! TD*
D10*
G04 #@! TO.C,R44*
G36*
X102705142Y-77801174D02*
X102728803Y-77804684D01*
X102752007Y-77810496D01*
X102774529Y-77818554D01*
X102796153Y-77828782D01*
X102816670Y-77841079D01*
X102835883Y-77855329D01*
X102853607Y-77871393D01*
X102869671Y-77889117D01*
X102883921Y-77908330D01*
X102896218Y-77928847D01*
X102906446Y-77950471D01*
X102914504Y-77972993D01*
X102920316Y-77996197D01*
X102923826Y-78019858D01*
X102925000Y-78043750D01*
X102925000Y-78956250D01*
X102923826Y-78980142D01*
X102920316Y-79003803D01*
X102914504Y-79027007D01*
X102906446Y-79049529D01*
X102896218Y-79071153D01*
X102883921Y-79091670D01*
X102869671Y-79110883D01*
X102853607Y-79128607D01*
X102835883Y-79144671D01*
X102816670Y-79158921D01*
X102796153Y-79171218D01*
X102774529Y-79181446D01*
X102752007Y-79189504D01*
X102728803Y-79195316D01*
X102705142Y-79198826D01*
X102681250Y-79200000D01*
X102193750Y-79200000D01*
X102169858Y-79198826D01*
X102146197Y-79195316D01*
X102122993Y-79189504D01*
X102100471Y-79181446D01*
X102078847Y-79171218D01*
X102058330Y-79158921D01*
X102039117Y-79144671D01*
X102021393Y-79128607D01*
X102005329Y-79110883D01*
X101991079Y-79091670D01*
X101978782Y-79071153D01*
X101968554Y-79049529D01*
X101960496Y-79027007D01*
X101954684Y-79003803D01*
X101951174Y-78980142D01*
X101950000Y-78956250D01*
X101950000Y-78043750D01*
X101951174Y-78019858D01*
X101954684Y-77996197D01*
X101960496Y-77972993D01*
X101968554Y-77950471D01*
X101978782Y-77928847D01*
X101991079Y-77908330D01*
X102005329Y-77889117D01*
X102021393Y-77871393D01*
X102039117Y-77855329D01*
X102058330Y-77841079D01*
X102078847Y-77828782D01*
X102100471Y-77818554D01*
X102122993Y-77810496D01*
X102146197Y-77804684D01*
X102169858Y-77801174D01*
X102193750Y-77800000D01*
X102681250Y-77800000D01*
X102705142Y-77801174D01*
X102705142Y-77801174D01*
G37*
D11*
X102437500Y-78500000D03*
D10*
G36*
X100830142Y-77801174D02*
X100853803Y-77804684D01*
X100877007Y-77810496D01*
X100899529Y-77818554D01*
X100921153Y-77828782D01*
X100941670Y-77841079D01*
X100960883Y-77855329D01*
X100978607Y-77871393D01*
X100994671Y-77889117D01*
X101008921Y-77908330D01*
X101021218Y-77928847D01*
X101031446Y-77950471D01*
X101039504Y-77972993D01*
X101045316Y-77996197D01*
X101048826Y-78019858D01*
X101050000Y-78043750D01*
X101050000Y-78956250D01*
X101048826Y-78980142D01*
X101045316Y-79003803D01*
X101039504Y-79027007D01*
X101031446Y-79049529D01*
X101021218Y-79071153D01*
X101008921Y-79091670D01*
X100994671Y-79110883D01*
X100978607Y-79128607D01*
X100960883Y-79144671D01*
X100941670Y-79158921D01*
X100921153Y-79171218D01*
X100899529Y-79181446D01*
X100877007Y-79189504D01*
X100853803Y-79195316D01*
X100830142Y-79198826D01*
X100806250Y-79200000D01*
X100318750Y-79200000D01*
X100294858Y-79198826D01*
X100271197Y-79195316D01*
X100247993Y-79189504D01*
X100225471Y-79181446D01*
X100203847Y-79171218D01*
X100183330Y-79158921D01*
X100164117Y-79144671D01*
X100146393Y-79128607D01*
X100130329Y-79110883D01*
X100116079Y-79091670D01*
X100103782Y-79071153D01*
X100093554Y-79049529D01*
X100085496Y-79027007D01*
X100079684Y-79003803D01*
X100076174Y-78980142D01*
X100075000Y-78956250D01*
X100075000Y-78043750D01*
X100076174Y-78019858D01*
X100079684Y-77996197D01*
X100085496Y-77972993D01*
X100093554Y-77950471D01*
X100103782Y-77928847D01*
X100116079Y-77908330D01*
X100130329Y-77889117D01*
X100146393Y-77871393D01*
X100164117Y-77855329D01*
X100183330Y-77841079D01*
X100203847Y-77828782D01*
X100225471Y-77818554D01*
X100247993Y-77810496D01*
X100271197Y-77804684D01*
X100294858Y-77801174D01*
X100318750Y-77800000D01*
X100806250Y-77800000D01*
X100830142Y-77801174D01*
X100830142Y-77801174D01*
G37*
D11*
X100562500Y-78500000D03*
G04 #@! TD*
D10*
G04 #@! TO.C,R35*
G36*
X96205142Y-50301174D02*
X96228803Y-50304684D01*
X96252007Y-50310496D01*
X96274529Y-50318554D01*
X96296153Y-50328782D01*
X96316670Y-50341079D01*
X96335883Y-50355329D01*
X96353607Y-50371393D01*
X96369671Y-50389117D01*
X96383921Y-50408330D01*
X96396218Y-50428847D01*
X96406446Y-50450471D01*
X96414504Y-50472993D01*
X96420316Y-50496197D01*
X96423826Y-50519858D01*
X96425000Y-50543750D01*
X96425000Y-51456250D01*
X96423826Y-51480142D01*
X96420316Y-51503803D01*
X96414504Y-51527007D01*
X96406446Y-51549529D01*
X96396218Y-51571153D01*
X96383921Y-51591670D01*
X96369671Y-51610883D01*
X96353607Y-51628607D01*
X96335883Y-51644671D01*
X96316670Y-51658921D01*
X96296153Y-51671218D01*
X96274529Y-51681446D01*
X96252007Y-51689504D01*
X96228803Y-51695316D01*
X96205142Y-51698826D01*
X96181250Y-51700000D01*
X95693750Y-51700000D01*
X95669858Y-51698826D01*
X95646197Y-51695316D01*
X95622993Y-51689504D01*
X95600471Y-51681446D01*
X95578847Y-51671218D01*
X95558330Y-51658921D01*
X95539117Y-51644671D01*
X95521393Y-51628607D01*
X95505329Y-51610883D01*
X95491079Y-51591670D01*
X95478782Y-51571153D01*
X95468554Y-51549529D01*
X95460496Y-51527007D01*
X95454684Y-51503803D01*
X95451174Y-51480142D01*
X95450000Y-51456250D01*
X95450000Y-50543750D01*
X95451174Y-50519858D01*
X95454684Y-50496197D01*
X95460496Y-50472993D01*
X95468554Y-50450471D01*
X95478782Y-50428847D01*
X95491079Y-50408330D01*
X95505329Y-50389117D01*
X95521393Y-50371393D01*
X95539117Y-50355329D01*
X95558330Y-50341079D01*
X95578847Y-50328782D01*
X95600471Y-50318554D01*
X95622993Y-50310496D01*
X95646197Y-50304684D01*
X95669858Y-50301174D01*
X95693750Y-50300000D01*
X96181250Y-50300000D01*
X96205142Y-50301174D01*
X96205142Y-50301174D01*
G37*
D11*
X95937500Y-51000000D03*
D10*
G36*
X94330142Y-50301174D02*
X94353803Y-50304684D01*
X94377007Y-50310496D01*
X94399529Y-50318554D01*
X94421153Y-50328782D01*
X94441670Y-50341079D01*
X94460883Y-50355329D01*
X94478607Y-50371393D01*
X94494671Y-50389117D01*
X94508921Y-50408330D01*
X94521218Y-50428847D01*
X94531446Y-50450471D01*
X94539504Y-50472993D01*
X94545316Y-50496197D01*
X94548826Y-50519858D01*
X94550000Y-50543750D01*
X94550000Y-51456250D01*
X94548826Y-51480142D01*
X94545316Y-51503803D01*
X94539504Y-51527007D01*
X94531446Y-51549529D01*
X94521218Y-51571153D01*
X94508921Y-51591670D01*
X94494671Y-51610883D01*
X94478607Y-51628607D01*
X94460883Y-51644671D01*
X94441670Y-51658921D01*
X94421153Y-51671218D01*
X94399529Y-51681446D01*
X94377007Y-51689504D01*
X94353803Y-51695316D01*
X94330142Y-51698826D01*
X94306250Y-51700000D01*
X93818750Y-51700000D01*
X93794858Y-51698826D01*
X93771197Y-51695316D01*
X93747993Y-51689504D01*
X93725471Y-51681446D01*
X93703847Y-51671218D01*
X93683330Y-51658921D01*
X93664117Y-51644671D01*
X93646393Y-51628607D01*
X93630329Y-51610883D01*
X93616079Y-51591670D01*
X93603782Y-51571153D01*
X93593554Y-51549529D01*
X93585496Y-51527007D01*
X93579684Y-51503803D01*
X93576174Y-51480142D01*
X93575000Y-51456250D01*
X93575000Y-50543750D01*
X93576174Y-50519858D01*
X93579684Y-50496197D01*
X93585496Y-50472993D01*
X93593554Y-50450471D01*
X93603782Y-50428847D01*
X93616079Y-50408330D01*
X93630329Y-50389117D01*
X93646393Y-50371393D01*
X93664117Y-50355329D01*
X93683330Y-50341079D01*
X93703847Y-50328782D01*
X93725471Y-50318554D01*
X93747993Y-50310496D01*
X93771197Y-50304684D01*
X93794858Y-50301174D01*
X93818750Y-50300000D01*
X94306250Y-50300000D01*
X94330142Y-50301174D01*
X94330142Y-50301174D01*
G37*
D11*
X94062500Y-51000000D03*
G04 #@! TD*
D10*
G04 #@! TO.C,R34*
G36*
X102705142Y-68801174D02*
X102728803Y-68804684D01*
X102752007Y-68810496D01*
X102774529Y-68818554D01*
X102796153Y-68828782D01*
X102816670Y-68841079D01*
X102835883Y-68855329D01*
X102853607Y-68871393D01*
X102869671Y-68889117D01*
X102883921Y-68908330D01*
X102896218Y-68928847D01*
X102906446Y-68950471D01*
X102914504Y-68972993D01*
X102920316Y-68996197D01*
X102923826Y-69019858D01*
X102925000Y-69043750D01*
X102925000Y-69956250D01*
X102923826Y-69980142D01*
X102920316Y-70003803D01*
X102914504Y-70027007D01*
X102906446Y-70049529D01*
X102896218Y-70071153D01*
X102883921Y-70091670D01*
X102869671Y-70110883D01*
X102853607Y-70128607D01*
X102835883Y-70144671D01*
X102816670Y-70158921D01*
X102796153Y-70171218D01*
X102774529Y-70181446D01*
X102752007Y-70189504D01*
X102728803Y-70195316D01*
X102705142Y-70198826D01*
X102681250Y-70200000D01*
X102193750Y-70200000D01*
X102169858Y-70198826D01*
X102146197Y-70195316D01*
X102122993Y-70189504D01*
X102100471Y-70181446D01*
X102078847Y-70171218D01*
X102058330Y-70158921D01*
X102039117Y-70144671D01*
X102021393Y-70128607D01*
X102005329Y-70110883D01*
X101991079Y-70091670D01*
X101978782Y-70071153D01*
X101968554Y-70049529D01*
X101960496Y-70027007D01*
X101954684Y-70003803D01*
X101951174Y-69980142D01*
X101950000Y-69956250D01*
X101950000Y-69043750D01*
X101951174Y-69019858D01*
X101954684Y-68996197D01*
X101960496Y-68972993D01*
X101968554Y-68950471D01*
X101978782Y-68928847D01*
X101991079Y-68908330D01*
X102005329Y-68889117D01*
X102021393Y-68871393D01*
X102039117Y-68855329D01*
X102058330Y-68841079D01*
X102078847Y-68828782D01*
X102100471Y-68818554D01*
X102122993Y-68810496D01*
X102146197Y-68804684D01*
X102169858Y-68801174D01*
X102193750Y-68800000D01*
X102681250Y-68800000D01*
X102705142Y-68801174D01*
X102705142Y-68801174D01*
G37*
D11*
X102437500Y-69500000D03*
D10*
G36*
X100830142Y-68801174D02*
X100853803Y-68804684D01*
X100877007Y-68810496D01*
X100899529Y-68818554D01*
X100921153Y-68828782D01*
X100941670Y-68841079D01*
X100960883Y-68855329D01*
X100978607Y-68871393D01*
X100994671Y-68889117D01*
X101008921Y-68908330D01*
X101021218Y-68928847D01*
X101031446Y-68950471D01*
X101039504Y-68972993D01*
X101045316Y-68996197D01*
X101048826Y-69019858D01*
X101050000Y-69043750D01*
X101050000Y-69956250D01*
X101048826Y-69980142D01*
X101045316Y-70003803D01*
X101039504Y-70027007D01*
X101031446Y-70049529D01*
X101021218Y-70071153D01*
X101008921Y-70091670D01*
X100994671Y-70110883D01*
X100978607Y-70128607D01*
X100960883Y-70144671D01*
X100941670Y-70158921D01*
X100921153Y-70171218D01*
X100899529Y-70181446D01*
X100877007Y-70189504D01*
X100853803Y-70195316D01*
X100830142Y-70198826D01*
X100806250Y-70200000D01*
X100318750Y-70200000D01*
X100294858Y-70198826D01*
X100271197Y-70195316D01*
X100247993Y-70189504D01*
X100225471Y-70181446D01*
X100203847Y-70171218D01*
X100183330Y-70158921D01*
X100164117Y-70144671D01*
X100146393Y-70128607D01*
X100130329Y-70110883D01*
X100116079Y-70091670D01*
X100103782Y-70071153D01*
X100093554Y-70049529D01*
X100085496Y-70027007D01*
X100079684Y-70003803D01*
X100076174Y-69980142D01*
X100075000Y-69956250D01*
X100075000Y-69043750D01*
X100076174Y-69019858D01*
X100079684Y-68996197D01*
X100085496Y-68972993D01*
X100093554Y-68950471D01*
X100103782Y-68928847D01*
X100116079Y-68908330D01*
X100130329Y-68889117D01*
X100146393Y-68871393D01*
X100164117Y-68855329D01*
X100183330Y-68841079D01*
X100203847Y-68828782D01*
X100225471Y-68818554D01*
X100247993Y-68810496D01*
X100271197Y-68804684D01*
X100294858Y-68801174D01*
X100318750Y-68800000D01*
X100806250Y-68800000D01*
X100830142Y-68801174D01*
X100830142Y-68801174D01*
G37*
D11*
X100562500Y-69500000D03*
G04 #@! TD*
D10*
G04 #@! TO.C,R33*
G36*
X114225142Y-68801174D02*
X114248803Y-68804684D01*
X114272007Y-68810496D01*
X114294529Y-68818554D01*
X114316153Y-68828782D01*
X114336670Y-68841079D01*
X114355883Y-68855329D01*
X114373607Y-68871393D01*
X114389671Y-68889117D01*
X114403921Y-68908330D01*
X114416218Y-68928847D01*
X114426446Y-68950471D01*
X114434504Y-68972993D01*
X114440316Y-68996197D01*
X114443826Y-69019858D01*
X114445000Y-69043750D01*
X114445000Y-69956250D01*
X114443826Y-69980142D01*
X114440316Y-70003803D01*
X114434504Y-70027007D01*
X114426446Y-70049529D01*
X114416218Y-70071153D01*
X114403921Y-70091670D01*
X114389671Y-70110883D01*
X114373607Y-70128607D01*
X114355883Y-70144671D01*
X114336670Y-70158921D01*
X114316153Y-70171218D01*
X114294529Y-70181446D01*
X114272007Y-70189504D01*
X114248803Y-70195316D01*
X114225142Y-70198826D01*
X114201250Y-70200000D01*
X113713750Y-70200000D01*
X113689858Y-70198826D01*
X113666197Y-70195316D01*
X113642993Y-70189504D01*
X113620471Y-70181446D01*
X113598847Y-70171218D01*
X113578330Y-70158921D01*
X113559117Y-70144671D01*
X113541393Y-70128607D01*
X113525329Y-70110883D01*
X113511079Y-70091670D01*
X113498782Y-70071153D01*
X113488554Y-70049529D01*
X113480496Y-70027007D01*
X113474684Y-70003803D01*
X113471174Y-69980142D01*
X113470000Y-69956250D01*
X113470000Y-69043750D01*
X113471174Y-69019858D01*
X113474684Y-68996197D01*
X113480496Y-68972993D01*
X113488554Y-68950471D01*
X113498782Y-68928847D01*
X113511079Y-68908330D01*
X113525329Y-68889117D01*
X113541393Y-68871393D01*
X113559117Y-68855329D01*
X113578330Y-68841079D01*
X113598847Y-68828782D01*
X113620471Y-68818554D01*
X113642993Y-68810496D01*
X113666197Y-68804684D01*
X113689858Y-68801174D01*
X113713750Y-68800000D01*
X114201250Y-68800000D01*
X114225142Y-68801174D01*
X114225142Y-68801174D01*
G37*
D11*
X113957500Y-69500000D03*
D10*
G36*
X116100142Y-68801174D02*
X116123803Y-68804684D01*
X116147007Y-68810496D01*
X116169529Y-68818554D01*
X116191153Y-68828782D01*
X116211670Y-68841079D01*
X116230883Y-68855329D01*
X116248607Y-68871393D01*
X116264671Y-68889117D01*
X116278921Y-68908330D01*
X116291218Y-68928847D01*
X116301446Y-68950471D01*
X116309504Y-68972993D01*
X116315316Y-68996197D01*
X116318826Y-69019858D01*
X116320000Y-69043750D01*
X116320000Y-69956250D01*
X116318826Y-69980142D01*
X116315316Y-70003803D01*
X116309504Y-70027007D01*
X116301446Y-70049529D01*
X116291218Y-70071153D01*
X116278921Y-70091670D01*
X116264671Y-70110883D01*
X116248607Y-70128607D01*
X116230883Y-70144671D01*
X116211670Y-70158921D01*
X116191153Y-70171218D01*
X116169529Y-70181446D01*
X116147007Y-70189504D01*
X116123803Y-70195316D01*
X116100142Y-70198826D01*
X116076250Y-70200000D01*
X115588750Y-70200000D01*
X115564858Y-70198826D01*
X115541197Y-70195316D01*
X115517993Y-70189504D01*
X115495471Y-70181446D01*
X115473847Y-70171218D01*
X115453330Y-70158921D01*
X115434117Y-70144671D01*
X115416393Y-70128607D01*
X115400329Y-70110883D01*
X115386079Y-70091670D01*
X115373782Y-70071153D01*
X115363554Y-70049529D01*
X115355496Y-70027007D01*
X115349684Y-70003803D01*
X115346174Y-69980142D01*
X115345000Y-69956250D01*
X115345000Y-69043750D01*
X115346174Y-69019858D01*
X115349684Y-68996197D01*
X115355496Y-68972993D01*
X115363554Y-68950471D01*
X115373782Y-68928847D01*
X115386079Y-68908330D01*
X115400329Y-68889117D01*
X115416393Y-68871393D01*
X115434117Y-68855329D01*
X115453330Y-68841079D01*
X115473847Y-68828782D01*
X115495471Y-68818554D01*
X115517993Y-68810496D01*
X115541197Y-68804684D01*
X115564858Y-68801174D01*
X115588750Y-68800000D01*
X116076250Y-68800000D01*
X116100142Y-68801174D01*
X116100142Y-68801174D01*
G37*
D11*
X115832500Y-69500000D03*
G04 #@! TD*
D10*
G04 #@! TO.C,R31*
G36*
X92480142Y-62638674D02*
X92503803Y-62642184D01*
X92527007Y-62647996D01*
X92549529Y-62656054D01*
X92571153Y-62666282D01*
X92591670Y-62678579D01*
X92610883Y-62692829D01*
X92628607Y-62708893D01*
X92644671Y-62726617D01*
X92658921Y-62745830D01*
X92671218Y-62766347D01*
X92681446Y-62787971D01*
X92689504Y-62810493D01*
X92695316Y-62833697D01*
X92698826Y-62857358D01*
X92700000Y-62881250D01*
X92700000Y-63368750D01*
X92698826Y-63392642D01*
X92695316Y-63416303D01*
X92689504Y-63439507D01*
X92681446Y-63462029D01*
X92671218Y-63483653D01*
X92658921Y-63504170D01*
X92644671Y-63523383D01*
X92628607Y-63541107D01*
X92610883Y-63557171D01*
X92591670Y-63571421D01*
X92571153Y-63583718D01*
X92549529Y-63593946D01*
X92527007Y-63602004D01*
X92503803Y-63607816D01*
X92480142Y-63611326D01*
X92456250Y-63612500D01*
X91543750Y-63612500D01*
X91519858Y-63611326D01*
X91496197Y-63607816D01*
X91472993Y-63602004D01*
X91450471Y-63593946D01*
X91428847Y-63583718D01*
X91408330Y-63571421D01*
X91389117Y-63557171D01*
X91371393Y-63541107D01*
X91355329Y-63523383D01*
X91341079Y-63504170D01*
X91328782Y-63483653D01*
X91318554Y-63462029D01*
X91310496Y-63439507D01*
X91304684Y-63416303D01*
X91301174Y-63392642D01*
X91300000Y-63368750D01*
X91300000Y-62881250D01*
X91301174Y-62857358D01*
X91304684Y-62833697D01*
X91310496Y-62810493D01*
X91318554Y-62787971D01*
X91328782Y-62766347D01*
X91341079Y-62745830D01*
X91355329Y-62726617D01*
X91371393Y-62708893D01*
X91389117Y-62692829D01*
X91408330Y-62678579D01*
X91428847Y-62666282D01*
X91450471Y-62656054D01*
X91472993Y-62647996D01*
X91496197Y-62642184D01*
X91519858Y-62638674D01*
X91543750Y-62637500D01*
X92456250Y-62637500D01*
X92480142Y-62638674D01*
X92480142Y-62638674D01*
G37*
D11*
X92000000Y-63125000D03*
D10*
G36*
X92480142Y-64513674D02*
X92503803Y-64517184D01*
X92527007Y-64522996D01*
X92549529Y-64531054D01*
X92571153Y-64541282D01*
X92591670Y-64553579D01*
X92610883Y-64567829D01*
X92628607Y-64583893D01*
X92644671Y-64601617D01*
X92658921Y-64620830D01*
X92671218Y-64641347D01*
X92681446Y-64662971D01*
X92689504Y-64685493D01*
X92695316Y-64708697D01*
X92698826Y-64732358D01*
X92700000Y-64756250D01*
X92700000Y-65243750D01*
X92698826Y-65267642D01*
X92695316Y-65291303D01*
X92689504Y-65314507D01*
X92681446Y-65337029D01*
X92671218Y-65358653D01*
X92658921Y-65379170D01*
X92644671Y-65398383D01*
X92628607Y-65416107D01*
X92610883Y-65432171D01*
X92591670Y-65446421D01*
X92571153Y-65458718D01*
X92549529Y-65468946D01*
X92527007Y-65477004D01*
X92503803Y-65482816D01*
X92480142Y-65486326D01*
X92456250Y-65487500D01*
X91543750Y-65487500D01*
X91519858Y-65486326D01*
X91496197Y-65482816D01*
X91472993Y-65477004D01*
X91450471Y-65468946D01*
X91428847Y-65458718D01*
X91408330Y-65446421D01*
X91389117Y-65432171D01*
X91371393Y-65416107D01*
X91355329Y-65398383D01*
X91341079Y-65379170D01*
X91328782Y-65358653D01*
X91318554Y-65337029D01*
X91310496Y-65314507D01*
X91304684Y-65291303D01*
X91301174Y-65267642D01*
X91300000Y-65243750D01*
X91300000Y-64756250D01*
X91301174Y-64732358D01*
X91304684Y-64708697D01*
X91310496Y-64685493D01*
X91318554Y-64662971D01*
X91328782Y-64641347D01*
X91341079Y-64620830D01*
X91355329Y-64601617D01*
X91371393Y-64583893D01*
X91389117Y-64567829D01*
X91408330Y-64553579D01*
X91428847Y-64541282D01*
X91450471Y-64531054D01*
X91472993Y-64522996D01*
X91496197Y-64517184D01*
X91519858Y-64513674D01*
X91543750Y-64512500D01*
X92456250Y-64512500D01*
X92480142Y-64513674D01*
X92480142Y-64513674D01*
G37*
D11*
X92000000Y-65000000D03*
G04 #@! TD*
D10*
G04 #@! TO.C,R30*
G36*
X94980142Y-60451174D02*
X95003803Y-60454684D01*
X95027007Y-60460496D01*
X95049529Y-60468554D01*
X95071153Y-60478782D01*
X95091670Y-60491079D01*
X95110883Y-60505329D01*
X95128607Y-60521393D01*
X95144671Y-60539117D01*
X95158921Y-60558330D01*
X95171218Y-60578847D01*
X95181446Y-60600471D01*
X95189504Y-60622993D01*
X95195316Y-60646197D01*
X95198826Y-60669858D01*
X95200000Y-60693750D01*
X95200000Y-61181250D01*
X95198826Y-61205142D01*
X95195316Y-61228803D01*
X95189504Y-61252007D01*
X95181446Y-61274529D01*
X95171218Y-61296153D01*
X95158921Y-61316670D01*
X95144671Y-61335883D01*
X95128607Y-61353607D01*
X95110883Y-61369671D01*
X95091670Y-61383921D01*
X95071153Y-61396218D01*
X95049529Y-61406446D01*
X95027007Y-61414504D01*
X95003803Y-61420316D01*
X94980142Y-61423826D01*
X94956250Y-61425000D01*
X94043750Y-61425000D01*
X94019858Y-61423826D01*
X93996197Y-61420316D01*
X93972993Y-61414504D01*
X93950471Y-61406446D01*
X93928847Y-61396218D01*
X93908330Y-61383921D01*
X93889117Y-61369671D01*
X93871393Y-61353607D01*
X93855329Y-61335883D01*
X93841079Y-61316670D01*
X93828782Y-61296153D01*
X93818554Y-61274529D01*
X93810496Y-61252007D01*
X93804684Y-61228803D01*
X93801174Y-61205142D01*
X93800000Y-61181250D01*
X93800000Y-60693750D01*
X93801174Y-60669858D01*
X93804684Y-60646197D01*
X93810496Y-60622993D01*
X93818554Y-60600471D01*
X93828782Y-60578847D01*
X93841079Y-60558330D01*
X93855329Y-60539117D01*
X93871393Y-60521393D01*
X93889117Y-60505329D01*
X93908330Y-60491079D01*
X93928847Y-60478782D01*
X93950471Y-60468554D01*
X93972993Y-60460496D01*
X93996197Y-60454684D01*
X94019858Y-60451174D01*
X94043750Y-60450000D01*
X94956250Y-60450000D01*
X94980142Y-60451174D01*
X94980142Y-60451174D01*
G37*
D11*
X94500000Y-60937500D03*
D10*
G36*
X94980142Y-58576174D02*
X95003803Y-58579684D01*
X95027007Y-58585496D01*
X95049529Y-58593554D01*
X95071153Y-58603782D01*
X95091670Y-58616079D01*
X95110883Y-58630329D01*
X95128607Y-58646393D01*
X95144671Y-58664117D01*
X95158921Y-58683330D01*
X95171218Y-58703847D01*
X95181446Y-58725471D01*
X95189504Y-58747993D01*
X95195316Y-58771197D01*
X95198826Y-58794858D01*
X95200000Y-58818750D01*
X95200000Y-59306250D01*
X95198826Y-59330142D01*
X95195316Y-59353803D01*
X95189504Y-59377007D01*
X95181446Y-59399529D01*
X95171218Y-59421153D01*
X95158921Y-59441670D01*
X95144671Y-59460883D01*
X95128607Y-59478607D01*
X95110883Y-59494671D01*
X95091670Y-59508921D01*
X95071153Y-59521218D01*
X95049529Y-59531446D01*
X95027007Y-59539504D01*
X95003803Y-59545316D01*
X94980142Y-59548826D01*
X94956250Y-59550000D01*
X94043750Y-59550000D01*
X94019858Y-59548826D01*
X93996197Y-59545316D01*
X93972993Y-59539504D01*
X93950471Y-59531446D01*
X93928847Y-59521218D01*
X93908330Y-59508921D01*
X93889117Y-59494671D01*
X93871393Y-59478607D01*
X93855329Y-59460883D01*
X93841079Y-59441670D01*
X93828782Y-59421153D01*
X93818554Y-59399529D01*
X93810496Y-59377007D01*
X93804684Y-59353803D01*
X93801174Y-59330142D01*
X93800000Y-59306250D01*
X93800000Y-58818750D01*
X93801174Y-58794858D01*
X93804684Y-58771197D01*
X93810496Y-58747993D01*
X93818554Y-58725471D01*
X93828782Y-58703847D01*
X93841079Y-58683330D01*
X93855329Y-58664117D01*
X93871393Y-58646393D01*
X93889117Y-58630329D01*
X93908330Y-58616079D01*
X93928847Y-58603782D01*
X93950471Y-58593554D01*
X93972993Y-58585496D01*
X93996197Y-58579684D01*
X94019858Y-58576174D01*
X94043750Y-58575000D01*
X94956250Y-58575000D01*
X94980142Y-58576174D01*
X94980142Y-58576174D01*
G37*
D11*
X94500000Y-59062500D03*
G04 #@! TD*
D10*
G04 #@! TO.C,R29*
G36*
X94980142Y-62576174D02*
X95003803Y-62579684D01*
X95027007Y-62585496D01*
X95049529Y-62593554D01*
X95071153Y-62603782D01*
X95091670Y-62616079D01*
X95110883Y-62630329D01*
X95128607Y-62646393D01*
X95144671Y-62664117D01*
X95158921Y-62683330D01*
X95171218Y-62703847D01*
X95181446Y-62725471D01*
X95189504Y-62747993D01*
X95195316Y-62771197D01*
X95198826Y-62794858D01*
X95200000Y-62818750D01*
X95200000Y-63306250D01*
X95198826Y-63330142D01*
X95195316Y-63353803D01*
X95189504Y-63377007D01*
X95181446Y-63399529D01*
X95171218Y-63421153D01*
X95158921Y-63441670D01*
X95144671Y-63460883D01*
X95128607Y-63478607D01*
X95110883Y-63494671D01*
X95091670Y-63508921D01*
X95071153Y-63521218D01*
X95049529Y-63531446D01*
X95027007Y-63539504D01*
X95003803Y-63545316D01*
X94980142Y-63548826D01*
X94956250Y-63550000D01*
X94043750Y-63550000D01*
X94019858Y-63548826D01*
X93996197Y-63545316D01*
X93972993Y-63539504D01*
X93950471Y-63531446D01*
X93928847Y-63521218D01*
X93908330Y-63508921D01*
X93889117Y-63494671D01*
X93871393Y-63478607D01*
X93855329Y-63460883D01*
X93841079Y-63441670D01*
X93828782Y-63421153D01*
X93818554Y-63399529D01*
X93810496Y-63377007D01*
X93804684Y-63353803D01*
X93801174Y-63330142D01*
X93800000Y-63306250D01*
X93800000Y-62818750D01*
X93801174Y-62794858D01*
X93804684Y-62771197D01*
X93810496Y-62747993D01*
X93818554Y-62725471D01*
X93828782Y-62703847D01*
X93841079Y-62683330D01*
X93855329Y-62664117D01*
X93871393Y-62646393D01*
X93889117Y-62630329D01*
X93908330Y-62616079D01*
X93928847Y-62603782D01*
X93950471Y-62593554D01*
X93972993Y-62585496D01*
X93996197Y-62579684D01*
X94019858Y-62576174D01*
X94043750Y-62575000D01*
X94956250Y-62575000D01*
X94980142Y-62576174D01*
X94980142Y-62576174D01*
G37*
D11*
X94500000Y-63062500D03*
D10*
G36*
X94980142Y-64451174D02*
X95003803Y-64454684D01*
X95027007Y-64460496D01*
X95049529Y-64468554D01*
X95071153Y-64478782D01*
X95091670Y-64491079D01*
X95110883Y-64505329D01*
X95128607Y-64521393D01*
X95144671Y-64539117D01*
X95158921Y-64558330D01*
X95171218Y-64578847D01*
X95181446Y-64600471D01*
X95189504Y-64622993D01*
X95195316Y-64646197D01*
X95198826Y-64669858D01*
X95200000Y-64693750D01*
X95200000Y-65181250D01*
X95198826Y-65205142D01*
X95195316Y-65228803D01*
X95189504Y-65252007D01*
X95181446Y-65274529D01*
X95171218Y-65296153D01*
X95158921Y-65316670D01*
X95144671Y-65335883D01*
X95128607Y-65353607D01*
X95110883Y-65369671D01*
X95091670Y-65383921D01*
X95071153Y-65396218D01*
X95049529Y-65406446D01*
X95027007Y-65414504D01*
X95003803Y-65420316D01*
X94980142Y-65423826D01*
X94956250Y-65425000D01*
X94043750Y-65425000D01*
X94019858Y-65423826D01*
X93996197Y-65420316D01*
X93972993Y-65414504D01*
X93950471Y-65406446D01*
X93928847Y-65396218D01*
X93908330Y-65383921D01*
X93889117Y-65369671D01*
X93871393Y-65353607D01*
X93855329Y-65335883D01*
X93841079Y-65316670D01*
X93828782Y-65296153D01*
X93818554Y-65274529D01*
X93810496Y-65252007D01*
X93804684Y-65228803D01*
X93801174Y-65205142D01*
X93800000Y-65181250D01*
X93800000Y-64693750D01*
X93801174Y-64669858D01*
X93804684Y-64646197D01*
X93810496Y-64622993D01*
X93818554Y-64600471D01*
X93828782Y-64578847D01*
X93841079Y-64558330D01*
X93855329Y-64539117D01*
X93871393Y-64521393D01*
X93889117Y-64505329D01*
X93908330Y-64491079D01*
X93928847Y-64478782D01*
X93950471Y-64468554D01*
X93972993Y-64460496D01*
X93996197Y-64454684D01*
X94019858Y-64451174D01*
X94043750Y-64450000D01*
X94956250Y-64450000D01*
X94980142Y-64451174D01*
X94980142Y-64451174D01*
G37*
D11*
X94500000Y-64937500D03*
G04 #@! TD*
D10*
G04 #@! TO.C,R28*
G36*
X97480142Y-60451174D02*
X97503803Y-60454684D01*
X97527007Y-60460496D01*
X97549529Y-60468554D01*
X97571153Y-60478782D01*
X97591670Y-60491079D01*
X97610883Y-60505329D01*
X97628607Y-60521393D01*
X97644671Y-60539117D01*
X97658921Y-60558330D01*
X97671218Y-60578847D01*
X97681446Y-60600471D01*
X97689504Y-60622993D01*
X97695316Y-60646197D01*
X97698826Y-60669858D01*
X97700000Y-60693750D01*
X97700000Y-61181250D01*
X97698826Y-61205142D01*
X97695316Y-61228803D01*
X97689504Y-61252007D01*
X97681446Y-61274529D01*
X97671218Y-61296153D01*
X97658921Y-61316670D01*
X97644671Y-61335883D01*
X97628607Y-61353607D01*
X97610883Y-61369671D01*
X97591670Y-61383921D01*
X97571153Y-61396218D01*
X97549529Y-61406446D01*
X97527007Y-61414504D01*
X97503803Y-61420316D01*
X97480142Y-61423826D01*
X97456250Y-61425000D01*
X96543750Y-61425000D01*
X96519858Y-61423826D01*
X96496197Y-61420316D01*
X96472993Y-61414504D01*
X96450471Y-61406446D01*
X96428847Y-61396218D01*
X96408330Y-61383921D01*
X96389117Y-61369671D01*
X96371393Y-61353607D01*
X96355329Y-61335883D01*
X96341079Y-61316670D01*
X96328782Y-61296153D01*
X96318554Y-61274529D01*
X96310496Y-61252007D01*
X96304684Y-61228803D01*
X96301174Y-61205142D01*
X96300000Y-61181250D01*
X96300000Y-60693750D01*
X96301174Y-60669858D01*
X96304684Y-60646197D01*
X96310496Y-60622993D01*
X96318554Y-60600471D01*
X96328782Y-60578847D01*
X96341079Y-60558330D01*
X96355329Y-60539117D01*
X96371393Y-60521393D01*
X96389117Y-60505329D01*
X96408330Y-60491079D01*
X96428847Y-60478782D01*
X96450471Y-60468554D01*
X96472993Y-60460496D01*
X96496197Y-60454684D01*
X96519858Y-60451174D01*
X96543750Y-60450000D01*
X97456250Y-60450000D01*
X97480142Y-60451174D01*
X97480142Y-60451174D01*
G37*
D11*
X97000000Y-60937500D03*
D10*
G36*
X97480142Y-58576174D02*
X97503803Y-58579684D01*
X97527007Y-58585496D01*
X97549529Y-58593554D01*
X97571153Y-58603782D01*
X97591670Y-58616079D01*
X97610883Y-58630329D01*
X97628607Y-58646393D01*
X97644671Y-58664117D01*
X97658921Y-58683330D01*
X97671218Y-58703847D01*
X97681446Y-58725471D01*
X97689504Y-58747993D01*
X97695316Y-58771197D01*
X97698826Y-58794858D01*
X97700000Y-58818750D01*
X97700000Y-59306250D01*
X97698826Y-59330142D01*
X97695316Y-59353803D01*
X97689504Y-59377007D01*
X97681446Y-59399529D01*
X97671218Y-59421153D01*
X97658921Y-59441670D01*
X97644671Y-59460883D01*
X97628607Y-59478607D01*
X97610883Y-59494671D01*
X97591670Y-59508921D01*
X97571153Y-59521218D01*
X97549529Y-59531446D01*
X97527007Y-59539504D01*
X97503803Y-59545316D01*
X97480142Y-59548826D01*
X97456250Y-59550000D01*
X96543750Y-59550000D01*
X96519858Y-59548826D01*
X96496197Y-59545316D01*
X96472993Y-59539504D01*
X96450471Y-59531446D01*
X96428847Y-59521218D01*
X96408330Y-59508921D01*
X96389117Y-59494671D01*
X96371393Y-59478607D01*
X96355329Y-59460883D01*
X96341079Y-59441670D01*
X96328782Y-59421153D01*
X96318554Y-59399529D01*
X96310496Y-59377007D01*
X96304684Y-59353803D01*
X96301174Y-59330142D01*
X96300000Y-59306250D01*
X96300000Y-58818750D01*
X96301174Y-58794858D01*
X96304684Y-58771197D01*
X96310496Y-58747993D01*
X96318554Y-58725471D01*
X96328782Y-58703847D01*
X96341079Y-58683330D01*
X96355329Y-58664117D01*
X96371393Y-58646393D01*
X96389117Y-58630329D01*
X96408330Y-58616079D01*
X96428847Y-58603782D01*
X96450471Y-58593554D01*
X96472993Y-58585496D01*
X96496197Y-58579684D01*
X96519858Y-58576174D01*
X96543750Y-58575000D01*
X97456250Y-58575000D01*
X97480142Y-58576174D01*
X97480142Y-58576174D01*
G37*
D11*
X97000000Y-59062500D03*
G04 #@! TD*
D10*
G04 #@! TO.C,R27*
G36*
X97480142Y-62576174D02*
X97503803Y-62579684D01*
X97527007Y-62585496D01*
X97549529Y-62593554D01*
X97571153Y-62603782D01*
X97591670Y-62616079D01*
X97610883Y-62630329D01*
X97628607Y-62646393D01*
X97644671Y-62664117D01*
X97658921Y-62683330D01*
X97671218Y-62703847D01*
X97681446Y-62725471D01*
X97689504Y-62747993D01*
X97695316Y-62771197D01*
X97698826Y-62794858D01*
X97700000Y-62818750D01*
X97700000Y-63306250D01*
X97698826Y-63330142D01*
X97695316Y-63353803D01*
X97689504Y-63377007D01*
X97681446Y-63399529D01*
X97671218Y-63421153D01*
X97658921Y-63441670D01*
X97644671Y-63460883D01*
X97628607Y-63478607D01*
X97610883Y-63494671D01*
X97591670Y-63508921D01*
X97571153Y-63521218D01*
X97549529Y-63531446D01*
X97527007Y-63539504D01*
X97503803Y-63545316D01*
X97480142Y-63548826D01*
X97456250Y-63550000D01*
X96543750Y-63550000D01*
X96519858Y-63548826D01*
X96496197Y-63545316D01*
X96472993Y-63539504D01*
X96450471Y-63531446D01*
X96428847Y-63521218D01*
X96408330Y-63508921D01*
X96389117Y-63494671D01*
X96371393Y-63478607D01*
X96355329Y-63460883D01*
X96341079Y-63441670D01*
X96328782Y-63421153D01*
X96318554Y-63399529D01*
X96310496Y-63377007D01*
X96304684Y-63353803D01*
X96301174Y-63330142D01*
X96300000Y-63306250D01*
X96300000Y-62818750D01*
X96301174Y-62794858D01*
X96304684Y-62771197D01*
X96310496Y-62747993D01*
X96318554Y-62725471D01*
X96328782Y-62703847D01*
X96341079Y-62683330D01*
X96355329Y-62664117D01*
X96371393Y-62646393D01*
X96389117Y-62630329D01*
X96408330Y-62616079D01*
X96428847Y-62603782D01*
X96450471Y-62593554D01*
X96472993Y-62585496D01*
X96496197Y-62579684D01*
X96519858Y-62576174D01*
X96543750Y-62575000D01*
X97456250Y-62575000D01*
X97480142Y-62576174D01*
X97480142Y-62576174D01*
G37*
D11*
X97000000Y-63062500D03*
D10*
G36*
X97480142Y-64451174D02*
X97503803Y-64454684D01*
X97527007Y-64460496D01*
X97549529Y-64468554D01*
X97571153Y-64478782D01*
X97591670Y-64491079D01*
X97610883Y-64505329D01*
X97628607Y-64521393D01*
X97644671Y-64539117D01*
X97658921Y-64558330D01*
X97671218Y-64578847D01*
X97681446Y-64600471D01*
X97689504Y-64622993D01*
X97695316Y-64646197D01*
X97698826Y-64669858D01*
X97700000Y-64693750D01*
X97700000Y-65181250D01*
X97698826Y-65205142D01*
X97695316Y-65228803D01*
X97689504Y-65252007D01*
X97681446Y-65274529D01*
X97671218Y-65296153D01*
X97658921Y-65316670D01*
X97644671Y-65335883D01*
X97628607Y-65353607D01*
X97610883Y-65369671D01*
X97591670Y-65383921D01*
X97571153Y-65396218D01*
X97549529Y-65406446D01*
X97527007Y-65414504D01*
X97503803Y-65420316D01*
X97480142Y-65423826D01*
X97456250Y-65425000D01*
X96543750Y-65425000D01*
X96519858Y-65423826D01*
X96496197Y-65420316D01*
X96472993Y-65414504D01*
X96450471Y-65406446D01*
X96428847Y-65396218D01*
X96408330Y-65383921D01*
X96389117Y-65369671D01*
X96371393Y-65353607D01*
X96355329Y-65335883D01*
X96341079Y-65316670D01*
X96328782Y-65296153D01*
X96318554Y-65274529D01*
X96310496Y-65252007D01*
X96304684Y-65228803D01*
X96301174Y-65205142D01*
X96300000Y-65181250D01*
X96300000Y-64693750D01*
X96301174Y-64669858D01*
X96304684Y-64646197D01*
X96310496Y-64622993D01*
X96318554Y-64600471D01*
X96328782Y-64578847D01*
X96341079Y-64558330D01*
X96355329Y-64539117D01*
X96371393Y-64521393D01*
X96389117Y-64505329D01*
X96408330Y-64491079D01*
X96428847Y-64478782D01*
X96450471Y-64468554D01*
X96472993Y-64460496D01*
X96496197Y-64454684D01*
X96519858Y-64451174D01*
X96543750Y-64450000D01*
X97456250Y-64450000D01*
X97480142Y-64451174D01*
X97480142Y-64451174D01*
G37*
D11*
X97000000Y-64937500D03*
G04 #@! TD*
D10*
G04 #@! TO.C,R26*
G36*
X142980142Y-73451174D02*
X143003803Y-73454684D01*
X143027007Y-73460496D01*
X143049529Y-73468554D01*
X143071153Y-73478782D01*
X143091670Y-73491079D01*
X143110883Y-73505329D01*
X143128607Y-73521393D01*
X143144671Y-73539117D01*
X143158921Y-73558330D01*
X143171218Y-73578847D01*
X143181446Y-73600471D01*
X143189504Y-73622993D01*
X143195316Y-73646197D01*
X143198826Y-73669858D01*
X143200000Y-73693750D01*
X143200000Y-74181250D01*
X143198826Y-74205142D01*
X143195316Y-74228803D01*
X143189504Y-74252007D01*
X143181446Y-74274529D01*
X143171218Y-74296153D01*
X143158921Y-74316670D01*
X143144671Y-74335883D01*
X143128607Y-74353607D01*
X143110883Y-74369671D01*
X143091670Y-74383921D01*
X143071153Y-74396218D01*
X143049529Y-74406446D01*
X143027007Y-74414504D01*
X143003803Y-74420316D01*
X142980142Y-74423826D01*
X142956250Y-74425000D01*
X142043750Y-74425000D01*
X142019858Y-74423826D01*
X141996197Y-74420316D01*
X141972993Y-74414504D01*
X141950471Y-74406446D01*
X141928847Y-74396218D01*
X141908330Y-74383921D01*
X141889117Y-74369671D01*
X141871393Y-74353607D01*
X141855329Y-74335883D01*
X141841079Y-74316670D01*
X141828782Y-74296153D01*
X141818554Y-74274529D01*
X141810496Y-74252007D01*
X141804684Y-74228803D01*
X141801174Y-74205142D01*
X141800000Y-74181250D01*
X141800000Y-73693750D01*
X141801174Y-73669858D01*
X141804684Y-73646197D01*
X141810496Y-73622993D01*
X141818554Y-73600471D01*
X141828782Y-73578847D01*
X141841079Y-73558330D01*
X141855329Y-73539117D01*
X141871393Y-73521393D01*
X141889117Y-73505329D01*
X141908330Y-73491079D01*
X141928847Y-73478782D01*
X141950471Y-73468554D01*
X141972993Y-73460496D01*
X141996197Y-73454684D01*
X142019858Y-73451174D01*
X142043750Y-73450000D01*
X142956250Y-73450000D01*
X142980142Y-73451174D01*
X142980142Y-73451174D01*
G37*
D11*
X142500000Y-73937500D03*
D10*
G36*
X142980142Y-71576174D02*
X143003803Y-71579684D01*
X143027007Y-71585496D01*
X143049529Y-71593554D01*
X143071153Y-71603782D01*
X143091670Y-71616079D01*
X143110883Y-71630329D01*
X143128607Y-71646393D01*
X143144671Y-71664117D01*
X143158921Y-71683330D01*
X143171218Y-71703847D01*
X143181446Y-71725471D01*
X143189504Y-71747993D01*
X143195316Y-71771197D01*
X143198826Y-71794858D01*
X143200000Y-71818750D01*
X143200000Y-72306250D01*
X143198826Y-72330142D01*
X143195316Y-72353803D01*
X143189504Y-72377007D01*
X143181446Y-72399529D01*
X143171218Y-72421153D01*
X143158921Y-72441670D01*
X143144671Y-72460883D01*
X143128607Y-72478607D01*
X143110883Y-72494671D01*
X143091670Y-72508921D01*
X143071153Y-72521218D01*
X143049529Y-72531446D01*
X143027007Y-72539504D01*
X143003803Y-72545316D01*
X142980142Y-72548826D01*
X142956250Y-72550000D01*
X142043750Y-72550000D01*
X142019858Y-72548826D01*
X141996197Y-72545316D01*
X141972993Y-72539504D01*
X141950471Y-72531446D01*
X141928847Y-72521218D01*
X141908330Y-72508921D01*
X141889117Y-72494671D01*
X141871393Y-72478607D01*
X141855329Y-72460883D01*
X141841079Y-72441670D01*
X141828782Y-72421153D01*
X141818554Y-72399529D01*
X141810496Y-72377007D01*
X141804684Y-72353803D01*
X141801174Y-72330142D01*
X141800000Y-72306250D01*
X141800000Y-71818750D01*
X141801174Y-71794858D01*
X141804684Y-71771197D01*
X141810496Y-71747993D01*
X141818554Y-71725471D01*
X141828782Y-71703847D01*
X141841079Y-71683330D01*
X141855329Y-71664117D01*
X141871393Y-71646393D01*
X141889117Y-71630329D01*
X141908330Y-71616079D01*
X141928847Y-71603782D01*
X141950471Y-71593554D01*
X141972993Y-71585496D01*
X141996197Y-71579684D01*
X142019858Y-71576174D01*
X142043750Y-71575000D01*
X142956250Y-71575000D01*
X142980142Y-71576174D01*
X142980142Y-71576174D01*
G37*
D11*
X142500000Y-72062500D03*
G04 #@! TD*
D10*
G04 #@! TO.C,R25*
G36*
X118980142Y-71576174D02*
X119003803Y-71579684D01*
X119027007Y-71585496D01*
X119049529Y-71593554D01*
X119071153Y-71603782D01*
X119091670Y-71616079D01*
X119110883Y-71630329D01*
X119128607Y-71646393D01*
X119144671Y-71664117D01*
X119158921Y-71683330D01*
X119171218Y-71703847D01*
X119181446Y-71725471D01*
X119189504Y-71747993D01*
X119195316Y-71771197D01*
X119198826Y-71794858D01*
X119200000Y-71818750D01*
X119200000Y-72306250D01*
X119198826Y-72330142D01*
X119195316Y-72353803D01*
X119189504Y-72377007D01*
X119181446Y-72399529D01*
X119171218Y-72421153D01*
X119158921Y-72441670D01*
X119144671Y-72460883D01*
X119128607Y-72478607D01*
X119110883Y-72494671D01*
X119091670Y-72508921D01*
X119071153Y-72521218D01*
X119049529Y-72531446D01*
X119027007Y-72539504D01*
X119003803Y-72545316D01*
X118980142Y-72548826D01*
X118956250Y-72550000D01*
X118043750Y-72550000D01*
X118019858Y-72548826D01*
X117996197Y-72545316D01*
X117972993Y-72539504D01*
X117950471Y-72531446D01*
X117928847Y-72521218D01*
X117908330Y-72508921D01*
X117889117Y-72494671D01*
X117871393Y-72478607D01*
X117855329Y-72460883D01*
X117841079Y-72441670D01*
X117828782Y-72421153D01*
X117818554Y-72399529D01*
X117810496Y-72377007D01*
X117804684Y-72353803D01*
X117801174Y-72330142D01*
X117800000Y-72306250D01*
X117800000Y-71818750D01*
X117801174Y-71794858D01*
X117804684Y-71771197D01*
X117810496Y-71747993D01*
X117818554Y-71725471D01*
X117828782Y-71703847D01*
X117841079Y-71683330D01*
X117855329Y-71664117D01*
X117871393Y-71646393D01*
X117889117Y-71630329D01*
X117908330Y-71616079D01*
X117928847Y-71603782D01*
X117950471Y-71593554D01*
X117972993Y-71585496D01*
X117996197Y-71579684D01*
X118019858Y-71576174D01*
X118043750Y-71575000D01*
X118956250Y-71575000D01*
X118980142Y-71576174D01*
X118980142Y-71576174D01*
G37*
D11*
X118500000Y-72062500D03*
D10*
G36*
X118980142Y-73451174D02*
X119003803Y-73454684D01*
X119027007Y-73460496D01*
X119049529Y-73468554D01*
X119071153Y-73478782D01*
X119091670Y-73491079D01*
X119110883Y-73505329D01*
X119128607Y-73521393D01*
X119144671Y-73539117D01*
X119158921Y-73558330D01*
X119171218Y-73578847D01*
X119181446Y-73600471D01*
X119189504Y-73622993D01*
X119195316Y-73646197D01*
X119198826Y-73669858D01*
X119200000Y-73693750D01*
X119200000Y-74181250D01*
X119198826Y-74205142D01*
X119195316Y-74228803D01*
X119189504Y-74252007D01*
X119181446Y-74274529D01*
X119171218Y-74296153D01*
X119158921Y-74316670D01*
X119144671Y-74335883D01*
X119128607Y-74353607D01*
X119110883Y-74369671D01*
X119091670Y-74383921D01*
X119071153Y-74396218D01*
X119049529Y-74406446D01*
X119027007Y-74414504D01*
X119003803Y-74420316D01*
X118980142Y-74423826D01*
X118956250Y-74425000D01*
X118043750Y-74425000D01*
X118019858Y-74423826D01*
X117996197Y-74420316D01*
X117972993Y-74414504D01*
X117950471Y-74406446D01*
X117928847Y-74396218D01*
X117908330Y-74383921D01*
X117889117Y-74369671D01*
X117871393Y-74353607D01*
X117855329Y-74335883D01*
X117841079Y-74316670D01*
X117828782Y-74296153D01*
X117818554Y-74274529D01*
X117810496Y-74252007D01*
X117804684Y-74228803D01*
X117801174Y-74205142D01*
X117800000Y-74181250D01*
X117800000Y-73693750D01*
X117801174Y-73669858D01*
X117804684Y-73646197D01*
X117810496Y-73622993D01*
X117818554Y-73600471D01*
X117828782Y-73578847D01*
X117841079Y-73558330D01*
X117855329Y-73539117D01*
X117871393Y-73521393D01*
X117889117Y-73505329D01*
X117908330Y-73491079D01*
X117928847Y-73478782D01*
X117950471Y-73468554D01*
X117972993Y-73460496D01*
X117996197Y-73454684D01*
X118019858Y-73451174D01*
X118043750Y-73450000D01*
X118956250Y-73450000D01*
X118980142Y-73451174D01*
X118980142Y-73451174D01*
G37*
D11*
X118500000Y-73937500D03*
G04 #@! TD*
D10*
G04 #@! TO.C,R24*
G36*
X80480142Y-50513674D02*
X80503803Y-50517184D01*
X80527007Y-50522996D01*
X80549529Y-50531054D01*
X80571153Y-50541282D01*
X80591670Y-50553579D01*
X80610883Y-50567829D01*
X80628607Y-50583893D01*
X80644671Y-50601617D01*
X80658921Y-50620830D01*
X80671218Y-50641347D01*
X80681446Y-50662971D01*
X80689504Y-50685493D01*
X80695316Y-50708697D01*
X80698826Y-50732358D01*
X80700000Y-50756250D01*
X80700000Y-51243750D01*
X80698826Y-51267642D01*
X80695316Y-51291303D01*
X80689504Y-51314507D01*
X80681446Y-51337029D01*
X80671218Y-51358653D01*
X80658921Y-51379170D01*
X80644671Y-51398383D01*
X80628607Y-51416107D01*
X80610883Y-51432171D01*
X80591670Y-51446421D01*
X80571153Y-51458718D01*
X80549529Y-51468946D01*
X80527007Y-51477004D01*
X80503803Y-51482816D01*
X80480142Y-51486326D01*
X80456250Y-51487500D01*
X79543750Y-51487500D01*
X79519858Y-51486326D01*
X79496197Y-51482816D01*
X79472993Y-51477004D01*
X79450471Y-51468946D01*
X79428847Y-51458718D01*
X79408330Y-51446421D01*
X79389117Y-51432171D01*
X79371393Y-51416107D01*
X79355329Y-51398383D01*
X79341079Y-51379170D01*
X79328782Y-51358653D01*
X79318554Y-51337029D01*
X79310496Y-51314507D01*
X79304684Y-51291303D01*
X79301174Y-51267642D01*
X79300000Y-51243750D01*
X79300000Y-50756250D01*
X79301174Y-50732358D01*
X79304684Y-50708697D01*
X79310496Y-50685493D01*
X79318554Y-50662971D01*
X79328782Y-50641347D01*
X79341079Y-50620830D01*
X79355329Y-50601617D01*
X79371393Y-50583893D01*
X79389117Y-50567829D01*
X79408330Y-50553579D01*
X79428847Y-50541282D01*
X79450471Y-50531054D01*
X79472993Y-50522996D01*
X79496197Y-50517184D01*
X79519858Y-50513674D01*
X79543750Y-50512500D01*
X80456250Y-50512500D01*
X80480142Y-50513674D01*
X80480142Y-50513674D01*
G37*
D11*
X80000000Y-51000000D03*
D10*
G36*
X80480142Y-52388674D02*
X80503803Y-52392184D01*
X80527007Y-52397996D01*
X80549529Y-52406054D01*
X80571153Y-52416282D01*
X80591670Y-52428579D01*
X80610883Y-52442829D01*
X80628607Y-52458893D01*
X80644671Y-52476617D01*
X80658921Y-52495830D01*
X80671218Y-52516347D01*
X80681446Y-52537971D01*
X80689504Y-52560493D01*
X80695316Y-52583697D01*
X80698826Y-52607358D01*
X80700000Y-52631250D01*
X80700000Y-53118750D01*
X80698826Y-53142642D01*
X80695316Y-53166303D01*
X80689504Y-53189507D01*
X80681446Y-53212029D01*
X80671218Y-53233653D01*
X80658921Y-53254170D01*
X80644671Y-53273383D01*
X80628607Y-53291107D01*
X80610883Y-53307171D01*
X80591670Y-53321421D01*
X80571153Y-53333718D01*
X80549529Y-53343946D01*
X80527007Y-53352004D01*
X80503803Y-53357816D01*
X80480142Y-53361326D01*
X80456250Y-53362500D01*
X79543750Y-53362500D01*
X79519858Y-53361326D01*
X79496197Y-53357816D01*
X79472993Y-53352004D01*
X79450471Y-53343946D01*
X79428847Y-53333718D01*
X79408330Y-53321421D01*
X79389117Y-53307171D01*
X79371393Y-53291107D01*
X79355329Y-53273383D01*
X79341079Y-53254170D01*
X79328782Y-53233653D01*
X79318554Y-53212029D01*
X79310496Y-53189507D01*
X79304684Y-53166303D01*
X79301174Y-53142642D01*
X79300000Y-53118750D01*
X79300000Y-52631250D01*
X79301174Y-52607358D01*
X79304684Y-52583697D01*
X79310496Y-52560493D01*
X79318554Y-52537971D01*
X79328782Y-52516347D01*
X79341079Y-52495830D01*
X79355329Y-52476617D01*
X79371393Y-52458893D01*
X79389117Y-52442829D01*
X79408330Y-52428579D01*
X79428847Y-52416282D01*
X79450471Y-52406054D01*
X79472993Y-52397996D01*
X79496197Y-52392184D01*
X79519858Y-52388674D01*
X79543750Y-52387500D01*
X80456250Y-52387500D01*
X80480142Y-52388674D01*
X80480142Y-52388674D01*
G37*
D11*
X80000000Y-52875000D03*
G04 #@! TD*
D10*
G04 #@! TO.C,R15*
G36*
X105392642Y-59801174D02*
X105416303Y-59804684D01*
X105439507Y-59810496D01*
X105462029Y-59818554D01*
X105483653Y-59828782D01*
X105504170Y-59841079D01*
X105523383Y-59855329D01*
X105541107Y-59871393D01*
X105557171Y-59889117D01*
X105571421Y-59908330D01*
X105583718Y-59928847D01*
X105593946Y-59950471D01*
X105602004Y-59972993D01*
X105607816Y-59996197D01*
X105611326Y-60019858D01*
X105612500Y-60043750D01*
X105612500Y-60956250D01*
X105611326Y-60980142D01*
X105607816Y-61003803D01*
X105602004Y-61027007D01*
X105593946Y-61049529D01*
X105583718Y-61071153D01*
X105571421Y-61091670D01*
X105557171Y-61110883D01*
X105541107Y-61128607D01*
X105523383Y-61144671D01*
X105504170Y-61158921D01*
X105483653Y-61171218D01*
X105462029Y-61181446D01*
X105439507Y-61189504D01*
X105416303Y-61195316D01*
X105392642Y-61198826D01*
X105368750Y-61200000D01*
X104881250Y-61200000D01*
X104857358Y-61198826D01*
X104833697Y-61195316D01*
X104810493Y-61189504D01*
X104787971Y-61181446D01*
X104766347Y-61171218D01*
X104745830Y-61158921D01*
X104726617Y-61144671D01*
X104708893Y-61128607D01*
X104692829Y-61110883D01*
X104678579Y-61091670D01*
X104666282Y-61071153D01*
X104656054Y-61049529D01*
X104647996Y-61027007D01*
X104642184Y-61003803D01*
X104638674Y-60980142D01*
X104637500Y-60956250D01*
X104637500Y-60043750D01*
X104638674Y-60019858D01*
X104642184Y-59996197D01*
X104647996Y-59972993D01*
X104656054Y-59950471D01*
X104666282Y-59928847D01*
X104678579Y-59908330D01*
X104692829Y-59889117D01*
X104708893Y-59871393D01*
X104726617Y-59855329D01*
X104745830Y-59841079D01*
X104766347Y-59828782D01*
X104787971Y-59818554D01*
X104810493Y-59810496D01*
X104833697Y-59804684D01*
X104857358Y-59801174D01*
X104881250Y-59800000D01*
X105368750Y-59800000D01*
X105392642Y-59801174D01*
X105392642Y-59801174D01*
G37*
D11*
X105125000Y-60500000D03*
D10*
G36*
X107267642Y-59801174D02*
X107291303Y-59804684D01*
X107314507Y-59810496D01*
X107337029Y-59818554D01*
X107358653Y-59828782D01*
X107379170Y-59841079D01*
X107398383Y-59855329D01*
X107416107Y-59871393D01*
X107432171Y-59889117D01*
X107446421Y-59908330D01*
X107458718Y-59928847D01*
X107468946Y-59950471D01*
X107477004Y-59972993D01*
X107482816Y-59996197D01*
X107486326Y-60019858D01*
X107487500Y-60043750D01*
X107487500Y-60956250D01*
X107486326Y-60980142D01*
X107482816Y-61003803D01*
X107477004Y-61027007D01*
X107468946Y-61049529D01*
X107458718Y-61071153D01*
X107446421Y-61091670D01*
X107432171Y-61110883D01*
X107416107Y-61128607D01*
X107398383Y-61144671D01*
X107379170Y-61158921D01*
X107358653Y-61171218D01*
X107337029Y-61181446D01*
X107314507Y-61189504D01*
X107291303Y-61195316D01*
X107267642Y-61198826D01*
X107243750Y-61200000D01*
X106756250Y-61200000D01*
X106732358Y-61198826D01*
X106708697Y-61195316D01*
X106685493Y-61189504D01*
X106662971Y-61181446D01*
X106641347Y-61171218D01*
X106620830Y-61158921D01*
X106601617Y-61144671D01*
X106583893Y-61128607D01*
X106567829Y-61110883D01*
X106553579Y-61091670D01*
X106541282Y-61071153D01*
X106531054Y-61049529D01*
X106522996Y-61027007D01*
X106517184Y-61003803D01*
X106513674Y-60980142D01*
X106512500Y-60956250D01*
X106512500Y-60043750D01*
X106513674Y-60019858D01*
X106517184Y-59996197D01*
X106522996Y-59972993D01*
X106531054Y-59950471D01*
X106541282Y-59928847D01*
X106553579Y-59908330D01*
X106567829Y-59889117D01*
X106583893Y-59871393D01*
X106601617Y-59855329D01*
X106620830Y-59841079D01*
X106641347Y-59828782D01*
X106662971Y-59818554D01*
X106685493Y-59810496D01*
X106708697Y-59804684D01*
X106732358Y-59801174D01*
X106756250Y-59800000D01*
X107243750Y-59800000D01*
X107267642Y-59801174D01*
X107267642Y-59801174D01*
G37*
D11*
X107000000Y-60500000D03*
G04 #@! TD*
D10*
G04 #@! TO.C,R23*
G36*
X105392642Y-68801174D02*
X105416303Y-68804684D01*
X105439507Y-68810496D01*
X105462029Y-68818554D01*
X105483653Y-68828782D01*
X105504170Y-68841079D01*
X105523383Y-68855329D01*
X105541107Y-68871393D01*
X105557171Y-68889117D01*
X105571421Y-68908330D01*
X105583718Y-68928847D01*
X105593946Y-68950471D01*
X105602004Y-68972993D01*
X105607816Y-68996197D01*
X105611326Y-69019858D01*
X105612500Y-69043750D01*
X105612500Y-69956250D01*
X105611326Y-69980142D01*
X105607816Y-70003803D01*
X105602004Y-70027007D01*
X105593946Y-70049529D01*
X105583718Y-70071153D01*
X105571421Y-70091670D01*
X105557171Y-70110883D01*
X105541107Y-70128607D01*
X105523383Y-70144671D01*
X105504170Y-70158921D01*
X105483653Y-70171218D01*
X105462029Y-70181446D01*
X105439507Y-70189504D01*
X105416303Y-70195316D01*
X105392642Y-70198826D01*
X105368750Y-70200000D01*
X104881250Y-70200000D01*
X104857358Y-70198826D01*
X104833697Y-70195316D01*
X104810493Y-70189504D01*
X104787971Y-70181446D01*
X104766347Y-70171218D01*
X104745830Y-70158921D01*
X104726617Y-70144671D01*
X104708893Y-70128607D01*
X104692829Y-70110883D01*
X104678579Y-70091670D01*
X104666282Y-70071153D01*
X104656054Y-70049529D01*
X104647996Y-70027007D01*
X104642184Y-70003803D01*
X104638674Y-69980142D01*
X104637500Y-69956250D01*
X104637500Y-69043750D01*
X104638674Y-69019858D01*
X104642184Y-68996197D01*
X104647996Y-68972993D01*
X104656054Y-68950471D01*
X104666282Y-68928847D01*
X104678579Y-68908330D01*
X104692829Y-68889117D01*
X104708893Y-68871393D01*
X104726617Y-68855329D01*
X104745830Y-68841079D01*
X104766347Y-68828782D01*
X104787971Y-68818554D01*
X104810493Y-68810496D01*
X104833697Y-68804684D01*
X104857358Y-68801174D01*
X104881250Y-68800000D01*
X105368750Y-68800000D01*
X105392642Y-68801174D01*
X105392642Y-68801174D01*
G37*
D11*
X105125000Y-69500000D03*
D10*
G36*
X107267642Y-68801174D02*
X107291303Y-68804684D01*
X107314507Y-68810496D01*
X107337029Y-68818554D01*
X107358653Y-68828782D01*
X107379170Y-68841079D01*
X107398383Y-68855329D01*
X107416107Y-68871393D01*
X107432171Y-68889117D01*
X107446421Y-68908330D01*
X107458718Y-68928847D01*
X107468946Y-68950471D01*
X107477004Y-68972993D01*
X107482816Y-68996197D01*
X107486326Y-69019858D01*
X107487500Y-69043750D01*
X107487500Y-69956250D01*
X107486326Y-69980142D01*
X107482816Y-70003803D01*
X107477004Y-70027007D01*
X107468946Y-70049529D01*
X107458718Y-70071153D01*
X107446421Y-70091670D01*
X107432171Y-70110883D01*
X107416107Y-70128607D01*
X107398383Y-70144671D01*
X107379170Y-70158921D01*
X107358653Y-70171218D01*
X107337029Y-70181446D01*
X107314507Y-70189504D01*
X107291303Y-70195316D01*
X107267642Y-70198826D01*
X107243750Y-70200000D01*
X106756250Y-70200000D01*
X106732358Y-70198826D01*
X106708697Y-70195316D01*
X106685493Y-70189504D01*
X106662971Y-70181446D01*
X106641347Y-70171218D01*
X106620830Y-70158921D01*
X106601617Y-70144671D01*
X106583893Y-70128607D01*
X106567829Y-70110883D01*
X106553579Y-70091670D01*
X106541282Y-70071153D01*
X106531054Y-70049529D01*
X106522996Y-70027007D01*
X106517184Y-70003803D01*
X106513674Y-69980142D01*
X106512500Y-69956250D01*
X106512500Y-69043750D01*
X106513674Y-69019858D01*
X106517184Y-68996197D01*
X106522996Y-68972993D01*
X106531054Y-68950471D01*
X106541282Y-68928847D01*
X106553579Y-68908330D01*
X106567829Y-68889117D01*
X106583893Y-68871393D01*
X106601617Y-68855329D01*
X106620830Y-68841079D01*
X106641347Y-68828782D01*
X106662971Y-68818554D01*
X106685493Y-68810496D01*
X106708697Y-68804684D01*
X106732358Y-68801174D01*
X106756250Y-68800000D01*
X107243750Y-68800000D01*
X107267642Y-68801174D01*
X107267642Y-68801174D01*
G37*
D11*
X107000000Y-69500000D03*
G04 #@! TD*
M02*
