G04 #@! TF.GenerationSoftware,KiCad,Pcbnew,5.0.0*
G04 #@! TF.CreationDate,2018-11-11T17:05:44-05:00*
G04 #@! TF.ProjectId,I2C_PWM_Driver,4932435F50574D5F4472697665722E6B,rev?*
G04 #@! TF.SameCoordinates,Original*
G04 #@! TF.FileFunction,Legend,Bot*
G04 #@! TF.FilePolarity,Positive*
%FSLAX46Y46*%
G04 Gerber Fmt 4.6, Leading zero omitted, Abs format (unit mm)*
G04 Created by KiCad (PCBNEW 5.0.0) date Sun Nov 11 17:05:44 2018*
%MOMM*%
%LPD*%
G01*
G04 APERTURE LIST*
%ADD10C,0.300000*%
%ADD11C,0.150000*%
%ADD12C,0.120000*%
%ADD13C,0.010000*%
G04 APERTURE END LIST*
D10*
X151071428Y-85178571D02*
X151071428Y-83678571D01*
X150357142Y-84178571D02*
X150357142Y-85178571D01*
X150357142Y-84321428D02*
X150285714Y-84250000D01*
X150142857Y-84178571D01*
X149928571Y-84178571D01*
X149785714Y-84250000D01*
X149714285Y-84392857D01*
X149714285Y-85178571D01*
X149000000Y-84178571D02*
X149000000Y-85678571D01*
X149000000Y-84250000D02*
X148857142Y-84178571D01*
X148571428Y-84178571D01*
X148428571Y-84250000D01*
X148357142Y-84321428D01*
X148285714Y-84464285D01*
X148285714Y-84892857D01*
X148357142Y-85035714D01*
X148428571Y-85107142D01*
X148571428Y-85178571D01*
X148857142Y-85178571D01*
X149000000Y-85107142D01*
X147000000Y-84178571D02*
X147000000Y-85178571D01*
X147642857Y-84178571D02*
X147642857Y-84964285D01*
X147571428Y-85107142D01*
X147428571Y-85178571D01*
X147214285Y-85178571D01*
X147071428Y-85107142D01*
X147000000Y-85035714D01*
X146500000Y-84178571D02*
X145928571Y-84178571D01*
X146285714Y-83678571D02*
X146285714Y-84964285D01*
X146214285Y-85107142D01*
X146071428Y-85178571D01*
X145928571Y-85178571D01*
X144428571Y-84178571D02*
X144071428Y-85178571D01*
X143714285Y-84178571D01*
X142928571Y-85178571D02*
X143071428Y-85107142D01*
X143142857Y-85035714D01*
X143214285Y-84892857D01*
X143214285Y-84464285D01*
X143142857Y-84321428D01*
X143071428Y-84250000D01*
X142928571Y-84178571D01*
X142714285Y-84178571D01*
X142571428Y-84250000D01*
X142500000Y-84321428D01*
X142428571Y-84464285D01*
X142428571Y-84892857D01*
X142500000Y-85035714D01*
X142571428Y-85107142D01*
X142714285Y-85178571D01*
X142928571Y-85178571D01*
X141571428Y-85178571D02*
X141714285Y-85107142D01*
X141785714Y-84964285D01*
X141785714Y-83678571D01*
X141214285Y-84178571D02*
X140642857Y-84178571D01*
X141000000Y-83678571D02*
X141000000Y-84964285D01*
X140928571Y-85107142D01*
X140785714Y-85178571D01*
X140642857Y-85178571D01*
X139500000Y-85178571D02*
X139500000Y-84392857D01*
X139571428Y-84250000D01*
X139714285Y-84178571D01*
X140000000Y-84178571D01*
X140142857Y-84250000D01*
X139500000Y-85107142D02*
X139642857Y-85178571D01*
X140000000Y-85178571D01*
X140142857Y-85107142D01*
X140214285Y-84964285D01*
X140214285Y-84821428D01*
X140142857Y-84678571D01*
X140000000Y-84607142D01*
X139642857Y-84607142D01*
X139500000Y-84535714D01*
X138142857Y-84178571D02*
X138142857Y-85392857D01*
X138214285Y-85535714D01*
X138285714Y-85607142D01*
X138428571Y-85678571D01*
X138642857Y-85678571D01*
X138785714Y-85607142D01*
X138142857Y-85107142D02*
X138285714Y-85178571D01*
X138571428Y-85178571D01*
X138714285Y-85107142D01*
X138785714Y-85035714D01*
X138857142Y-84892857D01*
X138857142Y-84464285D01*
X138785714Y-84321428D01*
X138714285Y-84250000D01*
X138571428Y-84178571D01*
X138285714Y-84178571D01*
X138142857Y-84250000D01*
X136857142Y-85107142D02*
X137000000Y-85178571D01*
X137285714Y-85178571D01*
X137428571Y-85107142D01*
X137500000Y-84964285D01*
X137500000Y-84392857D01*
X137428571Y-84250000D01*
X137285714Y-84178571D01*
X137000000Y-84178571D01*
X136857142Y-84250000D01*
X136785714Y-84392857D01*
X136785714Y-84535714D01*
X137500000Y-84678571D01*
X136142857Y-85035714D02*
X136071428Y-85107142D01*
X136142857Y-85178571D01*
X136214285Y-85107142D01*
X136142857Y-85035714D01*
X136142857Y-85178571D01*
X136142857Y-84250000D02*
X136071428Y-84321428D01*
X136142857Y-84392857D01*
X136214285Y-84321428D01*
X136142857Y-84250000D01*
X136142857Y-84392857D01*
X133642857Y-84178571D02*
X133642857Y-85178571D01*
X134000000Y-83607142D02*
X134357142Y-84678571D01*
X133428571Y-84678571D01*
X132857142Y-84607142D02*
X131714285Y-84607142D01*
X131071428Y-83821428D02*
X131000000Y-83750000D01*
X130857142Y-83678571D01*
X130500000Y-83678571D01*
X130357142Y-83750000D01*
X130285714Y-83821428D01*
X130214285Y-83964285D01*
X130214285Y-84107142D01*
X130285714Y-84321428D01*
X131142857Y-85178571D01*
X130214285Y-85178571D01*
X128928571Y-83678571D02*
X129214285Y-83678571D01*
X129357142Y-83750000D01*
X129428571Y-83821428D01*
X129571428Y-84035714D01*
X129642857Y-84321428D01*
X129642857Y-84892857D01*
X129571428Y-85035714D01*
X129500000Y-85107142D01*
X129357142Y-85178571D01*
X129071428Y-85178571D01*
X128928571Y-85107142D01*
X128857142Y-85035714D01*
X128785714Y-84892857D01*
X128785714Y-84535714D01*
X128857142Y-84392857D01*
X128928571Y-84321428D01*
X129071428Y-84250000D01*
X129357142Y-84250000D01*
X129500000Y-84321428D01*
X129571428Y-84392857D01*
X129642857Y-84535714D01*
X128357142Y-83678571D02*
X127857142Y-85178571D01*
X127357142Y-83678571D01*
X125714285Y-85178571D02*
X125714285Y-83678571D01*
X125357142Y-83678571D01*
X125142857Y-83750000D01*
X125000000Y-83892857D01*
X124928571Y-84035714D01*
X124857142Y-84321428D01*
X124857142Y-84535714D01*
X124928571Y-84821428D01*
X125000000Y-84964285D01*
X125142857Y-85107142D01*
X125357142Y-85178571D01*
X125714285Y-85178571D01*
X123357142Y-85035714D02*
X123428571Y-85107142D01*
X123642857Y-85178571D01*
X123785714Y-85178571D01*
X124000000Y-85107142D01*
X124142857Y-84964285D01*
X124214285Y-84821428D01*
X124285714Y-84535714D01*
X124285714Y-84321428D01*
X124214285Y-84035714D01*
X124142857Y-83892857D01*
X124000000Y-83750000D01*
X123785714Y-83678571D01*
X123642857Y-83678571D01*
X123428571Y-83750000D01*
X123357142Y-83821428D01*
X151142857Y-87678571D02*
X151142857Y-86178571D01*
X150642857Y-87250000D01*
X150142857Y-86178571D01*
X150142857Y-87678571D01*
X148785714Y-87678571D02*
X148785714Y-86892857D01*
X148857142Y-86750000D01*
X149000000Y-86678571D01*
X149285714Y-86678571D01*
X149428571Y-86750000D01*
X148785714Y-87607142D02*
X148928571Y-87678571D01*
X149285714Y-87678571D01*
X149428571Y-87607142D01*
X149500000Y-87464285D01*
X149500000Y-87321428D01*
X149428571Y-87178571D01*
X149285714Y-87107142D01*
X148928571Y-87107142D01*
X148785714Y-87035714D01*
X148214285Y-87678571D02*
X147428571Y-86678571D01*
X148214285Y-86678571D02*
X147428571Y-87678571D01*
X146857142Y-87535714D02*
X146785714Y-87607142D01*
X146857142Y-87678571D01*
X146928571Y-87607142D01*
X146857142Y-87535714D01*
X146857142Y-87678571D01*
X144357142Y-87607142D02*
X144500000Y-87678571D01*
X144785714Y-87678571D01*
X144928571Y-87607142D01*
X145000000Y-87535714D01*
X145071428Y-87392857D01*
X145071428Y-86964285D01*
X145000000Y-86821428D01*
X144928571Y-86750000D01*
X144785714Y-86678571D01*
X144500000Y-86678571D01*
X144357142Y-86750000D01*
X143071428Y-86678571D02*
X143071428Y-87678571D01*
X143714285Y-86678571D02*
X143714285Y-87464285D01*
X143642857Y-87607142D01*
X143500000Y-87678571D01*
X143285714Y-87678571D01*
X143142857Y-87607142D01*
X143071428Y-87535714D01*
X142357142Y-87678571D02*
X142357142Y-86678571D01*
X142357142Y-86964285D02*
X142285714Y-86821428D01*
X142214285Y-86750000D01*
X142071428Y-86678571D01*
X141928571Y-86678571D01*
X141428571Y-87678571D02*
X141428571Y-86678571D01*
X141428571Y-86964285D02*
X141357142Y-86821428D01*
X141285714Y-86750000D01*
X141142857Y-86678571D01*
X141000000Y-86678571D01*
X139928571Y-87607142D02*
X140071428Y-87678571D01*
X140357142Y-87678571D01*
X140500000Y-87607142D01*
X140571428Y-87464285D01*
X140571428Y-86892857D01*
X140500000Y-86750000D01*
X140357142Y-86678571D01*
X140071428Y-86678571D01*
X139928571Y-86750000D01*
X139857142Y-86892857D01*
X139857142Y-87035714D01*
X140571428Y-87178571D01*
X139214285Y-86678571D02*
X139214285Y-87678571D01*
X139214285Y-86821428D02*
X139142857Y-86750000D01*
X139000000Y-86678571D01*
X138785714Y-86678571D01*
X138642857Y-86750000D01*
X138571428Y-86892857D01*
X138571428Y-87678571D01*
X138071428Y-86678571D02*
X137500000Y-86678571D01*
X137857142Y-86178571D02*
X137857142Y-87464285D01*
X137785714Y-87607142D01*
X137642857Y-87678571D01*
X137500000Y-87678571D01*
X135928571Y-86321428D02*
X135857142Y-86250000D01*
X135714285Y-86178571D01*
X135357142Y-86178571D01*
X135214285Y-86250000D01*
X135142857Y-86321428D01*
X135071428Y-86464285D01*
X135071428Y-86607142D01*
X135142857Y-86821428D01*
X136000000Y-87678571D01*
X135071428Y-87678571D01*
X134500000Y-87250000D02*
X133785714Y-87250000D01*
X134642857Y-87678571D02*
X134142857Y-86178571D01*
X133642857Y-87678571D01*
X132000000Y-86678571D02*
X132000000Y-88178571D01*
X132000000Y-86750000D02*
X131857142Y-86678571D01*
X131571428Y-86678571D01*
X131428571Y-86750000D01*
X131357142Y-86821428D01*
X131285714Y-86964285D01*
X131285714Y-87392857D01*
X131357142Y-87535714D01*
X131428571Y-87607142D01*
X131571428Y-87678571D01*
X131857142Y-87678571D01*
X132000000Y-87607142D01*
X130071428Y-87607142D02*
X130214285Y-87678571D01*
X130500000Y-87678571D01*
X130642857Y-87607142D01*
X130714285Y-87464285D01*
X130714285Y-86892857D01*
X130642857Y-86750000D01*
X130500000Y-86678571D01*
X130214285Y-86678571D01*
X130071428Y-86750000D01*
X130000000Y-86892857D01*
X130000000Y-87035714D01*
X130714285Y-87178571D01*
X129357142Y-87678571D02*
X129357142Y-86678571D01*
X129357142Y-86964285D02*
X129285714Y-86821428D01*
X129214285Y-86750000D01*
X129071428Y-86678571D01*
X128928571Y-86678571D01*
X126642857Y-87607142D02*
X126785714Y-87678571D01*
X127071428Y-87678571D01*
X127214285Y-87607142D01*
X127285714Y-87535714D01*
X127357142Y-87392857D01*
X127357142Y-86964285D01*
X127285714Y-86821428D01*
X127214285Y-86750000D01*
X127071428Y-86678571D01*
X126785714Y-86678571D01*
X126642857Y-86750000D01*
X126000000Y-87678571D02*
X126000000Y-86178571D01*
X125357142Y-87678571D02*
X125357142Y-86892857D01*
X125428571Y-86750000D01*
X125571428Y-86678571D01*
X125785714Y-86678571D01*
X125928571Y-86750000D01*
X126000000Y-86821428D01*
X124000000Y-87678571D02*
X124000000Y-86892857D01*
X124071428Y-86750000D01*
X124214285Y-86678571D01*
X124500000Y-86678571D01*
X124642857Y-86750000D01*
X124000000Y-87607142D02*
X124142857Y-87678571D01*
X124500000Y-87678571D01*
X124642857Y-87607142D01*
X124714285Y-87464285D01*
X124714285Y-87321428D01*
X124642857Y-87178571D01*
X124500000Y-87107142D01*
X124142857Y-87107142D01*
X124000000Y-87035714D01*
X123285714Y-86678571D02*
X123285714Y-87678571D01*
X123285714Y-86821428D02*
X123214285Y-86750000D01*
X123071428Y-86678571D01*
X122857142Y-86678571D01*
X122714285Y-86750000D01*
X122642857Y-86892857D01*
X122642857Y-87678571D01*
X121928571Y-86678571D02*
X121928571Y-87678571D01*
X121928571Y-86821428D02*
X121857142Y-86750000D01*
X121714285Y-86678571D01*
X121500000Y-86678571D01*
X121357142Y-86750000D01*
X121285714Y-86892857D01*
X121285714Y-87678571D01*
X120000000Y-87607142D02*
X120142857Y-87678571D01*
X120428571Y-87678571D01*
X120571428Y-87607142D01*
X120642857Y-87464285D01*
X120642857Y-86892857D01*
X120571428Y-86750000D01*
X120428571Y-86678571D01*
X120142857Y-86678571D01*
X120000000Y-86750000D01*
X119928571Y-86892857D01*
X119928571Y-87035714D01*
X120642857Y-87178571D01*
X119071428Y-87678571D02*
X119214285Y-87607142D01*
X119285714Y-87464285D01*
X119285714Y-86178571D01*
X118428571Y-87607142D02*
X118428571Y-87678571D01*
X118500000Y-87821428D01*
X118571428Y-87892857D01*
X115857142Y-87678571D02*
X116714285Y-87678571D01*
X116285714Y-87678571D02*
X116285714Y-86178571D01*
X116428571Y-86392857D01*
X116571428Y-86535714D01*
X116714285Y-86607142D01*
X114928571Y-86178571D02*
X114785714Y-86178571D01*
X114642857Y-86250000D01*
X114571428Y-86321428D01*
X114500000Y-86464285D01*
X114428571Y-86750000D01*
X114428571Y-87107142D01*
X114500000Y-87392857D01*
X114571428Y-87535714D01*
X114642857Y-87607142D01*
X114785714Y-87678571D01*
X114928571Y-87678571D01*
X115071428Y-87607142D01*
X115142857Y-87535714D01*
X115214285Y-87392857D01*
X115285714Y-87107142D01*
X115285714Y-86750000D01*
X115214285Y-86464285D01*
X115142857Y-86321428D01*
X115071428Y-86250000D01*
X114928571Y-86178571D01*
X113857142Y-87250000D02*
X113142857Y-87250000D01*
X114000000Y-87678571D02*
X113500000Y-86178571D01*
X113000000Y-87678571D01*
X111571428Y-86678571D02*
X111000000Y-86678571D01*
X111357142Y-86178571D02*
X111357142Y-87464285D01*
X111285714Y-87607142D01*
X111142857Y-87678571D01*
X111000000Y-87678571D01*
X110285714Y-87678571D02*
X110428571Y-87607142D01*
X110500000Y-87535714D01*
X110571428Y-87392857D01*
X110571428Y-86964285D01*
X110500000Y-86821428D01*
X110428571Y-86750000D01*
X110285714Y-86678571D01*
X110071428Y-86678571D01*
X109928571Y-86750000D01*
X109857142Y-86821428D01*
X109785714Y-86964285D01*
X109785714Y-87392857D01*
X109857142Y-87535714D01*
X109928571Y-87607142D01*
X110071428Y-87678571D01*
X110285714Y-87678571D01*
X109357142Y-86678571D02*
X108785714Y-86678571D01*
X109142857Y-86178571D02*
X109142857Y-87464285D01*
X109071428Y-87607142D01*
X108928571Y-87678571D01*
X108785714Y-87678571D01*
X107642857Y-87678571D02*
X107642857Y-86892857D01*
X107714285Y-86750000D01*
X107857142Y-86678571D01*
X108142857Y-86678571D01*
X108285714Y-86750000D01*
X107642857Y-87607142D02*
X107785714Y-87678571D01*
X108142857Y-87678571D01*
X108285714Y-87607142D01*
X108357142Y-87464285D01*
X108357142Y-87321428D01*
X108285714Y-87178571D01*
X108142857Y-87107142D01*
X107785714Y-87107142D01*
X107642857Y-87035714D01*
X106714285Y-87678571D02*
X106857142Y-87607142D01*
X106928571Y-87464285D01*
X106928571Y-86178571D01*
X151571428Y-49928571D02*
X151214285Y-50928571D01*
X150857142Y-49928571D01*
X150285714Y-50928571D02*
X150285714Y-49928571D01*
X150285714Y-49428571D02*
X150357142Y-49500000D01*
X150285714Y-49571428D01*
X150214285Y-49500000D01*
X150285714Y-49428571D01*
X150285714Y-49571428D01*
X149571428Y-49928571D02*
X149571428Y-50928571D01*
X149571428Y-50071428D02*
X149500000Y-50000000D01*
X149357142Y-49928571D01*
X149142857Y-49928571D01*
X149000000Y-50000000D01*
X148928571Y-50142857D01*
X148928571Y-50928571D01*
X148428571Y-49928571D02*
X147857142Y-49928571D01*
X148214285Y-49428571D02*
X148214285Y-50714285D01*
X148142857Y-50857142D01*
X148000000Y-50928571D01*
X147857142Y-50928571D01*
X147142857Y-50928571D02*
X147285714Y-50857142D01*
X147357142Y-50714285D01*
X147357142Y-49428571D01*
X145928571Y-50928571D02*
X145928571Y-50142857D01*
X146000000Y-50000000D01*
X146142857Y-49928571D01*
X146428571Y-49928571D01*
X146571428Y-50000000D01*
X145928571Y-50857142D02*
X146071428Y-50928571D01*
X146428571Y-50928571D01*
X146571428Y-50857142D01*
X146642857Y-50714285D01*
X146642857Y-50571428D01*
X146571428Y-50428571D01*
X146428571Y-50357142D01*
X146071428Y-50357142D01*
X145928571Y-50285714D01*
X145214285Y-50928571D02*
X145214285Y-49428571D01*
X145214285Y-50000000D02*
X145071428Y-49928571D01*
X144785714Y-49928571D01*
X144642857Y-50000000D01*
X144571428Y-50071428D01*
X144500000Y-50214285D01*
X144500000Y-50642857D01*
X144571428Y-50785714D01*
X144642857Y-50857142D01*
X144785714Y-50928571D01*
X145071428Y-50928571D01*
X145214285Y-50857142D01*
X143928571Y-50857142D02*
X143785714Y-50928571D01*
X143500000Y-50928571D01*
X143357142Y-50857142D01*
X143285714Y-50714285D01*
X143285714Y-50642857D01*
X143357142Y-50500000D01*
X143500000Y-50428571D01*
X143714285Y-50428571D01*
X143857142Y-50357142D01*
X143928571Y-50214285D01*
X143928571Y-50142857D01*
X143857142Y-50000000D01*
X143714285Y-49928571D01*
X143500000Y-49928571D01*
X143357142Y-50000000D01*
X142642857Y-50785714D02*
X142571428Y-50857142D01*
X142642857Y-50928571D01*
X142714285Y-50857142D01*
X142642857Y-50785714D01*
X142642857Y-50928571D01*
X141285714Y-50857142D02*
X141428571Y-50928571D01*
X141714285Y-50928571D01*
X141857142Y-50857142D01*
X141928571Y-50785714D01*
X142000000Y-50642857D01*
X142000000Y-50214285D01*
X141928571Y-50071428D01*
X141857142Y-50000000D01*
X141714285Y-49928571D01*
X141428571Y-49928571D01*
X141285714Y-50000000D01*
X140428571Y-50928571D02*
X140571428Y-50857142D01*
X140642857Y-50785714D01*
X140714285Y-50642857D01*
X140714285Y-50214285D01*
X140642857Y-50071428D01*
X140571428Y-50000000D01*
X140428571Y-49928571D01*
X140214285Y-49928571D01*
X140071428Y-50000000D01*
X140000000Y-50071428D01*
X139928571Y-50214285D01*
X139928571Y-50642857D01*
X140000000Y-50785714D01*
X140071428Y-50857142D01*
X140214285Y-50928571D01*
X140428571Y-50928571D01*
X139285714Y-50928571D02*
X139285714Y-49928571D01*
X139285714Y-50071428D02*
X139214285Y-50000000D01*
X139071428Y-49928571D01*
X138857142Y-49928571D01*
X138714285Y-50000000D01*
X138642857Y-50142857D01*
X138642857Y-50928571D01*
X138642857Y-50142857D02*
X138571428Y-50000000D01*
X138428571Y-49928571D01*
X138214285Y-49928571D01*
X138071428Y-50000000D01*
X138000000Y-50142857D01*
X138000000Y-50928571D01*
X130785714Y-50928571D02*
X131642857Y-50928571D01*
X131214285Y-50928571D02*
X131214285Y-49428571D01*
X131357142Y-49642857D01*
X131500000Y-49785714D01*
X131642857Y-49857142D01*
X129500000Y-49428571D02*
X129785714Y-49428571D01*
X129928571Y-49500000D01*
X130000000Y-49571428D01*
X130142857Y-49785714D01*
X130214285Y-50071428D01*
X130214285Y-50642857D01*
X130142857Y-50785714D01*
X130071428Y-50857142D01*
X129928571Y-50928571D01*
X129642857Y-50928571D01*
X129500000Y-50857142D01*
X129428571Y-50785714D01*
X129357142Y-50642857D01*
X129357142Y-50285714D01*
X129428571Y-50142857D01*
X129500000Y-50071428D01*
X129642857Y-50000000D01*
X129928571Y-50000000D01*
X130071428Y-50071428D01*
X130142857Y-50142857D01*
X130214285Y-50285714D01*
X126714285Y-50785714D02*
X126785714Y-50857142D01*
X127000000Y-50928571D01*
X127142857Y-50928571D01*
X127357142Y-50857142D01*
X127500000Y-50714285D01*
X127571428Y-50571428D01*
X127642857Y-50285714D01*
X127642857Y-50071428D01*
X127571428Y-49785714D01*
X127500000Y-49642857D01*
X127357142Y-49500000D01*
X127142857Y-49428571D01*
X127000000Y-49428571D01*
X126785714Y-49500000D01*
X126714285Y-49571428D01*
X126071428Y-50928571D02*
X126071428Y-49428571D01*
X125428571Y-50928571D02*
X125428571Y-50142857D01*
X125500000Y-50000000D01*
X125642857Y-49928571D01*
X125857142Y-49928571D01*
X126000000Y-50000000D01*
X126071428Y-50071428D01*
X124071428Y-50928571D02*
X124071428Y-50142857D01*
X124142857Y-50000000D01*
X124285714Y-49928571D01*
X124571428Y-49928571D01*
X124714285Y-50000000D01*
X124071428Y-50857142D02*
X124214285Y-50928571D01*
X124571428Y-50928571D01*
X124714285Y-50857142D01*
X124785714Y-50714285D01*
X124785714Y-50571428D01*
X124714285Y-50428571D01*
X124571428Y-50357142D01*
X124214285Y-50357142D01*
X124071428Y-50285714D01*
X123357142Y-49928571D02*
X123357142Y-50928571D01*
X123357142Y-50071428D02*
X123285714Y-50000000D01*
X123142857Y-49928571D01*
X122928571Y-49928571D01*
X122785714Y-50000000D01*
X122714285Y-50142857D01*
X122714285Y-50928571D01*
X122000000Y-49928571D02*
X122000000Y-50928571D01*
X122000000Y-50071428D02*
X121928571Y-50000000D01*
X121785714Y-49928571D01*
X121571428Y-49928571D01*
X121428571Y-50000000D01*
X121357142Y-50142857D01*
X121357142Y-50928571D01*
X120071428Y-50857142D02*
X120214285Y-50928571D01*
X120500000Y-50928571D01*
X120642857Y-50857142D01*
X120714285Y-50714285D01*
X120714285Y-50142857D01*
X120642857Y-50000000D01*
X120500000Y-49928571D01*
X120214285Y-49928571D01*
X120071428Y-50000000D01*
X120000000Y-50142857D01*
X120000000Y-50285714D01*
X120714285Y-50428571D01*
X119142857Y-50928571D02*
X119285714Y-50857142D01*
X119357142Y-50714285D01*
X119357142Y-49428571D01*
X117428571Y-50928571D02*
X117428571Y-49428571D01*
X116785714Y-49071428D02*
X116642857Y-49000000D01*
X116428571Y-49000000D01*
X116285714Y-49071428D01*
X116214285Y-49214285D01*
X116214285Y-49357142D01*
X116285714Y-49500000D01*
X116785714Y-50000000D01*
X116214285Y-50000000D01*
X114714285Y-50785714D02*
X114785714Y-50857142D01*
X115000000Y-50928571D01*
X115142857Y-50928571D01*
X115357142Y-50857142D01*
X115500000Y-50714285D01*
X115571428Y-50571428D01*
X115642857Y-50285714D01*
X115642857Y-50071428D01*
X115571428Y-49785714D01*
X115500000Y-49642857D01*
X115357142Y-49500000D01*
X115142857Y-49428571D01*
X115000000Y-49428571D01*
X114785714Y-49500000D01*
X114714285Y-49571428D01*
X112928571Y-50928571D02*
X112928571Y-49428571D01*
X112357142Y-49428571D01*
X112214285Y-49500000D01*
X112142857Y-49571428D01*
X112071428Y-49714285D01*
X112071428Y-49928571D01*
X112142857Y-50071428D01*
X112214285Y-50142857D01*
X112357142Y-50214285D01*
X112928571Y-50214285D01*
X111571428Y-49428571D02*
X111214285Y-50928571D01*
X110928571Y-49857142D01*
X110642857Y-50928571D01*
X110285714Y-49428571D01*
X109714285Y-50928571D02*
X109714285Y-49428571D01*
X109214285Y-50500000D01*
X108714285Y-49428571D01*
X108714285Y-50928571D01*
X106857142Y-50928571D02*
X106857142Y-49428571D01*
X106500000Y-49428571D01*
X106285714Y-49500000D01*
X106142857Y-49642857D01*
X106071428Y-49785714D01*
X106000000Y-50071428D01*
X106000000Y-50285714D01*
X106071428Y-50571428D01*
X106142857Y-50714285D01*
X106285714Y-50857142D01*
X106500000Y-50928571D01*
X106857142Y-50928571D01*
X105357142Y-50928571D02*
X105357142Y-49928571D01*
X105357142Y-50214285D02*
X105285714Y-50071428D01*
X105214285Y-50000000D01*
X105071428Y-49928571D01*
X104928571Y-49928571D01*
X104428571Y-50928571D02*
X104428571Y-49928571D01*
X104428571Y-49428571D02*
X104500000Y-49500000D01*
X104428571Y-49571428D01*
X104357142Y-49500000D01*
X104428571Y-49428571D01*
X104428571Y-49571428D01*
X103857142Y-49928571D02*
X103500000Y-50928571D01*
X103142857Y-49928571D01*
X102000000Y-50857142D02*
X102142857Y-50928571D01*
X102428571Y-50928571D01*
X102571428Y-50857142D01*
X102642857Y-50714285D01*
X102642857Y-50142857D01*
X102571428Y-50000000D01*
X102428571Y-49928571D01*
X102142857Y-49928571D01*
X102000000Y-50000000D01*
X101928571Y-50142857D01*
X101928571Y-50285714D01*
X102642857Y-50428571D01*
X101285714Y-50928571D02*
X101285714Y-49928571D01*
X101285714Y-50214285D02*
X101214285Y-50071428D01*
X101142857Y-50000000D01*
X101000000Y-49928571D01*
X100857142Y-49928571D01*
X110371428Y-65750000D02*
X109657142Y-65750000D01*
X110514285Y-66178571D02*
X110014285Y-64678571D01*
X109514285Y-66178571D01*
X108300000Y-64678571D02*
X109014285Y-64678571D01*
X109085714Y-65392857D01*
X109014285Y-65321428D01*
X108871428Y-65250000D01*
X108514285Y-65250000D01*
X108371428Y-65321428D01*
X108300000Y-65392857D01*
X108228571Y-65535714D01*
X108228571Y-65892857D01*
X108300000Y-66035714D01*
X108371428Y-66107142D01*
X108514285Y-66178571D01*
X108871428Y-66178571D01*
X109014285Y-66107142D01*
X109085714Y-66035714D01*
X105121428Y-65750000D02*
X104407142Y-65750000D01*
X105264285Y-66178571D02*
X104764285Y-64678571D01*
X104264285Y-66178571D01*
X103121428Y-65178571D02*
X103121428Y-66178571D01*
X103478571Y-64607142D02*
X103835714Y-65678571D01*
X102907142Y-65678571D01*
X100121428Y-65750000D02*
X99407142Y-65750000D01*
X100264285Y-66178571D02*
X99764285Y-64678571D01*
X99264285Y-66178571D01*
X98907142Y-64678571D02*
X97978571Y-64678571D01*
X98478571Y-65250000D01*
X98264285Y-65250000D01*
X98121428Y-65321428D01*
X98050000Y-65392857D01*
X97978571Y-65535714D01*
X97978571Y-65892857D01*
X98050000Y-66035714D01*
X98121428Y-66107142D01*
X98264285Y-66178571D01*
X98692857Y-66178571D01*
X98835714Y-66107142D01*
X98907142Y-66035714D01*
X95371428Y-65750000D02*
X94657142Y-65750000D01*
X95514285Y-66178571D02*
X95014285Y-64678571D01*
X94514285Y-66178571D01*
X94085714Y-64821428D02*
X94014285Y-64750000D01*
X93871428Y-64678571D01*
X93514285Y-64678571D01*
X93371428Y-64750000D01*
X93300000Y-64821428D01*
X93228571Y-64964285D01*
X93228571Y-65107142D01*
X93300000Y-65321428D01*
X94157142Y-66178571D01*
X93228571Y-66178571D01*
X90371428Y-65750000D02*
X89657142Y-65750000D01*
X90514285Y-66178571D02*
X90014285Y-64678571D01*
X89514285Y-66178571D01*
X88228571Y-66178571D02*
X89085714Y-66178571D01*
X88657142Y-66178571D02*
X88657142Y-64678571D01*
X88800000Y-64892857D01*
X88942857Y-65035714D01*
X89085714Y-65107142D01*
X85371428Y-65750000D02*
X84657142Y-65750000D01*
X85514285Y-66178571D02*
X85014285Y-64678571D01*
X84514285Y-66178571D01*
X83728571Y-64678571D02*
X83585714Y-64678571D01*
X83442857Y-64750000D01*
X83371428Y-64821428D01*
X83300000Y-64964285D01*
X83228571Y-65250000D01*
X83228571Y-65607142D01*
X83300000Y-65892857D01*
X83371428Y-66035714D01*
X83442857Y-66107142D01*
X83585714Y-66178571D01*
X83728571Y-66178571D01*
X83871428Y-66107142D01*
X83942857Y-66035714D01*
X84014285Y-65892857D01*
X84085714Y-65607142D01*
X84085714Y-65250000D01*
X84014285Y-64964285D01*
X83942857Y-64821428D01*
X83871428Y-64750000D01*
X83728571Y-64678571D01*
X93185714Y-81678571D02*
X93900000Y-81678571D01*
X93971428Y-82392857D01*
X93900000Y-82321428D01*
X93757142Y-82250000D01*
X93400000Y-82250000D01*
X93257142Y-82321428D01*
X93185714Y-82392857D01*
X93114285Y-82535714D01*
X93114285Y-82892857D01*
X93185714Y-83035714D01*
X93257142Y-83107142D01*
X93400000Y-83178571D01*
X93757142Y-83178571D01*
X93900000Y-83107142D01*
X93971428Y-83035714D01*
X92685714Y-81678571D02*
X92185714Y-83178571D01*
X91685714Y-81678571D01*
X94114285Y-86678571D02*
X93185714Y-86678571D01*
X93685714Y-87250000D01*
X93471428Y-87250000D01*
X93328571Y-87321428D01*
X93257142Y-87392857D01*
X93185714Y-87535714D01*
X93185714Y-87892857D01*
X93257142Y-88035714D01*
X93328571Y-88107142D01*
X93471428Y-88178571D01*
X93900000Y-88178571D01*
X94042857Y-88107142D01*
X94114285Y-88035714D01*
X92542857Y-88035714D02*
X92471428Y-88107142D01*
X92542857Y-88178571D01*
X92614285Y-88107142D01*
X92542857Y-88035714D01*
X92542857Y-88178571D01*
X91971428Y-86678571D02*
X91042857Y-86678571D01*
X91542857Y-87250000D01*
X91328571Y-87250000D01*
X91185714Y-87321428D01*
X91114285Y-87392857D01*
X91042857Y-87535714D01*
X91042857Y-87892857D01*
X91114285Y-88035714D01*
X91185714Y-88107142D01*
X91328571Y-88178571D01*
X91757142Y-88178571D01*
X91900000Y-88107142D01*
X91971428Y-88035714D01*
X90614285Y-86678571D02*
X90114285Y-88178571D01*
X89614285Y-86678571D01*
D11*
G36*
X94900000Y-81000000D02*
X97400000Y-81000000D01*
X97400000Y-83500000D01*
X94900000Y-83500000D01*
X94900000Y-81000000D01*
G37*
X94900000Y-81000000D02*
X97400000Y-81000000D01*
X97400000Y-83500000D01*
X94900000Y-83500000D01*
X94900000Y-81000000D01*
G36*
X94900000Y-86000000D02*
X97400000Y-86000000D01*
X97400000Y-88500000D01*
X94900000Y-88500000D01*
X94900000Y-86000000D01*
G37*
X94900000Y-86000000D02*
X97400000Y-86000000D01*
X97400000Y-88500000D01*
X94900000Y-88500000D01*
X94900000Y-86000000D01*
D12*
G04 #@! TO.C,JP6*
X83079900Y-63250557D02*
G75*
G03X83779900Y-63950557I700000J0D01*
G01*
X84379900Y-63950557D02*
G75*
G03X85079900Y-63250557I0J700000D01*
G01*
X85079900Y-61850557D02*
G75*
G03X84379900Y-61150557I-700000J0D01*
G01*
X83779900Y-61150557D02*
G75*
G03X83079900Y-61850557I0J-700000D01*
G01*
X84379900Y-61150557D02*
X83779900Y-61150557D01*
X85079900Y-63250557D02*
X85079900Y-61850557D01*
X83779900Y-63950557D02*
X84379900Y-63950557D01*
X83079900Y-61850557D02*
X83079900Y-63250557D01*
G04 #@! TO.C,JP5*
X88079900Y-61850557D02*
X88079900Y-63250557D01*
X88779900Y-63950557D02*
X89379900Y-63950557D01*
X90079900Y-63250557D02*
X90079900Y-61850557D01*
X89379900Y-61150557D02*
X88779900Y-61150557D01*
X88779900Y-61150557D02*
G75*
G03X88079900Y-61850557I0J-700000D01*
G01*
X90079900Y-61850557D02*
G75*
G03X89379900Y-61150557I-700000J0D01*
G01*
X89379900Y-63950557D02*
G75*
G03X90079900Y-63250557I0J700000D01*
G01*
X88079900Y-63250557D02*
G75*
G03X88779900Y-63950557I700000J0D01*
G01*
G04 #@! TO.C,JP3*
X98079900Y-63250557D02*
G75*
G03X98779900Y-63950557I700000J0D01*
G01*
X99379900Y-63950557D02*
G75*
G03X100079900Y-63250557I0J700000D01*
G01*
X100079900Y-61850557D02*
G75*
G03X99379900Y-61150557I-700000J0D01*
G01*
X98779900Y-61150557D02*
G75*
G03X98079900Y-61850557I0J-700000D01*
G01*
X99379900Y-61150557D02*
X98779900Y-61150557D01*
X100079900Y-63250557D02*
X100079900Y-61850557D01*
X98779900Y-63950557D02*
X99379900Y-63950557D01*
X98079900Y-61850557D02*
X98079900Y-63250557D01*
G04 #@! TO.C,JP2*
X105079900Y-63250557D02*
X105079900Y-61850557D01*
X104379900Y-61150557D02*
X103779900Y-61150557D01*
X103079900Y-61850557D02*
X103079900Y-63250557D01*
X103779900Y-63950557D02*
X104379900Y-63950557D01*
X104379900Y-63950557D02*
G75*
G03X105079900Y-63250557I0J700000D01*
G01*
X103079900Y-63250557D02*
G75*
G03X103779900Y-63950557I700000J0D01*
G01*
X103779900Y-61150557D02*
G75*
G03X103079900Y-61850557I0J-700000D01*
G01*
X105079900Y-61850557D02*
G75*
G03X104379900Y-61150557I-700000J0D01*
G01*
G04 #@! TO.C,JP1*
X110079900Y-61850557D02*
G75*
G03X109379900Y-61150557I-700000J0D01*
G01*
X108779900Y-61150557D02*
G75*
G03X108079900Y-61850557I0J-700000D01*
G01*
X108079900Y-63250557D02*
G75*
G03X108779900Y-63950557I700000J0D01*
G01*
X109379900Y-63950557D02*
G75*
G03X110079900Y-63250557I0J700000D01*
G01*
X108779900Y-63950557D02*
X109379900Y-63950557D01*
X108079900Y-61850557D02*
X108079900Y-63250557D01*
X109379900Y-61150557D02*
X108779900Y-61150557D01*
X110079900Y-63250557D02*
X110079900Y-61850557D01*
G04 #@! TO.C,JP4*
X93079900Y-61550000D02*
X93079900Y-62950000D01*
X93779900Y-63650000D02*
X94379900Y-63650000D01*
X95079900Y-62950000D02*
X95079900Y-61550000D01*
X94379900Y-60850000D02*
X93779900Y-60850000D01*
X93779900Y-60850000D02*
G75*
G03X93079900Y-61550000I0J-700000D01*
G01*
X95079900Y-61550000D02*
G75*
G03X94379900Y-60850000I-700000J0D01*
G01*
X94379900Y-63650000D02*
G75*
G03X95079900Y-62950000I0J700000D01*
G01*
X93079900Y-62950000D02*
G75*
G03X93779900Y-63650000I700000J0D01*
G01*
D13*
G04 #@! TO.C,REF\002A\002A*
G36*
X145290986Y-52152998D02*
X145132994Y-52153863D01*
X145018653Y-52156205D01*
X144940593Y-52160762D01*
X144891446Y-52168270D01*
X144863841Y-52179466D01*
X144850408Y-52195088D01*
X144843779Y-52215873D01*
X144843135Y-52218563D01*
X144833065Y-52267113D01*
X144814425Y-52362905D01*
X144789155Y-52495743D01*
X144759193Y-52655431D01*
X144726478Y-52831774D01*
X144725336Y-52837967D01*
X144692567Y-53010782D01*
X144661907Y-53163469D01*
X144635336Y-53286871D01*
X144614833Y-53371831D01*
X144602374Y-53409190D01*
X144601780Y-53409852D01*
X144565081Y-53428095D01*
X144489414Y-53458497D01*
X144391122Y-53494493D01*
X144390575Y-53494685D01*
X144266767Y-53541222D01*
X144120804Y-53600504D01*
X143983219Y-53660109D01*
X143976707Y-53663056D01*
X143752610Y-53764765D01*
X143256381Y-53425897D01*
X143104154Y-53322592D01*
X142966259Y-53230237D01*
X142850685Y-53154084D01*
X142765421Y-53099385D01*
X142718456Y-53071393D01*
X142713996Y-53069317D01*
X142679866Y-53078560D01*
X142616119Y-53123156D01*
X142520269Y-53205209D01*
X142389831Y-53326821D01*
X142256672Y-53456205D01*
X142128306Y-53583702D01*
X142013419Y-53700046D01*
X141918927Y-53798052D01*
X141851747Y-53870536D01*
X141818794Y-53910313D01*
X141817568Y-53912361D01*
X141813926Y-53939656D01*
X141827650Y-53984234D01*
X141862131Y-54052112D01*
X141920761Y-54149311D01*
X142006930Y-54281851D01*
X142121800Y-54452476D01*
X142223746Y-54602655D01*
X142314877Y-54737350D01*
X142389927Y-54848740D01*
X142443631Y-54929005D01*
X142470720Y-54970325D01*
X142472426Y-54973130D01*
X142469118Y-55012721D01*
X142444047Y-55089669D01*
X142402202Y-55189432D01*
X142387288Y-55221291D01*
X142322214Y-55363226D01*
X142252788Y-55524273D01*
X142196391Y-55663621D01*
X142155753Y-55767044D01*
X142123474Y-55845642D01*
X142104822Y-55886720D01*
X142102503Y-55889885D01*
X142068197Y-55895128D01*
X141987331Y-55909494D01*
X141870657Y-55930937D01*
X141728925Y-55957413D01*
X141572890Y-55986877D01*
X141413302Y-56017283D01*
X141260915Y-56046588D01*
X141126479Y-56072745D01*
X141020748Y-56093710D01*
X140954474Y-56107439D01*
X140938218Y-56111320D01*
X140921427Y-56120900D01*
X140908751Y-56142536D01*
X140899622Y-56183531D01*
X140893469Y-56251189D01*
X140889720Y-56352812D01*
X140887808Y-56495703D01*
X140887160Y-56687165D01*
X140887126Y-56765645D01*
X140887126Y-57403906D01*
X141040402Y-57434160D01*
X141125678Y-57450564D01*
X141252930Y-57474509D01*
X141406685Y-57503107D01*
X141571466Y-57533467D01*
X141617011Y-57541806D01*
X141769068Y-57571370D01*
X141901532Y-57600442D01*
X142003286Y-57626329D01*
X142063212Y-57646337D01*
X142073195Y-57652301D01*
X142097707Y-57694534D01*
X142132852Y-57776370D01*
X142171827Y-57881683D01*
X142179558Y-57904368D01*
X142230640Y-58045018D01*
X142294046Y-58203714D01*
X142356096Y-58346225D01*
X142356402Y-58346886D01*
X142459733Y-58570440D01*
X141780039Y-59570232D01*
X142216379Y-60007300D01*
X142348351Y-60137381D01*
X142468721Y-60252048D01*
X142570727Y-60345181D01*
X142647609Y-60410658D01*
X142692607Y-60442357D01*
X142699062Y-60444368D01*
X142736960Y-60428529D01*
X142814292Y-60384496D01*
X142922611Y-60317490D01*
X143053468Y-60232734D01*
X143194948Y-60137816D01*
X143338539Y-60040998D01*
X143466565Y-59956751D01*
X143570895Y-59890258D01*
X143643400Y-59846702D01*
X143675842Y-59831264D01*
X143715424Y-59844328D01*
X143790481Y-59878750D01*
X143885532Y-59927380D01*
X143895608Y-59932785D01*
X144023609Y-59996980D01*
X144111382Y-60028463D01*
X144165972Y-60028798D01*
X144194425Y-59999548D01*
X144194590Y-59999138D01*
X144208812Y-59964498D01*
X144242731Y-59882269D01*
X144293716Y-59758814D01*
X144359138Y-59600498D01*
X144436366Y-59413686D01*
X144522771Y-59204742D01*
X144606449Y-59002446D01*
X144698412Y-58779200D01*
X144782850Y-58572392D01*
X144857231Y-58388362D01*
X144919026Y-58233451D01*
X144965703Y-58113996D01*
X144994732Y-58036339D01*
X145003678Y-58007356D01*
X144981244Y-57974110D01*
X144922561Y-57921123D01*
X144844311Y-57862704D01*
X144621466Y-57677952D01*
X144447282Y-57466182D01*
X144323846Y-57231856D01*
X144253246Y-56979434D01*
X144237569Y-56713377D01*
X144248964Y-56590575D01*
X144311050Y-56335793D01*
X144417977Y-56110801D01*
X144563111Y-55917817D01*
X144739822Y-55759061D01*
X144941478Y-55636750D01*
X145161446Y-55553105D01*
X145393094Y-55510344D01*
X145629791Y-55510687D01*
X145864905Y-55556352D01*
X146091804Y-55649559D01*
X146303856Y-55792527D01*
X146392364Y-55873383D01*
X146562111Y-56081007D01*
X146680301Y-56307895D01*
X146747722Y-56547433D01*
X146765160Y-56793007D01*
X146733402Y-57038003D01*
X146653235Y-57275808D01*
X146525445Y-57499807D01*
X146350820Y-57703387D01*
X146155688Y-57862704D01*
X146074409Y-57923602D01*
X146016991Y-57976015D01*
X145996322Y-58007406D01*
X146007144Y-58041639D01*
X146037923Y-58123419D01*
X146086126Y-58246407D01*
X146149222Y-58404263D01*
X146224678Y-58590649D01*
X146309962Y-58799226D01*
X146393781Y-59002496D01*
X146486255Y-59225933D01*
X146571911Y-59432984D01*
X146648118Y-59617286D01*
X146712247Y-59772475D01*
X146761668Y-59892188D01*
X146793752Y-59970061D01*
X146805641Y-59999138D01*
X146833726Y-60028677D01*
X146888051Y-60028591D01*
X146975605Y-59997326D01*
X147103381Y-59933329D01*
X147104392Y-59932785D01*
X147200598Y-59883121D01*
X147278369Y-59846945D01*
X147322223Y-59831408D01*
X147324158Y-59831264D01*
X147357171Y-59847024D01*
X147430054Y-59890850D01*
X147534678Y-59957557D01*
X147662910Y-60041964D01*
X147805052Y-60137816D01*
X147949767Y-60234867D01*
X148080196Y-60319270D01*
X148187890Y-60385801D01*
X148264402Y-60429238D01*
X148300938Y-60444368D01*
X148334582Y-60424482D01*
X148402224Y-60368903D01*
X148497107Y-60283754D01*
X148612470Y-60175153D01*
X148741555Y-60049221D01*
X148783771Y-60007149D01*
X149220261Y-59569931D01*
X148888023Y-59082340D01*
X148787054Y-58932605D01*
X148698438Y-58798220D01*
X148627146Y-58686969D01*
X148578150Y-58606639D01*
X148556422Y-58565014D01*
X148555785Y-58562053D01*
X148567240Y-58522818D01*
X148598051Y-58443895D01*
X148642884Y-58338509D01*
X148674353Y-58267954D01*
X148733192Y-58132876D01*
X148788604Y-57996409D01*
X148831564Y-57881103D01*
X148843234Y-57845977D01*
X148876389Y-57752174D01*
X148908799Y-57679694D01*
X148926601Y-57652301D01*
X148965886Y-57635536D01*
X149051626Y-57611770D01*
X149172697Y-57583697D01*
X149317973Y-57554009D01*
X149382988Y-57541806D01*
X149548087Y-57511468D01*
X149706448Y-57482093D01*
X149842596Y-57456569D01*
X149941057Y-57437785D01*
X149959598Y-57434160D01*
X150112873Y-57403906D01*
X150112873Y-56765645D01*
X150112529Y-56555770D01*
X150111116Y-56396980D01*
X150108064Y-56281973D01*
X150102803Y-56203446D01*
X150094763Y-56154096D01*
X150083373Y-56126619D01*
X150068063Y-56113713D01*
X150061782Y-56111320D01*
X150023896Y-56102833D01*
X149940195Y-56085900D01*
X149821433Y-56062566D01*
X149678361Y-56034875D01*
X149521732Y-56004873D01*
X149362297Y-55974604D01*
X149210809Y-55946115D01*
X149078019Y-55921449D01*
X148974681Y-55902651D01*
X148911545Y-55891767D01*
X148897497Y-55889885D01*
X148884770Y-55864704D01*
X148856600Y-55797622D01*
X148818252Y-55701333D01*
X148803609Y-55663621D01*
X148744548Y-55517921D01*
X148675000Y-55356951D01*
X148612712Y-55221291D01*
X148566879Y-55117561D01*
X148536387Y-55032326D01*
X148526208Y-54980126D01*
X148527831Y-54973130D01*
X148549343Y-54940102D01*
X148598465Y-54866643D01*
X148669923Y-54760577D01*
X148758445Y-54629726D01*
X148858759Y-54481912D01*
X148878594Y-54452734D01*
X148994988Y-54279863D01*
X149080548Y-54148226D01*
X149138684Y-54051761D01*
X149172808Y-53984408D01*
X149186331Y-53940106D01*
X149182664Y-53912794D01*
X149182570Y-53912620D01*
X149153707Y-53876746D01*
X149089867Y-53807391D01*
X148997969Y-53711745D01*
X148884933Y-53596999D01*
X148757679Y-53470341D01*
X148743328Y-53456205D01*
X148582957Y-53300903D01*
X148459195Y-53186870D01*
X148369555Y-53112002D01*
X148311552Y-53074196D01*
X148286004Y-53069317D01*
X148248718Y-53090603D01*
X148171343Y-53139773D01*
X148061867Y-53211575D01*
X147928280Y-53300755D01*
X147778570Y-53402063D01*
X147743618Y-53425897D01*
X147247390Y-53764765D01*
X147023293Y-53663056D01*
X146887011Y-53603783D01*
X146740724Y-53544170D01*
X146614965Y-53496640D01*
X146609425Y-53494685D01*
X146511057Y-53458677D01*
X146435229Y-53428229D01*
X146398282Y-53409905D01*
X146398220Y-53409852D01*
X146386496Y-53376729D01*
X146366568Y-53295267D01*
X146340413Y-53174625D01*
X146310010Y-53023959D01*
X146277337Y-52852428D01*
X146274664Y-52837967D01*
X146241890Y-52661235D01*
X146211802Y-52500810D01*
X146186339Y-52366888D01*
X146167441Y-52269663D01*
X146157047Y-52219332D01*
X146156865Y-52218563D01*
X146150539Y-52197153D01*
X146138239Y-52180988D01*
X146112594Y-52169331D01*
X146066235Y-52161445D01*
X145991792Y-52156593D01*
X145881895Y-52154039D01*
X145729175Y-52153045D01*
X145526262Y-52152874D01*
X145500000Y-52152874D01*
X145290986Y-52152998D01*
X145290986Y-52152998D01*
G37*
X145290986Y-52152998D02*
X145132994Y-52153863D01*
X145018653Y-52156205D01*
X144940593Y-52160762D01*
X144891446Y-52168270D01*
X144863841Y-52179466D01*
X144850408Y-52195088D01*
X144843779Y-52215873D01*
X144843135Y-52218563D01*
X144833065Y-52267113D01*
X144814425Y-52362905D01*
X144789155Y-52495743D01*
X144759193Y-52655431D01*
X144726478Y-52831774D01*
X144725336Y-52837967D01*
X144692567Y-53010782D01*
X144661907Y-53163469D01*
X144635336Y-53286871D01*
X144614833Y-53371831D01*
X144602374Y-53409190D01*
X144601780Y-53409852D01*
X144565081Y-53428095D01*
X144489414Y-53458497D01*
X144391122Y-53494493D01*
X144390575Y-53494685D01*
X144266767Y-53541222D01*
X144120804Y-53600504D01*
X143983219Y-53660109D01*
X143976707Y-53663056D01*
X143752610Y-53764765D01*
X143256381Y-53425897D01*
X143104154Y-53322592D01*
X142966259Y-53230237D01*
X142850685Y-53154084D01*
X142765421Y-53099385D01*
X142718456Y-53071393D01*
X142713996Y-53069317D01*
X142679866Y-53078560D01*
X142616119Y-53123156D01*
X142520269Y-53205209D01*
X142389831Y-53326821D01*
X142256672Y-53456205D01*
X142128306Y-53583702D01*
X142013419Y-53700046D01*
X141918927Y-53798052D01*
X141851747Y-53870536D01*
X141818794Y-53910313D01*
X141817568Y-53912361D01*
X141813926Y-53939656D01*
X141827650Y-53984234D01*
X141862131Y-54052112D01*
X141920761Y-54149311D01*
X142006930Y-54281851D01*
X142121800Y-54452476D01*
X142223746Y-54602655D01*
X142314877Y-54737350D01*
X142389927Y-54848740D01*
X142443631Y-54929005D01*
X142470720Y-54970325D01*
X142472426Y-54973130D01*
X142469118Y-55012721D01*
X142444047Y-55089669D01*
X142402202Y-55189432D01*
X142387288Y-55221291D01*
X142322214Y-55363226D01*
X142252788Y-55524273D01*
X142196391Y-55663621D01*
X142155753Y-55767044D01*
X142123474Y-55845642D01*
X142104822Y-55886720D01*
X142102503Y-55889885D01*
X142068197Y-55895128D01*
X141987331Y-55909494D01*
X141870657Y-55930937D01*
X141728925Y-55957413D01*
X141572890Y-55986877D01*
X141413302Y-56017283D01*
X141260915Y-56046588D01*
X141126479Y-56072745D01*
X141020748Y-56093710D01*
X140954474Y-56107439D01*
X140938218Y-56111320D01*
X140921427Y-56120900D01*
X140908751Y-56142536D01*
X140899622Y-56183531D01*
X140893469Y-56251189D01*
X140889720Y-56352812D01*
X140887808Y-56495703D01*
X140887160Y-56687165D01*
X140887126Y-56765645D01*
X140887126Y-57403906D01*
X141040402Y-57434160D01*
X141125678Y-57450564D01*
X141252930Y-57474509D01*
X141406685Y-57503107D01*
X141571466Y-57533467D01*
X141617011Y-57541806D01*
X141769068Y-57571370D01*
X141901532Y-57600442D01*
X142003286Y-57626329D01*
X142063212Y-57646337D01*
X142073195Y-57652301D01*
X142097707Y-57694534D01*
X142132852Y-57776370D01*
X142171827Y-57881683D01*
X142179558Y-57904368D01*
X142230640Y-58045018D01*
X142294046Y-58203714D01*
X142356096Y-58346225D01*
X142356402Y-58346886D01*
X142459733Y-58570440D01*
X141780039Y-59570232D01*
X142216379Y-60007300D01*
X142348351Y-60137381D01*
X142468721Y-60252048D01*
X142570727Y-60345181D01*
X142647609Y-60410658D01*
X142692607Y-60442357D01*
X142699062Y-60444368D01*
X142736960Y-60428529D01*
X142814292Y-60384496D01*
X142922611Y-60317490D01*
X143053468Y-60232734D01*
X143194948Y-60137816D01*
X143338539Y-60040998D01*
X143466565Y-59956751D01*
X143570895Y-59890258D01*
X143643400Y-59846702D01*
X143675842Y-59831264D01*
X143715424Y-59844328D01*
X143790481Y-59878750D01*
X143885532Y-59927380D01*
X143895608Y-59932785D01*
X144023609Y-59996980D01*
X144111382Y-60028463D01*
X144165972Y-60028798D01*
X144194425Y-59999548D01*
X144194590Y-59999138D01*
X144208812Y-59964498D01*
X144242731Y-59882269D01*
X144293716Y-59758814D01*
X144359138Y-59600498D01*
X144436366Y-59413686D01*
X144522771Y-59204742D01*
X144606449Y-59002446D01*
X144698412Y-58779200D01*
X144782850Y-58572392D01*
X144857231Y-58388362D01*
X144919026Y-58233451D01*
X144965703Y-58113996D01*
X144994732Y-58036339D01*
X145003678Y-58007356D01*
X144981244Y-57974110D01*
X144922561Y-57921123D01*
X144844311Y-57862704D01*
X144621466Y-57677952D01*
X144447282Y-57466182D01*
X144323846Y-57231856D01*
X144253246Y-56979434D01*
X144237569Y-56713377D01*
X144248964Y-56590575D01*
X144311050Y-56335793D01*
X144417977Y-56110801D01*
X144563111Y-55917817D01*
X144739822Y-55759061D01*
X144941478Y-55636750D01*
X145161446Y-55553105D01*
X145393094Y-55510344D01*
X145629791Y-55510687D01*
X145864905Y-55556352D01*
X146091804Y-55649559D01*
X146303856Y-55792527D01*
X146392364Y-55873383D01*
X146562111Y-56081007D01*
X146680301Y-56307895D01*
X146747722Y-56547433D01*
X146765160Y-56793007D01*
X146733402Y-57038003D01*
X146653235Y-57275808D01*
X146525445Y-57499807D01*
X146350820Y-57703387D01*
X146155688Y-57862704D01*
X146074409Y-57923602D01*
X146016991Y-57976015D01*
X145996322Y-58007406D01*
X146007144Y-58041639D01*
X146037923Y-58123419D01*
X146086126Y-58246407D01*
X146149222Y-58404263D01*
X146224678Y-58590649D01*
X146309962Y-58799226D01*
X146393781Y-59002496D01*
X146486255Y-59225933D01*
X146571911Y-59432984D01*
X146648118Y-59617286D01*
X146712247Y-59772475D01*
X146761668Y-59892188D01*
X146793752Y-59970061D01*
X146805641Y-59999138D01*
X146833726Y-60028677D01*
X146888051Y-60028591D01*
X146975605Y-59997326D01*
X147103381Y-59933329D01*
X147104392Y-59932785D01*
X147200598Y-59883121D01*
X147278369Y-59846945D01*
X147322223Y-59831408D01*
X147324158Y-59831264D01*
X147357171Y-59847024D01*
X147430054Y-59890850D01*
X147534678Y-59957557D01*
X147662910Y-60041964D01*
X147805052Y-60137816D01*
X147949767Y-60234867D01*
X148080196Y-60319270D01*
X148187890Y-60385801D01*
X148264402Y-60429238D01*
X148300938Y-60444368D01*
X148334582Y-60424482D01*
X148402224Y-60368903D01*
X148497107Y-60283754D01*
X148612470Y-60175153D01*
X148741555Y-60049221D01*
X148783771Y-60007149D01*
X149220261Y-59569931D01*
X148888023Y-59082340D01*
X148787054Y-58932605D01*
X148698438Y-58798220D01*
X148627146Y-58686969D01*
X148578150Y-58606639D01*
X148556422Y-58565014D01*
X148555785Y-58562053D01*
X148567240Y-58522818D01*
X148598051Y-58443895D01*
X148642884Y-58338509D01*
X148674353Y-58267954D01*
X148733192Y-58132876D01*
X148788604Y-57996409D01*
X148831564Y-57881103D01*
X148843234Y-57845977D01*
X148876389Y-57752174D01*
X148908799Y-57679694D01*
X148926601Y-57652301D01*
X148965886Y-57635536D01*
X149051626Y-57611770D01*
X149172697Y-57583697D01*
X149317973Y-57554009D01*
X149382988Y-57541806D01*
X149548087Y-57511468D01*
X149706448Y-57482093D01*
X149842596Y-57456569D01*
X149941057Y-57437785D01*
X149959598Y-57434160D01*
X150112873Y-57403906D01*
X150112873Y-56765645D01*
X150112529Y-56555770D01*
X150111116Y-56396980D01*
X150108064Y-56281973D01*
X150102803Y-56203446D01*
X150094763Y-56154096D01*
X150083373Y-56126619D01*
X150068063Y-56113713D01*
X150061782Y-56111320D01*
X150023896Y-56102833D01*
X149940195Y-56085900D01*
X149821433Y-56062566D01*
X149678361Y-56034875D01*
X149521732Y-56004873D01*
X149362297Y-55974604D01*
X149210809Y-55946115D01*
X149078019Y-55921449D01*
X148974681Y-55902651D01*
X148911545Y-55891767D01*
X148897497Y-55889885D01*
X148884770Y-55864704D01*
X148856600Y-55797622D01*
X148818252Y-55701333D01*
X148803609Y-55663621D01*
X148744548Y-55517921D01*
X148675000Y-55356951D01*
X148612712Y-55221291D01*
X148566879Y-55117561D01*
X148536387Y-55032326D01*
X148526208Y-54980126D01*
X148527831Y-54973130D01*
X148549343Y-54940102D01*
X148598465Y-54866643D01*
X148669923Y-54760577D01*
X148758445Y-54629726D01*
X148858759Y-54481912D01*
X148878594Y-54452734D01*
X148994988Y-54279863D01*
X149080548Y-54148226D01*
X149138684Y-54051761D01*
X149172808Y-53984408D01*
X149186331Y-53940106D01*
X149182664Y-53912794D01*
X149182570Y-53912620D01*
X149153707Y-53876746D01*
X149089867Y-53807391D01*
X148997969Y-53711745D01*
X148884933Y-53596999D01*
X148757679Y-53470341D01*
X148743328Y-53456205D01*
X148582957Y-53300903D01*
X148459195Y-53186870D01*
X148369555Y-53112002D01*
X148311552Y-53074196D01*
X148286004Y-53069317D01*
X148248718Y-53090603D01*
X148171343Y-53139773D01*
X148061867Y-53211575D01*
X147928280Y-53300755D01*
X147778570Y-53402063D01*
X147743618Y-53425897D01*
X147247390Y-53764765D01*
X147023293Y-53663056D01*
X146887011Y-53603783D01*
X146740724Y-53544170D01*
X146614965Y-53496640D01*
X146609425Y-53494685D01*
X146511057Y-53458677D01*
X146435229Y-53428229D01*
X146398282Y-53409905D01*
X146398220Y-53409852D01*
X146386496Y-53376729D01*
X146366568Y-53295267D01*
X146340413Y-53174625D01*
X146310010Y-53023959D01*
X146277337Y-52852428D01*
X146274664Y-52837967D01*
X146241890Y-52661235D01*
X146211802Y-52500810D01*
X146186339Y-52366888D01*
X146167441Y-52269663D01*
X146157047Y-52219332D01*
X146156865Y-52218563D01*
X146150539Y-52197153D01*
X146138239Y-52180988D01*
X146112594Y-52169331D01*
X146066235Y-52161445D01*
X145991792Y-52156593D01*
X145881895Y-52154039D01*
X145729175Y-52153045D01*
X145526262Y-52152874D01*
X145500000Y-52152874D01*
X145290986Y-52152998D01*
G36*
X139156561Y-61656540D02*
X139041050Y-61732034D01*
X138985336Y-61799617D01*
X138941196Y-61922255D01*
X138937691Y-62019298D01*
X138945632Y-62149056D01*
X139244885Y-62280039D01*
X139390389Y-62346958D01*
X139485463Y-62400790D01*
X139534899Y-62447416D01*
X139543489Y-62492720D01*
X139516028Y-62542582D01*
X139485747Y-62575632D01*
X139397637Y-62628633D01*
X139301804Y-62632347D01*
X139213788Y-62591041D01*
X139149131Y-62508983D01*
X139137567Y-62480008D01*
X139082175Y-62389509D01*
X139018447Y-62350940D01*
X138931034Y-62317946D01*
X138931034Y-62443034D01*
X138938762Y-62528156D01*
X138969034Y-62599938D01*
X139032482Y-62682356D01*
X139041912Y-62693066D01*
X139112487Y-62766391D01*
X139173153Y-62805742D01*
X139249050Y-62823845D01*
X139311970Y-62829774D01*
X139424513Y-62831251D01*
X139504630Y-62812535D01*
X139554610Y-62784747D01*
X139633162Y-62723641D01*
X139687537Y-62657554D01*
X139721948Y-62574441D01*
X139740612Y-62462254D01*
X139747744Y-62308946D01*
X139748313Y-62231136D01*
X139746378Y-62137853D01*
X139570101Y-62137853D01*
X139568056Y-62187896D01*
X139562961Y-62196092D01*
X139529334Y-62184958D01*
X139456970Y-62155493D01*
X139360253Y-62113601D01*
X139340027Y-62104597D01*
X139217797Y-62042442D01*
X139150453Y-61987815D01*
X139135652Y-61936649D01*
X139171053Y-61884876D01*
X139200289Y-61862000D01*
X139305784Y-61816250D01*
X139404524Y-61823808D01*
X139487188Y-61879651D01*
X139544452Y-61978753D01*
X139562812Y-62057414D01*
X139570101Y-62137853D01*
X139746378Y-62137853D01*
X139744541Y-62049351D01*
X139730641Y-61914853D01*
X139703106Y-61816916D01*
X139658428Y-61744811D01*
X139593099Y-61687813D01*
X139564617Y-61669393D01*
X139435237Y-61621422D01*
X139293588Y-61618403D01*
X139156561Y-61656540D01*
X139156561Y-61656540D01*
G37*
X139156561Y-61656540D02*
X139041050Y-61732034D01*
X138985336Y-61799617D01*
X138941196Y-61922255D01*
X138937691Y-62019298D01*
X138945632Y-62149056D01*
X139244885Y-62280039D01*
X139390389Y-62346958D01*
X139485463Y-62400790D01*
X139534899Y-62447416D01*
X139543489Y-62492720D01*
X139516028Y-62542582D01*
X139485747Y-62575632D01*
X139397637Y-62628633D01*
X139301804Y-62632347D01*
X139213788Y-62591041D01*
X139149131Y-62508983D01*
X139137567Y-62480008D01*
X139082175Y-62389509D01*
X139018447Y-62350940D01*
X138931034Y-62317946D01*
X138931034Y-62443034D01*
X138938762Y-62528156D01*
X138969034Y-62599938D01*
X139032482Y-62682356D01*
X139041912Y-62693066D01*
X139112487Y-62766391D01*
X139173153Y-62805742D01*
X139249050Y-62823845D01*
X139311970Y-62829774D01*
X139424513Y-62831251D01*
X139504630Y-62812535D01*
X139554610Y-62784747D01*
X139633162Y-62723641D01*
X139687537Y-62657554D01*
X139721948Y-62574441D01*
X139740612Y-62462254D01*
X139747744Y-62308946D01*
X139748313Y-62231136D01*
X139746378Y-62137853D01*
X139570101Y-62137853D01*
X139568056Y-62187896D01*
X139562961Y-62196092D01*
X139529334Y-62184958D01*
X139456970Y-62155493D01*
X139360253Y-62113601D01*
X139340027Y-62104597D01*
X139217797Y-62042442D01*
X139150453Y-61987815D01*
X139135652Y-61936649D01*
X139171053Y-61884876D01*
X139200289Y-61862000D01*
X139305784Y-61816250D01*
X139404524Y-61823808D01*
X139487188Y-61879651D01*
X139544452Y-61978753D01*
X139562812Y-62057414D01*
X139570101Y-62137853D01*
X139746378Y-62137853D01*
X139744541Y-62049351D01*
X139730641Y-61914853D01*
X139703106Y-61816916D01*
X139658428Y-61744811D01*
X139593099Y-61687813D01*
X139564617Y-61669393D01*
X139435237Y-61621422D01*
X139293588Y-61618403D01*
X139156561Y-61656540D01*
G36*
X140164310Y-61640018D02*
X140129415Y-61655269D01*
X140046123Y-61721235D01*
X139974897Y-61816618D01*
X139930847Y-61918406D01*
X139923678Y-61968587D01*
X139947715Y-62038647D01*
X140000439Y-62075717D01*
X140056969Y-62098164D01*
X140082854Y-62102300D01*
X140095458Y-62072283D01*
X140120346Y-62006961D01*
X140131265Y-61977445D01*
X140192492Y-61875348D01*
X140281139Y-61824423D01*
X140394807Y-61825989D01*
X140403226Y-61827994D01*
X140463912Y-61856767D01*
X140508526Y-61912859D01*
X140538998Y-62003163D01*
X140557256Y-62134571D01*
X140565229Y-62313974D01*
X140565977Y-62409433D01*
X140566348Y-62559913D01*
X140568777Y-62662495D01*
X140575240Y-62727672D01*
X140587712Y-62765938D01*
X140608167Y-62787785D01*
X140638581Y-62803707D01*
X140640339Y-62804509D01*
X140698909Y-62829272D01*
X140727925Y-62838391D01*
X140732384Y-62810822D01*
X140736201Y-62734620D01*
X140739101Y-62619541D01*
X140740809Y-62475341D01*
X140741149Y-62369814D01*
X140739412Y-62165613D01*
X140732618Y-62010697D01*
X140718393Y-61896024D01*
X140694362Y-61812551D01*
X140658152Y-61751236D01*
X140607388Y-61703034D01*
X140557261Y-61669393D01*
X140436725Y-61624619D01*
X140296443Y-61614521D01*
X140164310Y-61640018D01*
X140164310Y-61640018D01*
G37*
X140164310Y-61640018D02*
X140129415Y-61655269D01*
X140046123Y-61721235D01*
X139974897Y-61816618D01*
X139930847Y-61918406D01*
X139923678Y-61968587D01*
X139947715Y-62038647D01*
X140000439Y-62075717D01*
X140056969Y-62098164D01*
X140082854Y-62102300D01*
X140095458Y-62072283D01*
X140120346Y-62006961D01*
X140131265Y-61977445D01*
X140192492Y-61875348D01*
X140281139Y-61824423D01*
X140394807Y-61825989D01*
X140403226Y-61827994D01*
X140463912Y-61856767D01*
X140508526Y-61912859D01*
X140538998Y-62003163D01*
X140557256Y-62134571D01*
X140565229Y-62313974D01*
X140565977Y-62409433D01*
X140566348Y-62559913D01*
X140568777Y-62662495D01*
X140575240Y-62727672D01*
X140587712Y-62765938D01*
X140608167Y-62787785D01*
X140638581Y-62803707D01*
X140640339Y-62804509D01*
X140698909Y-62829272D01*
X140727925Y-62838391D01*
X140732384Y-62810822D01*
X140736201Y-62734620D01*
X140739101Y-62619541D01*
X140740809Y-62475341D01*
X140741149Y-62369814D01*
X140739412Y-62165613D01*
X140732618Y-62010697D01*
X140718393Y-61896024D01*
X140694362Y-61812551D01*
X140658152Y-61751236D01*
X140607388Y-61703034D01*
X140557261Y-61669393D01*
X140436725Y-61624619D01*
X140296443Y-61614521D01*
X140164310Y-61640018D01*
G36*
X141185594Y-61635156D02*
X141101531Y-61673393D01*
X141035550Y-61719726D01*
X140987206Y-61771532D01*
X140953828Y-61838363D01*
X140932747Y-61929769D01*
X140921293Y-62055301D01*
X140916797Y-62224508D01*
X140916322Y-62335933D01*
X140916322Y-62770627D01*
X140990684Y-62804509D01*
X141049254Y-62829272D01*
X141078270Y-62838391D01*
X141083821Y-62811257D01*
X141088225Y-62738094D01*
X141090922Y-62631263D01*
X141091494Y-62546437D01*
X141093954Y-62423887D01*
X141100588Y-62326668D01*
X141110274Y-62267134D01*
X141117968Y-62254483D01*
X141169689Y-62267402D01*
X141250883Y-62300539D01*
X141344898Y-62345461D01*
X141435083Y-62393735D01*
X141504785Y-62436928D01*
X141537352Y-62466608D01*
X141537481Y-62466929D01*
X141534680Y-62521857D01*
X141509561Y-62574292D01*
X141465459Y-62616881D01*
X141401091Y-62631126D01*
X141346079Y-62629466D01*
X141268165Y-62628245D01*
X141227268Y-62646498D01*
X141202705Y-62694726D01*
X141199608Y-62703820D01*
X141188960Y-62772598D01*
X141217435Y-62814360D01*
X141291656Y-62834263D01*
X141371832Y-62837944D01*
X141516110Y-62810658D01*
X141590797Y-62771690D01*
X141683037Y-62680148D01*
X141731957Y-62567782D01*
X141736346Y-62449051D01*
X141694999Y-62338411D01*
X141632803Y-62269080D01*
X141570706Y-62230265D01*
X141473105Y-62181125D01*
X141359368Y-62131292D01*
X141340410Y-62123677D01*
X141215479Y-62068545D01*
X141143461Y-62019954D01*
X141120300Y-61971647D01*
X141141936Y-61917370D01*
X141179080Y-61874943D01*
X141266873Y-61822702D01*
X141363470Y-61818784D01*
X141452056Y-61859041D01*
X141515814Y-61939326D01*
X141524183Y-61960040D01*
X141572904Y-62036225D01*
X141644035Y-62092785D01*
X141733793Y-62139201D01*
X141733793Y-62007584D01*
X141728510Y-61927168D01*
X141705858Y-61863786D01*
X141655633Y-61796163D01*
X141607418Y-61744076D01*
X141532446Y-61670322D01*
X141474194Y-61630702D01*
X141411628Y-61614810D01*
X141340807Y-61612184D01*
X141185594Y-61635156D01*
X141185594Y-61635156D01*
G37*
X141185594Y-61635156D02*
X141101531Y-61673393D01*
X141035550Y-61719726D01*
X140987206Y-61771532D01*
X140953828Y-61838363D01*
X140932747Y-61929769D01*
X140921293Y-62055301D01*
X140916797Y-62224508D01*
X140916322Y-62335933D01*
X140916322Y-62770627D01*
X140990684Y-62804509D01*
X141049254Y-62829272D01*
X141078270Y-62838391D01*
X141083821Y-62811257D01*
X141088225Y-62738094D01*
X141090922Y-62631263D01*
X141091494Y-62546437D01*
X141093954Y-62423887D01*
X141100588Y-62326668D01*
X141110274Y-62267134D01*
X141117968Y-62254483D01*
X141169689Y-62267402D01*
X141250883Y-62300539D01*
X141344898Y-62345461D01*
X141435083Y-62393735D01*
X141504785Y-62436928D01*
X141537352Y-62466608D01*
X141537481Y-62466929D01*
X141534680Y-62521857D01*
X141509561Y-62574292D01*
X141465459Y-62616881D01*
X141401091Y-62631126D01*
X141346079Y-62629466D01*
X141268165Y-62628245D01*
X141227268Y-62646498D01*
X141202705Y-62694726D01*
X141199608Y-62703820D01*
X141188960Y-62772598D01*
X141217435Y-62814360D01*
X141291656Y-62834263D01*
X141371832Y-62837944D01*
X141516110Y-62810658D01*
X141590797Y-62771690D01*
X141683037Y-62680148D01*
X141731957Y-62567782D01*
X141736346Y-62449051D01*
X141694999Y-62338411D01*
X141632803Y-62269080D01*
X141570706Y-62230265D01*
X141473105Y-62181125D01*
X141359368Y-62131292D01*
X141340410Y-62123677D01*
X141215479Y-62068545D01*
X141143461Y-62019954D01*
X141120300Y-61971647D01*
X141141936Y-61917370D01*
X141179080Y-61874943D01*
X141266873Y-61822702D01*
X141363470Y-61818784D01*
X141452056Y-61859041D01*
X141515814Y-61939326D01*
X141524183Y-61960040D01*
X141572904Y-62036225D01*
X141644035Y-62092785D01*
X141733793Y-62139201D01*
X141733793Y-62007584D01*
X141728510Y-61927168D01*
X141705858Y-61863786D01*
X141655633Y-61796163D01*
X141607418Y-61744076D01*
X141532446Y-61670322D01*
X141474194Y-61630702D01*
X141411628Y-61614810D01*
X141340807Y-61612184D01*
X141185594Y-61635156D01*
G36*
X141919876Y-61639840D02*
X141915421Y-61716653D01*
X141911929Y-61833391D01*
X141909685Y-61980821D01*
X141908965Y-62135455D01*
X141908965Y-62658727D01*
X142001355Y-62751117D01*
X142065022Y-62808047D01*
X142120911Y-62831107D01*
X142197298Y-62829647D01*
X142227620Y-62825934D01*
X142322390Y-62815126D01*
X142400778Y-62808933D01*
X142419885Y-62808361D01*
X142484301Y-62812102D01*
X142576429Y-62821494D01*
X142612150Y-62825934D01*
X142699886Y-62832801D01*
X142758847Y-62817885D01*
X142817310Y-62771835D01*
X142838415Y-62751117D01*
X142930805Y-62658727D01*
X142930805Y-61679947D01*
X142856442Y-61646066D01*
X142792410Y-61620970D01*
X142754948Y-61612184D01*
X142745343Y-61639950D01*
X142736365Y-61717530D01*
X142728614Y-61836348D01*
X142722686Y-61987828D01*
X142719827Y-62115805D01*
X142711839Y-62619425D01*
X142642152Y-62629278D01*
X142578771Y-62622389D01*
X142547714Y-62600083D01*
X142539033Y-62558379D01*
X142531622Y-62469544D01*
X142526069Y-62344834D01*
X142522964Y-62195507D01*
X142522516Y-62118661D01*
X142522069Y-61676287D01*
X142430126Y-61644235D01*
X142365051Y-61622443D01*
X142329653Y-61612281D01*
X142328632Y-61612184D01*
X142325080Y-61639809D01*
X142321177Y-61716411D01*
X142317249Y-61832579D01*
X142313624Y-61978904D01*
X142311092Y-62115805D01*
X142303103Y-62619425D01*
X142127931Y-62619425D01*
X142119893Y-62159965D01*
X142111854Y-61700505D01*
X142026457Y-61656344D01*
X141963407Y-61626019D01*
X141926090Y-61612258D01*
X141925013Y-61612184D01*
X141919876Y-61639840D01*
X141919876Y-61639840D01*
G37*
X141919876Y-61639840D02*
X141915421Y-61716653D01*
X141911929Y-61833391D01*
X141909685Y-61980821D01*
X141908965Y-62135455D01*
X141908965Y-62658727D01*
X142001355Y-62751117D01*
X142065022Y-62808047D01*
X142120911Y-62831107D01*
X142197298Y-62829647D01*
X142227620Y-62825934D01*
X142322390Y-62815126D01*
X142400778Y-62808933D01*
X142419885Y-62808361D01*
X142484301Y-62812102D01*
X142576429Y-62821494D01*
X142612150Y-62825934D01*
X142699886Y-62832801D01*
X142758847Y-62817885D01*
X142817310Y-62771835D01*
X142838415Y-62751117D01*
X142930805Y-62658727D01*
X142930805Y-61679947D01*
X142856442Y-61646066D01*
X142792410Y-61620970D01*
X142754948Y-61612184D01*
X142745343Y-61639950D01*
X142736365Y-61717530D01*
X142728614Y-61836348D01*
X142722686Y-61987828D01*
X142719827Y-62115805D01*
X142711839Y-62619425D01*
X142642152Y-62629278D01*
X142578771Y-62622389D01*
X142547714Y-62600083D01*
X142539033Y-62558379D01*
X142531622Y-62469544D01*
X142526069Y-62344834D01*
X142522964Y-62195507D01*
X142522516Y-62118661D01*
X142522069Y-61676287D01*
X142430126Y-61644235D01*
X142365051Y-61622443D01*
X142329653Y-61612281D01*
X142328632Y-61612184D01*
X142325080Y-61639809D01*
X142321177Y-61716411D01*
X142317249Y-61832579D01*
X142313624Y-61978904D01*
X142311092Y-62115805D01*
X142303103Y-62619425D01*
X142127931Y-62619425D01*
X142119893Y-62159965D01*
X142111854Y-61700505D01*
X142026457Y-61656344D01*
X141963407Y-61626019D01*
X141926090Y-61612258D01*
X141925013Y-61612184D01*
X141919876Y-61639840D01*
G36*
X143106086Y-61854455D02*
X143106457Y-62072661D01*
X143107892Y-62240519D01*
X143110998Y-62366070D01*
X143116378Y-62457355D01*
X143124638Y-62522415D01*
X143136384Y-62569291D01*
X143152219Y-62606024D01*
X143164210Y-62626991D01*
X143263510Y-62740694D01*
X143389412Y-62811965D01*
X143528709Y-62837538D01*
X143668195Y-62814150D01*
X143751257Y-62772119D01*
X143838455Y-62699411D01*
X143897883Y-62610612D01*
X143933739Y-62494320D01*
X143950219Y-62339135D01*
X143952553Y-62225287D01*
X143952239Y-62217106D01*
X143748276Y-62217106D01*
X143747030Y-62347657D01*
X143741322Y-62434080D01*
X143728196Y-62490618D01*
X143704694Y-62531514D01*
X143676614Y-62562362D01*
X143582312Y-62621905D01*
X143481060Y-62626992D01*
X143385364Y-62577279D01*
X143377916Y-62570543D01*
X143346126Y-62535502D01*
X143326192Y-62493811D01*
X143315400Y-62431762D01*
X143311035Y-62335644D01*
X143310345Y-62229379D01*
X143311841Y-62095880D01*
X143318036Y-62006822D01*
X143331486Y-61948293D01*
X143354749Y-61906382D01*
X143373825Y-61884123D01*
X143462437Y-61827985D01*
X143564492Y-61821235D01*
X143661905Y-61864114D01*
X143680704Y-61880032D01*
X143712707Y-61915382D01*
X143732682Y-61957502D01*
X143743407Y-62020251D01*
X143747661Y-62117487D01*
X143748276Y-62217106D01*
X143952239Y-62217106D01*
X143945496Y-62041947D01*
X143921528Y-61904195D01*
X143876452Y-61800632D01*
X143806072Y-61719856D01*
X143751257Y-61678455D01*
X143651624Y-61633728D01*
X143536145Y-61612967D01*
X143428801Y-61618525D01*
X143368736Y-61640943D01*
X143345165Y-61647323D01*
X143329523Y-61623535D01*
X143318605Y-61559788D01*
X143310345Y-61462687D01*
X143301301Y-61354541D01*
X143288739Y-61289475D01*
X143265881Y-61252268D01*
X143225949Y-61227699D01*
X143200862Y-61216819D01*
X143105977Y-61177072D01*
X143106086Y-61854455D01*
X143106086Y-61854455D01*
G37*
X143106086Y-61854455D02*
X143106457Y-62072661D01*
X143107892Y-62240519D01*
X143110998Y-62366070D01*
X143116378Y-62457355D01*
X143124638Y-62522415D01*
X143136384Y-62569291D01*
X143152219Y-62606024D01*
X143164210Y-62626991D01*
X143263510Y-62740694D01*
X143389412Y-62811965D01*
X143528709Y-62837538D01*
X143668195Y-62814150D01*
X143751257Y-62772119D01*
X143838455Y-62699411D01*
X143897883Y-62610612D01*
X143933739Y-62494320D01*
X143950219Y-62339135D01*
X143952553Y-62225287D01*
X143952239Y-62217106D01*
X143748276Y-62217106D01*
X143747030Y-62347657D01*
X143741322Y-62434080D01*
X143728196Y-62490618D01*
X143704694Y-62531514D01*
X143676614Y-62562362D01*
X143582312Y-62621905D01*
X143481060Y-62626992D01*
X143385364Y-62577279D01*
X143377916Y-62570543D01*
X143346126Y-62535502D01*
X143326192Y-62493811D01*
X143315400Y-62431762D01*
X143311035Y-62335644D01*
X143310345Y-62229379D01*
X143311841Y-62095880D01*
X143318036Y-62006822D01*
X143331486Y-61948293D01*
X143354749Y-61906382D01*
X143373825Y-61884123D01*
X143462437Y-61827985D01*
X143564492Y-61821235D01*
X143661905Y-61864114D01*
X143680704Y-61880032D01*
X143712707Y-61915382D01*
X143732682Y-61957502D01*
X143743407Y-62020251D01*
X143747661Y-62117487D01*
X143748276Y-62217106D01*
X143952239Y-62217106D01*
X143945496Y-62041947D01*
X143921528Y-61904195D01*
X143876452Y-61800632D01*
X143806072Y-61719856D01*
X143751257Y-61678455D01*
X143651624Y-61633728D01*
X143536145Y-61612967D01*
X143428801Y-61618525D01*
X143368736Y-61640943D01*
X143345165Y-61647323D01*
X143329523Y-61623535D01*
X143318605Y-61559788D01*
X143310345Y-61462687D01*
X143301301Y-61354541D01*
X143288739Y-61289475D01*
X143265881Y-61252268D01*
X143225949Y-61227699D01*
X143200862Y-61216819D01*
X143105977Y-61177072D01*
X143106086Y-61854455D01*
G36*
X144434057Y-61621920D02*
X144301435Y-61670859D01*
X144193990Y-61757419D01*
X144151968Y-61818352D01*
X144106157Y-61930161D01*
X144107109Y-62011006D01*
X144155192Y-62065378D01*
X144172983Y-62074624D01*
X144249796Y-62103450D01*
X144289024Y-62096065D01*
X144302311Y-62047658D01*
X144302988Y-62020920D01*
X144327314Y-61922548D01*
X144390719Y-61853734D01*
X144478846Y-61820498D01*
X144577337Y-61828861D01*
X144657398Y-61872296D01*
X144684439Y-61897072D01*
X144703606Y-61927129D01*
X144716554Y-61972565D01*
X144724936Y-62043476D01*
X144730407Y-62149960D01*
X144734622Y-62302112D01*
X144735713Y-62350287D01*
X144739693Y-62515095D01*
X144744219Y-62631088D01*
X144751005Y-62707833D01*
X144761769Y-62754893D01*
X144778227Y-62781835D01*
X144802094Y-62798223D01*
X144817374Y-62805463D01*
X144882267Y-62830220D01*
X144920466Y-62838391D01*
X144933088Y-62811103D01*
X144940792Y-62728603D01*
X144943620Y-62589941D01*
X144941614Y-62394162D01*
X144940989Y-62363965D01*
X144936579Y-62185349D01*
X144931365Y-62054923D01*
X144923945Y-61962492D01*
X144912918Y-61897858D01*
X144896883Y-61850825D01*
X144874439Y-61811196D01*
X144862698Y-61794215D01*
X144795381Y-61719080D01*
X144720090Y-61660638D01*
X144710872Y-61655536D01*
X144575867Y-61615260D01*
X144434057Y-61621920D01*
X144434057Y-61621920D01*
G37*
X144434057Y-61621920D02*
X144301435Y-61670859D01*
X144193990Y-61757419D01*
X144151968Y-61818352D01*
X144106157Y-61930161D01*
X144107109Y-62011006D01*
X144155192Y-62065378D01*
X144172983Y-62074624D01*
X144249796Y-62103450D01*
X144289024Y-62096065D01*
X144302311Y-62047658D01*
X144302988Y-62020920D01*
X144327314Y-61922548D01*
X144390719Y-61853734D01*
X144478846Y-61820498D01*
X144577337Y-61828861D01*
X144657398Y-61872296D01*
X144684439Y-61897072D01*
X144703606Y-61927129D01*
X144716554Y-61972565D01*
X144724936Y-62043476D01*
X144730407Y-62149960D01*
X144734622Y-62302112D01*
X144735713Y-62350287D01*
X144739693Y-62515095D01*
X144744219Y-62631088D01*
X144751005Y-62707833D01*
X144761769Y-62754893D01*
X144778227Y-62781835D01*
X144802094Y-62798223D01*
X144817374Y-62805463D01*
X144882267Y-62830220D01*
X144920466Y-62838391D01*
X144933088Y-62811103D01*
X144940792Y-62728603D01*
X144943620Y-62589941D01*
X144941614Y-62394162D01*
X144940989Y-62363965D01*
X144936579Y-62185349D01*
X144931365Y-62054923D01*
X144923945Y-61962492D01*
X144912918Y-61897858D01*
X144896883Y-61850825D01*
X144874439Y-61811196D01*
X144862698Y-61794215D01*
X144795381Y-61719080D01*
X144720090Y-61660638D01*
X144710872Y-61655536D01*
X144575867Y-61615260D01*
X144434057Y-61621920D01*
G36*
X145420056Y-61624360D02*
X145305657Y-61666842D01*
X145304348Y-61667658D01*
X145233597Y-61719730D01*
X145181364Y-61780584D01*
X145144629Y-61859887D01*
X145120366Y-61967309D01*
X145105555Y-62112517D01*
X145097171Y-62305179D01*
X145096436Y-62332628D01*
X145085880Y-62746521D01*
X145174709Y-62792456D01*
X145238982Y-62823498D01*
X145277790Y-62838206D01*
X145279585Y-62838391D01*
X145286300Y-62811250D01*
X145291635Y-62738041D01*
X145294917Y-62631081D01*
X145295632Y-62544469D01*
X145295649Y-62404162D01*
X145302063Y-62316051D01*
X145324420Y-62274025D01*
X145372268Y-62271975D01*
X145455151Y-62303790D01*
X145580287Y-62362272D01*
X145672303Y-62410845D01*
X145719629Y-62452986D01*
X145733542Y-62498916D01*
X145733563Y-62501189D01*
X145710605Y-62580311D01*
X145642630Y-62623055D01*
X145538602Y-62629246D01*
X145463670Y-62628172D01*
X145424161Y-62649753D01*
X145399522Y-62701591D01*
X145385341Y-62767632D01*
X145405777Y-62805104D01*
X145413472Y-62810467D01*
X145485917Y-62832006D01*
X145587367Y-62835055D01*
X145691843Y-62820778D01*
X145765875Y-62794688D01*
X145868228Y-62707785D01*
X145926409Y-62586816D01*
X145937931Y-62492308D01*
X145929138Y-62407062D01*
X145897320Y-62337476D01*
X145834316Y-62275672D01*
X145731969Y-62213772D01*
X145582118Y-62143897D01*
X145572988Y-62139948D01*
X145438003Y-62077588D01*
X145354706Y-62026446D01*
X145319003Y-61980488D01*
X145326797Y-61933683D01*
X145373993Y-61879998D01*
X145388106Y-61867644D01*
X145482641Y-61819741D01*
X145580594Y-61821758D01*
X145665903Y-61868724D01*
X145722504Y-61955669D01*
X145727763Y-61972734D01*
X145778977Y-62055504D01*
X145843963Y-62095372D01*
X145937931Y-62134882D01*
X145937931Y-62032658D01*
X145909347Y-61884072D01*
X145824505Y-61747784D01*
X145780355Y-61702191D01*
X145679995Y-61643674D01*
X145552365Y-61617184D01*
X145420056Y-61624360D01*
X145420056Y-61624360D01*
G37*
X145420056Y-61624360D02*
X145305657Y-61666842D01*
X145304348Y-61667658D01*
X145233597Y-61719730D01*
X145181364Y-61780584D01*
X145144629Y-61859887D01*
X145120366Y-61967309D01*
X145105555Y-62112517D01*
X145097171Y-62305179D01*
X145096436Y-62332628D01*
X145085880Y-62746521D01*
X145174709Y-62792456D01*
X145238982Y-62823498D01*
X145277790Y-62838206D01*
X145279585Y-62838391D01*
X145286300Y-62811250D01*
X145291635Y-62738041D01*
X145294917Y-62631081D01*
X145295632Y-62544469D01*
X145295649Y-62404162D01*
X145302063Y-62316051D01*
X145324420Y-62274025D01*
X145372268Y-62271975D01*
X145455151Y-62303790D01*
X145580287Y-62362272D01*
X145672303Y-62410845D01*
X145719629Y-62452986D01*
X145733542Y-62498916D01*
X145733563Y-62501189D01*
X145710605Y-62580311D01*
X145642630Y-62623055D01*
X145538602Y-62629246D01*
X145463670Y-62628172D01*
X145424161Y-62649753D01*
X145399522Y-62701591D01*
X145385341Y-62767632D01*
X145405777Y-62805104D01*
X145413472Y-62810467D01*
X145485917Y-62832006D01*
X145587367Y-62835055D01*
X145691843Y-62820778D01*
X145765875Y-62794688D01*
X145868228Y-62707785D01*
X145926409Y-62586816D01*
X145937931Y-62492308D01*
X145929138Y-62407062D01*
X145897320Y-62337476D01*
X145834316Y-62275672D01*
X145731969Y-62213772D01*
X145582118Y-62143897D01*
X145572988Y-62139948D01*
X145438003Y-62077588D01*
X145354706Y-62026446D01*
X145319003Y-61980488D01*
X145326797Y-61933683D01*
X145373993Y-61879998D01*
X145388106Y-61867644D01*
X145482641Y-61819741D01*
X145580594Y-61821758D01*
X145665903Y-61868724D01*
X145722504Y-61955669D01*
X145727763Y-61972734D01*
X145778977Y-62055504D01*
X145843963Y-62095372D01*
X145937931Y-62134882D01*
X145937931Y-62032658D01*
X145909347Y-61884072D01*
X145824505Y-61747784D01*
X145780355Y-61702191D01*
X145679995Y-61643674D01*
X145552365Y-61617184D01*
X145420056Y-61624360D01*
G36*
X146755402Y-61423857D02*
X146746846Y-61543188D01*
X146737019Y-61613506D01*
X146723401Y-61644179D01*
X146703473Y-61644571D01*
X146697011Y-61640910D01*
X146611060Y-61614398D01*
X146499255Y-61615946D01*
X146385586Y-61643199D01*
X146314490Y-61678455D01*
X146241595Y-61734778D01*
X146188307Y-61798519D01*
X146151725Y-61879510D01*
X146128950Y-61987586D01*
X146117081Y-62132580D01*
X146113218Y-62324326D01*
X146113149Y-62361109D01*
X146113103Y-62774288D01*
X146205046Y-62806339D01*
X146270348Y-62828144D01*
X146306176Y-62838297D01*
X146307230Y-62838391D01*
X146310758Y-62810860D01*
X146313761Y-62734923D01*
X146316010Y-62620565D01*
X146317276Y-62477769D01*
X146317471Y-62390951D01*
X146317877Y-62219773D01*
X146319968Y-62097088D01*
X146325053Y-62013000D01*
X146334440Y-61957614D01*
X146349439Y-61921032D01*
X146371358Y-61893359D01*
X146385043Y-61880032D01*
X146479051Y-61826328D01*
X146581636Y-61822307D01*
X146674710Y-61867725D01*
X146691922Y-61884123D01*
X146717168Y-61914957D01*
X146734680Y-61951531D01*
X146745858Y-62004415D01*
X146752104Y-62084177D01*
X146754818Y-62201385D01*
X146755402Y-62362991D01*
X146755402Y-62774288D01*
X146847345Y-62806339D01*
X146912647Y-62828144D01*
X146948475Y-62838297D01*
X146949529Y-62838391D01*
X146952225Y-62810448D01*
X146954655Y-62731630D01*
X146956722Y-62609453D01*
X146958329Y-62451432D01*
X146959377Y-62265083D01*
X146959769Y-62057920D01*
X146959770Y-62048706D01*
X146959770Y-61259020D01*
X146864885Y-61218997D01*
X146770000Y-61178973D01*
X146755402Y-61423857D01*
X146755402Y-61423857D01*
G37*
X146755402Y-61423857D02*
X146746846Y-61543188D01*
X146737019Y-61613506D01*
X146723401Y-61644179D01*
X146703473Y-61644571D01*
X146697011Y-61640910D01*
X146611060Y-61614398D01*
X146499255Y-61615946D01*
X146385586Y-61643199D01*
X146314490Y-61678455D01*
X146241595Y-61734778D01*
X146188307Y-61798519D01*
X146151725Y-61879510D01*
X146128950Y-61987586D01*
X146117081Y-62132580D01*
X146113218Y-62324326D01*
X146113149Y-62361109D01*
X146113103Y-62774288D01*
X146205046Y-62806339D01*
X146270348Y-62828144D01*
X146306176Y-62838297D01*
X146307230Y-62838391D01*
X146310758Y-62810860D01*
X146313761Y-62734923D01*
X146316010Y-62620565D01*
X146317276Y-62477769D01*
X146317471Y-62390951D01*
X146317877Y-62219773D01*
X146319968Y-62097088D01*
X146325053Y-62013000D01*
X146334440Y-61957614D01*
X146349439Y-61921032D01*
X146371358Y-61893359D01*
X146385043Y-61880032D01*
X146479051Y-61826328D01*
X146581636Y-61822307D01*
X146674710Y-61867725D01*
X146691922Y-61884123D01*
X146717168Y-61914957D01*
X146734680Y-61951531D01*
X146745858Y-62004415D01*
X146752104Y-62084177D01*
X146754818Y-62201385D01*
X146755402Y-62362991D01*
X146755402Y-62774288D01*
X146847345Y-62806339D01*
X146912647Y-62828144D01*
X146948475Y-62838297D01*
X146949529Y-62838391D01*
X146952225Y-62810448D01*
X146954655Y-62731630D01*
X146956722Y-62609453D01*
X146958329Y-62451432D01*
X146959377Y-62265083D01*
X146959769Y-62057920D01*
X146959770Y-62048706D01*
X146959770Y-61259020D01*
X146864885Y-61218997D01*
X146770000Y-61178973D01*
X146755402Y-61423857D01*
G36*
X149184448Y-61584676D02*
X149069342Y-61662111D01*
X148980389Y-61773949D01*
X148927251Y-61916265D01*
X148916503Y-62021015D01*
X148917724Y-62064726D01*
X148927944Y-62098194D01*
X148956039Y-62128179D01*
X149010884Y-62161440D01*
X149101355Y-62204738D01*
X149236328Y-62264833D01*
X149237011Y-62265134D01*
X149361249Y-62322037D01*
X149463127Y-62372565D01*
X149532233Y-62411280D01*
X149558154Y-62432740D01*
X149558161Y-62432913D01*
X149535315Y-62479644D01*
X149481891Y-62531154D01*
X149420558Y-62568261D01*
X149389485Y-62575632D01*
X149304711Y-62550138D01*
X149231707Y-62486291D01*
X149196087Y-62416094D01*
X149161820Y-62364343D01*
X149094697Y-62305409D01*
X149015792Y-62254496D01*
X148946179Y-62226809D01*
X148931623Y-62225287D01*
X148915237Y-62250321D01*
X148914250Y-62314311D01*
X148926292Y-62400593D01*
X148948993Y-62492501D01*
X148979986Y-62573369D01*
X148981552Y-62576509D01*
X149074819Y-62706734D01*
X149195696Y-62795311D01*
X149332973Y-62838786D01*
X149475440Y-62833706D01*
X149611888Y-62776616D01*
X149617955Y-62772602D01*
X149725290Y-62675326D01*
X149795868Y-62548409D01*
X149834926Y-62381526D01*
X149840168Y-62334639D01*
X149849452Y-62113329D01*
X149838322Y-62010124D01*
X149558161Y-62010124D01*
X149554521Y-62074503D01*
X149534611Y-62093291D01*
X149484974Y-62079235D01*
X149406733Y-62046009D01*
X149319274Y-62004359D01*
X149317101Y-62003256D01*
X149242970Y-61964265D01*
X149213219Y-61938244D01*
X149220555Y-61910965D01*
X149251447Y-61875121D01*
X149330040Y-61823251D01*
X149414677Y-61819439D01*
X149490597Y-61857189D01*
X149543035Y-61930001D01*
X149558161Y-62010124D01*
X149838322Y-62010124D01*
X149830356Y-61936261D01*
X149781366Y-61795829D01*
X149713164Y-61697447D01*
X149590065Y-61598030D01*
X149454472Y-61548711D01*
X149316045Y-61545568D01*
X149184448Y-61584676D01*
X149184448Y-61584676D01*
G37*
X149184448Y-61584676D02*
X149069342Y-61662111D01*
X148980389Y-61773949D01*
X148927251Y-61916265D01*
X148916503Y-62021015D01*
X148917724Y-62064726D01*
X148927944Y-62098194D01*
X148956039Y-62128179D01*
X149010884Y-62161440D01*
X149101355Y-62204738D01*
X149236328Y-62264833D01*
X149237011Y-62265134D01*
X149361249Y-62322037D01*
X149463127Y-62372565D01*
X149532233Y-62411280D01*
X149558154Y-62432740D01*
X149558161Y-62432913D01*
X149535315Y-62479644D01*
X149481891Y-62531154D01*
X149420558Y-62568261D01*
X149389485Y-62575632D01*
X149304711Y-62550138D01*
X149231707Y-62486291D01*
X149196087Y-62416094D01*
X149161820Y-62364343D01*
X149094697Y-62305409D01*
X149015792Y-62254496D01*
X148946179Y-62226809D01*
X148931623Y-62225287D01*
X148915237Y-62250321D01*
X148914250Y-62314311D01*
X148926292Y-62400593D01*
X148948993Y-62492501D01*
X148979986Y-62573369D01*
X148981552Y-62576509D01*
X149074819Y-62706734D01*
X149195696Y-62795311D01*
X149332973Y-62838786D01*
X149475440Y-62833706D01*
X149611888Y-62776616D01*
X149617955Y-62772602D01*
X149725290Y-62675326D01*
X149795868Y-62548409D01*
X149834926Y-62381526D01*
X149840168Y-62334639D01*
X149849452Y-62113329D01*
X149838322Y-62010124D01*
X149558161Y-62010124D01*
X149554521Y-62074503D01*
X149534611Y-62093291D01*
X149484974Y-62079235D01*
X149406733Y-62046009D01*
X149319274Y-62004359D01*
X149317101Y-62003256D01*
X149242970Y-61964265D01*
X149213219Y-61938244D01*
X149220555Y-61910965D01*
X149251447Y-61875121D01*
X149330040Y-61823251D01*
X149414677Y-61819439D01*
X149490597Y-61857189D01*
X149543035Y-61930001D01*
X149558161Y-62010124D01*
X149838322Y-62010124D01*
X149830356Y-61936261D01*
X149781366Y-61795829D01*
X149713164Y-61697447D01*
X149590065Y-61598030D01*
X149454472Y-61548711D01*
X149316045Y-61545568D01*
X149184448Y-61584676D01*
G36*
X151451779Y-61566015D02*
X151314939Y-61637968D01*
X151213949Y-61753766D01*
X151178075Y-61828213D01*
X151150161Y-61939992D01*
X151135871Y-62081227D01*
X151134516Y-62235371D01*
X151145405Y-62385879D01*
X151167847Y-62516205D01*
X151201150Y-62609803D01*
X151211385Y-62625922D01*
X151332618Y-62746249D01*
X151476613Y-62818317D01*
X151632861Y-62839408D01*
X151790852Y-62806802D01*
X151834820Y-62787253D01*
X151920444Y-62727012D01*
X151995592Y-62647135D01*
X152002694Y-62637004D01*
X152031561Y-62588181D01*
X152050643Y-62535990D01*
X152061916Y-62467285D01*
X152067355Y-62368918D01*
X152068938Y-62227744D01*
X152068965Y-62196092D01*
X152068893Y-62186019D01*
X151777011Y-62186019D01*
X151775313Y-62319256D01*
X151768628Y-62407674D01*
X151754575Y-62464785D01*
X151730771Y-62504102D01*
X151718621Y-62517241D01*
X151648764Y-62567172D01*
X151580941Y-62564895D01*
X151512365Y-62521584D01*
X151471465Y-62475346D01*
X151447242Y-62407857D01*
X151433639Y-62301433D01*
X151432706Y-62289020D01*
X151430384Y-62096147D01*
X151454650Y-61952900D01*
X151505176Y-61860160D01*
X151581632Y-61818807D01*
X151608924Y-61816552D01*
X151680589Y-61827893D01*
X151729610Y-61867184D01*
X151759582Y-61942326D01*
X151774101Y-62061222D01*
X151777011Y-62186019D01*
X152068893Y-62186019D01*
X152067878Y-62045659D01*
X152063312Y-61940549D01*
X152053312Y-61867714D01*
X152035921Y-61814108D01*
X152009184Y-61766681D01*
X152003276Y-61757864D01*
X151903968Y-61639007D01*
X151795758Y-61570008D01*
X151664019Y-61542619D01*
X151619283Y-61541281D01*
X151451779Y-61566015D01*
X151451779Y-61566015D01*
G37*
X151451779Y-61566015D02*
X151314939Y-61637968D01*
X151213949Y-61753766D01*
X151178075Y-61828213D01*
X151150161Y-61939992D01*
X151135871Y-62081227D01*
X151134516Y-62235371D01*
X151145405Y-62385879D01*
X151167847Y-62516205D01*
X151201150Y-62609803D01*
X151211385Y-62625922D01*
X151332618Y-62746249D01*
X151476613Y-62818317D01*
X151632861Y-62839408D01*
X151790852Y-62806802D01*
X151834820Y-62787253D01*
X151920444Y-62727012D01*
X151995592Y-62647135D01*
X152002694Y-62637004D01*
X152031561Y-62588181D01*
X152050643Y-62535990D01*
X152061916Y-62467285D01*
X152067355Y-62368918D01*
X152068938Y-62227744D01*
X152068965Y-62196092D01*
X152068893Y-62186019D01*
X151777011Y-62186019D01*
X151775313Y-62319256D01*
X151768628Y-62407674D01*
X151754575Y-62464785D01*
X151730771Y-62504102D01*
X151718621Y-62517241D01*
X151648764Y-62567172D01*
X151580941Y-62564895D01*
X151512365Y-62521584D01*
X151471465Y-62475346D01*
X151447242Y-62407857D01*
X151433639Y-62301433D01*
X151432706Y-62289020D01*
X151430384Y-62096147D01*
X151454650Y-61952900D01*
X151505176Y-61860160D01*
X151581632Y-61818807D01*
X151608924Y-61816552D01*
X151680589Y-61827893D01*
X151729610Y-61867184D01*
X151759582Y-61942326D01*
X151774101Y-62061222D01*
X151777011Y-62186019D01*
X152068893Y-62186019D01*
X152067878Y-62045659D01*
X152063312Y-61940549D01*
X152053312Y-61867714D01*
X152035921Y-61814108D01*
X152009184Y-61766681D01*
X152003276Y-61757864D01*
X151903968Y-61639007D01*
X151795758Y-61570008D01*
X151664019Y-61542619D01*
X151619283Y-61541281D01*
X151451779Y-61566015D01*
G36*
X148082571Y-61577719D02*
X147988877Y-61631914D01*
X147923736Y-61685707D01*
X147876093Y-61742066D01*
X147843272Y-61810987D01*
X147822594Y-61902468D01*
X147811380Y-62026506D01*
X147806951Y-62193098D01*
X147806437Y-62312851D01*
X147806437Y-62753659D01*
X147930517Y-62809283D01*
X148054598Y-62864907D01*
X148069195Y-62382095D01*
X148075227Y-62201779D01*
X148081555Y-62070901D01*
X148089394Y-61980511D01*
X148099963Y-61921664D01*
X148114477Y-61885413D01*
X148134152Y-61862810D01*
X148140465Y-61857917D01*
X148236112Y-61819706D01*
X148332793Y-61834827D01*
X148390345Y-61874943D01*
X148413755Y-61903370D01*
X148429961Y-61940672D01*
X148440259Y-61997223D01*
X148445951Y-62083394D01*
X148448336Y-62209558D01*
X148448736Y-62341042D01*
X148448814Y-62505999D01*
X148451639Y-62622761D01*
X148461093Y-62701510D01*
X148481060Y-62752431D01*
X148515424Y-62785706D01*
X148568068Y-62811520D01*
X148638383Y-62838344D01*
X148715180Y-62867542D01*
X148706038Y-62349346D01*
X148702357Y-62162539D01*
X148698050Y-62024490D01*
X148691877Y-61925568D01*
X148682598Y-61856145D01*
X148668973Y-61806590D01*
X148649761Y-61767273D01*
X148626598Y-61732584D01*
X148514848Y-61621770D01*
X148378487Y-61557689D01*
X148230175Y-61542339D01*
X148082571Y-61577719D01*
X148082571Y-61577719D01*
G37*
X148082571Y-61577719D02*
X147988877Y-61631914D01*
X147923736Y-61685707D01*
X147876093Y-61742066D01*
X147843272Y-61810987D01*
X147822594Y-61902468D01*
X147811380Y-62026506D01*
X147806951Y-62193098D01*
X147806437Y-62312851D01*
X147806437Y-62753659D01*
X147930517Y-62809283D01*
X148054598Y-62864907D01*
X148069195Y-62382095D01*
X148075227Y-62201779D01*
X148081555Y-62070901D01*
X148089394Y-61980511D01*
X148099963Y-61921664D01*
X148114477Y-61885413D01*
X148134152Y-61862810D01*
X148140465Y-61857917D01*
X148236112Y-61819706D01*
X148332793Y-61834827D01*
X148390345Y-61874943D01*
X148413755Y-61903370D01*
X148429961Y-61940672D01*
X148440259Y-61997223D01*
X148445951Y-62083394D01*
X148448336Y-62209558D01*
X148448736Y-62341042D01*
X148448814Y-62505999D01*
X148451639Y-62622761D01*
X148461093Y-62701510D01*
X148481060Y-62752431D01*
X148515424Y-62785706D01*
X148568068Y-62811520D01*
X148638383Y-62838344D01*
X148715180Y-62867542D01*
X148706038Y-62349346D01*
X148702357Y-62162539D01*
X148698050Y-62024490D01*
X148691877Y-61925568D01*
X148682598Y-61856145D01*
X148668973Y-61806590D01*
X148649761Y-61767273D01*
X148626598Y-61732584D01*
X148514848Y-61621770D01*
X148378487Y-61557689D01*
X148230175Y-61542339D01*
X148082571Y-61577719D01*
G36*
X150328100Y-61561903D02*
X150216550Y-61617522D01*
X150118092Y-61719931D01*
X150090977Y-61757864D01*
X150061438Y-61807500D01*
X150042272Y-61861412D01*
X150031307Y-61933364D01*
X150026371Y-62037122D01*
X150025287Y-62174101D01*
X150030182Y-62361815D01*
X150047196Y-62502758D01*
X150079823Y-62607908D01*
X150131558Y-62688243D01*
X150205896Y-62754741D01*
X150211358Y-62758678D01*
X150284620Y-62798953D01*
X150372840Y-62818880D01*
X150485038Y-62823793D01*
X150667433Y-62823793D01*
X150667509Y-63000857D01*
X150669207Y-63099470D01*
X150679550Y-63157314D01*
X150706578Y-63192006D01*
X150758332Y-63221164D01*
X150770761Y-63227121D01*
X150828923Y-63255039D01*
X150873956Y-63272672D01*
X150907441Y-63274194D01*
X150930962Y-63253781D01*
X150946100Y-63205607D01*
X150954437Y-63123846D01*
X150957556Y-63002672D01*
X150957040Y-62836260D01*
X150954471Y-62618785D01*
X150953668Y-62553736D01*
X150950778Y-62329502D01*
X150948188Y-62182821D01*
X150667586Y-62182821D01*
X150666009Y-62307326D01*
X150659000Y-62388787D01*
X150643142Y-62442515D01*
X150615019Y-62483823D01*
X150595925Y-62503971D01*
X150517865Y-62562921D01*
X150448753Y-62567720D01*
X150377440Y-62519038D01*
X150375632Y-62517241D01*
X150346617Y-62479618D01*
X150328967Y-62428484D01*
X150320064Y-62349738D01*
X150317291Y-62229276D01*
X150317241Y-62202588D01*
X150323942Y-62036583D01*
X150345752Y-61921505D01*
X150385235Y-61851254D01*
X150444956Y-61819729D01*
X150479472Y-61816552D01*
X150561389Y-61831460D01*
X150617579Y-61880548D01*
X150651402Y-61970362D01*
X150666220Y-62107445D01*
X150667586Y-62182821D01*
X150948188Y-62182821D01*
X150947713Y-62155952D01*
X150943753Y-62025382D01*
X150938174Y-61930087D01*
X150930254Y-61862364D01*
X150919269Y-61814507D01*
X150904499Y-61778813D01*
X150885218Y-61747578D01*
X150876951Y-61735824D01*
X150767288Y-61624797D01*
X150628635Y-61561847D01*
X150468246Y-61544297D01*
X150328100Y-61561903D01*
X150328100Y-61561903D01*
G37*
X150328100Y-61561903D02*
X150216550Y-61617522D01*
X150118092Y-61719931D01*
X150090977Y-61757864D01*
X150061438Y-61807500D01*
X150042272Y-61861412D01*
X150031307Y-61933364D01*
X150026371Y-62037122D01*
X150025287Y-62174101D01*
X150030182Y-62361815D01*
X150047196Y-62502758D01*
X150079823Y-62607908D01*
X150131558Y-62688243D01*
X150205896Y-62754741D01*
X150211358Y-62758678D01*
X150284620Y-62798953D01*
X150372840Y-62818880D01*
X150485038Y-62823793D01*
X150667433Y-62823793D01*
X150667509Y-63000857D01*
X150669207Y-63099470D01*
X150679550Y-63157314D01*
X150706578Y-63192006D01*
X150758332Y-63221164D01*
X150770761Y-63227121D01*
X150828923Y-63255039D01*
X150873956Y-63272672D01*
X150907441Y-63274194D01*
X150930962Y-63253781D01*
X150946100Y-63205607D01*
X150954437Y-63123846D01*
X150957556Y-63002672D01*
X150957040Y-62836260D01*
X150954471Y-62618785D01*
X150953668Y-62553736D01*
X150950778Y-62329502D01*
X150948188Y-62182821D01*
X150667586Y-62182821D01*
X150666009Y-62307326D01*
X150659000Y-62388787D01*
X150643142Y-62442515D01*
X150615019Y-62483823D01*
X150595925Y-62503971D01*
X150517865Y-62562921D01*
X150448753Y-62567720D01*
X150377440Y-62519038D01*
X150375632Y-62517241D01*
X150346617Y-62479618D01*
X150328967Y-62428484D01*
X150320064Y-62349738D01*
X150317291Y-62229276D01*
X150317241Y-62202588D01*
X150323942Y-62036583D01*
X150345752Y-61921505D01*
X150385235Y-61851254D01*
X150444956Y-61819729D01*
X150479472Y-61816552D01*
X150561389Y-61831460D01*
X150617579Y-61880548D01*
X150651402Y-61970362D01*
X150666220Y-62107445D01*
X150667586Y-62182821D01*
X150948188Y-62182821D01*
X150947713Y-62155952D01*
X150943753Y-62025382D01*
X150938174Y-61930087D01*
X150930254Y-61862364D01*
X150919269Y-61814507D01*
X150904499Y-61778813D01*
X150885218Y-61747578D01*
X150876951Y-61735824D01*
X150767288Y-61624797D01*
X150628635Y-61561847D01*
X150468246Y-61544297D01*
X150328100Y-61561903D01*
G04 #@! TO.C,JP6*
D11*
X81732280Y-61717223D02*
X82446566Y-61717223D01*
X82589423Y-61669604D01*
X82684661Y-61574366D01*
X82732280Y-61431509D01*
X82732280Y-61336271D01*
X82732280Y-62193414D02*
X81732280Y-62193414D01*
X81732280Y-62574366D01*
X81779900Y-62669604D01*
X81827519Y-62717223D01*
X81922757Y-62764842D01*
X82065614Y-62764842D01*
X82160852Y-62717223D01*
X82208471Y-62669604D01*
X82256090Y-62574366D01*
X82256090Y-62193414D01*
X81732280Y-63621985D02*
X81732280Y-63431509D01*
X81779900Y-63336271D01*
X81827519Y-63288652D01*
X81970376Y-63193414D01*
X82160852Y-63145795D01*
X82541804Y-63145795D01*
X82637042Y-63193414D01*
X82684661Y-63241033D01*
X82732280Y-63336271D01*
X82732280Y-63526747D01*
X82684661Y-63621985D01*
X82637042Y-63669604D01*
X82541804Y-63717223D01*
X82303709Y-63717223D01*
X82208471Y-63669604D01*
X82160852Y-63621985D01*
X82113233Y-63526747D01*
X82113233Y-63336271D01*
X82160852Y-63241033D01*
X82208471Y-63193414D01*
X82303709Y-63145795D01*
G04 #@! TO.C,JP5*
X86732280Y-61717223D02*
X87446566Y-61717223D01*
X87589423Y-61669604D01*
X87684661Y-61574366D01*
X87732280Y-61431509D01*
X87732280Y-61336271D01*
X87732280Y-62193414D02*
X86732280Y-62193414D01*
X86732280Y-62574366D01*
X86779900Y-62669604D01*
X86827519Y-62717223D01*
X86922757Y-62764842D01*
X87065614Y-62764842D01*
X87160852Y-62717223D01*
X87208471Y-62669604D01*
X87256090Y-62574366D01*
X87256090Y-62193414D01*
X86732280Y-63669604D02*
X86732280Y-63193414D01*
X87208471Y-63145795D01*
X87160852Y-63193414D01*
X87113233Y-63288652D01*
X87113233Y-63526747D01*
X87160852Y-63621985D01*
X87208471Y-63669604D01*
X87303709Y-63717223D01*
X87541804Y-63717223D01*
X87637042Y-63669604D01*
X87684661Y-63621985D01*
X87732280Y-63526747D01*
X87732280Y-63288652D01*
X87684661Y-63193414D01*
X87637042Y-63145795D01*
G04 #@! TO.C,JP3*
X96732280Y-61717223D02*
X97446566Y-61717223D01*
X97589423Y-61669604D01*
X97684661Y-61574366D01*
X97732280Y-61431509D01*
X97732280Y-61336271D01*
X97732280Y-62193414D02*
X96732280Y-62193414D01*
X96732280Y-62574366D01*
X96779900Y-62669604D01*
X96827519Y-62717223D01*
X96922757Y-62764842D01*
X97065614Y-62764842D01*
X97160852Y-62717223D01*
X97208471Y-62669604D01*
X97256090Y-62574366D01*
X97256090Y-62193414D01*
X96732280Y-63098176D02*
X96732280Y-63717223D01*
X97113233Y-63383890D01*
X97113233Y-63526747D01*
X97160852Y-63621985D01*
X97208471Y-63669604D01*
X97303709Y-63717223D01*
X97541804Y-63717223D01*
X97637042Y-63669604D01*
X97684661Y-63621985D01*
X97732280Y-63526747D01*
X97732280Y-63241033D01*
X97684661Y-63145795D01*
X97637042Y-63098176D01*
G04 #@! TO.C,JP2*
X105332280Y-61717223D02*
X106046566Y-61717223D01*
X106189423Y-61669604D01*
X106284661Y-61574366D01*
X106332280Y-61431509D01*
X106332280Y-61336271D01*
X106332280Y-62193414D02*
X105332280Y-62193414D01*
X105332280Y-62574366D01*
X105379900Y-62669604D01*
X105427519Y-62717223D01*
X105522757Y-62764842D01*
X105665614Y-62764842D01*
X105760852Y-62717223D01*
X105808471Y-62669604D01*
X105856090Y-62574366D01*
X105856090Y-62193414D01*
X105427519Y-63145795D02*
X105379900Y-63193414D01*
X105332280Y-63288652D01*
X105332280Y-63526747D01*
X105379900Y-63621985D01*
X105427519Y-63669604D01*
X105522757Y-63717223D01*
X105617995Y-63717223D01*
X105760852Y-63669604D01*
X106332280Y-63098176D01*
X106332280Y-63717223D01*
G04 #@! TO.C,JP1*
X110332280Y-61717223D02*
X111046566Y-61717223D01*
X111189423Y-61669604D01*
X111284661Y-61574366D01*
X111332280Y-61431509D01*
X111332280Y-61336271D01*
X111332280Y-62193414D02*
X110332280Y-62193414D01*
X110332280Y-62574366D01*
X110379900Y-62669604D01*
X110427519Y-62717223D01*
X110522757Y-62764842D01*
X110665614Y-62764842D01*
X110760852Y-62717223D01*
X110808471Y-62669604D01*
X110856090Y-62574366D01*
X110856090Y-62193414D01*
X111332280Y-63717223D02*
X111332280Y-63145795D01*
X111332280Y-63431509D02*
X110332280Y-63431509D01*
X110475138Y-63336271D01*
X110570376Y-63241033D01*
X110617995Y-63145795D01*
G04 #@! TO.C,JP4*
X91732280Y-61416666D02*
X92446566Y-61416666D01*
X92589423Y-61369047D01*
X92684661Y-61273809D01*
X92732280Y-61130952D01*
X92732280Y-61035714D01*
X92732280Y-61892857D02*
X91732280Y-61892857D01*
X91732280Y-62273809D01*
X91779900Y-62369047D01*
X91827519Y-62416666D01*
X91922757Y-62464285D01*
X92065614Y-62464285D01*
X92160852Y-62416666D01*
X92208471Y-62369047D01*
X92256090Y-62273809D01*
X92256090Y-61892857D01*
X92065614Y-63321428D02*
X92732280Y-63321428D01*
X91684661Y-63083333D02*
X92398947Y-62845238D01*
X92398947Y-63464285D01*
G04 #@! TD*
M02*
