M48
;DRILL file {KiCad 5.0.0} date Sun Nov 11 17:05:39 2018
;FORMAT={-:-/ absolute / inch / decimal}
FMAT,2
INCH,TZ
T1C0.0157
T2C0.0236
T3C0.0394
T4C0.0472
T5C0.0689
%
G90
G05
M72
T1
X3.1594Y-2.1358
X3.2087Y-2.1358
X3.2874Y-1.9685
X3.3071Y-2.9528
X3.4055Y-3.1299
X3.4055Y-3.2283
X3.4252Y-2.0079
X3.4252Y-2.0472
X3.4252Y-2.0866
X3.4252Y-2.5984
X3.4252Y-2.7953
X3.4449Y-3.1299
X3.4449Y-3.2283
X3.4547Y-2.7559
X3.4567Y-2.4114
X3.4646Y-2.0079
X3.4646Y-2.0472
X3.4646Y-2.0866
X3.4843Y-2.2736
X3.4843Y-3.1299
X3.4843Y-3.2283
X3.5118Y-2.811
X3.5157Y-2.3504
X3.5236Y-2.2736
X3.5236Y-3.1299
X3.5236Y-3.2283
X3.5531Y-2.2146
X3.5551Y-2.311
X3.5551Y-2.811
X3.5925Y-2.2146
X3.5945Y-2.2717
X3.622Y-3.1004
X3.6339Y-2.2323
X3.6409Y-2.5779
X3.6417Y-2.4311
X3.6516Y-2.3819
X3.6713Y-2.9232
X3.7047Y-2.5984
X3.7205Y-2.1949
X3.748Y-2.5157
X3.7697Y-2.3228
X3.7697Y-2.372
X3.7795Y-2.4409
X3.7795Y-3.0315
X3.8091Y-2.5984
X3.8189Y-3.002
X3.8228Y-2.6969
X3.878Y-1.9882
X3.8976Y-2.185
X3.9173Y-2.6476
X3.9567Y-2.628
X3.9567Y-2.9528
X3.9921Y-2.874
X3.9961Y-2.7913
X4.0157Y-3.2972
X4.1732Y-2.2441
X4.1929Y-2.9331
X4.2323Y-2.9331
X4.252Y-2.2638
X4.252Y-3.3071
X4.2618Y-2.5591
X4.4094Y-2.2244
X4.439Y-2.5492
X4.5276Y-2.9134
X4.6063Y-2.2047
X4.6063Y-3.2677
X4.685Y-2.5984
X4.7047Y-2.8789
X4.7244Y-2.2047
X4.7244Y-2.5984
X4.7244Y-3.2283
X4.7244Y-3.2677
X4.7343Y-2.9429
X4.7638Y-2.5984
X4.8031Y-2.5984
X4.8228Y-2.9331
X4.9213Y-2.5591
X4.9213Y-3.2677
X4.9508Y-2.9035
X5.0394Y-2.1654
X5.0394Y-2.2023
X5.0394Y-2.5591
X5.0394Y-2.9134
X5.0394Y-3.2677
X5.2362Y-2.5591
X5.2362Y-3.2677
X5.3351Y-2.185
X5.3543Y-2.5197
X5.3543Y-2.5591
X5.3543Y-2.874
X5.3543Y-2.9134
X5.3543Y-3.2677
X5.3642Y-2.1752
X5.3898Y-2.0591
X5.4921Y-3.0118
X5.5315Y-2.8937
X5.5413Y-2.6575
X5.5413Y-3.2382
X5.5413Y-3.3661
X5.5512Y-2.5197
X5.6476Y-2.0807
X5.6634Y-2.2087
X5.6693Y-2.4823
X5.6693Y-2.5591
X5.6693Y-2.874
X5.6693Y-2.9134
X5.6693Y-3.2283
X5.6693Y-3.2677
X5.7539Y-2.2087
X5.8661Y-2.0866
T2
X3.4055Y-2.2835
X3.4055Y-2.3425
X3.1693Y-2.2441
X3.2283Y-2.2441
T3
X3.0693Y-2.9173
X3.1693Y-2.9173
T4
X3.0551Y-3.1398
X3.0551Y-3.2776
X3.0551Y-2.5098
X3.0551Y-2.6476
T5
X6.0728Y-2.0641
X6.0728Y-2.23
X6.0728Y-2.396
X6.0728Y-2.5619
X6.0728Y-2.7278
X6.0728Y-2.8937
X6.0728Y-3.0596
X6.0728Y-3.2255
X6.2205Y-2.0641
X6.2205Y-2.23
X6.2205Y-2.396
X6.2205Y-2.5619
X6.2205Y-2.7278
X6.2205Y-2.8937
X6.2205Y-3.0596
X6.2205Y-3.2255
T0
M30
