G04 #@! TF.GenerationSoftware,KiCad,Pcbnew,5.0.0*
G04 #@! TF.CreationDate,2018-11-11T17:05:44-05:00*
G04 #@! TF.ProjectId,I2C_PWM_Driver,4932435F50574D5F4472697665722E6B,rev?*
G04 #@! TF.SameCoordinates,Original*
G04 #@! TF.FileFunction,Soldermask,Bot*
G04 #@! TF.FilePolarity,Negative*
%FSLAX46Y46*%
G04 Gerber Fmt 4.6, Leading zero omitted, Abs format (unit mm)*
G04 Created by KiCad (PCBNEW 5.0.0) date Sun Nov 11 17:05:44 2018*
%MOMM*%
%LPD*%
G01*
G04 APERTURE LIST*
%ADD10C,2.400000*%
%ADD11R,2.100000X2.100000*%
%ADD12O,2.100000X2.100000*%
%ADD13C,2.900000*%
%ADD14C,1.600000*%
%ADD15R,1.600000X1.600000*%
%ADD16C,0.500000*%
%ADD17C,0.100000*%
G04 APERTURE END LIST*
D10*
G04 #@! TO.C,J1*
X77600000Y-63750000D03*
X77600000Y-67250000D03*
G04 #@! TD*
G04 #@! TO.C,J3*
X77600000Y-79750000D03*
X77600000Y-83250000D03*
G04 #@! TD*
D11*
G04 #@! TO.C,J2*
X80500000Y-74100000D03*
D12*
X77960000Y-74100000D03*
G04 #@! TD*
D13*
G04 #@! TO.C,J4*
X158000000Y-81928572D03*
X158000000Y-77714282D03*
X158000000Y-73499997D03*
X158000000Y-69285712D03*
X158000000Y-65071427D03*
X158000000Y-60857142D03*
X158000000Y-56642857D03*
X158000000Y-52428572D03*
X154250000Y-81928572D03*
X154250000Y-77714282D03*
X154250000Y-73499997D03*
X154250000Y-69285712D03*
X154250000Y-65071427D03*
X154250000Y-60857142D03*
X154250000Y-56642857D03*
X154250000Y-52428572D03*
G04 #@! TD*
D14*
G04 #@! TO.C,C2*
X80500000Y-57000000D03*
D15*
X82000000Y-57000000D03*
G04 #@! TD*
G04 #@! TO.C,C4*
X86500000Y-58000000D03*
D14*
X86500000Y-59500000D03*
G04 #@! TD*
D16*
G04 #@! TO.C,JP6*
X84079900Y-61900557D03*
D17*
G36*
X85026057Y-62439575D02*
X85014676Y-62477094D01*
X84996194Y-62511671D01*
X84971321Y-62541978D01*
X84941014Y-62566851D01*
X84906437Y-62585333D01*
X84868918Y-62596714D01*
X84829900Y-62600557D01*
X83329900Y-62600557D01*
X83290882Y-62596714D01*
X83253363Y-62585333D01*
X83218786Y-62566851D01*
X83188479Y-62541978D01*
X83163606Y-62511671D01*
X83145124Y-62477094D01*
X83133743Y-62439575D01*
X83129900Y-62400557D01*
X83129900Y-61900557D01*
X83130502Y-61894445D01*
X83130502Y-61876023D01*
X83131465Y-61856417D01*
X83136275Y-61807586D01*
X83139154Y-61788177D01*
X83148726Y-61740052D01*
X83153496Y-61721009D01*
X83167740Y-61674054D01*
X83174351Y-61655577D01*
X83193128Y-61610244D01*
X83201523Y-61592496D01*
X83224654Y-61549223D01*
X83234740Y-61532395D01*
X83262000Y-61491596D01*
X83273695Y-61475827D01*
X83304823Y-61437898D01*
X83318003Y-61423357D01*
X83352700Y-61388660D01*
X83367241Y-61375480D01*
X83405170Y-61344352D01*
X83420939Y-61332657D01*
X83461738Y-61305397D01*
X83478566Y-61295311D01*
X83521839Y-61272180D01*
X83539587Y-61263785D01*
X83584920Y-61245008D01*
X83603397Y-61238397D01*
X83650352Y-61224153D01*
X83669395Y-61219383D01*
X83717520Y-61209811D01*
X83736929Y-61206932D01*
X83785760Y-61202122D01*
X83805366Y-61201159D01*
X83823788Y-61201159D01*
X83829900Y-61200557D01*
X84329900Y-61200557D01*
X84336012Y-61201159D01*
X84354434Y-61201159D01*
X84374040Y-61202122D01*
X84422871Y-61206932D01*
X84442280Y-61209811D01*
X84490405Y-61219383D01*
X84509448Y-61224153D01*
X84556403Y-61238397D01*
X84574880Y-61245008D01*
X84620213Y-61263785D01*
X84637961Y-61272180D01*
X84681234Y-61295311D01*
X84698062Y-61305397D01*
X84738861Y-61332657D01*
X84754630Y-61344352D01*
X84792559Y-61375480D01*
X84807100Y-61388660D01*
X84841797Y-61423357D01*
X84854977Y-61437898D01*
X84886105Y-61475827D01*
X84897800Y-61491596D01*
X84925060Y-61532395D01*
X84935146Y-61549223D01*
X84958277Y-61592496D01*
X84966672Y-61610244D01*
X84985449Y-61655577D01*
X84992060Y-61674054D01*
X85006304Y-61721009D01*
X85011074Y-61740052D01*
X85020646Y-61788177D01*
X85023525Y-61807586D01*
X85028335Y-61856417D01*
X85029298Y-61876023D01*
X85029298Y-61894445D01*
X85029900Y-61900557D01*
X85029900Y-62400557D01*
X85026057Y-62439575D01*
X85026057Y-62439575D01*
G37*
D16*
X84079900Y-63200557D03*
D17*
G36*
X85029298Y-63206669D02*
X85029298Y-63225091D01*
X85028335Y-63244697D01*
X85023525Y-63293528D01*
X85020646Y-63312937D01*
X85011074Y-63361062D01*
X85006304Y-63380105D01*
X84992060Y-63427060D01*
X84985449Y-63445537D01*
X84966672Y-63490870D01*
X84958277Y-63508618D01*
X84935146Y-63551891D01*
X84925060Y-63568719D01*
X84897800Y-63609518D01*
X84886105Y-63625287D01*
X84854977Y-63663216D01*
X84841797Y-63677757D01*
X84807100Y-63712454D01*
X84792559Y-63725634D01*
X84754630Y-63756762D01*
X84738861Y-63768457D01*
X84698062Y-63795717D01*
X84681234Y-63805803D01*
X84637961Y-63828934D01*
X84620213Y-63837329D01*
X84574880Y-63856106D01*
X84556403Y-63862717D01*
X84509448Y-63876961D01*
X84490405Y-63881731D01*
X84442280Y-63891303D01*
X84422871Y-63894182D01*
X84374040Y-63898992D01*
X84354434Y-63899955D01*
X84336012Y-63899955D01*
X84329900Y-63900557D01*
X83829900Y-63900557D01*
X83823788Y-63899955D01*
X83805366Y-63899955D01*
X83785760Y-63898992D01*
X83736929Y-63894182D01*
X83717520Y-63891303D01*
X83669395Y-63881731D01*
X83650352Y-63876961D01*
X83603397Y-63862717D01*
X83584920Y-63856106D01*
X83539587Y-63837329D01*
X83521839Y-63828934D01*
X83478566Y-63805803D01*
X83461738Y-63795717D01*
X83420939Y-63768457D01*
X83405170Y-63756762D01*
X83367241Y-63725634D01*
X83352700Y-63712454D01*
X83318003Y-63677757D01*
X83304823Y-63663216D01*
X83273695Y-63625287D01*
X83262000Y-63609518D01*
X83234740Y-63568719D01*
X83224654Y-63551891D01*
X83201523Y-63508618D01*
X83193128Y-63490870D01*
X83174351Y-63445537D01*
X83167740Y-63427060D01*
X83153496Y-63380105D01*
X83148726Y-63361062D01*
X83139154Y-63312937D01*
X83136275Y-63293528D01*
X83131465Y-63244697D01*
X83130502Y-63225091D01*
X83130502Y-63206669D01*
X83129900Y-63200557D01*
X83129900Y-62700557D01*
X83133743Y-62661539D01*
X83145124Y-62624020D01*
X83163606Y-62589443D01*
X83188479Y-62559136D01*
X83218786Y-62534263D01*
X83253363Y-62515781D01*
X83290882Y-62504400D01*
X83329900Y-62500557D01*
X84829900Y-62500557D01*
X84868918Y-62504400D01*
X84906437Y-62515781D01*
X84941014Y-62534263D01*
X84971321Y-62559136D01*
X84996194Y-62589443D01*
X85014676Y-62624020D01*
X85026057Y-62661539D01*
X85029900Y-62700557D01*
X85029900Y-63200557D01*
X85029298Y-63206669D01*
X85029298Y-63206669D01*
G37*
G04 #@! TD*
D16*
G04 #@! TO.C,JP5*
X89079900Y-63200557D03*
D17*
G36*
X90029298Y-63206669D02*
X90029298Y-63225091D01*
X90028335Y-63244697D01*
X90023525Y-63293528D01*
X90020646Y-63312937D01*
X90011074Y-63361062D01*
X90006304Y-63380105D01*
X89992060Y-63427060D01*
X89985449Y-63445537D01*
X89966672Y-63490870D01*
X89958277Y-63508618D01*
X89935146Y-63551891D01*
X89925060Y-63568719D01*
X89897800Y-63609518D01*
X89886105Y-63625287D01*
X89854977Y-63663216D01*
X89841797Y-63677757D01*
X89807100Y-63712454D01*
X89792559Y-63725634D01*
X89754630Y-63756762D01*
X89738861Y-63768457D01*
X89698062Y-63795717D01*
X89681234Y-63805803D01*
X89637961Y-63828934D01*
X89620213Y-63837329D01*
X89574880Y-63856106D01*
X89556403Y-63862717D01*
X89509448Y-63876961D01*
X89490405Y-63881731D01*
X89442280Y-63891303D01*
X89422871Y-63894182D01*
X89374040Y-63898992D01*
X89354434Y-63899955D01*
X89336012Y-63899955D01*
X89329900Y-63900557D01*
X88829900Y-63900557D01*
X88823788Y-63899955D01*
X88805366Y-63899955D01*
X88785760Y-63898992D01*
X88736929Y-63894182D01*
X88717520Y-63891303D01*
X88669395Y-63881731D01*
X88650352Y-63876961D01*
X88603397Y-63862717D01*
X88584920Y-63856106D01*
X88539587Y-63837329D01*
X88521839Y-63828934D01*
X88478566Y-63805803D01*
X88461738Y-63795717D01*
X88420939Y-63768457D01*
X88405170Y-63756762D01*
X88367241Y-63725634D01*
X88352700Y-63712454D01*
X88318003Y-63677757D01*
X88304823Y-63663216D01*
X88273695Y-63625287D01*
X88262000Y-63609518D01*
X88234740Y-63568719D01*
X88224654Y-63551891D01*
X88201523Y-63508618D01*
X88193128Y-63490870D01*
X88174351Y-63445537D01*
X88167740Y-63427060D01*
X88153496Y-63380105D01*
X88148726Y-63361062D01*
X88139154Y-63312937D01*
X88136275Y-63293528D01*
X88131465Y-63244697D01*
X88130502Y-63225091D01*
X88130502Y-63206669D01*
X88129900Y-63200557D01*
X88129900Y-62700557D01*
X88133743Y-62661539D01*
X88145124Y-62624020D01*
X88163606Y-62589443D01*
X88188479Y-62559136D01*
X88218786Y-62534263D01*
X88253363Y-62515781D01*
X88290882Y-62504400D01*
X88329900Y-62500557D01*
X89829900Y-62500557D01*
X89868918Y-62504400D01*
X89906437Y-62515781D01*
X89941014Y-62534263D01*
X89971321Y-62559136D01*
X89996194Y-62589443D01*
X90014676Y-62624020D01*
X90026057Y-62661539D01*
X90029900Y-62700557D01*
X90029900Y-63200557D01*
X90029298Y-63206669D01*
X90029298Y-63206669D01*
G37*
D16*
X89079900Y-61900557D03*
D17*
G36*
X90026057Y-62439575D02*
X90014676Y-62477094D01*
X89996194Y-62511671D01*
X89971321Y-62541978D01*
X89941014Y-62566851D01*
X89906437Y-62585333D01*
X89868918Y-62596714D01*
X89829900Y-62600557D01*
X88329900Y-62600557D01*
X88290882Y-62596714D01*
X88253363Y-62585333D01*
X88218786Y-62566851D01*
X88188479Y-62541978D01*
X88163606Y-62511671D01*
X88145124Y-62477094D01*
X88133743Y-62439575D01*
X88129900Y-62400557D01*
X88129900Y-61900557D01*
X88130502Y-61894445D01*
X88130502Y-61876023D01*
X88131465Y-61856417D01*
X88136275Y-61807586D01*
X88139154Y-61788177D01*
X88148726Y-61740052D01*
X88153496Y-61721009D01*
X88167740Y-61674054D01*
X88174351Y-61655577D01*
X88193128Y-61610244D01*
X88201523Y-61592496D01*
X88224654Y-61549223D01*
X88234740Y-61532395D01*
X88262000Y-61491596D01*
X88273695Y-61475827D01*
X88304823Y-61437898D01*
X88318003Y-61423357D01*
X88352700Y-61388660D01*
X88367241Y-61375480D01*
X88405170Y-61344352D01*
X88420939Y-61332657D01*
X88461738Y-61305397D01*
X88478566Y-61295311D01*
X88521839Y-61272180D01*
X88539587Y-61263785D01*
X88584920Y-61245008D01*
X88603397Y-61238397D01*
X88650352Y-61224153D01*
X88669395Y-61219383D01*
X88717520Y-61209811D01*
X88736929Y-61206932D01*
X88785760Y-61202122D01*
X88805366Y-61201159D01*
X88823788Y-61201159D01*
X88829900Y-61200557D01*
X89329900Y-61200557D01*
X89336012Y-61201159D01*
X89354434Y-61201159D01*
X89374040Y-61202122D01*
X89422871Y-61206932D01*
X89442280Y-61209811D01*
X89490405Y-61219383D01*
X89509448Y-61224153D01*
X89556403Y-61238397D01*
X89574880Y-61245008D01*
X89620213Y-61263785D01*
X89637961Y-61272180D01*
X89681234Y-61295311D01*
X89698062Y-61305397D01*
X89738861Y-61332657D01*
X89754630Y-61344352D01*
X89792559Y-61375480D01*
X89807100Y-61388660D01*
X89841797Y-61423357D01*
X89854977Y-61437898D01*
X89886105Y-61475827D01*
X89897800Y-61491596D01*
X89925060Y-61532395D01*
X89935146Y-61549223D01*
X89958277Y-61592496D01*
X89966672Y-61610244D01*
X89985449Y-61655577D01*
X89992060Y-61674054D01*
X90006304Y-61721009D01*
X90011074Y-61740052D01*
X90020646Y-61788177D01*
X90023525Y-61807586D01*
X90028335Y-61856417D01*
X90029298Y-61876023D01*
X90029298Y-61894445D01*
X90029900Y-61900557D01*
X90029900Y-62400557D01*
X90026057Y-62439575D01*
X90026057Y-62439575D01*
G37*
G04 #@! TD*
D16*
G04 #@! TO.C,JP3*
X99079900Y-61900557D03*
D17*
G36*
X100026057Y-62439575D02*
X100014676Y-62477094D01*
X99996194Y-62511671D01*
X99971321Y-62541978D01*
X99941014Y-62566851D01*
X99906437Y-62585333D01*
X99868918Y-62596714D01*
X99829900Y-62600557D01*
X98329900Y-62600557D01*
X98290882Y-62596714D01*
X98253363Y-62585333D01*
X98218786Y-62566851D01*
X98188479Y-62541978D01*
X98163606Y-62511671D01*
X98145124Y-62477094D01*
X98133743Y-62439575D01*
X98129900Y-62400557D01*
X98129900Y-61900557D01*
X98130502Y-61894445D01*
X98130502Y-61876023D01*
X98131465Y-61856417D01*
X98136275Y-61807586D01*
X98139154Y-61788177D01*
X98148726Y-61740052D01*
X98153496Y-61721009D01*
X98167740Y-61674054D01*
X98174351Y-61655577D01*
X98193128Y-61610244D01*
X98201523Y-61592496D01*
X98224654Y-61549223D01*
X98234740Y-61532395D01*
X98262000Y-61491596D01*
X98273695Y-61475827D01*
X98304823Y-61437898D01*
X98318003Y-61423357D01*
X98352700Y-61388660D01*
X98367241Y-61375480D01*
X98405170Y-61344352D01*
X98420939Y-61332657D01*
X98461738Y-61305397D01*
X98478566Y-61295311D01*
X98521839Y-61272180D01*
X98539587Y-61263785D01*
X98584920Y-61245008D01*
X98603397Y-61238397D01*
X98650352Y-61224153D01*
X98669395Y-61219383D01*
X98717520Y-61209811D01*
X98736929Y-61206932D01*
X98785760Y-61202122D01*
X98805366Y-61201159D01*
X98823788Y-61201159D01*
X98829900Y-61200557D01*
X99329900Y-61200557D01*
X99336012Y-61201159D01*
X99354434Y-61201159D01*
X99374040Y-61202122D01*
X99422871Y-61206932D01*
X99442280Y-61209811D01*
X99490405Y-61219383D01*
X99509448Y-61224153D01*
X99556403Y-61238397D01*
X99574880Y-61245008D01*
X99620213Y-61263785D01*
X99637961Y-61272180D01*
X99681234Y-61295311D01*
X99698062Y-61305397D01*
X99738861Y-61332657D01*
X99754630Y-61344352D01*
X99792559Y-61375480D01*
X99807100Y-61388660D01*
X99841797Y-61423357D01*
X99854977Y-61437898D01*
X99886105Y-61475827D01*
X99897800Y-61491596D01*
X99925060Y-61532395D01*
X99935146Y-61549223D01*
X99958277Y-61592496D01*
X99966672Y-61610244D01*
X99985449Y-61655577D01*
X99992060Y-61674054D01*
X100006304Y-61721009D01*
X100011074Y-61740052D01*
X100020646Y-61788177D01*
X100023525Y-61807586D01*
X100028335Y-61856417D01*
X100029298Y-61876023D01*
X100029298Y-61894445D01*
X100029900Y-61900557D01*
X100029900Y-62400557D01*
X100026057Y-62439575D01*
X100026057Y-62439575D01*
G37*
D16*
X99079900Y-63200557D03*
D17*
G36*
X100029298Y-63206669D02*
X100029298Y-63225091D01*
X100028335Y-63244697D01*
X100023525Y-63293528D01*
X100020646Y-63312937D01*
X100011074Y-63361062D01*
X100006304Y-63380105D01*
X99992060Y-63427060D01*
X99985449Y-63445537D01*
X99966672Y-63490870D01*
X99958277Y-63508618D01*
X99935146Y-63551891D01*
X99925060Y-63568719D01*
X99897800Y-63609518D01*
X99886105Y-63625287D01*
X99854977Y-63663216D01*
X99841797Y-63677757D01*
X99807100Y-63712454D01*
X99792559Y-63725634D01*
X99754630Y-63756762D01*
X99738861Y-63768457D01*
X99698062Y-63795717D01*
X99681234Y-63805803D01*
X99637961Y-63828934D01*
X99620213Y-63837329D01*
X99574880Y-63856106D01*
X99556403Y-63862717D01*
X99509448Y-63876961D01*
X99490405Y-63881731D01*
X99442280Y-63891303D01*
X99422871Y-63894182D01*
X99374040Y-63898992D01*
X99354434Y-63899955D01*
X99336012Y-63899955D01*
X99329900Y-63900557D01*
X98829900Y-63900557D01*
X98823788Y-63899955D01*
X98805366Y-63899955D01*
X98785760Y-63898992D01*
X98736929Y-63894182D01*
X98717520Y-63891303D01*
X98669395Y-63881731D01*
X98650352Y-63876961D01*
X98603397Y-63862717D01*
X98584920Y-63856106D01*
X98539587Y-63837329D01*
X98521839Y-63828934D01*
X98478566Y-63805803D01*
X98461738Y-63795717D01*
X98420939Y-63768457D01*
X98405170Y-63756762D01*
X98367241Y-63725634D01*
X98352700Y-63712454D01*
X98318003Y-63677757D01*
X98304823Y-63663216D01*
X98273695Y-63625287D01*
X98262000Y-63609518D01*
X98234740Y-63568719D01*
X98224654Y-63551891D01*
X98201523Y-63508618D01*
X98193128Y-63490870D01*
X98174351Y-63445537D01*
X98167740Y-63427060D01*
X98153496Y-63380105D01*
X98148726Y-63361062D01*
X98139154Y-63312937D01*
X98136275Y-63293528D01*
X98131465Y-63244697D01*
X98130502Y-63225091D01*
X98130502Y-63206669D01*
X98129900Y-63200557D01*
X98129900Y-62700557D01*
X98133743Y-62661539D01*
X98145124Y-62624020D01*
X98163606Y-62589443D01*
X98188479Y-62559136D01*
X98218786Y-62534263D01*
X98253363Y-62515781D01*
X98290882Y-62504400D01*
X98329900Y-62500557D01*
X99829900Y-62500557D01*
X99868918Y-62504400D01*
X99906437Y-62515781D01*
X99941014Y-62534263D01*
X99971321Y-62559136D01*
X99996194Y-62589443D01*
X100014676Y-62624020D01*
X100026057Y-62661539D01*
X100029900Y-62700557D01*
X100029900Y-63200557D01*
X100029298Y-63206669D01*
X100029298Y-63206669D01*
G37*
G04 #@! TD*
D16*
G04 #@! TO.C,JP2*
X104079900Y-61900557D03*
D17*
G36*
X103130502Y-61894445D02*
X103130502Y-61876023D01*
X103131465Y-61856417D01*
X103136275Y-61807586D01*
X103139154Y-61788177D01*
X103148726Y-61740052D01*
X103153496Y-61721009D01*
X103167740Y-61674054D01*
X103174351Y-61655577D01*
X103193128Y-61610244D01*
X103201523Y-61592496D01*
X103224654Y-61549223D01*
X103234740Y-61532395D01*
X103262000Y-61491596D01*
X103273695Y-61475827D01*
X103304823Y-61437898D01*
X103318003Y-61423357D01*
X103352700Y-61388660D01*
X103367241Y-61375480D01*
X103405170Y-61344352D01*
X103420939Y-61332657D01*
X103461738Y-61305397D01*
X103478566Y-61295311D01*
X103521839Y-61272180D01*
X103539587Y-61263785D01*
X103584920Y-61245008D01*
X103603397Y-61238397D01*
X103650352Y-61224153D01*
X103669395Y-61219383D01*
X103717520Y-61209811D01*
X103736929Y-61206932D01*
X103785760Y-61202122D01*
X103805366Y-61201159D01*
X103823788Y-61201159D01*
X103829900Y-61200557D01*
X104329900Y-61200557D01*
X104336012Y-61201159D01*
X104354434Y-61201159D01*
X104374040Y-61202122D01*
X104422871Y-61206932D01*
X104442280Y-61209811D01*
X104490405Y-61219383D01*
X104509448Y-61224153D01*
X104556403Y-61238397D01*
X104574880Y-61245008D01*
X104620213Y-61263785D01*
X104637961Y-61272180D01*
X104681234Y-61295311D01*
X104698062Y-61305397D01*
X104738861Y-61332657D01*
X104754630Y-61344352D01*
X104792559Y-61375480D01*
X104807100Y-61388660D01*
X104841797Y-61423357D01*
X104854977Y-61437898D01*
X104886105Y-61475827D01*
X104897800Y-61491596D01*
X104925060Y-61532395D01*
X104935146Y-61549223D01*
X104958277Y-61592496D01*
X104966672Y-61610244D01*
X104985449Y-61655577D01*
X104992060Y-61674054D01*
X105006304Y-61721009D01*
X105011074Y-61740052D01*
X105020646Y-61788177D01*
X105023525Y-61807586D01*
X105028335Y-61856417D01*
X105029298Y-61876023D01*
X105029298Y-61894445D01*
X105029900Y-61900557D01*
X105029900Y-62400557D01*
X105026057Y-62439575D01*
X105014676Y-62477094D01*
X104996194Y-62511671D01*
X104971321Y-62541978D01*
X104941014Y-62566851D01*
X104906437Y-62585333D01*
X104868918Y-62596714D01*
X104829900Y-62600557D01*
X103329900Y-62600557D01*
X103290882Y-62596714D01*
X103253363Y-62585333D01*
X103218786Y-62566851D01*
X103188479Y-62541978D01*
X103163606Y-62511671D01*
X103145124Y-62477094D01*
X103133743Y-62439575D01*
X103129900Y-62400557D01*
X103129900Y-61900557D01*
X103130502Y-61894445D01*
X103130502Y-61894445D01*
G37*
D16*
X104079900Y-63200557D03*
D17*
G36*
X103133743Y-62661539D02*
X103145124Y-62624020D01*
X103163606Y-62589443D01*
X103188479Y-62559136D01*
X103218786Y-62534263D01*
X103253363Y-62515781D01*
X103290882Y-62504400D01*
X103329900Y-62500557D01*
X104829900Y-62500557D01*
X104868918Y-62504400D01*
X104906437Y-62515781D01*
X104941014Y-62534263D01*
X104971321Y-62559136D01*
X104996194Y-62589443D01*
X105014676Y-62624020D01*
X105026057Y-62661539D01*
X105029900Y-62700557D01*
X105029900Y-63200557D01*
X105029298Y-63206669D01*
X105029298Y-63225091D01*
X105028335Y-63244697D01*
X105023525Y-63293528D01*
X105020646Y-63312937D01*
X105011074Y-63361062D01*
X105006304Y-63380105D01*
X104992060Y-63427060D01*
X104985449Y-63445537D01*
X104966672Y-63490870D01*
X104958277Y-63508618D01*
X104935146Y-63551891D01*
X104925060Y-63568719D01*
X104897800Y-63609518D01*
X104886105Y-63625287D01*
X104854977Y-63663216D01*
X104841797Y-63677757D01*
X104807100Y-63712454D01*
X104792559Y-63725634D01*
X104754630Y-63756762D01*
X104738861Y-63768457D01*
X104698062Y-63795717D01*
X104681234Y-63805803D01*
X104637961Y-63828934D01*
X104620213Y-63837329D01*
X104574880Y-63856106D01*
X104556403Y-63862717D01*
X104509448Y-63876961D01*
X104490405Y-63881731D01*
X104442280Y-63891303D01*
X104422871Y-63894182D01*
X104374040Y-63898992D01*
X104354434Y-63899955D01*
X104336012Y-63899955D01*
X104329900Y-63900557D01*
X103829900Y-63900557D01*
X103823788Y-63899955D01*
X103805366Y-63899955D01*
X103785760Y-63898992D01*
X103736929Y-63894182D01*
X103717520Y-63891303D01*
X103669395Y-63881731D01*
X103650352Y-63876961D01*
X103603397Y-63862717D01*
X103584920Y-63856106D01*
X103539587Y-63837329D01*
X103521839Y-63828934D01*
X103478566Y-63805803D01*
X103461738Y-63795717D01*
X103420939Y-63768457D01*
X103405170Y-63756762D01*
X103367241Y-63725634D01*
X103352700Y-63712454D01*
X103318003Y-63677757D01*
X103304823Y-63663216D01*
X103273695Y-63625287D01*
X103262000Y-63609518D01*
X103234740Y-63568719D01*
X103224654Y-63551891D01*
X103201523Y-63508618D01*
X103193128Y-63490870D01*
X103174351Y-63445537D01*
X103167740Y-63427060D01*
X103153496Y-63380105D01*
X103148726Y-63361062D01*
X103139154Y-63312937D01*
X103136275Y-63293528D01*
X103131465Y-63244697D01*
X103130502Y-63225091D01*
X103130502Y-63206669D01*
X103129900Y-63200557D01*
X103129900Y-62700557D01*
X103133743Y-62661539D01*
X103133743Y-62661539D01*
G37*
G04 #@! TD*
D16*
G04 #@! TO.C,JP1*
X109079900Y-63200557D03*
D17*
G36*
X108133743Y-62661539D02*
X108145124Y-62624020D01*
X108163606Y-62589443D01*
X108188479Y-62559136D01*
X108218786Y-62534263D01*
X108253363Y-62515781D01*
X108290882Y-62504400D01*
X108329900Y-62500557D01*
X109829900Y-62500557D01*
X109868918Y-62504400D01*
X109906437Y-62515781D01*
X109941014Y-62534263D01*
X109971321Y-62559136D01*
X109996194Y-62589443D01*
X110014676Y-62624020D01*
X110026057Y-62661539D01*
X110029900Y-62700557D01*
X110029900Y-63200557D01*
X110029298Y-63206669D01*
X110029298Y-63225091D01*
X110028335Y-63244697D01*
X110023525Y-63293528D01*
X110020646Y-63312937D01*
X110011074Y-63361062D01*
X110006304Y-63380105D01*
X109992060Y-63427060D01*
X109985449Y-63445537D01*
X109966672Y-63490870D01*
X109958277Y-63508618D01*
X109935146Y-63551891D01*
X109925060Y-63568719D01*
X109897800Y-63609518D01*
X109886105Y-63625287D01*
X109854977Y-63663216D01*
X109841797Y-63677757D01*
X109807100Y-63712454D01*
X109792559Y-63725634D01*
X109754630Y-63756762D01*
X109738861Y-63768457D01*
X109698062Y-63795717D01*
X109681234Y-63805803D01*
X109637961Y-63828934D01*
X109620213Y-63837329D01*
X109574880Y-63856106D01*
X109556403Y-63862717D01*
X109509448Y-63876961D01*
X109490405Y-63881731D01*
X109442280Y-63891303D01*
X109422871Y-63894182D01*
X109374040Y-63898992D01*
X109354434Y-63899955D01*
X109336012Y-63899955D01*
X109329900Y-63900557D01*
X108829900Y-63900557D01*
X108823788Y-63899955D01*
X108805366Y-63899955D01*
X108785760Y-63898992D01*
X108736929Y-63894182D01*
X108717520Y-63891303D01*
X108669395Y-63881731D01*
X108650352Y-63876961D01*
X108603397Y-63862717D01*
X108584920Y-63856106D01*
X108539587Y-63837329D01*
X108521839Y-63828934D01*
X108478566Y-63805803D01*
X108461738Y-63795717D01*
X108420939Y-63768457D01*
X108405170Y-63756762D01*
X108367241Y-63725634D01*
X108352700Y-63712454D01*
X108318003Y-63677757D01*
X108304823Y-63663216D01*
X108273695Y-63625287D01*
X108262000Y-63609518D01*
X108234740Y-63568719D01*
X108224654Y-63551891D01*
X108201523Y-63508618D01*
X108193128Y-63490870D01*
X108174351Y-63445537D01*
X108167740Y-63427060D01*
X108153496Y-63380105D01*
X108148726Y-63361062D01*
X108139154Y-63312937D01*
X108136275Y-63293528D01*
X108131465Y-63244697D01*
X108130502Y-63225091D01*
X108130502Y-63206669D01*
X108129900Y-63200557D01*
X108129900Y-62700557D01*
X108133743Y-62661539D01*
X108133743Y-62661539D01*
G37*
D16*
X109079900Y-61900557D03*
D17*
G36*
X108130502Y-61894445D02*
X108130502Y-61876023D01*
X108131465Y-61856417D01*
X108136275Y-61807586D01*
X108139154Y-61788177D01*
X108148726Y-61740052D01*
X108153496Y-61721009D01*
X108167740Y-61674054D01*
X108174351Y-61655577D01*
X108193128Y-61610244D01*
X108201523Y-61592496D01*
X108224654Y-61549223D01*
X108234740Y-61532395D01*
X108262000Y-61491596D01*
X108273695Y-61475827D01*
X108304823Y-61437898D01*
X108318003Y-61423357D01*
X108352700Y-61388660D01*
X108367241Y-61375480D01*
X108405170Y-61344352D01*
X108420939Y-61332657D01*
X108461738Y-61305397D01*
X108478566Y-61295311D01*
X108521839Y-61272180D01*
X108539587Y-61263785D01*
X108584920Y-61245008D01*
X108603397Y-61238397D01*
X108650352Y-61224153D01*
X108669395Y-61219383D01*
X108717520Y-61209811D01*
X108736929Y-61206932D01*
X108785760Y-61202122D01*
X108805366Y-61201159D01*
X108823788Y-61201159D01*
X108829900Y-61200557D01*
X109329900Y-61200557D01*
X109336012Y-61201159D01*
X109354434Y-61201159D01*
X109374040Y-61202122D01*
X109422871Y-61206932D01*
X109442280Y-61209811D01*
X109490405Y-61219383D01*
X109509448Y-61224153D01*
X109556403Y-61238397D01*
X109574880Y-61245008D01*
X109620213Y-61263785D01*
X109637961Y-61272180D01*
X109681234Y-61295311D01*
X109698062Y-61305397D01*
X109738861Y-61332657D01*
X109754630Y-61344352D01*
X109792559Y-61375480D01*
X109807100Y-61388660D01*
X109841797Y-61423357D01*
X109854977Y-61437898D01*
X109886105Y-61475827D01*
X109897800Y-61491596D01*
X109925060Y-61532395D01*
X109935146Y-61549223D01*
X109958277Y-61592496D01*
X109966672Y-61610244D01*
X109985449Y-61655577D01*
X109992060Y-61674054D01*
X110006304Y-61721009D01*
X110011074Y-61740052D01*
X110020646Y-61788177D01*
X110023525Y-61807586D01*
X110028335Y-61856417D01*
X110029298Y-61876023D01*
X110029298Y-61894445D01*
X110029900Y-61900557D01*
X110029900Y-62400557D01*
X110026057Y-62439575D01*
X110014676Y-62477094D01*
X109996194Y-62511671D01*
X109971321Y-62541978D01*
X109941014Y-62566851D01*
X109906437Y-62585333D01*
X109868918Y-62596714D01*
X109829900Y-62600557D01*
X108329900Y-62600557D01*
X108290882Y-62596714D01*
X108253363Y-62585333D01*
X108218786Y-62566851D01*
X108188479Y-62541978D01*
X108163606Y-62511671D01*
X108145124Y-62477094D01*
X108133743Y-62439575D01*
X108129900Y-62400557D01*
X108129900Y-61900557D01*
X108130502Y-61894445D01*
X108130502Y-61894445D01*
G37*
G04 #@! TD*
D16*
G04 #@! TO.C,JP4*
X94079900Y-62900000D03*
D17*
G36*
X95029298Y-62906112D02*
X95029298Y-62924534D01*
X95028335Y-62944140D01*
X95023525Y-62992971D01*
X95020646Y-63012380D01*
X95011074Y-63060505D01*
X95006304Y-63079548D01*
X94992060Y-63126503D01*
X94985449Y-63144980D01*
X94966672Y-63190313D01*
X94958277Y-63208061D01*
X94935146Y-63251334D01*
X94925060Y-63268162D01*
X94897800Y-63308961D01*
X94886105Y-63324730D01*
X94854977Y-63362659D01*
X94841797Y-63377200D01*
X94807100Y-63411897D01*
X94792559Y-63425077D01*
X94754630Y-63456205D01*
X94738861Y-63467900D01*
X94698062Y-63495160D01*
X94681234Y-63505246D01*
X94637961Y-63528377D01*
X94620213Y-63536772D01*
X94574880Y-63555549D01*
X94556403Y-63562160D01*
X94509448Y-63576404D01*
X94490405Y-63581174D01*
X94442280Y-63590746D01*
X94422871Y-63593625D01*
X94374040Y-63598435D01*
X94354434Y-63599398D01*
X94336012Y-63599398D01*
X94329900Y-63600000D01*
X93829900Y-63600000D01*
X93823788Y-63599398D01*
X93805366Y-63599398D01*
X93785760Y-63598435D01*
X93736929Y-63593625D01*
X93717520Y-63590746D01*
X93669395Y-63581174D01*
X93650352Y-63576404D01*
X93603397Y-63562160D01*
X93584920Y-63555549D01*
X93539587Y-63536772D01*
X93521839Y-63528377D01*
X93478566Y-63505246D01*
X93461738Y-63495160D01*
X93420939Y-63467900D01*
X93405170Y-63456205D01*
X93367241Y-63425077D01*
X93352700Y-63411897D01*
X93318003Y-63377200D01*
X93304823Y-63362659D01*
X93273695Y-63324730D01*
X93262000Y-63308961D01*
X93234740Y-63268162D01*
X93224654Y-63251334D01*
X93201523Y-63208061D01*
X93193128Y-63190313D01*
X93174351Y-63144980D01*
X93167740Y-63126503D01*
X93153496Y-63079548D01*
X93148726Y-63060505D01*
X93139154Y-63012380D01*
X93136275Y-62992971D01*
X93131465Y-62944140D01*
X93130502Y-62924534D01*
X93130502Y-62906112D01*
X93129900Y-62900000D01*
X93129900Y-62400000D01*
X93133743Y-62360982D01*
X93145124Y-62323463D01*
X93163606Y-62288886D01*
X93188479Y-62258579D01*
X93218786Y-62233706D01*
X93253363Y-62215224D01*
X93290882Y-62203843D01*
X93329900Y-62200000D01*
X94829900Y-62200000D01*
X94868918Y-62203843D01*
X94906437Y-62215224D01*
X94941014Y-62233706D01*
X94971321Y-62258579D01*
X94996194Y-62288886D01*
X95014676Y-62323463D01*
X95026057Y-62360982D01*
X95029900Y-62400000D01*
X95029900Y-62900000D01*
X95029298Y-62906112D01*
X95029298Y-62906112D01*
G37*
D16*
X94079900Y-61600000D03*
D17*
G36*
X95026057Y-62139018D02*
X95014676Y-62176537D01*
X94996194Y-62211114D01*
X94971321Y-62241421D01*
X94941014Y-62266294D01*
X94906437Y-62284776D01*
X94868918Y-62296157D01*
X94829900Y-62300000D01*
X93329900Y-62300000D01*
X93290882Y-62296157D01*
X93253363Y-62284776D01*
X93218786Y-62266294D01*
X93188479Y-62241421D01*
X93163606Y-62211114D01*
X93145124Y-62176537D01*
X93133743Y-62139018D01*
X93129900Y-62100000D01*
X93129900Y-61600000D01*
X93130502Y-61593888D01*
X93130502Y-61575466D01*
X93131465Y-61555860D01*
X93136275Y-61507029D01*
X93139154Y-61487620D01*
X93148726Y-61439495D01*
X93153496Y-61420452D01*
X93167740Y-61373497D01*
X93174351Y-61355020D01*
X93193128Y-61309687D01*
X93201523Y-61291939D01*
X93224654Y-61248666D01*
X93234740Y-61231838D01*
X93262000Y-61191039D01*
X93273695Y-61175270D01*
X93304823Y-61137341D01*
X93318003Y-61122800D01*
X93352700Y-61088103D01*
X93367241Y-61074923D01*
X93405170Y-61043795D01*
X93420939Y-61032100D01*
X93461738Y-61004840D01*
X93478566Y-60994754D01*
X93521839Y-60971623D01*
X93539587Y-60963228D01*
X93584920Y-60944451D01*
X93603397Y-60937840D01*
X93650352Y-60923596D01*
X93669395Y-60918826D01*
X93717520Y-60909254D01*
X93736929Y-60906375D01*
X93785760Y-60901565D01*
X93805366Y-60900602D01*
X93823788Y-60900602D01*
X93829900Y-60900000D01*
X94329900Y-60900000D01*
X94336012Y-60900602D01*
X94354434Y-60900602D01*
X94374040Y-60901565D01*
X94422871Y-60906375D01*
X94442280Y-60909254D01*
X94490405Y-60918826D01*
X94509448Y-60923596D01*
X94556403Y-60937840D01*
X94574880Y-60944451D01*
X94620213Y-60963228D01*
X94637961Y-60971623D01*
X94681234Y-60994754D01*
X94698062Y-61004840D01*
X94738861Y-61032100D01*
X94754630Y-61043795D01*
X94792559Y-61074923D01*
X94807100Y-61088103D01*
X94841797Y-61122800D01*
X94854977Y-61137341D01*
X94886105Y-61175270D01*
X94897800Y-61191039D01*
X94925060Y-61231838D01*
X94935146Y-61248666D01*
X94958277Y-61291939D01*
X94966672Y-61309687D01*
X94985449Y-61355020D01*
X94992060Y-61373497D01*
X95006304Y-61420452D01*
X95011074Y-61439495D01*
X95020646Y-61487620D01*
X95023525Y-61507029D01*
X95028335Y-61555860D01*
X95029298Y-61575466D01*
X95029298Y-61593888D01*
X95029900Y-61600000D01*
X95029900Y-62100000D01*
X95026057Y-62139018D01*
X95026057Y-62139018D01*
G37*
G04 #@! TD*
M02*
