G04 #@! TF.GenerationSoftware,KiCad,Pcbnew,5.0.0*
G04 #@! TF.CreationDate,2018-11-11T17:05:44-05:00*
G04 #@! TF.ProjectId,I2C_PWM_Driver,4932435F50574D5F4472697665722E6B,rev?*
G04 #@! TF.SameCoordinates,Original*
G04 #@! TF.FileFunction,Soldermask,Top*
G04 #@! TF.FilePolarity,Negative*
%FSLAX46Y46*%
G04 Gerber Fmt 4.6, Leading zero omitted, Abs format (unit mm)*
G04 Created by KiCad (PCBNEW 5.0.0) date Sun Nov 11 17:05:44 2018*
%MOMM*%
%LPD*%
G01*
G04 APERTURE LIST*
%ADD10C,0.100000*%
%ADD11C,1.375000*%
%ADD12C,2.400000*%
%ADD13R,1.450000X1.800000*%
%ADD14R,2.100000X2.100000*%
%ADD15O,2.100000X2.100000*%
%ADD16R,1.950000X1.000000*%
%ADD17C,2.900000*%
%ADD18C,1.600000*%
%ADD19R,1.600000X1.600000*%
%ADD20R,0.800000X1.500000*%
%ADD21R,1.300000X1.200000*%
%ADD22C,1.500000*%
G04 APERTURE END LIST*
D10*
G04 #@! TO.C,D1*
G36*
X78314943Y-69851655D02*
X78348312Y-69856605D01*
X78381035Y-69864802D01*
X78412797Y-69876166D01*
X78443293Y-69890590D01*
X78472227Y-69907932D01*
X78499323Y-69928028D01*
X78524318Y-69950682D01*
X78546972Y-69975677D01*
X78567068Y-70002773D01*
X78584410Y-70031707D01*
X78598834Y-70062203D01*
X78610198Y-70093965D01*
X78618395Y-70126688D01*
X78623345Y-70160057D01*
X78625000Y-70193750D01*
X78625000Y-71306250D01*
X78623345Y-71339943D01*
X78618395Y-71373312D01*
X78610198Y-71406035D01*
X78598834Y-71437797D01*
X78584410Y-71468293D01*
X78567068Y-71497227D01*
X78546972Y-71524323D01*
X78524318Y-71549318D01*
X78499323Y-71571972D01*
X78472227Y-71592068D01*
X78443293Y-71609410D01*
X78412797Y-71623834D01*
X78381035Y-71635198D01*
X78348312Y-71643395D01*
X78314943Y-71648345D01*
X78281250Y-71650000D01*
X77593750Y-71650000D01*
X77560057Y-71648345D01*
X77526688Y-71643395D01*
X77493965Y-71635198D01*
X77462203Y-71623834D01*
X77431707Y-71609410D01*
X77402773Y-71592068D01*
X77375677Y-71571972D01*
X77350682Y-71549318D01*
X77328028Y-71524323D01*
X77307932Y-71497227D01*
X77290590Y-71468293D01*
X77276166Y-71437797D01*
X77264802Y-71406035D01*
X77256605Y-71373312D01*
X77251655Y-71339943D01*
X77250000Y-71306250D01*
X77250000Y-70193750D01*
X77251655Y-70160057D01*
X77256605Y-70126688D01*
X77264802Y-70093965D01*
X77276166Y-70062203D01*
X77290590Y-70031707D01*
X77307932Y-70002773D01*
X77328028Y-69975677D01*
X77350682Y-69950682D01*
X77375677Y-69928028D01*
X77402773Y-69907932D01*
X77431707Y-69890590D01*
X77462203Y-69876166D01*
X77493965Y-69864802D01*
X77526688Y-69856605D01*
X77560057Y-69851655D01*
X77593750Y-69850000D01*
X78281250Y-69850000D01*
X78314943Y-69851655D01*
X78314943Y-69851655D01*
G37*
D11*
X77937500Y-70750000D03*
D10*
G36*
X76439943Y-69851655D02*
X76473312Y-69856605D01*
X76506035Y-69864802D01*
X76537797Y-69876166D01*
X76568293Y-69890590D01*
X76597227Y-69907932D01*
X76624323Y-69928028D01*
X76649318Y-69950682D01*
X76671972Y-69975677D01*
X76692068Y-70002773D01*
X76709410Y-70031707D01*
X76723834Y-70062203D01*
X76735198Y-70093965D01*
X76743395Y-70126688D01*
X76748345Y-70160057D01*
X76750000Y-70193750D01*
X76750000Y-71306250D01*
X76748345Y-71339943D01*
X76743395Y-71373312D01*
X76735198Y-71406035D01*
X76723834Y-71437797D01*
X76709410Y-71468293D01*
X76692068Y-71497227D01*
X76671972Y-71524323D01*
X76649318Y-71549318D01*
X76624323Y-71571972D01*
X76597227Y-71592068D01*
X76568293Y-71609410D01*
X76537797Y-71623834D01*
X76506035Y-71635198D01*
X76473312Y-71643395D01*
X76439943Y-71648345D01*
X76406250Y-71650000D01*
X75718750Y-71650000D01*
X75685057Y-71648345D01*
X75651688Y-71643395D01*
X75618965Y-71635198D01*
X75587203Y-71623834D01*
X75556707Y-71609410D01*
X75527773Y-71592068D01*
X75500677Y-71571972D01*
X75475682Y-71549318D01*
X75453028Y-71524323D01*
X75432932Y-71497227D01*
X75415590Y-71468293D01*
X75401166Y-71437797D01*
X75389802Y-71406035D01*
X75381605Y-71373312D01*
X75376655Y-71339943D01*
X75375000Y-71306250D01*
X75375000Y-70193750D01*
X75376655Y-70160057D01*
X75381605Y-70126688D01*
X75389802Y-70093965D01*
X75401166Y-70062203D01*
X75415590Y-70031707D01*
X75432932Y-70002773D01*
X75453028Y-69975677D01*
X75475682Y-69950682D01*
X75500677Y-69928028D01*
X75527773Y-69907932D01*
X75556707Y-69890590D01*
X75587203Y-69876166D01*
X75618965Y-69864802D01*
X75651688Y-69856605D01*
X75685057Y-69851655D01*
X75718750Y-69850000D01*
X76406250Y-69850000D01*
X76439943Y-69851655D01*
X76439943Y-69851655D01*
G37*
D11*
X76062500Y-70750000D03*
G04 #@! TD*
D10*
G04 #@! TO.C,R45*
G36*
X80689943Y-69851655D02*
X80723312Y-69856605D01*
X80756035Y-69864802D01*
X80787797Y-69876166D01*
X80818293Y-69890590D01*
X80847227Y-69907932D01*
X80874323Y-69928028D01*
X80899318Y-69950682D01*
X80921972Y-69975677D01*
X80942068Y-70002773D01*
X80959410Y-70031707D01*
X80973834Y-70062203D01*
X80985198Y-70093965D01*
X80993395Y-70126688D01*
X80998345Y-70160057D01*
X81000000Y-70193750D01*
X81000000Y-71306250D01*
X80998345Y-71339943D01*
X80993395Y-71373312D01*
X80985198Y-71406035D01*
X80973834Y-71437797D01*
X80959410Y-71468293D01*
X80942068Y-71497227D01*
X80921972Y-71524323D01*
X80899318Y-71549318D01*
X80874323Y-71571972D01*
X80847227Y-71592068D01*
X80818293Y-71609410D01*
X80787797Y-71623834D01*
X80756035Y-71635198D01*
X80723312Y-71643395D01*
X80689943Y-71648345D01*
X80656250Y-71650000D01*
X79968750Y-71650000D01*
X79935057Y-71648345D01*
X79901688Y-71643395D01*
X79868965Y-71635198D01*
X79837203Y-71623834D01*
X79806707Y-71609410D01*
X79777773Y-71592068D01*
X79750677Y-71571972D01*
X79725682Y-71549318D01*
X79703028Y-71524323D01*
X79682932Y-71497227D01*
X79665590Y-71468293D01*
X79651166Y-71437797D01*
X79639802Y-71406035D01*
X79631605Y-71373312D01*
X79626655Y-71339943D01*
X79625000Y-71306250D01*
X79625000Y-70193750D01*
X79626655Y-70160057D01*
X79631605Y-70126688D01*
X79639802Y-70093965D01*
X79651166Y-70062203D01*
X79665590Y-70031707D01*
X79682932Y-70002773D01*
X79703028Y-69975677D01*
X79725682Y-69950682D01*
X79750677Y-69928028D01*
X79777773Y-69907932D01*
X79806707Y-69890590D01*
X79837203Y-69876166D01*
X79868965Y-69864802D01*
X79901688Y-69856605D01*
X79935057Y-69851655D01*
X79968750Y-69850000D01*
X80656250Y-69850000D01*
X80689943Y-69851655D01*
X80689943Y-69851655D01*
G37*
D11*
X80312500Y-70750000D03*
D10*
G36*
X82564943Y-69851655D02*
X82598312Y-69856605D01*
X82631035Y-69864802D01*
X82662797Y-69876166D01*
X82693293Y-69890590D01*
X82722227Y-69907932D01*
X82749323Y-69928028D01*
X82774318Y-69950682D01*
X82796972Y-69975677D01*
X82817068Y-70002773D01*
X82834410Y-70031707D01*
X82848834Y-70062203D01*
X82860198Y-70093965D01*
X82868395Y-70126688D01*
X82873345Y-70160057D01*
X82875000Y-70193750D01*
X82875000Y-71306250D01*
X82873345Y-71339943D01*
X82868395Y-71373312D01*
X82860198Y-71406035D01*
X82848834Y-71437797D01*
X82834410Y-71468293D01*
X82817068Y-71497227D01*
X82796972Y-71524323D01*
X82774318Y-71549318D01*
X82749323Y-71571972D01*
X82722227Y-71592068D01*
X82693293Y-71609410D01*
X82662797Y-71623834D01*
X82631035Y-71635198D01*
X82598312Y-71643395D01*
X82564943Y-71648345D01*
X82531250Y-71650000D01*
X81843750Y-71650000D01*
X81810057Y-71648345D01*
X81776688Y-71643395D01*
X81743965Y-71635198D01*
X81712203Y-71623834D01*
X81681707Y-71609410D01*
X81652773Y-71592068D01*
X81625677Y-71571972D01*
X81600682Y-71549318D01*
X81578028Y-71524323D01*
X81557932Y-71497227D01*
X81540590Y-71468293D01*
X81526166Y-71437797D01*
X81514802Y-71406035D01*
X81506605Y-71373312D01*
X81501655Y-71339943D01*
X81500000Y-71306250D01*
X81500000Y-70193750D01*
X81501655Y-70160057D01*
X81506605Y-70126688D01*
X81514802Y-70093965D01*
X81526166Y-70062203D01*
X81540590Y-70031707D01*
X81557932Y-70002773D01*
X81578028Y-69975677D01*
X81600682Y-69950682D01*
X81625677Y-69928028D01*
X81652773Y-69907932D01*
X81681707Y-69890590D01*
X81712203Y-69876166D01*
X81743965Y-69864802D01*
X81776688Y-69856605D01*
X81810057Y-69851655D01*
X81843750Y-69850000D01*
X82531250Y-69850000D01*
X82564943Y-69851655D01*
X82564943Y-69851655D01*
G37*
D11*
X82187500Y-70750000D03*
G04 #@! TD*
D12*
G04 #@! TO.C,J1*
X77600000Y-63750000D03*
X77600000Y-67250000D03*
G04 #@! TD*
G04 #@! TO.C,J3*
X77600000Y-79750000D03*
X77600000Y-83250000D03*
G04 #@! TD*
D13*
G04 #@! TO.C,SW1*
X75550000Y-54800000D03*
X75550000Y-51200000D03*
X77000000Y-54800000D03*
X77000000Y-51200000D03*
G04 #@! TD*
D14*
G04 #@! TO.C,J2*
X80500000Y-74100000D03*
D15*
X77960000Y-74100000D03*
G04 #@! TD*
D16*
G04 #@! TO.C,U2*
X84800000Y-54905000D03*
X84800000Y-53635000D03*
X84800000Y-52365000D03*
X84800000Y-51095000D03*
X90200000Y-51095000D03*
X90200000Y-52365000D03*
X90200000Y-53635000D03*
X90200000Y-54905000D03*
G04 #@! TD*
D17*
G04 #@! TO.C,J4*
X158000000Y-81928572D03*
X158000000Y-77714282D03*
X158000000Y-73499997D03*
X158000000Y-69285712D03*
X158000000Y-65071427D03*
X158000000Y-60857142D03*
X158000000Y-56642857D03*
X158000000Y-52428572D03*
X154250000Y-81928572D03*
X154250000Y-77714282D03*
X154250000Y-73499997D03*
X154250000Y-69285712D03*
X154250000Y-65071427D03*
X154250000Y-60857142D03*
X154250000Y-56642857D03*
X154250000Y-52428572D03*
G04 #@! TD*
D10*
G04 #@! TO.C,C1*
G36*
X97589943Y-74251655D02*
X97623312Y-74256605D01*
X97656035Y-74264802D01*
X97687797Y-74276166D01*
X97718293Y-74290590D01*
X97747227Y-74307932D01*
X97774323Y-74328028D01*
X97799318Y-74350682D01*
X97821972Y-74375677D01*
X97842068Y-74402773D01*
X97859410Y-74431707D01*
X97873834Y-74462203D01*
X97885198Y-74493965D01*
X97893395Y-74526688D01*
X97898345Y-74560057D01*
X97900000Y-74593750D01*
X97900000Y-75281250D01*
X97898345Y-75314943D01*
X97893395Y-75348312D01*
X97885198Y-75381035D01*
X97873834Y-75412797D01*
X97859410Y-75443293D01*
X97842068Y-75472227D01*
X97821972Y-75499323D01*
X97799318Y-75524318D01*
X97774323Y-75546972D01*
X97747227Y-75567068D01*
X97718293Y-75584410D01*
X97687797Y-75598834D01*
X97656035Y-75610198D01*
X97623312Y-75618395D01*
X97589943Y-75623345D01*
X97556250Y-75625000D01*
X96443750Y-75625000D01*
X96410057Y-75623345D01*
X96376688Y-75618395D01*
X96343965Y-75610198D01*
X96312203Y-75598834D01*
X96281707Y-75584410D01*
X96252773Y-75567068D01*
X96225677Y-75546972D01*
X96200682Y-75524318D01*
X96178028Y-75499323D01*
X96157932Y-75472227D01*
X96140590Y-75443293D01*
X96126166Y-75412797D01*
X96114802Y-75381035D01*
X96106605Y-75348312D01*
X96101655Y-75314943D01*
X96100000Y-75281250D01*
X96100000Y-74593750D01*
X96101655Y-74560057D01*
X96106605Y-74526688D01*
X96114802Y-74493965D01*
X96126166Y-74462203D01*
X96140590Y-74431707D01*
X96157932Y-74402773D01*
X96178028Y-74375677D01*
X96200682Y-74350682D01*
X96225677Y-74328028D01*
X96252773Y-74307932D01*
X96281707Y-74290590D01*
X96312203Y-74276166D01*
X96343965Y-74264802D01*
X96376688Y-74256605D01*
X96410057Y-74251655D01*
X96443750Y-74250000D01*
X97556250Y-74250000D01*
X97589943Y-74251655D01*
X97589943Y-74251655D01*
G37*
D11*
X97000000Y-74937500D03*
D10*
G36*
X97589943Y-72376655D02*
X97623312Y-72381605D01*
X97656035Y-72389802D01*
X97687797Y-72401166D01*
X97718293Y-72415590D01*
X97747227Y-72432932D01*
X97774323Y-72453028D01*
X97799318Y-72475682D01*
X97821972Y-72500677D01*
X97842068Y-72527773D01*
X97859410Y-72556707D01*
X97873834Y-72587203D01*
X97885198Y-72618965D01*
X97893395Y-72651688D01*
X97898345Y-72685057D01*
X97900000Y-72718750D01*
X97900000Y-73406250D01*
X97898345Y-73439943D01*
X97893395Y-73473312D01*
X97885198Y-73506035D01*
X97873834Y-73537797D01*
X97859410Y-73568293D01*
X97842068Y-73597227D01*
X97821972Y-73624323D01*
X97799318Y-73649318D01*
X97774323Y-73671972D01*
X97747227Y-73692068D01*
X97718293Y-73709410D01*
X97687797Y-73723834D01*
X97656035Y-73735198D01*
X97623312Y-73743395D01*
X97589943Y-73748345D01*
X97556250Y-73750000D01*
X96443750Y-73750000D01*
X96410057Y-73748345D01*
X96376688Y-73743395D01*
X96343965Y-73735198D01*
X96312203Y-73723834D01*
X96281707Y-73709410D01*
X96252773Y-73692068D01*
X96225677Y-73671972D01*
X96200682Y-73649318D01*
X96178028Y-73624323D01*
X96157932Y-73597227D01*
X96140590Y-73568293D01*
X96126166Y-73537797D01*
X96114802Y-73506035D01*
X96106605Y-73473312D01*
X96101655Y-73439943D01*
X96100000Y-73406250D01*
X96100000Y-72718750D01*
X96101655Y-72685057D01*
X96106605Y-72651688D01*
X96114802Y-72618965D01*
X96126166Y-72587203D01*
X96140590Y-72556707D01*
X96157932Y-72527773D01*
X96178028Y-72500677D01*
X96200682Y-72475682D01*
X96225677Y-72453028D01*
X96252773Y-72432932D01*
X96281707Y-72415590D01*
X96312203Y-72401166D01*
X96343965Y-72389802D01*
X96376688Y-72381605D01*
X96410057Y-72376655D01*
X96443750Y-72375000D01*
X97556250Y-72375000D01*
X97589943Y-72376655D01*
X97589943Y-72376655D01*
G37*
D11*
X97000000Y-73062500D03*
G04 #@! TD*
D10*
G04 #@! TO.C,C3*
G36*
X82839943Y-50314155D02*
X82873312Y-50319105D01*
X82906035Y-50327302D01*
X82937797Y-50338666D01*
X82968293Y-50353090D01*
X82997227Y-50370432D01*
X83024323Y-50390528D01*
X83049318Y-50413182D01*
X83071972Y-50438177D01*
X83092068Y-50465273D01*
X83109410Y-50494207D01*
X83123834Y-50524703D01*
X83135198Y-50556465D01*
X83143395Y-50589188D01*
X83148345Y-50622557D01*
X83150000Y-50656250D01*
X83150000Y-51343750D01*
X83148345Y-51377443D01*
X83143395Y-51410812D01*
X83135198Y-51443535D01*
X83123834Y-51475297D01*
X83109410Y-51505793D01*
X83092068Y-51534727D01*
X83071972Y-51561823D01*
X83049318Y-51586818D01*
X83024323Y-51609472D01*
X82997227Y-51629568D01*
X82968293Y-51646910D01*
X82937797Y-51661334D01*
X82906035Y-51672698D01*
X82873312Y-51680895D01*
X82839943Y-51685845D01*
X82806250Y-51687500D01*
X81693750Y-51687500D01*
X81660057Y-51685845D01*
X81626688Y-51680895D01*
X81593965Y-51672698D01*
X81562203Y-51661334D01*
X81531707Y-51646910D01*
X81502773Y-51629568D01*
X81475677Y-51609472D01*
X81450682Y-51586818D01*
X81428028Y-51561823D01*
X81407932Y-51534727D01*
X81390590Y-51505793D01*
X81376166Y-51475297D01*
X81364802Y-51443535D01*
X81356605Y-51410812D01*
X81351655Y-51377443D01*
X81350000Y-51343750D01*
X81350000Y-50656250D01*
X81351655Y-50622557D01*
X81356605Y-50589188D01*
X81364802Y-50556465D01*
X81376166Y-50524703D01*
X81390590Y-50494207D01*
X81407932Y-50465273D01*
X81428028Y-50438177D01*
X81450682Y-50413182D01*
X81475677Y-50390528D01*
X81502773Y-50370432D01*
X81531707Y-50353090D01*
X81562203Y-50338666D01*
X81593965Y-50327302D01*
X81626688Y-50319105D01*
X81660057Y-50314155D01*
X81693750Y-50312500D01*
X82806250Y-50312500D01*
X82839943Y-50314155D01*
X82839943Y-50314155D01*
G37*
D11*
X82250000Y-51000000D03*
D10*
G36*
X82839943Y-52189155D02*
X82873312Y-52194105D01*
X82906035Y-52202302D01*
X82937797Y-52213666D01*
X82968293Y-52228090D01*
X82997227Y-52245432D01*
X83024323Y-52265528D01*
X83049318Y-52288182D01*
X83071972Y-52313177D01*
X83092068Y-52340273D01*
X83109410Y-52369207D01*
X83123834Y-52399703D01*
X83135198Y-52431465D01*
X83143395Y-52464188D01*
X83148345Y-52497557D01*
X83150000Y-52531250D01*
X83150000Y-53218750D01*
X83148345Y-53252443D01*
X83143395Y-53285812D01*
X83135198Y-53318535D01*
X83123834Y-53350297D01*
X83109410Y-53380793D01*
X83092068Y-53409727D01*
X83071972Y-53436823D01*
X83049318Y-53461818D01*
X83024323Y-53484472D01*
X82997227Y-53504568D01*
X82968293Y-53521910D01*
X82937797Y-53536334D01*
X82906035Y-53547698D01*
X82873312Y-53555895D01*
X82839943Y-53560845D01*
X82806250Y-53562500D01*
X81693750Y-53562500D01*
X81660057Y-53560845D01*
X81626688Y-53555895D01*
X81593965Y-53547698D01*
X81562203Y-53536334D01*
X81531707Y-53521910D01*
X81502773Y-53504568D01*
X81475677Y-53484472D01*
X81450682Y-53461818D01*
X81428028Y-53436823D01*
X81407932Y-53409727D01*
X81390590Y-53380793D01*
X81376166Y-53350297D01*
X81364802Y-53318535D01*
X81356605Y-53285812D01*
X81351655Y-53252443D01*
X81350000Y-53218750D01*
X81350000Y-52531250D01*
X81351655Y-52497557D01*
X81356605Y-52464188D01*
X81364802Y-52431465D01*
X81376166Y-52399703D01*
X81390590Y-52369207D01*
X81407932Y-52340273D01*
X81428028Y-52313177D01*
X81450682Y-52288182D01*
X81475677Y-52265528D01*
X81502773Y-52245432D01*
X81531707Y-52228090D01*
X81562203Y-52213666D01*
X81593965Y-52202302D01*
X81626688Y-52194105D01*
X81660057Y-52189155D01*
X81693750Y-52187500D01*
X82806250Y-52187500D01*
X82839943Y-52189155D01*
X82839943Y-52189155D01*
G37*
D11*
X82250000Y-52875000D03*
G04 #@! TD*
D18*
G04 #@! TO.C,C2*
X80500000Y-57000000D03*
D19*
X82000000Y-57000000D03*
G04 #@! TD*
G04 #@! TO.C,C4*
X86500000Y-58000000D03*
D18*
X86500000Y-59500000D03*
G04 #@! TD*
D20*
G04 #@! TO.C,U1*
X95078957Y-67457857D03*
X94428957Y-67457857D03*
X93778957Y-67457857D03*
X93128957Y-67457857D03*
X92478957Y-67457857D03*
X91828957Y-67457857D03*
X91178957Y-67457857D03*
X90528957Y-67457857D03*
X89878957Y-67457857D03*
X89228957Y-67457857D03*
X88578957Y-67457857D03*
X87928957Y-67457857D03*
X87278957Y-67457857D03*
X86628957Y-67457857D03*
X86628957Y-73157857D03*
X87278957Y-73157857D03*
X87928957Y-73157857D03*
X88578957Y-73157857D03*
X89228957Y-73157857D03*
X89878957Y-73157857D03*
X90528957Y-73157857D03*
X91178957Y-73157857D03*
X91828957Y-73157857D03*
X92478957Y-73157857D03*
X93128957Y-73157857D03*
X93778957Y-73157857D03*
X94428957Y-73157857D03*
X95078957Y-73157857D03*
G04 #@! TD*
D21*
G04 #@! TO.C,Q20*
X107000000Y-73000000D03*
X105000000Y-73950000D03*
X105000000Y-72050000D03*
G04 #@! TD*
G04 #@! TO.C,Q7*
X113875000Y-54250000D03*
X113875000Y-56150000D03*
X115875000Y-55200000D03*
G04 #@! TD*
G04 #@! TO.C,Q6*
X147000000Y-55000000D03*
X145000000Y-55950000D03*
X145000000Y-54050000D03*
G04 #@! TD*
G04 #@! TO.C,Q5*
X121000000Y-54050000D03*
X121000000Y-55950000D03*
X123000000Y-55000000D03*
G04 #@! TD*
G04 #@! TO.C,Q4*
X107000000Y-55250000D03*
X105000000Y-56200000D03*
X105000000Y-54300000D03*
G04 #@! TD*
G04 #@! TO.C,Q3*
X109500000Y-54300000D03*
X109500000Y-56200000D03*
X111500000Y-55250000D03*
G04 #@! TD*
G04 #@! TO.C,Q2*
X139000000Y-55000000D03*
X137000000Y-55950000D03*
X137000000Y-54050000D03*
G04 #@! TD*
G04 #@! TO.C,Q8*
X100500000Y-54300000D03*
X100500000Y-56200000D03*
X102500000Y-55250000D03*
G04 #@! TD*
G04 #@! TO.C,Q1*
X131000000Y-55000000D03*
X129000000Y-55950000D03*
X129000000Y-54050000D03*
G04 #@! TD*
G04 #@! TO.C,Q17*
X139000000Y-73000000D03*
X137000000Y-73950000D03*
X137000000Y-72050000D03*
G04 #@! TD*
G04 #@! TO.C,Q19*
X111500000Y-73000000D03*
X109500000Y-73950000D03*
X109500000Y-72050000D03*
G04 #@! TD*
G04 #@! TO.C,Q24*
X102500000Y-73000000D03*
X100500000Y-73950000D03*
X100500000Y-72050000D03*
G04 #@! TD*
G04 #@! TO.C,Q23*
X115875000Y-72998551D03*
X113875000Y-73948551D03*
X113875000Y-72048551D03*
G04 #@! TD*
G04 #@! TO.C,Q22*
X147000000Y-73000000D03*
X145000000Y-73950000D03*
X145000000Y-72050000D03*
G04 #@! TD*
G04 #@! TO.C,Q18*
X131000000Y-73000000D03*
X129000000Y-73950000D03*
X129000000Y-72050000D03*
G04 #@! TD*
G04 #@! TO.C,Q21*
X123000000Y-73000000D03*
X121000000Y-73950000D03*
X121000000Y-72050000D03*
G04 #@! TD*
G04 #@! TO.C,Q16*
X102500000Y-63981049D03*
X100500000Y-64931049D03*
X100500000Y-63031049D03*
G04 #@! TD*
G04 #@! TO.C,Q10*
X129000000Y-63050000D03*
X129000000Y-64950000D03*
X131000000Y-64000000D03*
G04 #@! TD*
G04 #@! TO.C,Q9*
X139000000Y-64000000D03*
X137000000Y-64950000D03*
X137000000Y-63050000D03*
G04 #@! TD*
G04 #@! TO.C,Q11*
X109500000Y-63050000D03*
X109500000Y-64950000D03*
X111500000Y-64000000D03*
G04 #@! TD*
G04 #@! TO.C,Q12*
X107000000Y-64000000D03*
X105000000Y-64950000D03*
X105000000Y-63050000D03*
G04 #@! TD*
G04 #@! TO.C,Q13*
X121000000Y-63050000D03*
X121000000Y-64950000D03*
X123000000Y-64000000D03*
G04 #@! TD*
G04 #@! TO.C,Q14*
X147000000Y-64000000D03*
X145000000Y-64950000D03*
X145000000Y-63050000D03*
G04 #@! TD*
G04 #@! TO.C,Q15*
X115875000Y-64000000D03*
X113875000Y-64950000D03*
X113875000Y-63050000D03*
G04 #@! TD*
G04 #@! TO.C,Q32*
X102500000Y-82023426D03*
X100500000Y-82973426D03*
X100500000Y-81073426D03*
G04 #@! TD*
G04 #@! TO.C,Q31*
X113875000Y-81005372D03*
X113875000Y-82905372D03*
X115875000Y-81955372D03*
G04 #@! TD*
G04 #@! TO.C,Q30*
X147000000Y-82000000D03*
X145000000Y-82950000D03*
X145000000Y-81050000D03*
G04 #@! TD*
G04 #@! TO.C,Q29*
X121000000Y-81050000D03*
X121000000Y-82950000D03*
X123000000Y-82000000D03*
G04 #@! TD*
G04 #@! TO.C,Q27*
X111500000Y-82000000D03*
X109500000Y-82950000D03*
X109500000Y-81050000D03*
G04 #@! TD*
G04 #@! TO.C,Q26*
X129000000Y-81050000D03*
X129000000Y-82950000D03*
X131000000Y-82000000D03*
G04 #@! TD*
G04 #@! TO.C,Q25*
X139000000Y-82000000D03*
X137000000Y-82950000D03*
X137000000Y-81050000D03*
G04 #@! TD*
G04 #@! TO.C,Q28*
X105000000Y-81046835D03*
X105000000Y-82946835D03*
X107000000Y-81996835D03*
G04 #@! TD*
D10*
G04 #@! TO.C,R5*
G36*
X119089943Y-53376655D02*
X119123312Y-53381605D01*
X119156035Y-53389802D01*
X119187797Y-53401166D01*
X119218293Y-53415590D01*
X119247227Y-53432932D01*
X119274323Y-53453028D01*
X119299318Y-53475682D01*
X119321972Y-53500677D01*
X119342068Y-53527773D01*
X119359410Y-53556707D01*
X119373834Y-53587203D01*
X119385198Y-53618965D01*
X119393395Y-53651688D01*
X119398345Y-53685057D01*
X119400000Y-53718750D01*
X119400000Y-54406250D01*
X119398345Y-54439943D01*
X119393395Y-54473312D01*
X119385198Y-54506035D01*
X119373834Y-54537797D01*
X119359410Y-54568293D01*
X119342068Y-54597227D01*
X119321972Y-54624323D01*
X119299318Y-54649318D01*
X119274323Y-54671972D01*
X119247227Y-54692068D01*
X119218293Y-54709410D01*
X119187797Y-54723834D01*
X119156035Y-54735198D01*
X119123312Y-54743395D01*
X119089943Y-54748345D01*
X119056250Y-54750000D01*
X117943750Y-54750000D01*
X117910057Y-54748345D01*
X117876688Y-54743395D01*
X117843965Y-54735198D01*
X117812203Y-54723834D01*
X117781707Y-54709410D01*
X117752773Y-54692068D01*
X117725677Y-54671972D01*
X117700682Y-54649318D01*
X117678028Y-54624323D01*
X117657932Y-54597227D01*
X117640590Y-54568293D01*
X117626166Y-54537797D01*
X117614802Y-54506035D01*
X117606605Y-54473312D01*
X117601655Y-54439943D01*
X117600000Y-54406250D01*
X117600000Y-53718750D01*
X117601655Y-53685057D01*
X117606605Y-53651688D01*
X117614802Y-53618965D01*
X117626166Y-53587203D01*
X117640590Y-53556707D01*
X117657932Y-53527773D01*
X117678028Y-53500677D01*
X117700682Y-53475682D01*
X117725677Y-53453028D01*
X117752773Y-53432932D01*
X117781707Y-53415590D01*
X117812203Y-53401166D01*
X117843965Y-53389802D01*
X117876688Y-53381605D01*
X117910057Y-53376655D01*
X117943750Y-53375000D01*
X119056250Y-53375000D01*
X119089943Y-53376655D01*
X119089943Y-53376655D01*
G37*
D11*
X118500000Y-54062500D03*
D10*
G36*
X119089943Y-55251655D02*
X119123312Y-55256605D01*
X119156035Y-55264802D01*
X119187797Y-55276166D01*
X119218293Y-55290590D01*
X119247227Y-55307932D01*
X119274323Y-55328028D01*
X119299318Y-55350682D01*
X119321972Y-55375677D01*
X119342068Y-55402773D01*
X119359410Y-55431707D01*
X119373834Y-55462203D01*
X119385198Y-55493965D01*
X119393395Y-55526688D01*
X119398345Y-55560057D01*
X119400000Y-55593750D01*
X119400000Y-56281250D01*
X119398345Y-56314943D01*
X119393395Y-56348312D01*
X119385198Y-56381035D01*
X119373834Y-56412797D01*
X119359410Y-56443293D01*
X119342068Y-56472227D01*
X119321972Y-56499323D01*
X119299318Y-56524318D01*
X119274323Y-56546972D01*
X119247227Y-56567068D01*
X119218293Y-56584410D01*
X119187797Y-56598834D01*
X119156035Y-56610198D01*
X119123312Y-56618395D01*
X119089943Y-56623345D01*
X119056250Y-56625000D01*
X117943750Y-56625000D01*
X117910057Y-56623345D01*
X117876688Y-56618395D01*
X117843965Y-56610198D01*
X117812203Y-56598834D01*
X117781707Y-56584410D01*
X117752773Y-56567068D01*
X117725677Y-56546972D01*
X117700682Y-56524318D01*
X117678028Y-56499323D01*
X117657932Y-56472227D01*
X117640590Y-56443293D01*
X117626166Y-56412797D01*
X117614802Y-56381035D01*
X117606605Y-56348312D01*
X117601655Y-56314943D01*
X117600000Y-56281250D01*
X117600000Y-55593750D01*
X117601655Y-55560057D01*
X117606605Y-55526688D01*
X117614802Y-55493965D01*
X117626166Y-55462203D01*
X117640590Y-55431707D01*
X117657932Y-55402773D01*
X117678028Y-55375677D01*
X117700682Y-55350682D01*
X117725677Y-55328028D01*
X117752773Y-55307932D01*
X117781707Y-55290590D01*
X117812203Y-55276166D01*
X117843965Y-55264802D01*
X117876688Y-55256605D01*
X117910057Y-55251655D01*
X117943750Y-55250000D01*
X119056250Y-55250000D01*
X119089943Y-55251655D01*
X119089943Y-55251655D01*
G37*
D11*
X118500000Y-55937500D03*
G04 #@! TD*
D10*
G04 #@! TO.C,R3*
G36*
X109959943Y-51101655D02*
X109993312Y-51106605D01*
X110026035Y-51114802D01*
X110057797Y-51126166D01*
X110088293Y-51140590D01*
X110117227Y-51157932D01*
X110144323Y-51178028D01*
X110169318Y-51200682D01*
X110191972Y-51225677D01*
X110212068Y-51252773D01*
X110229410Y-51281707D01*
X110243834Y-51312203D01*
X110255198Y-51343965D01*
X110263395Y-51376688D01*
X110268345Y-51410057D01*
X110270000Y-51443750D01*
X110270000Y-52556250D01*
X110268345Y-52589943D01*
X110263395Y-52623312D01*
X110255198Y-52656035D01*
X110243834Y-52687797D01*
X110229410Y-52718293D01*
X110212068Y-52747227D01*
X110191972Y-52774323D01*
X110169318Y-52799318D01*
X110144323Y-52821972D01*
X110117227Y-52842068D01*
X110088293Y-52859410D01*
X110057797Y-52873834D01*
X110026035Y-52885198D01*
X109993312Y-52893395D01*
X109959943Y-52898345D01*
X109926250Y-52900000D01*
X109238750Y-52900000D01*
X109205057Y-52898345D01*
X109171688Y-52893395D01*
X109138965Y-52885198D01*
X109107203Y-52873834D01*
X109076707Y-52859410D01*
X109047773Y-52842068D01*
X109020677Y-52821972D01*
X108995682Y-52799318D01*
X108973028Y-52774323D01*
X108952932Y-52747227D01*
X108935590Y-52718293D01*
X108921166Y-52687797D01*
X108909802Y-52656035D01*
X108901605Y-52623312D01*
X108896655Y-52589943D01*
X108895000Y-52556250D01*
X108895000Y-51443750D01*
X108896655Y-51410057D01*
X108901605Y-51376688D01*
X108909802Y-51343965D01*
X108921166Y-51312203D01*
X108935590Y-51281707D01*
X108952932Y-51252773D01*
X108973028Y-51225677D01*
X108995682Y-51200682D01*
X109020677Y-51178028D01*
X109047773Y-51157932D01*
X109076707Y-51140590D01*
X109107203Y-51126166D01*
X109138965Y-51114802D01*
X109171688Y-51106605D01*
X109205057Y-51101655D01*
X109238750Y-51100000D01*
X109926250Y-51100000D01*
X109959943Y-51101655D01*
X109959943Y-51101655D01*
G37*
D11*
X109582500Y-52000000D03*
D10*
G36*
X111834943Y-51101655D02*
X111868312Y-51106605D01*
X111901035Y-51114802D01*
X111932797Y-51126166D01*
X111963293Y-51140590D01*
X111992227Y-51157932D01*
X112019323Y-51178028D01*
X112044318Y-51200682D01*
X112066972Y-51225677D01*
X112087068Y-51252773D01*
X112104410Y-51281707D01*
X112118834Y-51312203D01*
X112130198Y-51343965D01*
X112138395Y-51376688D01*
X112143345Y-51410057D01*
X112145000Y-51443750D01*
X112145000Y-52556250D01*
X112143345Y-52589943D01*
X112138395Y-52623312D01*
X112130198Y-52656035D01*
X112118834Y-52687797D01*
X112104410Y-52718293D01*
X112087068Y-52747227D01*
X112066972Y-52774323D01*
X112044318Y-52799318D01*
X112019323Y-52821972D01*
X111992227Y-52842068D01*
X111963293Y-52859410D01*
X111932797Y-52873834D01*
X111901035Y-52885198D01*
X111868312Y-52893395D01*
X111834943Y-52898345D01*
X111801250Y-52900000D01*
X111113750Y-52900000D01*
X111080057Y-52898345D01*
X111046688Y-52893395D01*
X111013965Y-52885198D01*
X110982203Y-52873834D01*
X110951707Y-52859410D01*
X110922773Y-52842068D01*
X110895677Y-52821972D01*
X110870682Y-52799318D01*
X110848028Y-52774323D01*
X110827932Y-52747227D01*
X110810590Y-52718293D01*
X110796166Y-52687797D01*
X110784802Y-52656035D01*
X110776605Y-52623312D01*
X110771655Y-52589943D01*
X110770000Y-52556250D01*
X110770000Y-51443750D01*
X110771655Y-51410057D01*
X110776605Y-51376688D01*
X110784802Y-51343965D01*
X110796166Y-51312203D01*
X110810590Y-51281707D01*
X110827932Y-51252773D01*
X110848028Y-51225677D01*
X110870682Y-51200682D01*
X110895677Y-51178028D01*
X110922773Y-51157932D01*
X110951707Y-51140590D01*
X110982203Y-51126166D01*
X111013965Y-51114802D01*
X111046688Y-51106605D01*
X111080057Y-51101655D01*
X111113750Y-51100000D01*
X111801250Y-51100000D01*
X111834943Y-51101655D01*
X111834943Y-51101655D01*
G37*
D11*
X111457500Y-52000000D03*
G04 #@! TD*
D10*
G04 #@! TO.C,R2*
G36*
X135089943Y-53376655D02*
X135123312Y-53381605D01*
X135156035Y-53389802D01*
X135187797Y-53401166D01*
X135218293Y-53415590D01*
X135247227Y-53432932D01*
X135274323Y-53453028D01*
X135299318Y-53475682D01*
X135321972Y-53500677D01*
X135342068Y-53527773D01*
X135359410Y-53556707D01*
X135373834Y-53587203D01*
X135385198Y-53618965D01*
X135393395Y-53651688D01*
X135398345Y-53685057D01*
X135400000Y-53718750D01*
X135400000Y-54406250D01*
X135398345Y-54439943D01*
X135393395Y-54473312D01*
X135385198Y-54506035D01*
X135373834Y-54537797D01*
X135359410Y-54568293D01*
X135342068Y-54597227D01*
X135321972Y-54624323D01*
X135299318Y-54649318D01*
X135274323Y-54671972D01*
X135247227Y-54692068D01*
X135218293Y-54709410D01*
X135187797Y-54723834D01*
X135156035Y-54735198D01*
X135123312Y-54743395D01*
X135089943Y-54748345D01*
X135056250Y-54750000D01*
X133943750Y-54750000D01*
X133910057Y-54748345D01*
X133876688Y-54743395D01*
X133843965Y-54735198D01*
X133812203Y-54723834D01*
X133781707Y-54709410D01*
X133752773Y-54692068D01*
X133725677Y-54671972D01*
X133700682Y-54649318D01*
X133678028Y-54624323D01*
X133657932Y-54597227D01*
X133640590Y-54568293D01*
X133626166Y-54537797D01*
X133614802Y-54506035D01*
X133606605Y-54473312D01*
X133601655Y-54439943D01*
X133600000Y-54406250D01*
X133600000Y-53718750D01*
X133601655Y-53685057D01*
X133606605Y-53651688D01*
X133614802Y-53618965D01*
X133626166Y-53587203D01*
X133640590Y-53556707D01*
X133657932Y-53527773D01*
X133678028Y-53500677D01*
X133700682Y-53475682D01*
X133725677Y-53453028D01*
X133752773Y-53432932D01*
X133781707Y-53415590D01*
X133812203Y-53401166D01*
X133843965Y-53389802D01*
X133876688Y-53381605D01*
X133910057Y-53376655D01*
X133943750Y-53375000D01*
X135056250Y-53375000D01*
X135089943Y-53376655D01*
X135089943Y-53376655D01*
G37*
D11*
X134500000Y-54062500D03*
D10*
G36*
X135089943Y-55251655D02*
X135123312Y-55256605D01*
X135156035Y-55264802D01*
X135187797Y-55276166D01*
X135218293Y-55290590D01*
X135247227Y-55307932D01*
X135274323Y-55328028D01*
X135299318Y-55350682D01*
X135321972Y-55375677D01*
X135342068Y-55402773D01*
X135359410Y-55431707D01*
X135373834Y-55462203D01*
X135385198Y-55493965D01*
X135393395Y-55526688D01*
X135398345Y-55560057D01*
X135400000Y-55593750D01*
X135400000Y-56281250D01*
X135398345Y-56314943D01*
X135393395Y-56348312D01*
X135385198Y-56381035D01*
X135373834Y-56412797D01*
X135359410Y-56443293D01*
X135342068Y-56472227D01*
X135321972Y-56499323D01*
X135299318Y-56524318D01*
X135274323Y-56546972D01*
X135247227Y-56567068D01*
X135218293Y-56584410D01*
X135187797Y-56598834D01*
X135156035Y-56610198D01*
X135123312Y-56618395D01*
X135089943Y-56623345D01*
X135056250Y-56625000D01*
X133943750Y-56625000D01*
X133910057Y-56623345D01*
X133876688Y-56618395D01*
X133843965Y-56610198D01*
X133812203Y-56598834D01*
X133781707Y-56584410D01*
X133752773Y-56567068D01*
X133725677Y-56546972D01*
X133700682Y-56524318D01*
X133678028Y-56499323D01*
X133657932Y-56472227D01*
X133640590Y-56443293D01*
X133626166Y-56412797D01*
X133614802Y-56381035D01*
X133606605Y-56348312D01*
X133601655Y-56314943D01*
X133600000Y-56281250D01*
X133600000Y-55593750D01*
X133601655Y-55560057D01*
X133606605Y-55526688D01*
X133614802Y-55493965D01*
X133626166Y-55462203D01*
X133640590Y-55431707D01*
X133657932Y-55402773D01*
X133678028Y-55375677D01*
X133700682Y-55350682D01*
X133725677Y-55328028D01*
X133752773Y-55307932D01*
X133781707Y-55290590D01*
X133812203Y-55276166D01*
X133843965Y-55264802D01*
X133876688Y-55256605D01*
X133910057Y-55251655D01*
X133943750Y-55250000D01*
X135056250Y-55250000D01*
X135089943Y-55251655D01*
X135089943Y-55251655D01*
G37*
D11*
X134500000Y-55937500D03*
G04 #@! TD*
D10*
G04 #@! TO.C,R32*
G36*
X94089943Y-74939155D02*
X94123312Y-74944105D01*
X94156035Y-74952302D01*
X94187797Y-74963666D01*
X94218293Y-74978090D01*
X94247227Y-74995432D01*
X94274323Y-75015528D01*
X94299318Y-75038182D01*
X94321972Y-75063177D01*
X94342068Y-75090273D01*
X94359410Y-75119207D01*
X94373834Y-75149703D01*
X94385198Y-75181465D01*
X94393395Y-75214188D01*
X94398345Y-75247557D01*
X94400000Y-75281250D01*
X94400000Y-75968750D01*
X94398345Y-76002443D01*
X94393395Y-76035812D01*
X94385198Y-76068535D01*
X94373834Y-76100297D01*
X94359410Y-76130793D01*
X94342068Y-76159727D01*
X94321972Y-76186823D01*
X94299318Y-76211818D01*
X94274323Y-76234472D01*
X94247227Y-76254568D01*
X94218293Y-76271910D01*
X94187797Y-76286334D01*
X94156035Y-76297698D01*
X94123312Y-76305895D01*
X94089943Y-76310845D01*
X94056250Y-76312500D01*
X92943750Y-76312500D01*
X92910057Y-76310845D01*
X92876688Y-76305895D01*
X92843965Y-76297698D01*
X92812203Y-76286334D01*
X92781707Y-76271910D01*
X92752773Y-76254568D01*
X92725677Y-76234472D01*
X92700682Y-76211818D01*
X92678028Y-76186823D01*
X92657932Y-76159727D01*
X92640590Y-76130793D01*
X92626166Y-76100297D01*
X92614802Y-76068535D01*
X92606605Y-76035812D01*
X92601655Y-76002443D01*
X92600000Y-75968750D01*
X92600000Y-75281250D01*
X92601655Y-75247557D01*
X92606605Y-75214188D01*
X92614802Y-75181465D01*
X92626166Y-75149703D01*
X92640590Y-75119207D01*
X92657932Y-75090273D01*
X92678028Y-75063177D01*
X92700682Y-75038182D01*
X92725677Y-75015528D01*
X92752773Y-74995432D01*
X92781707Y-74978090D01*
X92812203Y-74963666D01*
X92843965Y-74952302D01*
X92876688Y-74944105D01*
X92910057Y-74939155D01*
X92943750Y-74937500D01*
X94056250Y-74937500D01*
X94089943Y-74939155D01*
X94089943Y-74939155D01*
G37*
D11*
X93500000Y-75625000D03*
D10*
G36*
X94089943Y-76814155D02*
X94123312Y-76819105D01*
X94156035Y-76827302D01*
X94187797Y-76838666D01*
X94218293Y-76853090D01*
X94247227Y-76870432D01*
X94274323Y-76890528D01*
X94299318Y-76913182D01*
X94321972Y-76938177D01*
X94342068Y-76965273D01*
X94359410Y-76994207D01*
X94373834Y-77024703D01*
X94385198Y-77056465D01*
X94393395Y-77089188D01*
X94398345Y-77122557D01*
X94400000Y-77156250D01*
X94400000Y-77843750D01*
X94398345Y-77877443D01*
X94393395Y-77910812D01*
X94385198Y-77943535D01*
X94373834Y-77975297D01*
X94359410Y-78005793D01*
X94342068Y-78034727D01*
X94321972Y-78061823D01*
X94299318Y-78086818D01*
X94274323Y-78109472D01*
X94247227Y-78129568D01*
X94218293Y-78146910D01*
X94187797Y-78161334D01*
X94156035Y-78172698D01*
X94123312Y-78180895D01*
X94089943Y-78185845D01*
X94056250Y-78187500D01*
X92943750Y-78187500D01*
X92910057Y-78185845D01*
X92876688Y-78180895D01*
X92843965Y-78172698D01*
X92812203Y-78161334D01*
X92781707Y-78146910D01*
X92752773Y-78129568D01*
X92725677Y-78109472D01*
X92700682Y-78086818D01*
X92678028Y-78061823D01*
X92657932Y-78034727D01*
X92640590Y-78005793D01*
X92626166Y-77975297D01*
X92614802Y-77943535D01*
X92606605Y-77910812D01*
X92601655Y-77877443D01*
X92600000Y-77843750D01*
X92600000Y-77156250D01*
X92601655Y-77122557D01*
X92606605Y-77089188D01*
X92614802Y-77056465D01*
X92626166Y-77024703D01*
X92640590Y-76994207D01*
X92657932Y-76965273D01*
X92678028Y-76938177D01*
X92700682Y-76913182D01*
X92725677Y-76890528D01*
X92752773Y-76870432D01*
X92781707Y-76853090D01*
X92812203Y-76838666D01*
X92843965Y-76827302D01*
X92876688Y-76819105D01*
X92910057Y-76814155D01*
X92943750Y-76812500D01*
X94056250Y-76812500D01*
X94089943Y-76814155D01*
X94089943Y-76814155D01*
G37*
D11*
X93500000Y-77500000D03*
G04 #@! TD*
D10*
G04 #@! TO.C,R16*
G36*
X119089943Y-62376655D02*
X119123312Y-62381605D01*
X119156035Y-62389802D01*
X119187797Y-62401166D01*
X119218293Y-62415590D01*
X119247227Y-62432932D01*
X119274323Y-62453028D01*
X119299318Y-62475682D01*
X119321972Y-62500677D01*
X119342068Y-62527773D01*
X119359410Y-62556707D01*
X119373834Y-62587203D01*
X119385198Y-62618965D01*
X119393395Y-62651688D01*
X119398345Y-62685057D01*
X119400000Y-62718750D01*
X119400000Y-63406250D01*
X119398345Y-63439943D01*
X119393395Y-63473312D01*
X119385198Y-63506035D01*
X119373834Y-63537797D01*
X119359410Y-63568293D01*
X119342068Y-63597227D01*
X119321972Y-63624323D01*
X119299318Y-63649318D01*
X119274323Y-63671972D01*
X119247227Y-63692068D01*
X119218293Y-63709410D01*
X119187797Y-63723834D01*
X119156035Y-63735198D01*
X119123312Y-63743395D01*
X119089943Y-63748345D01*
X119056250Y-63750000D01*
X117943750Y-63750000D01*
X117910057Y-63748345D01*
X117876688Y-63743395D01*
X117843965Y-63735198D01*
X117812203Y-63723834D01*
X117781707Y-63709410D01*
X117752773Y-63692068D01*
X117725677Y-63671972D01*
X117700682Y-63649318D01*
X117678028Y-63624323D01*
X117657932Y-63597227D01*
X117640590Y-63568293D01*
X117626166Y-63537797D01*
X117614802Y-63506035D01*
X117606605Y-63473312D01*
X117601655Y-63439943D01*
X117600000Y-63406250D01*
X117600000Y-62718750D01*
X117601655Y-62685057D01*
X117606605Y-62651688D01*
X117614802Y-62618965D01*
X117626166Y-62587203D01*
X117640590Y-62556707D01*
X117657932Y-62527773D01*
X117678028Y-62500677D01*
X117700682Y-62475682D01*
X117725677Y-62453028D01*
X117752773Y-62432932D01*
X117781707Y-62415590D01*
X117812203Y-62401166D01*
X117843965Y-62389802D01*
X117876688Y-62381605D01*
X117910057Y-62376655D01*
X117943750Y-62375000D01*
X119056250Y-62375000D01*
X119089943Y-62376655D01*
X119089943Y-62376655D01*
G37*
D11*
X118500000Y-63062500D03*
D10*
G36*
X119089943Y-64251655D02*
X119123312Y-64256605D01*
X119156035Y-64264802D01*
X119187797Y-64276166D01*
X119218293Y-64290590D01*
X119247227Y-64307932D01*
X119274323Y-64328028D01*
X119299318Y-64350682D01*
X119321972Y-64375677D01*
X119342068Y-64402773D01*
X119359410Y-64431707D01*
X119373834Y-64462203D01*
X119385198Y-64493965D01*
X119393395Y-64526688D01*
X119398345Y-64560057D01*
X119400000Y-64593750D01*
X119400000Y-65281250D01*
X119398345Y-65314943D01*
X119393395Y-65348312D01*
X119385198Y-65381035D01*
X119373834Y-65412797D01*
X119359410Y-65443293D01*
X119342068Y-65472227D01*
X119321972Y-65499323D01*
X119299318Y-65524318D01*
X119274323Y-65546972D01*
X119247227Y-65567068D01*
X119218293Y-65584410D01*
X119187797Y-65598834D01*
X119156035Y-65610198D01*
X119123312Y-65618395D01*
X119089943Y-65623345D01*
X119056250Y-65625000D01*
X117943750Y-65625000D01*
X117910057Y-65623345D01*
X117876688Y-65618395D01*
X117843965Y-65610198D01*
X117812203Y-65598834D01*
X117781707Y-65584410D01*
X117752773Y-65567068D01*
X117725677Y-65546972D01*
X117700682Y-65524318D01*
X117678028Y-65499323D01*
X117657932Y-65472227D01*
X117640590Y-65443293D01*
X117626166Y-65412797D01*
X117614802Y-65381035D01*
X117606605Y-65348312D01*
X117601655Y-65314943D01*
X117600000Y-65281250D01*
X117600000Y-64593750D01*
X117601655Y-64560057D01*
X117606605Y-64526688D01*
X117614802Y-64493965D01*
X117626166Y-64462203D01*
X117640590Y-64431707D01*
X117657932Y-64402773D01*
X117678028Y-64375677D01*
X117700682Y-64350682D01*
X117725677Y-64328028D01*
X117752773Y-64307932D01*
X117781707Y-64290590D01*
X117812203Y-64276166D01*
X117843965Y-64264802D01*
X117876688Y-64256605D01*
X117910057Y-64251655D01*
X117943750Y-64250000D01*
X119056250Y-64250000D01*
X119089943Y-64251655D01*
X119089943Y-64251655D01*
G37*
D11*
X118500000Y-64937500D03*
G04 #@! TD*
D10*
G04 #@! TO.C,R17*
G36*
X143089943Y-64251655D02*
X143123312Y-64256605D01*
X143156035Y-64264802D01*
X143187797Y-64276166D01*
X143218293Y-64290590D01*
X143247227Y-64307932D01*
X143274323Y-64328028D01*
X143299318Y-64350682D01*
X143321972Y-64375677D01*
X143342068Y-64402773D01*
X143359410Y-64431707D01*
X143373834Y-64462203D01*
X143385198Y-64493965D01*
X143393395Y-64526688D01*
X143398345Y-64560057D01*
X143400000Y-64593750D01*
X143400000Y-65281250D01*
X143398345Y-65314943D01*
X143393395Y-65348312D01*
X143385198Y-65381035D01*
X143373834Y-65412797D01*
X143359410Y-65443293D01*
X143342068Y-65472227D01*
X143321972Y-65499323D01*
X143299318Y-65524318D01*
X143274323Y-65546972D01*
X143247227Y-65567068D01*
X143218293Y-65584410D01*
X143187797Y-65598834D01*
X143156035Y-65610198D01*
X143123312Y-65618395D01*
X143089943Y-65623345D01*
X143056250Y-65625000D01*
X141943750Y-65625000D01*
X141910057Y-65623345D01*
X141876688Y-65618395D01*
X141843965Y-65610198D01*
X141812203Y-65598834D01*
X141781707Y-65584410D01*
X141752773Y-65567068D01*
X141725677Y-65546972D01*
X141700682Y-65524318D01*
X141678028Y-65499323D01*
X141657932Y-65472227D01*
X141640590Y-65443293D01*
X141626166Y-65412797D01*
X141614802Y-65381035D01*
X141606605Y-65348312D01*
X141601655Y-65314943D01*
X141600000Y-65281250D01*
X141600000Y-64593750D01*
X141601655Y-64560057D01*
X141606605Y-64526688D01*
X141614802Y-64493965D01*
X141626166Y-64462203D01*
X141640590Y-64431707D01*
X141657932Y-64402773D01*
X141678028Y-64375677D01*
X141700682Y-64350682D01*
X141725677Y-64328028D01*
X141752773Y-64307932D01*
X141781707Y-64290590D01*
X141812203Y-64276166D01*
X141843965Y-64264802D01*
X141876688Y-64256605D01*
X141910057Y-64251655D01*
X141943750Y-64250000D01*
X143056250Y-64250000D01*
X143089943Y-64251655D01*
X143089943Y-64251655D01*
G37*
D11*
X142500000Y-64937500D03*
D10*
G36*
X143089943Y-62376655D02*
X143123312Y-62381605D01*
X143156035Y-62389802D01*
X143187797Y-62401166D01*
X143218293Y-62415590D01*
X143247227Y-62432932D01*
X143274323Y-62453028D01*
X143299318Y-62475682D01*
X143321972Y-62500677D01*
X143342068Y-62527773D01*
X143359410Y-62556707D01*
X143373834Y-62587203D01*
X143385198Y-62618965D01*
X143393395Y-62651688D01*
X143398345Y-62685057D01*
X143400000Y-62718750D01*
X143400000Y-63406250D01*
X143398345Y-63439943D01*
X143393395Y-63473312D01*
X143385198Y-63506035D01*
X143373834Y-63537797D01*
X143359410Y-63568293D01*
X143342068Y-63597227D01*
X143321972Y-63624323D01*
X143299318Y-63649318D01*
X143274323Y-63671972D01*
X143247227Y-63692068D01*
X143218293Y-63709410D01*
X143187797Y-63723834D01*
X143156035Y-63735198D01*
X143123312Y-63743395D01*
X143089943Y-63748345D01*
X143056250Y-63750000D01*
X141943750Y-63750000D01*
X141910057Y-63748345D01*
X141876688Y-63743395D01*
X141843965Y-63735198D01*
X141812203Y-63723834D01*
X141781707Y-63709410D01*
X141752773Y-63692068D01*
X141725677Y-63671972D01*
X141700682Y-63649318D01*
X141678028Y-63624323D01*
X141657932Y-63597227D01*
X141640590Y-63568293D01*
X141626166Y-63537797D01*
X141614802Y-63506035D01*
X141606605Y-63473312D01*
X141601655Y-63439943D01*
X141600000Y-63406250D01*
X141600000Y-62718750D01*
X141601655Y-62685057D01*
X141606605Y-62651688D01*
X141614802Y-62618965D01*
X141626166Y-62587203D01*
X141640590Y-62556707D01*
X141657932Y-62527773D01*
X141678028Y-62500677D01*
X141700682Y-62475682D01*
X141725677Y-62453028D01*
X141752773Y-62432932D01*
X141781707Y-62415590D01*
X141812203Y-62401166D01*
X141843965Y-62389802D01*
X141876688Y-62381605D01*
X141910057Y-62376655D01*
X141943750Y-62375000D01*
X143056250Y-62375000D01*
X143089943Y-62376655D01*
X143089943Y-62376655D01*
G37*
D11*
X142500000Y-63062500D03*
G04 #@! TD*
D10*
G04 #@! TO.C,R18*
G36*
X114334943Y-59601655D02*
X114368312Y-59606605D01*
X114401035Y-59614802D01*
X114432797Y-59626166D01*
X114463293Y-59640590D01*
X114492227Y-59657932D01*
X114519323Y-59678028D01*
X114544318Y-59700682D01*
X114566972Y-59725677D01*
X114587068Y-59752773D01*
X114604410Y-59781707D01*
X114618834Y-59812203D01*
X114630198Y-59843965D01*
X114638395Y-59876688D01*
X114643345Y-59910057D01*
X114645000Y-59943750D01*
X114645000Y-61056250D01*
X114643345Y-61089943D01*
X114638395Y-61123312D01*
X114630198Y-61156035D01*
X114618834Y-61187797D01*
X114604410Y-61218293D01*
X114587068Y-61247227D01*
X114566972Y-61274323D01*
X114544318Y-61299318D01*
X114519323Y-61321972D01*
X114492227Y-61342068D01*
X114463293Y-61359410D01*
X114432797Y-61373834D01*
X114401035Y-61385198D01*
X114368312Y-61393395D01*
X114334943Y-61398345D01*
X114301250Y-61400000D01*
X113613750Y-61400000D01*
X113580057Y-61398345D01*
X113546688Y-61393395D01*
X113513965Y-61385198D01*
X113482203Y-61373834D01*
X113451707Y-61359410D01*
X113422773Y-61342068D01*
X113395677Y-61321972D01*
X113370682Y-61299318D01*
X113348028Y-61274323D01*
X113327932Y-61247227D01*
X113310590Y-61218293D01*
X113296166Y-61187797D01*
X113284802Y-61156035D01*
X113276605Y-61123312D01*
X113271655Y-61089943D01*
X113270000Y-61056250D01*
X113270000Y-59943750D01*
X113271655Y-59910057D01*
X113276605Y-59876688D01*
X113284802Y-59843965D01*
X113296166Y-59812203D01*
X113310590Y-59781707D01*
X113327932Y-59752773D01*
X113348028Y-59725677D01*
X113370682Y-59700682D01*
X113395677Y-59678028D01*
X113422773Y-59657932D01*
X113451707Y-59640590D01*
X113482203Y-59626166D01*
X113513965Y-59614802D01*
X113546688Y-59606605D01*
X113580057Y-59601655D01*
X113613750Y-59600000D01*
X114301250Y-59600000D01*
X114334943Y-59601655D01*
X114334943Y-59601655D01*
G37*
D11*
X113957500Y-60500000D03*
D10*
G36*
X116209943Y-59601655D02*
X116243312Y-59606605D01*
X116276035Y-59614802D01*
X116307797Y-59626166D01*
X116338293Y-59640590D01*
X116367227Y-59657932D01*
X116394323Y-59678028D01*
X116419318Y-59700682D01*
X116441972Y-59725677D01*
X116462068Y-59752773D01*
X116479410Y-59781707D01*
X116493834Y-59812203D01*
X116505198Y-59843965D01*
X116513395Y-59876688D01*
X116518345Y-59910057D01*
X116520000Y-59943750D01*
X116520000Y-61056250D01*
X116518345Y-61089943D01*
X116513395Y-61123312D01*
X116505198Y-61156035D01*
X116493834Y-61187797D01*
X116479410Y-61218293D01*
X116462068Y-61247227D01*
X116441972Y-61274323D01*
X116419318Y-61299318D01*
X116394323Y-61321972D01*
X116367227Y-61342068D01*
X116338293Y-61359410D01*
X116307797Y-61373834D01*
X116276035Y-61385198D01*
X116243312Y-61393395D01*
X116209943Y-61398345D01*
X116176250Y-61400000D01*
X115488750Y-61400000D01*
X115455057Y-61398345D01*
X115421688Y-61393395D01*
X115388965Y-61385198D01*
X115357203Y-61373834D01*
X115326707Y-61359410D01*
X115297773Y-61342068D01*
X115270677Y-61321972D01*
X115245682Y-61299318D01*
X115223028Y-61274323D01*
X115202932Y-61247227D01*
X115185590Y-61218293D01*
X115171166Y-61187797D01*
X115159802Y-61156035D01*
X115151605Y-61123312D01*
X115146655Y-61089943D01*
X115145000Y-61056250D01*
X115145000Y-59943750D01*
X115146655Y-59910057D01*
X115151605Y-59876688D01*
X115159802Y-59843965D01*
X115171166Y-59812203D01*
X115185590Y-59781707D01*
X115202932Y-59752773D01*
X115223028Y-59725677D01*
X115245682Y-59700682D01*
X115270677Y-59678028D01*
X115297773Y-59657932D01*
X115326707Y-59640590D01*
X115357203Y-59626166D01*
X115388965Y-59614802D01*
X115421688Y-59606605D01*
X115455057Y-59601655D01*
X115488750Y-59600000D01*
X116176250Y-59600000D01*
X116209943Y-59601655D01*
X116209943Y-59601655D01*
G37*
D11*
X115832500Y-60500000D03*
G04 #@! TD*
D10*
G04 #@! TO.C,R19*
G36*
X102877443Y-59601655D02*
X102910812Y-59606605D01*
X102943535Y-59614802D01*
X102975297Y-59626166D01*
X103005793Y-59640590D01*
X103034727Y-59657932D01*
X103061823Y-59678028D01*
X103086818Y-59700682D01*
X103109472Y-59725677D01*
X103129568Y-59752773D01*
X103146910Y-59781707D01*
X103161334Y-59812203D01*
X103172698Y-59843965D01*
X103180895Y-59876688D01*
X103185845Y-59910057D01*
X103187500Y-59943750D01*
X103187500Y-61056250D01*
X103185845Y-61089943D01*
X103180895Y-61123312D01*
X103172698Y-61156035D01*
X103161334Y-61187797D01*
X103146910Y-61218293D01*
X103129568Y-61247227D01*
X103109472Y-61274323D01*
X103086818Y-61299318D01*
X103061823Y-61321972D01*
X103034727Y-61342068D01*
X103005793Y-61359410D01*
X102975297Y-61373834D01*
X102943535Y-61385198D01*
X102910812Y-61393395D01*
X102877443Y-61398345D01*
X102843750Y-61400000D01*
X102156250Y-61400000D01*
X102122557Y-61398345D01*
X102089188Y-61393395D01*
X102056465Y-61385198D01*
X102024703Y-61373834D01*
X101994207Y-61359410D01*
X101965273Y-61342068D01*
X101938177Y-61321972D01*
X101913182Y-61299318D01*
X101890528Y-61274323D01*
X101870432Y-61247227D01*
X101853090Y-61218293D01*
X101838666Y-61187797D01*
X101827302Y-61156035D01*
X101819105Y-61123312D01*
X101814155Y-61089943D01*
X101812500Y-61056250D01*
X101812500Y-59943750D01*
X101814155Y-59910057D01*
X101819105Y-59876688D01*
X101827302Y-59843965D01*
X101838666Y-59812203D01*
X101853090Y-59781707D01*
X101870432Y-59752773D01*
X101890528Y-59725677D01*
X101913182Y-59700682D01*
X101938177Y-59678028D01*
X101965273Y-59657932D01*
X101994207Y-59640590D01*
X102024703Y-59626166D01*
X102056465Y-59614802D01*
X102089188Y-59606605D01*
X102122557Y-59601655D01*
X102156250Y-59600000D01*
X102843750Y-59600000D01*
X102877443Y-59601655D01*
X102877443Y-59601655D01*
G37*
D11*
X102500000Y-60500000D03*
D10*
G36*
X101002443Y-59601655D02*
X101035812Y-59606605D01*
X101068535Y-59614802D01*
X101100297Y-59626166D01*
X101130793Y-59640590D01*
X101159727Y-59657932D01*
X101186823Y-59678028D01*
X101211818Y-59700682D01*
X101234472Y-59725677D01*
X101254568Y-59752773D01*
X101271910Y-59781707D01*
X101286334Y-59812203D01*
X101297698Y-59843965D01*
X101305895Y-59876688D01*
X101310845Y-59910057D01*
X101312500Y-59943750D01*
X101312500Y-61056250D01*
X101310845Y-61089943D01*
X101305895Y-61123312D01*
X101297698Y-61156035D01*
X101286334Y-61187797D01*
X101271910Y-61218293D01*
X101254568Y-61247227D01*
X101234472Y-61274323D01*
X101211818Y-61299318D01*
X101186823Y-61321972D01*
X101159727Y-61342068D01*
X101130793Y-61359410D01*
X101100297Y-61373834D01*
X101068535Y-61385198D01*
X101035812Y-61393395D01*
X101002443Y-61398345D01*
X100968750Y-61400000D01*
X100281250Y-61400000D01*
X100247557Y-61398345D01*
X100214188Y-61393395D01*
X100181465Y-61385198D01*
X100149703Y-61373834D01*
X100119207Y-61359410D01*
X100090273Y-61342068D01*
X100063177Y-61321972D01*
X100038182Y-61299318D01*
X100015528Y-61274323D01*
X99995432Y-61247227D01*
X99978090Y-61218293D01*
X99963666Y-61187797D01*
X99952302Y-61156035D01*
X99944105Y-61123312D01*
X99939155Y-61089943D01*
X99937500Y-61056250D01*
X99937500Y-59943750D01*
X99939155Y-59910057D01*
X99944105Y-59876688D01*
X99952302Y-59843965D01*
X99963666Y-59812203D01*
X99978090Y-59781707D01*
X99995432Y-59752773D01*
X100015528Y-59725677D01*
X100038182Y-59700682D01*
X100063177Y-59678028D01*
X100090273Y-59657932D01*
X100119207Y-59640590D01*
X100149703Y-59626166D01*
X100181465Y-59614802D01*
X100214188Y-59606605D01*
X100247557Y-59601655D01*
X100281250Y-59600000D01*
X100968750Y-59600000D01*
X101002443Y-59601655D01*
X101002443Y-59601655D01*
G37*
D11*
X100625000Y-60500000D03*
G04 #@! TD*
D10*
G04 #@! TO.C,R20*
G36*
X135089943Y-71376655D02*
X135123312Y-71381605D01*
X135156035Y-71389802D01*
X135187797Y-71401166D01*
X135218293Y-71415590D01*
X135247227Y-71432932D01*
X135274323Y-71453028D01*
X135299318Y-71475682D01*
X135321972Y-71500677D01*
X135342068Y-71527773D01*
X135359410Y-71556707D01*
X135373834Y-71587203D01*
X135385198Y-71618965D01*
X135393395Y-71651688D01*
X135398345Y-71685057D01*
X135400000Y-71718750D01*
X135400000Y-72406250D01*
X135398345Y-72439943D01*
X135393395Y-72473312D01*
X135385198Y-72506035D01*
X135373834Y-72537797D01*
X135359410Y-72568293D01*
X135342068Y-72597227D01*
X135321972Y-72624323D01*
X135299318Y-72649318D01*
X135274323Y-72671972D01*
X135247227Y-72692068D01*
X135218293Y-72709410D01*
X135187797Y-72723834D01*
X135156035Y-72735198D01*
X135123312Y-72743395D01*
X135089943Y-72748345D01*
X135056250Y-72750000D01*
X133943750Y-72750000D01*
X133910057Y-72748345D01*
X133876688Y-72743395D01*
X133843965Y-72735198D01*
X133812203Y-72723834D01*
X133781707Y-72709410D01*
X133752773Y-72692068D01*
X133725677Y-72671972D01*
X133700682Y-72649318D01*
X133678028Y-72624323D01*
X133657932Y-72597227D01*
X133640590Y-72568293D01*
X133626166Y-72537797D01*
X133614802Y-72506035D01*
X133606605Y-72473312D01*
X133601655Y-72439943D01*
X133600000Y-72406250D01*
X133600000Y-71718750D01*
X133601655Y-71685057D01*
X133606605Y-71651688D01*
X133614802Y-71618965D01*
X133626166Y-71587203D01*
X133640590Y-71556707D01*
X133657932Y-71527773D01*
X133678028Y-71500677D01*
X133700682Y-71475682D01*
X133725677Y-71453028D01*
X133752773Y-71432932D01*
X133781707Y-71415590D01*
X133812203Y-71401166D01*
X133843965Y-71389802D01*
X133876688Y-71381605D01*
X133910057Y-71376655D01*
X133943750Y-71375000D01*
X135056250Y-71375000D01*
X135089943Y-71376655D01*
X135089943Y-71376655D01*
G37*
D11*
X134500000Y-72062500D03*
D10*
G36*
X135089943Y-73251655D02*
X135123312Y-73256605D01*
X135156035Y-73264802D01*
X135187797Y-73276166D01*
X135218293Y-73290590D01*
X135247227Y-73307932D01*
X135274323Y-73328028D01*
X135299318Y-73350682D01*
X135321972Y-73375677D01*
X135342068Y-73402773D01*
X135359410Y-73431707D01*
X135373834Y-73462203D01*
X135385198Y-73493965D01*
X135393395Y-73526688D01*
X135398345Y-73560057D01*
X135400000Y-73593750D01*
X135400000Y-74281250D01*
X135398345Y-74314943D01*
X135393395Y-74348312D01*
X135385198Y-74381035D01*
X135373834Y-74412797D01*
X135359410Y-74443293D01*
X135342068Y-74472227D01*
X135321972Y-74499323D01*
X135299318Y-74524318D01*
X135274323Y-74546972D01*
X135247227Y-74567068D01*
X135218293Y-74584410D01*
X135187797Y-74598834D01*
X135156035Y-74610198D01*
X135123312Y-74618395D01*
X135089943Y-74623345D01*
X135056250Y-74625000D01*
X133943750Y-74625000D01*
X133910057Y-74623345D01*
X133876688Y-74618395D01*
X133843965Y-74610198D01*
X133812203Y-74598834D01*
X133781707Y-74584410D01*
X133752773Y-74567068D01*
X133725677Y-74546972D01*
X133700682Y-74524318D01*
X133678028Y-74499323D01*
X133657932Y-74472227D01*
X133640590Y-74443293D01*
X133626166Y-74412797D01*
X133614802Y-74381035D01*
X133606605Y-74348312D01*
X133601655Y-74314943D01*
X133600000Y-74281250D01*
X133600000Y-73593750D01*
X133601655Y-73560057D01*
X133606605Y-73526688D01*
X133614802Y-73493965D01*
X133626166Y-73462203D01*
X133640590Y-73431707D01*
X133657932Y-73402773D01*
X133678028Y-73375677D01*
X133700682Y-73350682D01*
X133725677Y-73328028D01*
X133752773Y-73307932D01*
X133781707Y-73290590D01*
X133812203Y-73276166D01*
X133843965Y-73264802D01*
X133876688Y-73256605D01*
X133910057Y-73251655D01*
X133943750Y-73250000D01*
X135056250Y-73250000D01*
X135089943Y-73251655D01*
X135089943Y-73251655D01*
G37*
D11*
X134500000Y-73937500D03*
G04 #@! TD*
D10*
G04 #@! TO.C,R22*
G36*
X111834943Y-68601655D02*
X111868312Y-68606605D01*
X111901035Y-68614802D01*
X111932797Y-68626166D01*
X111963293Y-68640590D01*
X111992227Y-68657932D01*
X112019323Y-68678028D01*
X112044318Y-68700682D01*
X112066972Y-68725677D01*
X112087068Y-68752773D01*
X112104410Y-68781707D01*
X112118834Y-68812203D01*
X112130198Y-68843965D01*
X112138395Y-68876688D01*
X112143345Y-68910057D01*
X112145000Y-68943750D01*
X112145000Y-70056250D01*
X112143345Y-70089943D01*
X112138395Y-70123312D01*
X112130198Y-70156035D01*
X112118834Y-70187797D01*
X112104410Y-70218293D01*
X112087068Y-70247227D01*
X112066972Y-70274323D01*
X112044318Y-70299318D01*
X112019323Y-70321972D01*
X111992227Y-70342068D01*
X111963293Y-70359410D01*
X111932797Y-70373834D01*
X111901035Y-70385198D01*
X111868312Y-70393395D01*
X111834943Y-70398345D01*
X111801250Y-70400000D01*
X111113750Y-70400000D01*
X111080057Y-70398345D01*
X111046688Y-70393395D01*
X111013965Y-70385198D01*
X110982203Y-70373834D01*
X110951707Y-70359410D01*
X110922773Y-70342068D01*
X110895677Y-70321972D01*
X110870682Y-70299318D01*
X110848028Y-70274323D01*
X110827932Y-70247227D01*
X110810590Y-70218293D01*
X110796166Y-70187797D01*
X110784802Y-70156035D01*
X110776605Y-70123312D01*
X110771655Y-70089943D01*
X110770000Y-70056250D01*
X110770000Y-68943750D01*
X110771655Y-68910057D01*
X110776605Y-68876688D01*
X110784802Y-68843965D01*
X110796166Y-68812203D01*
X110810590Y-68781707D01*
X110827932Y-68752773D01*
X110848028Y-68725677D01*
X110870682Y-68700682D01*
X110895677Y-68678028D01*
X110922773Y-68657932D01*
X110951707Y-68640590D01*
X110982203Y-68626166D01*
X111013965Y-68614802D01*
X111046688Y-68606605D01*
X111080057Y-68601655D01*
X111113750Y-68600000D01*
X111801250Y-68600000D01*
X111834943Y-68601655D01*
X111834943Y-68601655D01*
G37*
D11*
X111457500Y-69500000D03*
D10*
G36*
X109959943Y-68601655D02*
X109993312Y-68606605D01*
X110026035Y-68614802D01*
X110057797Y-68626166D01*
X110088293Y-68640590D01*
X110117227Y-68657932D01*
X110144323Y-68678028D01*
X110169318Y-68700682D01*
X110191972Y-68725677D01*
X110212068Y-68752773D01*
X110229410Y-68781707D01*
X110243834Y-68812203D01*
X110255198Y-68843965D01*
X110263395Y-68876688D01*
X110268345Y-68910057D01*
X110270000Y-68943750D01*
X110270000Y-70056250D01*
X110268345Y-70089943D01*
X110263395Y-70123312D01*
X110255198Y-70156035D01*
X110243834Y-70187797D01*
X110229410Y-70218293D01*
X110212068Y-70247227D01*
X110191972Y-70274323D01*
X110169318Y-70299318D01*
X110144323Y-70321972D01*
X110117227Y-70342068D01*
X110088293Y-70359410D01*
X110057797Y-70373834D01*
X110026035Y-70385198D01*
X109993312Y-70393395D01*
X109959943Y-70398345D01*
X109926250Y-70400000D01*
X109238750Y-70400000D01*
X109205057Y-70398345D01*
X109171688Y-70393395D01*
X109138965Y-70385198D01*
X109107203Y-70373834D01*
X109076707Y-70359410D01*
X109047773Y-70342068D01*
X109020677Y-70321972D01*
X108995682Y-70299318D01*
X108973028Y-70274323D01*
X108952932Y-70247227D01*
X108935590Y-70218293D01*
X108921166Y-70187797D01*
X108909802Y-70156035D01*
X108901605Y-70123312D01*
X108896655Y-70089943D01*
X108895000Y-70056250D01*
X108895000Y-68943750D01*
X108896655Y-68910057D01*
X108901605Y-68876688D01*
X108909802Y-68843965D01*
X108921166Y-68812203D01*
X108935590Y-68781707D01*
X108952932Y-68752773D01*
X108973028Y-68725677D01*
X108995682Y-68700682D01*
X109020677Y-68678028D01*
X109047773Y-68657932D01*
X109076707Y-68640590D01*
X109107203Y-68626166D01*
X109138965Y-68614802D01*
X109171688Y-68606605D01*
X109205057Y-68601655D01*
X109238750Y-68600000D01*
X109926250Y-68600000D01*
X109959943Y-68601655D01*
X109959943Y-68601655D01*
G37*
D11*
X109582500Y-69500000D03*
G04 #@! TD*
D10*
G04 #@! TO.C,R4*
G36*
X107314943Y-51101655D02*
X107348312Y-51106605D01*
X107381035Y-51114802D01*
X107412797Y-51126166D01*
X107443293Y-51140590D01*
X107472227Y-51157932D01*
X107499323Y-51178028D01*
X107524318Y-51200682D01*
X107546972Y-51225677D01*
X107567068Y-51252773D01*
X107584410Y-51281707D01*
X107598834Y-51312203D01*
X107610198Y-51343965D01*
X107618395Y-51376688D01*
X107623345Y-51410057D01*
X107625000Y-51443750D01*
X107625000Y-52556250D01*
X107623345Y-52589943D01*
X107618395Y-52623312D01*
X107610198Y-52656035D01*
X107598834Y-52687797D01*
X107584410Y-52718293D01*
X107567068Y-52747227D01*
X107546972Y-52774323D01*
X107524318Y-52799318D01*
X107499323Y-52821972D01*
X107472227Y-52842068D01*
X107443293Y-52859410D01*
X107412797Y-52873834D01*
X107381035Y-52885198D01*
X107348312Y-52893395D01*
X107314943Y-52898345D01*
X107281250Y-52900000D01*
X106593750Y-52900000D01*
X106560057Y-52898345D01*
X106526688Y-52893395D01*
X106493965Y-52885198D01*
X106462203Y-52873834D01*
X106431707Y-52859410D01*
X106402773Y-52842068D01*
X106375677Y-52821972D01*
X106350682Y-52799318D01*
X106328028Y-52774323D01*
X106307932Y-52747227D01*
X106290590Y-52718293D01*
X106276166Y-52687797D01*
X106264802Y-52656035D01*
X106256605Y-52623312D01*
X106251655Y-52589943D01*
X106250000Y-52556250D01*
X106250000Y-51443750D01*
X106251655Y-51410057D01*
X106256605Y-51376688D01*
X106264802Y-51343965D01*
X106276166Y-51312203D01*
X106290590Y-51281707D01*
X106307932Y-51252773D01*
X106328028Y-51225677D01*
X106350682Y-51200682D01*
X106375677Y-51178028D01*
X106402773Y-51157932D01*
X106431707Y-51140590D01*
X106462203Y-51126166D01*
X106493965Y-51114802D01*
X106526688Y-51106605D01*
X106560057Y-51101655D01*
X106593750Y-51100000D01*
X107281250Y-51100000D01*
X107314943Y-51101655D01*
X107314943Y-51101655D01*
G37*
D11*
X106937500Y-52000000D03*
D10*
G36*
X105439943Y-51101655D02*
X105473312Y-51106605D01*
X105506035Y-51114802D01*
X105537797Y-51126166D01*
X105568293Y-51140590D01*
X105597227Y-51157932D01*
X105624323Y-51178028D01*
X105649318Y-51200682D01*
X105671972Y-51225677D01*
X105692068Y-51252773D01*
X105709410Y-51281707D01*
X105723834Y-51312203D01*
X105735198Y-51343965D01*
X105743395Y-51376688D01*
X105748345Y-51410057D01*
X105750000Y-51443750D01*
X105750000Y-52556250D01*
X105748345Y-52589943D01*
X105743395Y-52623312D01*
X105735198Y-52656035D01*
X105723834Y-52687797D01*
X105709410Y-52718293D01*
X105692068Y-52747227D01*
X105671972Y-52774323D01*
X105649318Y-52799318D01*
X105624323Y-52821972D01*
X105597227Y-52842068D01*
X105568293Y-52859410D01*
X105537797Y-52873834D01*
X105506035Y-52885198D01*
X105473312Y-52893395D01*
X105439943Y-52898345D01*
X105406250Y-52900000D01*
X104718750Y-52900000D01*
X104685057Y-52898345D01*
X104651688Y-52893395D01*
X104618965Y-52885198D01*
X104587203Y-52873834D01*
X104556707Y-52859410D01*
X104527773Y-52842068D01*
X104500677Y-52821972D01*
X104475682Y-52799318D01*
X104453028Y-52774323D01*
X104432932Y-52747227D01*
X104415590Y-52718293D01*
X104401166Y-52687797D01*
X104389802Y-52656035D01*
X104381605Y-52623312D01*
X104376655Y-52589943D01*
X104375000Y-52556250D01*
X104375000Y-51443750D01*
X104376655Y-51410057D01*
X104381605Y-51376688D01*
X104389802Y-51343965D01*
X104401166Y-51312203D01*
X104415590Y-51281707D01*
X104432932Y-51252773D01*
X104453028Y-51225677D01*
X104475682Y-51200682D01*
X104500677Y-51178028D01*
X104527773Y-51157932D01*
X104556707Y-51140590D01*
X104587203Y-51126166D01*
X104618965Y-51114802D01*
X104651688Y-51106605D01*
X104685057Y-51101655D01*
X104718750Y-51100000D01*
X105406250Y-51100000D01*
X105439943Y-51101655D01*
X105439943Y-51101655D01*
G37*
D11*
X105062500Y-52000000D03*
G04 #@! TD*
D10*
G04 #@! TO.C,R6*
G36*
X143089943Y-55251655D02*
X143123312Y-55256605D01*
X143156035Y-55264802D01*
X143187797Y-55276166D01*
X143218293Y-55290590D01*
X143247227Y-55307932D01*
X143274323Y-55328028D01*
X143299318Y-55350682D01*
X143321972Y-55375677D01*
X143342068Y-55402773D01*
X143359410Y-55431707D01*
X143373834Y-55462203D01*
X143385198Y-55493965D01*
X143393395Y-55526688D01*
X143398345Y-55560057D01*
X143400000Y-55593750D01*
X143400000Y-56281250D01*
X143398345Y-56314943D01*
X143393395Y-56348312D01*
X143385198Y-56381035D01*
X143373834Y-56412797D01*
X143359410Y-56443293D01*
X143342068Y-56472227D01*
X143321972Y-56499323D01*
X143299318Y-56524318D01*
X143274323Y-56546972D01*
X143247227Y-56567068D01*
X143218293Y-56584410D01*
X143187797Y-56598834D01*
X143156035Y-56610198D01*
X143123312Y-56618395D01*
X143089943Y-56623345D01*
X143056250Y-56625000D01*
X141943750Y-56625000D01*
X141910057Y-56623345D01*
X141876688Y-56618395D01*
X141843965Y-56610198D01*
X141812203Y-56598834D01*
X141781707Y-56584410D01*
X141752773Y-56567068D01*
X141725677Y-56546972D01*
X141700682Y-56524318D01*
X141678028Y-56499323D01*
X141657932Y-56472227D01*
X141640590Y-56443293D01*
X141626166Y-56412797D01*
X141614802Y-56381035D01*
X141606605Y-56348312D01*
X141601655Y-56314943D01*
X141600000Y-56281250D01*
X141600000Y-55593750D01*
X141601655Y-55560057D01*
X141606605Y-55526688D01*
X141614802Y-55493965D01*
X141626166Y-55462203D01*
X141640590Y-55431707D01*
X141657932Y-55402773D01*
X141678028Y-55375677D01*
X141700682Y-55350682D01*
X141725677Y-55328028D01*
X141752773Y-55307932D01*
X141781707Y-55290590D01*
X141812203Y-55276166D01*
X141843965Y-55264802D01*
X141876688Y-55256605D01*
X141910057Y-55251655D01*
X141943750Y-55250000D01*
X143056250Y-55250000D01*
X143089943Y-55251655D01*
X143089943Y-55251655D01*
G37*
D11*
X142500000Y-55937500D03*
D10*
G36*
X143089943Y-53376655D02*
X143123312Y-53381605D01*
X143156035Y-53389802D01*
X143187797Y-53401166D01*
X143218293Y-53415590D01*
X143247227Y-53432932D01*
X143274323Y-53453028D01*
X143299318Y-53475682D01*
X143321972Y-53500677D01*
X143342068Y-53527773D01*
X143359410Y-53556707D01*
X143373834Y-53587203D01*
X143385198Y-53618965D01*
X143393395Y-53651688D01*
X143398345Y-53685057D01*
X143400000Y-53718750D01*
X143400000Y-54406250D01*
X143398345Y-54439943D01*
X143393395Y-54473312D01*
X143385198Y-54506035D01*
X143373834Y-54537797D01*
X143359410Y-54568293D01*
X143342068Y-54597227D01*
X143321972Y-54624323D01*
X143299318Y-54649318D01*
X143274323Y-54671972D01*
X143247227Y-54692068D01*
X143218293Y-54709410D01*
X143187797Y-54723834D01*
X143156035Y-54735198D01*
X143123312Y-54743395D01*
X143089943Y-54748345D01*
X143056250Y-54750000D01*
X141943750Y-54750000D01*
X141910057Y-54748345D01*
X141876688Y-54743395D01*
X141843965Y-54735198D01*
X141812203Y-54723834D01*
X141781707Y-54709410D01*
X141752773Y-54692068D01*
X141725677Y-54671972D01*
X141700682Y-54649318D01*
X141678028Y-54624323D01*
X141657932Y-54597227D01*
X141640590Y-54568293D01*
X141626166Y-54537797D01*
X141614802Y-54506035D01*
X141606605Y-54473312D01*
X141601655Y-54439943D01*
X141600000Y-54406250D01*
X141600000Y-53718750D01*
X141601655Y-53685057D01*
X141606605Y-53651688D01*
X141614802Y-53618965D01*
X141626166Y-53587203D01*
X141640590Y-53556707D01*
X141657932Y-53527773D01*
X141678028Y-53500677D01*
X141700682Y-53475682D01*
X141725677Y-53453028D01*
X141752773Y-53432932D01*
X141781707Y-53415590D01*
X141812203Y-53401166D01*
X141843965Y-53389802D01*
X141876688Y-53381605D01*
X141910057Y-53376655D01*
X141943750Y-53375000D01*
X143056250Y-53375000D01*
X143089943Y-53376655D01*
X143089943Y-53376655D01*
G37*
D11*
X142500000Y-54062500D03*
G04 #@! TD*
D10*
G04 #@! TO.C,R7*
G36*
X114334943Y-51101655D02*
X114368312Y-51106605D01*
X114401035Y-51114802D01*
X114432797Y-51126166D01*
X114463293Y-51140590D01*
X114492227Y-51157932D01*
X114519323Y-51178028D01*
X114544318Y-51200682D01*
X114566972Y-51225677D01*
X114587068Y-51252773D01*
X114604410Y-51281707D01*
X114618834Y-51312203D01*
X114630198Y-51343965D01*
X114638395Y-51376688D01*
X114643345Y-51410057D01*
X114645000Y-51443750D01*
X114645000Y-52556250D01*
X114643345Y-52589943D01*
X114638395Y-52623312D01*
X114630198Y-52656035D01*
X114618834Y-52687797D01*
X114604410Y-52718293D01*
X114587068Y-52747227D01*
X114566972Y-52774323D01*
X114544318Y-52799318D01*
X114519323Y-52821972D01*
X114492227Y-52842068D01*
X114463293Y-52859410D01*
X114432797Y-52873834D01*
X114401035Y-52885198D01*
X114368312Y-52893395D01*
X114334943Y-52898345D01*
X114301250Y-52900000D01*
X113613750Y-52900000D01*
X113580057Y-52898345D01*
X113546688Y-52893395D01*
X113513965Y-52885198D01*
X113482203Y-52873834D01*
X113451707Y-52859410D01*
X113422773Y-52842068D01*
X113395677Y-52821972D01*
X113370682Y-52799318D01*
X113348028Y-52774323D01*
X113327932Y-52747227D01*
X113310590Y-52718293D01*
X113296166Y-52687797D01*
X113284802Y-52656035D01*
X113276605Y-52623312D01*
X113271655Y-52589943D01*
X113270000Y-52556250D01*
X113270000Y-51443750D01*
X113271655Y-51410057D01*
X113276605Y-51376688D01*
X113284802Y-51343965D01*
X113296166Y-51312203D01*
X113310590Y-51281707D01*
X113327932Y-51252773D01*
X113348028Y-51225677D01*
X113370682Y-51200682D01*
X113395677Y-51178028D01*
X113422773Y-51157932D01*
X113451707Y-51140590D01*
X113482203Y-51126166D01*
X113513965Y-51114802D01*
X113546688Y-51106605D01*
X113580057Y-51101655D01*
X113613750Y-51100000D01*
X114301250Y-51100000D01*
X114334943Y-51101655D01*
X114334943Y-51101655D01*
G37*
D11*
X113957500Y-52000000D03*
D10*
G36*
X116209943Y-51101655D02*
X116243312Y-51106605D01*
X116276035Y-51114802D01*
X116307797Y-51126166D01*
X116338293Y-51140590D01*
X116367227Y-51157932D01*
X116394323Y-51178028D01*
X116419318Y-51200682D01*
X116441972Y-51225677D01*
X116462068Y-51252773D01*
X116479410Y-51281707D01*
X116493834Y-51312203D01*
X116505198Y-51343965D01*
X116513395Y-51376688D01*
X116518345Y-51410057D01*
X116520000Y-51443750D01*
X116520000Y-52556250D01*
X116518345Y-52589943D01*
X116513395Y-52623312D01*
X116505198Y-52656035D01*
X116493834Y-52687797D01*
X116479410Y-52718293D01*
X116462068Y-52747227D01*
X116441972Y-52774323D01*
X116419318Y-52799318D01*
X116394323Y-52821972D01*
X116367227Y-52842068D01*
X116338293Y-52859410D01*
X116307797Y-52873834D01*
X116276035Y-52885198D01*
X116243312Y-52893395D01*
X116209943Y-52898345D01*
X116176250Y-52900000D01*
X115488750Y-52900000D01*
X115455057Y-52898345D01*
X115421688Y-52893395D01*
X115388965Y-52885198D01*
X115357203Y-52873834D01*
X115326707Y-52859410D01*
X115297773Y-52842068D01*
X115270677Y-52821972D01*
X115245682Y-52799318D01*
X115223028Y-52774323D01*
X115202932Y-52747227D01*
X115185590Y-52718293D01*
X115171166Y-52687797D01*
X115159802Y-52656035D01*
X115151605Y-52623312D01*
X115146655Y-52589943D01*
X115145000Y-52556250D01*
X115145000Y-51443750D01*
X115146655Y-51410057D01*
X115151605Y-51376688D01*
X115159802Y-51343965D01*
X115171166Y-51312203D01*
X115185590Y-51281707D01*
X115202932Y-51252773D01*
X115223028Y-51225677D01*
X115245682Y-51200682D01*
X115270677Y-51178028D01*
X115297773Y-51157932D01*
X115326707Y-51140590D01*
X115357203Y-51126166D01*
X115388965Y-51114802D01*
X115421688Y-51106605D01*
X115455057Y-51101655D01*
X115488750Y-51100000D01*
X116176250Y-51100000D01*
X116209943Y-51101655D01*
X116209943Y-51101655D01*
G37*
D11*
X115832500Y-52000000D03*
G04 #@! TD*
D10*
G04 #@! TO.C,R8*
G36*
X100939943Y-51101655D02*
X100973312Y-51106605D01*
X101006035Y-51114802D01*
X101037797Y-51126166D01*
X101068293Y-51140590D01*
X101097227Y-51157932D01*
X101124323Y-51178028D01*
X101149318Y-51200682D01*
X101171972Y-51225677D01*
X101192068Y-51252773D01*
X101209410Y-51281707D01*
X101223834Y-51312203D01*
X101235198Y-51343965D01*
X101243395Y-51376688D01*
X101248345Y-51410057D01*
X101250000Y-51443750D01*
X101250000Y-52556250D01*
X101248345Y-52589943D01*
X101243395Y-52623312D01*
X101235198Y-52656035D01*
X101223834Y-52687797D01*
X101209410Y-52718293D01*
X101192068Y-52747227D01*
X101171972Y-52774323D01*
X101149318Y-52799318D01*
X101124323Y-52821972D01*
X101097227Y-52842068D01*
X101068293Y-52859410D01*
X101037797Y-52873834D01*
X101006035Y-52885198D01*
X100973312Y-52893395D01*
X100939943Y-52898345D01*
X100906250Y-52900000D01*
X100218750Y-52900000D01*
X100185057Y-52898345D01*
X100151688Y-52893395D01*
X100118965Y-52885198D01*
X100087203Y-52873834D01*
X100056707Y-52859410D01*
X100027773Y-52842068D01*
X100000677Y-52821972D01*
X99975682Y-52799318D01*
X99953028Y-52774323D01*
X99932932Y-52747227D01*
X99915590Y-52718293D01*
X99901166Y-52687797D01*
X99889802Y-52656035D01*
X99881605Y-52623312D01*
X99876655Y-52589943D01*
X99875000Y-52556250D01*
X99875000Y-51443750D01*
X99876655Y-51410057D01*
X99881605Y-51376688D01*
X99889802Y-51343965D01*
X99901166Y-51312203D01*
X99915590Y-51281707D01*
X99932932Y-51252773D01*
X99953028Y-51225677D01*
X99975682Y-51200682D01*
X100000677Y-51178028D01*
X100027773Y-51157932D01*
X100056707Y-51140590D01*
X100087203Y-51126166D01*
X100118965Y-51114802D01*
X100151688Y-51106605D01*
X100185057Y-51101655D01*
X100218750Y-51100000D01*
X100906250Y-51100000D01*
X100939943Y-51101655D01*
X100939943Y-51101655D01*
G37*
D11*
X100562500Y-52000000D03*
D10*
G36*
X102814943Y-51101655D02*
X102848312Y-51106605D01*
X102881035Y-51114802D01*
X102912797Y-51126166D01*
X102943293Y-51140590D01*
X102972227Y-51157932D01*
X102999323Y-51178028D01*
X103024318Y-51200682D01*
X103046972Y-51225677D01*
X103067068Y-51252773D01*
X103084410Y-51281707D01*
X103098834Y-51312203D01*
X103110198Y-51343965D01*
X103118395Y-51376688D01*
X103123345Y-51410057D01*
X103125000Y-51443750D01*
X103125000Y-52556250D01*
X103123345Y-52589943D01*
X103118395Y-52623312D01*
X103110198Y-52656035D01*
X103098834Y-52687797D01*
X103084410Y-52718293D01*
X103067068Y-52747227D01*
X103046972Y-52774323D01*
X103024318Y-52799318D01*
X102999323Y-52821972D01*
X102972227Y-52842068D01*
X102943293Y-52859410D01*
X102912797Y-52873834D01*
X102881035Y-52885198D01*
X102848312Y-52893395D01*
X102814943Y-52898345D01*
X102781250Y-52900000D01*
X102093750Y-52900000D01*
X102060057Y-52898345D01*
X102026688Y-52893395D01*
X101993965Y-52885198D01*
X101962203Y-52873834D01*
X101931707Y-52859410D01*
X101902773Y-52842068D01*
X101875677Y-52821972D01*
X101850682Y-52799318D01*
X101828028Y-52774323D01*
X101807932Y-52747227D01*
X101790590Y-52718293D01*
X101776166Y-52687797D01*
X101764802Y-52656035D01*
X101756605Y-52623312D01*
X101751655Y-52589943D01*
X101750000Y-52556250D01*
X101750000Y-51443750D01*
X101751655Y-51410057D01*
X101756605Y-51376688D01*
X101764802Y-51343965D01*
X101776166Y-51312203D01*
X101790590Y-51281707D01*
X101807932Y-51252773D01*
X101828028Y-51225677D01*
X101850682Y-51200682D01*
X101875677Y-51178028D01*
X101902773Y-51157932D01*
X101931707Y-51140590D01*
X101962203Y-51126166D01*
X101993965Y-51114802D01*
X102026688Y-51106605D01*
X102060057Y-51101655D01*
X102093750Y-51100000D01*
X102781250Y-51100000D01*
X102814943Y-51101655D01*
X102814943Y-51101655D01*
G37*
D11*
X102437500Y-52000000D03*
G04 #@! TD*
D10*
G04 #@! TO.C,R9*
G36*
X91589943Y-76751655D02*
X91623312Y-76756605D01*
X91656035Y-76764802D01*
X91687797Y-76776166D01*
X91718293Y-76790590D01*
X91747227Y-76807932D01*
X91774323Y-76828028D01*
X91799318Y-76850682D01*
X91821972Y-76875677D01*
X91842068Y-76902773D01*
X91859410Y-76931707D01*
X91873834Y-76962203D01*
X91885198Y-76993965D01*
X91893395Y-77026688D01*
X91898345Y-77060057D01*
X91900000Y-77093750D01*
X91900000Y-77781250D01*
X91898345Y-77814943D01*
X91893395Y-77848312D01*
X91885198Y-77881035D01*
X91873834Y-77912797D01*
X91859410Y-77943293D01*
X91842068Y-77972227D01*
X91821972Y-77999323D01*
X91799318Y-78024318D01*
X91774323Y-78046972D01*
X91747227Y-78067068D01*
X91718293Y-78084410D01*
X91687797Y-78098834D01*
X91656035Y-78110198D01*
X91623312Y-78118395D01*
X91589943Y-78123345D01*
X91556250Y-78125000D01*
X90443750Y-78125000D01*
X90410057Y-78123345D01*
X90376688Y-78118395D01*
X90343965Y-78110198D01*
X90312203Y-78098834D01*
X90281707Y-78084410D01*
X90252773Y-78067068D01*
X90225677Y-78046972D01*
X90200682Y-78024318D01*
X90178028Y-77999323D01*
X90157932Y-77972227D01*
X90140590Y-77943293D01*
X90126166Y-77912797D01*
X90114802Y-77881035D01*
X90106605Y-77848312D01*
X90101655Y-77814943D01*
X90100000Y-77781250D01*
X90100000Y-77093750D01*
X90101655Y-77060057D01*
X90106605Y-77026688D01*
X90114802Y-76993965D01*
X90126166Y-76962203D01*
X90140590Y-76931707D01*
X90157932Y-76902773D01*
X90178028Y-76875677D01*
X90200682Y-76850682D01*
X90225677Y-76828028D01*
X90252773Y-76807932D01*
X90281707Y-76790590D01*
X90312203Y-76776166D01*
X90343965Y-76764802D01*
X90376688Y-76756605D01*
X90410057Y-76751655D01*
X90443750Y-76750000D01*
X91556250Y-76750000D01*
X91589943Y-76751655D01*
X91589943Y-76751655D01*
G37*
D11*
X91000000Y-77437500D03*
D10*
G36*
X91589943Y-74876655D02*
X91623312Y-74881605D01*
X91656035Y-74889802D01*
X91687797Y-74901166D01*
X91718293Y-74915590D01*
X91747227Y-74932932D01*
X91774323Y-74953028D01*
X91799318Y-74975682D01*
X91821972Y-75000677D01*
X91842068Y-75027773D01*
X91859410Y-75056707D01*
X91873834Y-75087203D01*
X91885198Y-75118965D01*
X91893395Y-75151688D01*
X91898345Y-75185057D01*
X91900000Y-75218750D01*
X91900000Y-75906250D01*
X91898345Y-75939943D01*
X91893395Y-75973312D01*
X91885198Y-76006035D01*
X91873834Y-76037797D01*
X91859410Y-76068293D01*
X91842068Y-76097227D01*
X91821972Y-76124323D01*
X91799318Y-76149318D01*
X91774323Y-76171972D01*
X91747227Y-76192068D01*
X91718293Y-76209410D01*
X91687797Y-76223834D01*
X91656035Y-76235198D01*
X91623312Y-76243395D01*
X91589943Y-76248345D01*
X91556250Y-76250000D01*
X90443750Y-76250000D01*
X90410057Y-76248345D01*
X90376688Y-76243395D01*
X90343965Y-76235198D01*
X90312203Y-76223834D01*
X90281707Y-76209410D01*
X90252773Y-76192068D01*
X90225677Y-76171972D01*
X90200682Y-76149318D01*
X90178028Y-76124323D01*
X90157932Y-76097227D01*
X90140590Y-76068293D01*
X90126166Y-76037797D01*
X90114802Y-76006035D01*
X90106605Y-75973312D01*
X90101655Y-75939943D01*
X90100000Y-75906250D01*
X90100000Y-75218750D01*
X90101655Y-75185057D01*
X90106605Y-75151688D01*
X90114802Y-75118965D01*
X90126166Y-75087203D01*
X90140590Y-75056707D01*
X90157932Y-75027773D01*
X90178028Y-75000677D01*
X90200682Y-74975682D01*
X90225677Y-74953028D01*
X90252773Y-74932932D01*
X90281707Y-74915590D01*
X90312203Y-74901166D01*
X90343965Y-74889802D01*
X90376688Y-74881605D01*
X90410057Y-74876655D01*
X90443750Y-74875000D01*
X91556250Y-74875000D01*
X91589943Y-74876655D01*
X91589943Y-74876655D01*
G37*
D11*
X91000000Y-75562500D03*
G04 #@! TD*
D10*
G04 #@! TO.C,R10*
G36*
X135089943Y-64251655D02*
X135123312Y-64256605D01*
X135156035Y-64264802D01*
X135187797Y-64276166D01*
X135218293Y-64290590D01*
X135247227Y-64307932D01*
X135274323Y-64328028D01*
X135299318Y-64350682D01*
X135321972Y-64375677D01*
X135342068Y-64402773D01*
X135359410Y-64431707D01*
X135373834Y-64462203D01*
X135385198Y-64493965D01*
X135393395Y-64526688D01*
X135398345Y-64560057D01*
X135400000Y-64593750D01*
X135400000Y-65281250D01*
X135398345Y-65314943D01*
X135393395Y-65348312D01*
X135385198Y-65381035D01*
X135373834Y-65412797D01*
X135359410Y-65443293D01*
X135342068Y-65472227D01*
X135321972Y-65499323D01*
X135299318Y-65524318D01*
X135274323Y-65546972D01*
X135247227Y-65567068D01*
X135218293Y-65584410D01*
X135187797Y-65598834D01*
X135156035Y-65610198D01*
X135123312Y-65618395D01*
X135089943Y-65623345D01*
X135056250Y-65625000D01*
X133943750Y-65625000D01*
X133910057Y-65623345D01*
X133876688Y-65618395D01*
X133843965Y-65610198D01*
X133812203Y-65598834D01*
X133781707Y-65584410D01*
X133752773Y-65567068D01*
X133725677Y-65546972D01*
X133700682Y-65524318D01*
X133678028Y-65499323D01*
X133657932Y-65472227D01*
X133640590Y-65443293D01*
X133626166Y-65412797D01*
X133614802Y-65381035D01*
X133606605Y-65348312D01*
X133601655Y-65314943D01*
X133600000Y-65281250D01*
X133600000Y-64593750D01*
X133601655Y-64560057D01*
X133606605Y-64526688D01*
X133614802Y-64493965D01*
X133626166Y-64462203D01*
X133640590Y-64431707D01*
X133657932Y-64402773D01*
X133678028Y-64375677D01*
X133700682Y-64350682D01*
X133725677Y-64328028D01*
X133752773Y-64307932D01*
X133781707Y-64290590D01*
X133812203Y-64276166D01*
X133843965Y-64264802D01*
X133876688Y-64256605D01*
X133910057Y-64251655D01*
X133943750Y-64250000D01*
X135056250Y-64250000D01*
X135089943Y-64251655D01*
X135089943Y-64251655D01*
G37*
D11*
X134500000Y-64937500D03*
D10*
G36*
X135089943Y-62376655D02*
X135123312Y-62381605D01*
X135156035Y-62389802D01*
X135187797Y-62401166D01*
X135218293Y-62415590D01*
X135247227Y-62432932D01*
X135274323Y-62453028D01*
X135299318Y-62475682D01*
X135321972Y-62500677D01*
X135342068Y-62527773D01*
X135359410Y-62556707D01*
X135373834Y-62587203D01*
X135385198Y-62618965D01*
X135393395Y-62651688D01*
X135398345Y-62685057D01*
X135400000Y-62718750D01*
X135400000Y-63406250D01*
X135398345Y-63439943D01*
X135393395Y-63473312D01*
X135385198Y-63506035D01*
X135373834Y-63537797D01*
X135359410Y-63568293D01*
X135342068Y-63597227D01*
X135321972Y-63624323D01*
X135299318Y-63649318D01*
X135274323Y-63671972D01*
X135247227Y-63692068D01*
X135218293Y-63709410D01*
X135187797Y-63723834D01*
X135156035Y-63735198D01*
X135123312Y-63743395D01*
X135089943Y-63748345D01*
X135056250Y-63750000D01*
X133943750Y-63750000D01*
X133910057Y-63748345D01*
X133876688Y-63743395D01*
X133843965Y-63735198D01*
X133812203Y-63723834D01*
X133781707Y-63709410D01*
X133752773Y-63692068D01*
X133725677Y-63671972D01*
X133700682Y-63649318D01*
X133678028Y-63624323D01*
X133657932Y-63597227D01*
X133640590Y-63568293D01*
X133626166Y-63537797D01*
X133614802Y-63506035D01*
X133606605Y-63473312D01*
X133601655Y-63439943D01*
X133600000Y-63406250D01*
X133600000Y-62718750D01*
X133601655Y-62685057D01*
X133606605Y-62651688D01*
X133614802Y-62618965D01*
X133626166Y-62587203D01*
X133640590Y-62556707D01*
X133657932Y-62527773D01*
X133678028Y-62500677D01*
X133700682Y-62475682D01*
X133725677Y-62453028D01*
X133752773Y-62432932D01*
X133781707Y-62415590D01*
X133812203Y-62401166D01*
X133843965Y-62389802D01*
X133876688Y-62381605D01*
X133910057Y-62376655D01*
X133943750Y-62375000D01*
X135056250Y-62375000D01*
X135089943Y-62376655D01*
X135089943Y-62376655D01*
G37*
D11*
X134500000Y-63062500D03*
G04 #@! TD*
D10*
G04 #@! TO.C,R11*
G36*
X127089943Y-62376655D02*
X127123312Y-62381605D01*
X127156035Y-62389802D01*
X127187797Y-62401166D01*
X127218293Y-62415590D01*
X127247227Y-62432932D01*
X127274323Y-62453028D01*
X127299318Y-62475682D01*
X127321972Y-62500677D01*
X127342068Y-62527773D01*
X127359410Y-62556707D01*
X127373834Y-62587203D01*
X127385198Y-62618965D01*
X127393395Y-62651688D01*
X127398345Y-62685057D01*
X127400000Y-62718750D01*
X127400000Y-63406250D01*
X127398345Y-63439943D01*
X127393395Y-63473312D01*
X127385198Y-63506035D01*
X127373834Y-63537797D01*
X127359410Y-63568293D01*
X127342068Y-63597227D01*
X127321972Y-63624323D01*
X127299318Y-63649318D01*
X127274323Y-63671972D01*
X127247227Y-63692068D01*
X127218293Y-63709410D01*
X127187797Y-63723834D01*
X127156035Y-63735198D01*
X127123312Y-63743395D01*
X127089943Y-63748345D01*
X127056250Y-63750000D01*
X125943750Y-63750000D01*
X125910057Y-63748345D01*
X125876688Y-63743395D01*
X125843965Y-63735198D01*
X125812203Y-63723834D01*
X125781707Y-63709410D01*
X125752773Y-63692068D01*
X125725677Y-63671972D01*
X125700682Y-63649318D01*
X125678028Y-63624323D01*
X125657932Y-63597227D01*
X125640590Y-63568293D01*
X125626166Y-63537797D01*
X125614802Y-63506035D01*
X125606605Y-63473312D01*
X125601655Y-63439943D01*
X125600000Y-63406250D01*
X125600000Y-62718750D01*
X125601655Y-62685057D01*
X125606605Y-62651688D01*
X125614802Y-62618965D01*
X125626166Y-62587203D01*
X125640590Y-62556707D01*
X125657932Y-62527773D01*
X125678028Y-62500677D01*
X125700682Y-62475682D01*
X125725677Y-62453028D01*
X125752773Y-62432932D01*
X125781707Y-62415590D01*
X125812203Y-62401166D01*
X125843965Y-62389802D01*
X125876688Y-62381605D01*
X125910057Y-62376655D01*
X125943750Y-62375000D01*
X127056250Y-62375000D01*
X127089943Y-62376655D01*
X127089943Y-62376655D01*
G37*
D11*
X126500000Y-63062500D03*
D10*
G36*
X127089943Y-64251655D02*
X127123312Y-64256605D01*
X127156035Y-64264802D01*
X127187797Y-64276166D01*
X127218293Y-64290590D01*
X127247227Y-64307932D01*
X127274323Y-64328028D01*
X127299318Y-64350682D01*
X127321972Y-64375677D01*
X127342068Y-64402773D01*
X127359410Y-64431707D01*
X127373834Y-64462203D01*
X127385198Y-64493965D01*
X127393395Y-64526688D01*
X127398345Y-64560057D01*
X127400000Y-64593750D01*
X127400000Y-65281250D01*
X127398345Y-65314943D01*
X127393395Y-65348312D01*
X127385198Y-65381035D01*
X127373834Y-65412797D01*
X127359410Y-65443293D01*
X127342068Y-65472227D01*
X127321972Y-65499323D01*
X127299318Y-65524318D01*
X127274323Y-65546972D01*
X127247227Y-65567068D01*
X127218293Y-65584410D01*
X127187797Y-65598834D01*
X127156035Y-65610198D01*
X127123312Y-65618395D01*
X127089943Y-65623345D01*
X127056250Y-65625000D01*
X125943750Y-65625000D01*
X125910057Y-65623345D01*
X125876688Y-65618395D01*
X125843965Y-65610198D01*
X125812203Y-65598834D01*
X125781707Y-65584410D01*
X125752773Y-65567068D01*
X125725677Y-65546972D01*
X125700682Y-65524318D01*
X125678028Y-65499323D01*
X125657932Y-65472227D01*
X125640590Y-65443293D01*
X125626166Y-65412797D01*
X125614802Y-65381035D01*
X125606605Y-65348312D01*
X125601655Y-65314943D01*
X125600000Y-65281250D01*
X125600000Y-64593750D01*
X125601655Y-64560057D01*
X125606605Y-64526688D01*
X125614802Y-64493965D01*
X125626166Y-64462203D01*
X125640590Y-64431707D01*
X125657932Y-64402773D01*
X125678028Y-64375677D01*
X125700682Y-64350682D01*
X125725677Y-64328028D01*
X125752773Y-64307932D01*
X125781707Y-64290590D01*
X125812203Y-64276166D01*
X125843965Y-64264802D01*
X125876688Y-64256605D01*
X125910057Y-64251655D01*
X125943750Y-64250000D01*
X127056250Y-64250000D01*
X127089943Y-64251655D01*
X127089943Y-64251655D01*
G37*
D11*
X126500000Y-64937500D03*
G04 #@! TD*
D10*
G04 #@! TO.C,R12*
G36*
X84589943Y-77876655D02*
X84623312Y-77881605D01*
X84656035Y-77889802D01*
X84687797Y-77901166D01*
X84718293Y-77915590D01*
X84747227Y-77932932D01*
X84774323Y-77953028D01*
X84799318Y-77975682D01*
X84821972Y-78000677D01*
X84842068Y-78027773D01*
X84859410Y-78056707D01*
X84873834Y-78087203D01*
X84885198Y-78118965D01*
X84893395Y-78151688D01*
X84898345Y-78185057D01*
X84900000Y-78218750D01*
X84900000Y-78906250D01*
X84898345Y-78939943D01*
X84893395Y-78973312D01*
X84885198Y-79006035D01*
X84873834Y-79037797D01*
X84859410Y-79068293D01*
X84842068Y-79097227D01*
X84821972Y-79124323D01*
X84799318Y-79149318D01*
X84774323Y-79171972D01*
X84747227Y-79192068D01*
X84718293Y-79209410D01*
X84687797Y-79223834D01*
X84656035Y-79235198D01*
X84623312Y-79243395D01*
X84589943Y-79248345D01*
X84556250Y-79250000D01*
X83443750Y-79250000D01*
X83410057Y-79248345D01*
X83376688Y-79243395D01*
X83343965Y-79235198D01*
X83312203Y-79223834D01*
X83281707Y-79209410D01*
X83252773Y-79192068D01*
X83225677Y-79171972D01*
X83200682Y-79149318D01*
X83178028Y-79124323D01*
X83157932Y-79097227D01*
X83140590Y-79068293D01*
X83126166Y-79037797D01*
X83114802Y-79006035D01*
X83106605Y-78973312D01*
X83101655Y-78939943D01*
X83100000Y-78906250D01*
X83100000Y-78218750D01*
X83101655Y-78185057D01*
X83106605Y-78151688D01*
X83114802Y-78118965D01*
X83126166Y-78087203D01*
X83140590Y-78056707D01*
X83157932Y-78027773D01*
X83178028Y-78000677D01*
X83200682Y-77975682D01*
X83225677Y-77953028D01*
X83252773Y-77932932D01*
X83281707Y-77915590D01*
X83312203Y-77901166D01*
X83343965Y-77889802D01*
X83376688Y-77881605D01*
X83410057Y-77876655D01*
X83443750Y-77875000D01*
X84556250Y-77875000D01*
X84589943Y-77876655D01*
X84589943Y-77876655D01*
G37*
D11*
X84000000Y-78562500D03*
D10*
G36*
X84589943Y-79751655D02*
X84623312Y-79756605D01*
X84656035Y-79764802D01*
X84687797Y-79776166D01*
X84718293Y-79790590D01*
X84747227Y-79807932D01*
X84774323Y-79828028D01*
X84799318Y-79850682D01*
X84821972Y-79875677D01*
X84842068Y-79902773D01*
X84859410Y-79931707D01*
X84873834Y-79962203D01*
X84885198Y-79993965D01*
X84893395Y-80026688D01*
X84898345Y-80060057D01*
X84900000Y-80093750D01*
X84900000Y-80781250D01*
X84898345Y-80814943D01*
X84893395Y-80848312D01*
X84885198Y-80881035D01*
X84873834Y-80912797D01*
X84859410Y-80943293D01*
X84842068Y-80972227D01*
X84821972Y-80999323D01*
X84799318Y-81024318D01*
X84774323Y-81046972D01*
X84747227Y-81067068D01*
X84718293Y-81084410D01*
X84687797Y-81098834D01*
X84656035Y-81110198D01*
X84623312Y-81118395D01*
X84589943Y-81123345D01*
X84556250Y-81125000D01*
X83443750Y-81125000D01*
X83410057Y-81123345D01*
X83376688Y-81118395D01*
X83343965Y-81110198D01*
X83312203Y-81098834D01*
X83281707Y-81084410D01*
X83252773Y-81067068D01*
X83225677Y-81046972D01*
X83200682Y-81024318D01*
X83178028Y-80999323D01*
X83157932Y-80972227D01*
X83140590Y-80943293D01*
X83126166Y-80912797D01*
X83114802Y-80881035D01*
X83106605Y-80848312D01*
X83101655Y-80814943D01*
X83100000Y-80781250D01*
X83100000Y-80093750D01*
X83101655Y-80060057D01*
X83106605Y-80026688D01*
X83114802Y-79993965D01*
X83126166Y-79962203D01*
X83140590Y-79931707D01*
X83157932Y-79902773D01*
X83178028Y-79875677D01*
X83200682Y-79850682D01*
X83225677Y-79828028D01*
X83252773Y-79807932D01*
X83281707Y-79790590D01*
X83312203Y-79776166D01*
X83343965Y-79764802D01*
X83376688Y-79756605D01*
X83410057Y-79751655D01*
X83443750Y-79750000D01*
X84556250Y-79750000D01*
X84589943Y-79751655D01*
X84589943Y-79751655D01*
G37*
D11*
X84000000Y-80437500D03*
G04 #@! TD*
D10*
G04 #@! TO.C,R13*
G36*
X84589943Y-81876655D02*
X84623312Y-81881605D01*
X84656035Y-81889802D01*
X84687797Y-81901166D01*
X84718293Y-81915590D01*
X84747227Y-81932932D01*
X84774323Y-81953028D01*
X84799318Y-81975682D01*
X84821972Y-82000677D01*
X84842068Y-82027773D01*
X84859410Y-82056707D01*
X84873834Y-82087203D01*
X84885198Y-82118965D01*
X84893395Y-82151688D01*
X84898345Y-82185057D01*
X84900000Y-82218750D01*
X84900000Y-82906250D01*
X84898345Y-82939943D01*
X84893395Y-82973312D01*
X84885198Y-83006035D01*
X84873834Y-83037797D01*
X84859410Y-83068293D01*
X84842068Y-83097227D01*
X84821972Y-83124323D01*
X84799318Y-83149318D01*
X84774323Y-83171972D01*
X84747227Y-83192068D01*
X84718293Y-83209410D01*
X84687797Y-83223834D01*
X84656035Y-83235198D01*
X84623312Y-83243395D01*
X84589943Y-83248345D01*
X84556250Y-83250000D01*
X83443750Y-83250000D01*
X83410057Y-83248345D01*
X83376688Y-83243395D01*
X83343965Y-83235198D01*
X83312203Y-83223834D01*
X83281707Y-83209410D01*
X83252773Y-83192068D01*
X83225677Y-83171972D01*
X83200682Y-83149318D01*
X83178028Y-83124323D01*
X83157932Y-83097227D01*
X83140590Y-83068293D01*
X83126166Y-83037797D01*
X83114802Y-83006035D01*
X83106605Y-82973312D01*
X83101655Y-82939943D01*
X83100000Y-82906250D01*
X83100000Y-82218750D01*
X83101655Y-82185057D01*
X83106605Y-82151688D01*
X83114802Y-82118965D01*
X83126166Y-82087203D01*
X83140590Y-82056707D01*
X83157932Y-82027773D01*
X83178028Y-82000677D01*
X83200682Y-81975682D01*
X83225677Y-81953028D01*
X83252773Y-81932932D01*
X83281707Y-81915590D01*
X83312203Y-81901166D01*
X83343965Y-81889802D01*
X83376688Y-81881605D01*
X83410057Y-81876655D01*
X83443750Y-81875000D01*
X84556250Y-81875000D01*
X84589943Y-81876655D01*
X84589943Y-81876655D01*
G37*
D11*
X84000000Y-82562500D03*
D10*
G36*
X84589943Y-83751655D02*
X84623312Y-83756605D01*
X84656035Y-83764802D01*
X84687797Y-83776166D01*
X84718293Y-83790590D01*
X84747227Y-83807932D01*
X84774323Y-83828028D01*
X84799318Y-83850682D01*
X84821972Y-83875677D01*
X84842068Y-83902773D01*
X84859410Y-83931707D01*
X84873834Y-83962203D01*
X84885198Y-83993965D01*
X84893395Y-84026688D01*
X84898345Y-84060057D01*
X84900000Y-84093750D01*
X84900000Y-84781250D01*
X84898345Y-84814943D01*
X84893395Y-84848312D01*
X84885198Y-84881035D01*
X84873834Y-84912797D01*
X84859410Y-84943293D01*
X84842068Y-84972227D01*
X84821972Y-84999323D01*
X84799318Y-85024318D01*
X84774323Y-85046972D01*
X84747227Y-85067068D01*
X84718293Y-85084410D01*
X84687797Y-85098834D01*
X84656035Y-85110198D01*
X84623312Y-85118395D01*
X84589943Y-85123345D01*
X84556250Y-85125000D01*
X83443750Y-85125000D01*
X83410057Y-85123345D01*
X83376688Y-85118395D01*
X83343965Y-85110198D01*
X83312203Y-85098834D01*
X83281707Y-85084410D01*
X83252773Y-85067068D01*
X83225677Y-85046972D01*
X83200682Y-85024318D01*
X83178028Y-84999323D01*
X83157932Y-84972227D01*
X83140590Y-84943293D01*
X83126166Y-84912797D01*
X83114802Y-84881035D01*
X83106605Y-84848312D01*
X83101655Y-84814943D01*
X83100000Y-84781250D01*
X83100000Y-84093750D01*
X83101655Y-84060057D01*
X83106605Y-84026688D01*
X83114802Y-83993965D01*
X83126166Y-83962203D01*
X83140590Y-83931707D01*
X83157932Y-83902773D01*
X83178028Y-83875677D01*
X83200682Y-83850682D01*
X83225677Y-83828028D01*
X83252773Y-83807932D01*
X83281707Y-83790590D01*
X83312203Y-83776166D01*
X83343965Y-83764802D01*
X83376688Y-83756605D01*
X83410057Y-83751655D01*
X83443750Y-83750000D01*
X84556250Y-83750000D01*
X84589943Y-83751655D01*
X84589943Y-83751655D01*
G37*
D11*
X84000000Y-84437500D03*
G04 #@! TD*
D10*
G04 #@! TO.C,R14*
G36*
X111834943Y-59601655D02*
X111868312Y-59606605D01*
X111901035Y-59614802D01*
X111932797Y-59626166D01*
X111963293Y-59640590D01*
X111992227Y-59657932D01*
X112019323Y-59678028D01*
X112044318Y-59700682D01*
X112066972Y-59725677D01*
X112087068Y-59752773D01*
X112104410Y-59781707D01*
X112118834Y-59812203D01*
X112130198Y-59843965D01*
X112138395Y-59876688D01*
X112143345Y-59910057D01*
X112145000Y-59943750D01*
X112145000Y-61056250D01*
X112143345Y-61089943D01*
X112138395Y-61123312D01*
X112130198Y-61156035D01*
X112118834Y-61187797D01*
X112104410Y-61218293D01*
X112087068Y-61247227D01*
X112066972Y-61274323D01*
X112044318Y-61299318D01*
X112019323Y-61321972D01*
X111992227Y-61342068D01*
X111963293Y-61359410D01*
X111932797Y-61373834D01*
X111901035Y-61385198D01*
X111868312Y-61393395D01*
X111834943Y-61398345D01*
X111801250Y-61400000D01*
X111113750Y-61400000D01*
X111080057Y-61398345D01*
X111046688Y-61393395D01*
X111013965Y-61385198D01*
X110982203Y-61373834D01*
X110951707Y-61359410D01*
X110922773Y-61342068D01*
X110895677Y-61321972D01*
X110870682Y-61299318D01*
X110848028Y-61274323D01*
X110827932Y-61247227D01*
X110810590Y-61218293D01*
X110796166Y-61187797D01*
X110784802Y-61156035D01*
X110776605Y-61123312D01*
X110771655Y-61089943D01*
X110770000Y-61056250D01*
X110770000Y-59943750D01*
X110771655Y-59910057D01*
X110776605Y-59876688D01*
X110784802Y-59843965D01*
X110796166Y-59812203D01*
X110810590Y-59781707D01*
X110827932Y-59752773D01*
X110848028Y-59725677D01*
X110870682Y-59700682D01*
X110895677Y-59678028D01*
X110922773Y-59657932D01*
X110951707Y-59640590D01*
X110982203Y-59626166D01*
X111013965Y-59614802D01*
X111046688Y-59606605D01*
X111080057Y-59601655D01*
X111113750Y-59600000D01*
X111801250Y-59600000D01*
X111834943Y-59601655D01*
X111834943Y-59601655D01*
G37*
D11*
X111457500Y-60500000D03*
D10*
G36*
X109959943Y-59601655D02*
X109993312Y-59606605D01*
X110026035Y-59614802D01*
X110057797Y-59626166D01*
X110088293Y-59640590D01*
X110117227Y-59657932D01*
X110144323Y-59678028D01*
X110169318Y-59700682D01*
X110191972Y-59725677D01*
X110212068Y-59752773D01*
X110229410Y-59781707D01*
X110243834Y-59812203D01*
X110255198Y-59843965D01*
X110263395Y-59876688D01*
X110268345Y-59910057D01*
X110270000Y-59943750D01*
X110270000Y-61056250D01*
X110268345Y-61089943D01*
X110263395Y-61123312D01*
X110255198Y-61156035D01*
X110243834Y-61187797D01*
X110229410Y-61218293D01*
X110212068Y-61247227D01*
X110191972Y-61274323D01*
X110169318Y-61299318D01*
X110144323Y-61321972D01*
X110117227Y-61342068D01*
X110088293Y-61359410D01*
X110057797Y-61373834D01*
X110026035Y-61385198D01*
X109993312Y-61393395D01*
X109959943Y-61398345D01*
X109926250Y-61400000D01*
X109238750Y-61400000D01*
X109205057Y-61398345D01*
X109171688Y-61393395D01*
X109138965Y-61385198D01*
X109107203Y-61373834D01*
X109076707Y-61359410D01*
X109047773Y-61342068D01*
X109020677Y-61321972D01*
X108995682Y-61299318D01*
X108973028Y-61274323D01*
X108952932Y-61247227D01*
X108935590Y-61218293D01*
X108921166Y-61187797D01*
X108909802Y-61156035D01*
X108901605Y-61123312D01*
X108896655Y-61089943D01*
X108895000Y-61056250D01*
X108895000Y-59943750D01*
X108896655Y-59910057D01*
X108901605Y-59876688D01*
X108909802Y-59843965D01*
X108921166Y-59812203D01*
X108935590Y-59781707D01*
X108952932Y-59752773D01*
X108973028Y-59725677D01*
X108995682Y-59700682D01*
X109020677Y-59678028D01*
X109047773Y-59657932D01*
X109076707Y-59640590D01*
X109107203Y-59626166D01*
X109138965Y-59614802D01*
X109171688Y-59606605D01*
X109205057Y-59601655D01*
X109238750Y-59600000D01*
X109926250Y-59600000D01*
X109959943Y-59601655D01*
X109959943Y-59601655D01*
G37*
D11*
X109582500Y-60500000D03*
G04 #@! TD*
D10*
G04 #@! TO.C,R1*
G36*
X127089943Y-53376655D02*
X127123312Y-53381605D01*
X127156035Y-53389802D01*
X127187797Y-53401166D01*
X127218293Y-53415590D01*
X127247227Y-53432932D01*
X127274323Y-53453028D01*
X127299318Y-53475682D01*
X127321972Y-53500677D01*
X127342068Y-53527773D01*
X127359410Y-53556707D01*
X127373834Y-53587203D01*
X127385198Y-53618965D01*
X127393395Y-53651688D01*
X127398345Y-53685057D01*
X127400000Y-53718750D01*
X127400000Y-54406250D01*
X127398345Y-54439943D01*
X127393395Y-54473312D01*
X127385198Y-54506035D01*
X127373834Y-54537797D01*
X127359410Y-54568293D01*
X127342068Y-54597227D01*
X127321972Y-54624323D01*
X127299318Y-54649318D01*
X127274323Y-54671972D01*
X127247227Y-54692068D01*
X127218293Y-54709410D01*
X127187797Y-54723834D01*
X127156035Y-54735198D01*
X127123312Y-54743395D01*
X127089943Y-54748345D01*
X127056250Y-54750000D01*
X125943750Y-54750000D01*
X125910057Y-54748345D01*
X125876688Y-54743395D01*
X125843965Y-54735198D01*
X125812203Y-54723834D01*
X125781707Y-54709410D01*
X125752773Y-54692068D01*
X125725677Y-54671972D01*
X125700682Y-54649318D01*
X125678028Y-54624323D01*
X125657932Y-54597227D01*
X125640590Y-54568293D01*
X125626166Y-54537797D01*
X125614802Y-54506035D01*
X125606605Y-54473312D01*
X125601655Y-54439943D01*
X125600000Y-54406250D01*
X125600000Y-53718750D01*
X125601655Y-53685057D01*
X125606605Y-53651688D01*
X125614802Y-53618965D01*
X125626166Y-53587203D01*
X125640590Y-53556707D01*
X125657932Y-53527773D01*
X125678028Y-53500677D01*
X125700682Y-53475682D01*
X125725677Y-53453028D01*
X125752773Y-53432932D01*
X125781707Y-53415590D01*
X125812203Y-53401166D01*
X125843965Y-53389802D01*
X125876688Y-53381605D01*
X125910057Y-53376655D01*
X125943750Y-53375000D01*
X127056250Y-53375000D01*
X127089943Y-53376655D01*
X127089943Y-53376655D01*
G37*
D11*
X126500000Y-54062500D03*
D10*
G36*
X127089943Y-55251655D02*
X127123312Y-55256605D01*
X127156035Y-55264802D01*
X127187797Y-55276166D01*
X127218293Y-55290590D01*
X127247227Y-55307932D01*
X127274323Y-55328028D01*
X127299318Y-55350682D01*
X127321972Y-55375677D01*
X127342068Y-55402773D01*
X127359410Y-55431707D01*
X127373834Y-55462203D01*
X127385198Y-55493965D01*
X127393395Y-55526688D01*
X127398345Y-55560057D01*
X127400000Y-55593750D01*
X127400000Y-56281250D01*
X127398345Y-56314943D01*
X127393395Y-56348312D01*
X127385198Y-56381035D01*
X127373834Y-56412797D01*
X127359410Y-56443293D01*
X127342068Y-56472227D01*
X127321972Y-56499323D01*
X127299318Y-56524318D01*
X127274323Y-56546972D01*
X127247227Y-56567068D01*
X127218293Y-56584410D01*
X127187797Y-56598834D01*
X127156035Y-56610198D01*
X127123312Y-56618395D01*
X127089943Y-56623345D01*
X127056250Y-56625000D01*
X125943750Y-56625000D01*
X125910057Y-56623345D01*
X125876688Y-56618395D01*
X125843965Y-56610198D01*
X125812203Y-56598834D01*
X125781707Y-56584410D01*
X125752773Y-56567068D01*
X125725677Y-56546972D01*
X125700682Y-56524318D01*
X125678028Y-56499323D01*
X125657932Y-56472227D01*
X125640590Y-56443293D01*
X125626166Y-56412797D01*
X125614802Y-56381035D01*
X125606605Y-56348312D01*
X125601655Y-56314943D01*
X125600000Y-56281250D01*
X125600000Y-55593750D01*
X125601655Y-55560057D01*
X125606605Y-55526688D01*
X125614802Y-55493965D01*
X125626166Y-55462203D01*
X125640590Y-55431707D01*
X125657932Y-55402773D01*
X125678028Y-55375677D01*
X125700682Y-55350682D01*
X125725677Y-55328028D01*
X125752773Y-55307932D01*
X125781707Y-55290590D01*
X125812203Y-55276166D01*
X125843965Y-55264802D01*
X125876688Y-55256605D01*
X125910057Y-55251655D01*
X125943750Y-55250000D01*
X127056250Y-55250000D01*
X127089943Y-55251655D01*
X127089943Y-55251655D01*
G37*
D11*
X126500000Y-55937500D03*
G04 #@! TD*
D10*
G04 #@! TO.C,R21*
G36*
X127089943Y-73251655D02*
X127123312Y-73256605D01*
X127156035Y-73264802D01*
X127187797Y-73276166D01*
X127218293Y-73290590D01*
X127247227Y-73307932D01*
X127274323Y-73328028D01*
X127299318Y-73350682D01*
X127321972Y-73375677D01*
X127342068Y-73402773D01*
X127359410Y-73431707D01*
X127373834Y-73462203D01*
X127385198Y-73493965D01*
X127393395Y-73526688D01*
X127398345Y-73560057D01*
X127400000Y-73593750D01*
X127400000Y-74281250D01*
X127398345Y-74314943D01*
X127393395Y-74348312D01*
X127385198Y-74381035D01*
X127373834Y-74412797D01*
X127359410Y-74443293D01*
X127342068Y-74472227D01*
X127321972Y-74499323D01*
X127299318Y-74524318D01*
X127274323Y-74546972D01*
X127247227Y-74567068D01*
X127218293Y-74584410D01*
X127187797Y-74598834D01*
X127156035Y-74610198D01*
X127123312Y-74618395D01*
X127089943Y-74623345D01*
X127056250Y-74625000D01*
X125943750Y-74625000D01*
X125910057Y-74623345D01*
X125876688Y-74618395D01*
X125843965Y-74610198D01*
X125812203Y-74598834D01*
X125781707Y-74584410D01*
X125752773Y-74567068D01*
X125725677Y-74546972D01*
X125700682Y-74524318D01*
X125678028Y-74499323D01*
X125657932Y-74472227D01*
X125640590Y-74443293D01*
X125626166Y-74412797D01*
X125614802Y-74381035D01*
X125606605Y-74348312D01*
X125601655Y-74314943D01*
X125600000Y-74281250D01*
X125600000Y-73593750D01*
X125601655Y-73560057D01*
X125606605Y-73526688D01*
X125614802Y-73493965D01*
X125626166Y-73462203D01*
X125640590Y-73431707D01*
X125657932Y-73402773D01*
X125678028Y-73375677D01*
X125700682Y-73350682D01*
X125725677Y-73328028D01*
X125752773Y-73307932D01*
X125781707Y-73290590D01*
X125812203Y-73276166D01*
X125843965Y-73264802D01*
X125876688Y-73256605D01*
X125910057Y-73251655D01*
X125943750Y-73250000D01*
X127056250Y-73250000D01*
X127089943Y-73251655D01*
X127089943Y-73251655D01*
G37*
D11*
X126500000Y-73937500D03*
D10*
G36*
X127089943Y-71376655D02*
X127123312Y-71381605D01*
X127156035Y-71389802D01*
X127187797Y-71401166D01*
X127218293Y-71415590D01*
X127247227Y-71432932D01*
X127274323Y-71453028D01*
X127299318Y-71475682D01*
X127321972Y-71500677D01*
X127342068Y-71527773D01*
X127359410Y-71556707D01*
X127373834Y-71587203D01*
X127385198Y-71618965D01*
X127393395Y-71651688D01*
X127398345Y-71685057D01*
X127400000Y-71718750D01*
X127400000Y-72406250D01*
X127398345Y-72439943D01*
X127393395Y-72473312D01*
X127385198Y-72506035D01*
X127373834Y-72537797D01*
X127359410Y-72568293D01*
X127342068Y-72597227D01*
X127321972Y-72624323D01*
X127299318Y-72649318D01*
X127274323Y-72671972D01*
X127247227Y-72692068D01*
X127218293Y-72709410D01*
X127187797Y-72723834D01*
X127156035Y-72735198D01*
X127123312Y-72743395D01*
X127089943Y-72748345D01*
X127056250Y-72750000D01*
X125943750Y-72750000D01*
X125910057Y-72748345D01*
X125876688Y-72743395D01*
X125843965Y-72735198D01*
X125812203Y-72723834D01*
X125781707Y-72709410D01*
X125752773Y-72692068D01*
X125725677Y-72671972D01*
X125700682Y-72649318D01*
X125678028Y-72624323D01*
X125657932Y-72597227D01*
X125640590Y-72568293D01*
X125626166Y-72537797D01*
X125614802Y-72506035D01*
X125606605Y-72473312D01*
X125601655Y-72439943D01*
X125600000Y-72406250D01*
X125600000Y-71718750D01*
X125601655Y-71685057D01*
X125606605Y-71651688D01*
X125614802Y-71618965D01*
X125626166Y-71587203D01*
X125640590Y-71556707D01*
X125657932Y-71527773D01*
X125678028Y-71500677D01*
X125700682Y-71475682D01*
X125725677Y-71453028D01*
X125752773Y-71432932D01*
X125781707Y-71415590D01*
X125812203Y-71401166D01*
X125843965Y-71389802D01*
X125876688Y-71381605D01*
X125910057Y-71376655D01*
X125943750Y-71375000D01*
X127056250Y-71375000D01*
X127089943Y-71376655D01*
X127089943Y-71376655D01*
G37*
D11*
X126500000Y-72062500D03*
G04 #@! TD*
D10*
G04 #@! TO.C,R36*
G36*
X135089943Y-80376655D02*
X135123312Y-80381605D01*
X135156035Y-80389802D01*
X135187797Y-80401166D01*
X135218293Y-80415590D01*
X135247227Y-80432932D01*
X135274323Y-80453028D01*
X135299318Y-80475682D01*
X135321972Y-80500677D01*
X135342068Y-80527773D01*
X135359410Y-80556707D01*
X135373834Y-80587203D01*
X135385198Y-80618965D01*
X135393395Y-80651688D01*
X135398345Y-80685057D01*
X135400000Y-80718750D01*
X135400000Y-81406250D01*
X135398345Y-81439943D01*
X135393395Y-81473312D01*
X135385198Y-81506035D01*
X135373834Y-81537797D01*
X135359410Y-81568293D01*
X135342068Y-81597227D01*
X135321972Y-81624323D01*
X135299318Y-81649318D01*
X135274323Y-81671972D01*
X135247227Y-81692068D01*
X135218293Y-81709410D01*
X135187797Y-81723834D01*
X135156035Y-81735198D01*
X135123312Y-81743395D01*
X135089943Y-81748345D01*
X135056250Y-81750000D01*
X133943750Y-81750000D01*
X133910057Y-81748345D01*
X133876688Y-81743395D01*
X133843965Y-81735198D01*
X133812203Y-81723834D01*
X133781707Y-81709410D01*
X133752773Y-81692068D01*
X133725677Y-81671972D01*
X133700682Y-81649318D01*
X133678028Y-81624323D01*
X133657932Y-81597227D01*
X133640590Y-81568293D01*
X133626166Y-81537797D01*
X133614802Y-81506035D01*
X133606605Y-81473312D01*
X133601655Y-81439943D01*
X133600000Y-81406250D01*
X133600000Y-80718750D01*
X133601655Y-80685057D01*
X133606605Y-80651688D01*
X133614802Y-80618965D01*
X133626166Y-80587203D01*
X133640590Y-80556707D01*
X133657932Y-80527773D01*
X133678028Y-80500677D01*
X133700682Y-80475682D01*
X133725677Y-80453028D01*
X133752773Y-80432932D01*
X133781707Y-80415590D01*
X133812203Y-80401166D01*
X133843965Y-80389802D01*
X133876688Y-80381605D01*
X133910057Y-80376655D01*
X133943750Y-80375000D01*
X135056250Y-80375000D01*
X135089943Y-80376655D01*
X135089943Y-80376655D01*
G37*
D11*
X134500000Y-81062500D03*
D10*
G36*
X135089943Y-82251655D02*
X135123312Y-82256605D01*
X135156035Y-82264802D01*
X135187797Y-82276166D01*
X135218293Y-82290590D01*
X135247227Y-82307932D01*
X135274323Y-82328028D01*
X135299318Y-82350682D01*
X135321972Y-82375677D01*
X135342068Y-82402773D01*
X135359410Y-82431707D01*
X135373834Y-82462203D01*
X135385198Y-82493965D01*
X135393395Y-82526688D01*
X135398345Y-82560057D01*
X135400000Y-82593750D01*
X135400000Y-83281250D01*
X135398345Y-83314943D01*
X135393395Y-83348312D01*
X135385198Y-83381035D01*
X135373834Y-83412797D01*
X135359410Y-83443293D01*
X135342068Y-83472227D01*
X135321972Y-83499323D01*
X135299318Y-83524318D01*
X135274323Y-83546972D01*
X135247227Y-83567068D01*
X135218293Y-83584410D01*
X135187797Y-83598834D01*
X135156035Y-83610198D01*
X135123312Y-83618395D01*
X135089943Y-83623345D01*
X135056250Y-83625000D01*
X133943750Y-83625000D01*
X133910057Y-83623345D01*
X133876688Y-83618395D01*
X133843965Y-83610198D01*
X133812203Y-83598834D01*
X133781707Y-83584410D01*
X133752773Y-83567068D01*
X133725677Y-83546972D01*
X133700682Y-83524318D01*
X133678028Y-83499323D01*
X133657932Y-83472227D01*
X133640590Y-83443293D01*
X133626166Y-83412797D01*
X133614802Y-83381035D01*
X133606605Y-83348312D01*
X133601655Y-83314943D01*
X133600000Y-83281250D01*
X133600000Y-82593750D01*
X133601655Y-82560057D01*
X133606605Y-82526688D01*
X133614802Y-82493965D01*
X133626166Y-82462203D01*
X133640590Y-82431707D01*
X133657932Y-82402773D01*
X133678028Y-82375677D01*
X133700682Y-82350682D01*
X133725677Y-82328028D01*
X133752773Y-82307932D01*
X133781707Y-82290590D01*
X133812203Y-82276166D01*
X133843965Y-82264802D01*
X133876688Y-82256605D01*
X133910057Y-82251655D01*
X133943750Y-82250000D01*
X135056250Y-82250000D01*
X135089943Y-82251655D01*
X135089943Y-82251655D01*
G37*
D11*
X134500000Y-82937500D03*
G04 #@! TD*
D10*
G04 #@! TO.C,R37*
G36*
X127089943Y-82251655D02*
X127123312Y-82256605D01*
X127156035Y-82264802D01*
X127187797Y-82276166D01*
X127218293Y-82290590D01*
X127247227Y-82307932D01*
X127274323Y-82328028D01*
X127299318Y-82350682D01*
X127321972Y-82375677D01*
X127342068Y-82402773D01*
X127359410Y-82431707D01*
X127373834Y-82462203D01*
X127385198Y-82493965D01*
X127393395Y-82526688D01*
X127398345Y-82560057D01*
X127400000Y-82593750D01*
X127400000Y-83281250D01*
X127398345Y-83314943D01*
X127393395Y-83348312D01*
X127385198Y-83381035D01*
X127373834Y-83412797D01*
X127359410Y-83443293D01*
X127342068Y-83472227D01*
X127321972Y-83499323D01*
X127299318Y-83524318D01*
X127274323Y-83546972D01*
X127247227Y-83567068D01*
X127218293Y-83584410D01*
X127187797Y-83598834D01*
X127156035Y-83610198D01*
X127123312Y-83618395D01*
X127089943Y-83623345D01*
X127056250Y-83625000D01*
X125943750Y-83625000D01*
X125910057Y-83623345D01*
X125876688Y-83618395D01*
X125843965Y-83610198D01*
X125812203Y-83598834D01*
X125781707Y-83584410D01*
X125752773Y-83567068D01*
X125725677Y-83546972D01*
X125700682Y-83524318D01*
X125678028Y-83499323D01*
X125657932Y-83472227D01*
X125640590Y-83443293D01*
X125626166Y-83412797D01*
X125614802Y-83381035D01*
X125606605Y-83348312D01*
X125601655Y-83314943D01*
X125600000Y-83281250D01*
X125600000Y-82593750D01*
X125601655Y-82560057D01*
X125606605Y-82526688D01*
X125614802Y-82493965D01*
X125626166Y-82462203D01*
X125640590Y-82431707D01*
X125657932Y-82402773D01*
X125678028Y-82375677D01*
X125700682Y-82350682D01*
X125725677Y-82328028D01*
X125752773Y-82307932D01*
X125781707Y-82290590D01*
X125812203Y-82276166D01*
X125843965Y-82264802D01*
X125876688Y-82256605D01*
X125910057Y-82251655D01*
X125943750Y-82250000D01*
X127056250Y-82250000D01*
X127089943Y-82251655D01*
X127089943Y-82251655D01*
G37*
D11*
X126500000Y-82937500D03*
D10*
G36*
X127089943Y-80376655D02*
X127123312Y-80381605D01*
X127156035Y-80389802D01*
X127187797Y-80401166D01*
X127218293Y-80415590D01*
X127247227Y-80432932D01*
X127274323Y-80453028D01*
X127299318Y-80475682D01*
X127321972Y-80500677D01*
X127342068Y-80527773D01*
X127359410Y-80556707D01*
X127373834Y-80587203D01*
X127385198Y-80618965D01*
X127393395Y-80651688D01*
X127398345Y-80685057D01*
X127400000Y-80718750D01*
X127400000Y-81406250D01*
X127398345Y-81439943D01*
X127393395Y-81473312D01*
X127385198Y-81506035D01*
X127373834Y-81537797D01*
X127359410Y-81568293D01*
X127342068Y-81597227D01*
X127321972Y-81624323D01*
X127299318Y-81649318D01*
X127274323Y-81671972D01*
X127247227Y-81692068D01*
X127218293Y-81709410D01*
X127187797Y-81723834D01*
X127156035Y-81735198D01*
X127123312Y-81743395D01*
X127089943Y-81748345D01*
X127056250Y-81750000D01*
X125943750Y-81750000D01*
X125910057Y-81748345D01*
X125876688Y-81743395D01*
X125843965Y-81735198D01*
X125812203Y-81723834D01*
X125781707Y-81709410D01*
X125752773Y-81692068D01*
X125725677Y-81671972D01*
X125700682Y-81649318D01*
X125678028Y-81624323D01*
X125657932Y-81597227D01*
X125640590Y-81568293D01*
X125626166Y-81537797D01*
X125614802Y-81506035D01*
X125606605Y-81473312D01*
X125601655Y-81439943D01*
X125600000Y-81406250D01*
X125600000Y-80718750D01*
X125601655Y-80685057D01*
X125606605Y-80651688D01*
X125614802Y-80618965D01*
X125626166Y-80587203D01*
X125640590Y-80556707D01*
X125657932Y-80527773D01*
X125678028Y-80500677D01*
X125700682Y-80475682D01*
X125725677Y-80453028D01*
X125752773Y-80432932D01*
X125781707Y-80415590D01*
X125812203Y-80401166D01*
X125843965Y-80389802D01*
X125876688Y-80381605D01*
X125910057Y-80376655D01*
X125943750Y-80375000D01*
X127056250Y-80375000D01*
X127089943Y-80376655D01*
X127089943Y-80376655D01*
G37*
D11*
X126500000Y-81062500D03*
G04 #@! TD*
D10*
G04 #@! TO.C,R38*
G36*
X94439943Y-53101655D02*
X94473312Y-53106605D01*
X94506035Y-53114802D01*
X94537797Y-53126166D01*
X94568293Y-53140590D01*
X94597227Y-53157932D01*
X94624323Y-53178028D01*
X94649318Y-53200682D01*
X94671972Y-53225677D01*
X94692068Y-53252773D01*
X94709410Y-53281707D01*
X94723834Y-53312203D01*
X94735198Y-53343965D01*
X94743395Y-53376688D01*
X94748345Y-53410057D01*
X94750000Y-53443750D01*
X94750000Y-54556250D01*
X94748345Y-54589943D01*
X94743395Y-54623312D01*
X94735198Y-54656035D01*
X94723834Y-54687797D01*
X94709410Y-54718293D01*
X94692068Y-54747227D01*
X94671972Y-54774323D01*
X94649318Y-54799318D01*
X94624323Y-54821972D01*
X94597227Y-54842068D01*
X94568293Y-54859410D01*
X94537797Y-54873834D01*
X94506035Y-54885198D01*
X94473312Y-54893395D01*
X94439943Y-54898345D01*
X94406250Y-54900000D01*
X93718750Y-54900000D01*
X93685057Y-54898345D01*
X93651688Y-54893395D01*
X93618965Y-54885198D01*
X93587203Y-54873834D01*
X93556707Y-54859410D01*
X93527773Y-54842068D01*
X93500677Y-54821972D01*
X93475682Y-54799318D01*
X93453028Y-54774323D01*
X93432932Y-54747227D01*
X93415590Y-54718293D01*
X93401166Y-54687797D01*
X93389802Y-54656035D01*
X93381605Y-54623312D01*
X93376655Y-54589943D01*
X93375000Y-54556250D01*
X93375000Y-53443750D01*
X93376655Y-53410057D01*
X93381605Y-53376688D01*
X93389802Y-53343965D01*
X93401166Y-53312203D01*
X93415590Y-53281707D01*
X93432932Y-53252773D01*
X93453028Y-53225677D01*
X93475682Y-53200682D01*
X93500677Y-53178028D01*
X93527773Y-53157932D01*
X93556707Y-53140590D01*
X93587203Y-53126166D01*
X93618965Y-53114802D01*
X93651688Y-53106605D01*
X93685057Y-53101655D01*
X93718750Y-53100000D01*
X94406250Y-53100000D01*
X94439943Y-53101655D01*
X94439943Y-53101655D01*
G37*
D11*
X94062500Y-54000000D03*
D10*
G36*
X96314943Y-53101655D02*
X96348312Y-53106605D01*
X96381035Y-53114802D01*
X96412797Y-53126166D01*
X96443293Y-53140590D01*
X96472227Y-53157932D01*
X96499323Y-53178028D01*
X96524318Y-53200682D01*
X96546972Y-53225677D01*
X96567068Y-53252773D01*
X96584410Y-53281707D01*
X96598834Y-53312203D01*
X96610198Y-53343965D01*
X96618395Y-53376688D01*
X96623345Y-53410057D01*
X96625000Y-53443750D01*
X96625000Y-54556250D01*
X96623345Y-54589943D01*
X96618395Y-54623312D01*
X96610198Y-54656035D01*
X96598834Y-54687797D01*
X96584410Y-54718293D01*
X96567068Y-54747227D01*
X96546972Y-54774323D01*
X96524318Y-54799318D01*
X96499323Y-54821972D01*
X96472227Y-54842068D01*
X96443293Y-54859410D01*
X96412797Y-54873834D01*
X96381035Y-54885198D01*
X96348312Y-54893395D01*
X96314943Y-54898345D01*
X96281250Y-54900000D01*
X95593750Y-54900000D01*
X95560057Y-54898345D01*
X95526688Y-54893395D01*
X95493965Y-54885198D01*
X95462203Y-54873834D01*
X95431707Y-54859410D01*
X95402773Y-54842068D01*
X95375677Y-54821972D01*
X95350682Y-54799318D01*
X95328028Y-54774323D01*
X95307932Y-54747227D01*
X95290590Y-54718293D01*
X95276166Y-54687797D01*
X95264802Y-54656035D01*
X95256605Y-54623312D01*
X95251655Y-54589943D01*
X95250000Y-54556250D01*
X95250000Y-53443750D01*
X95251655Y-53410057D01*
X95256605Y-53376688D01*
X95264802Y-53343965D01*
X95276166Y-53312203D01*
X95290590Y-53281707D01*
X95307932Y-53252773D01*
X95328028Y-53225677D01*
X95350682Y-53200682D01*
X95375677Y-53178028D01*
X95402773Y-53157932D01*
X95431707Y-53140590D01*
X95462203Y-53126166D01*
X95493965Y-53114802D01*
X95526688Y-53106605D01*
X95560057Y-53101655D01*
X95593750Y-53100000D01*
X96281250Y-53100000D01*
X96314943Y-53101655D01*
X96314943Y-53101655D01*
G37*
D11*
X95937500Y-54000000D03*
G04 #@! TD*
D10*
G04 #@! TO.C,R39*
G36*
X109959943Y-77601655D02*
X109993312Y-77606605D01*
X110026035Y-77614802D01*
X110057797Y-77626166D01*
X110088293Y-77640590D01*
X110117227Y-77657932D01*
X110144323Y-77678028D01*
X110169318Y-77700682D01*
X110191972Y-77725677D01*
X110212068Y-77752773D01*
X110229410Y-77781707D01*
X110243834Y-77812203D01*
X110255198Y-77843965D01*
X110263395Y-77876688D01*
X110268345Y-77910057D01*
X110270000Y-77943750D01*
X110270000Y-79056250D01*
X110268345Y-79089943D01*
X110263395Y-79123312D01*
X110255198Y-79156035D01*
X110243834Y-79187797D01*
X110229410Y-79218293D01*
X110212068Y-79247227D01*
X110191972Y-79274323D01*
X110169318Y-79299318D01*
X110144323Y-79321972D01*
X110117227Y-79342068D01*
X110088293Y-79359410D01*
X110057797Y-79373834D01*
X110026035Y-79385198D01*
X109993312Y-79393395D01*
X109959943Y-79398345D01*
X109926250Y-79400000D01*
X109238750Y-79400000D01*
X109205057Y-79398345D01*
X109171688Y-79393395D01*
X109138965Y-79385198D01*
X109107203Y-79373834D01*
X109076707Y-79359410D01*
X109047773Y-79342068D01*
X109020677Y-79321972D01*
X108995682Y-79299318D01*
X108973028Y-79274323D01*
X108952932Y-79247227D01*
X108935590Y-79218293D01*
X108921166Y-79187797D01*
X108909802Y-79156035D01*
X108901605Y-79123312D01*
X108896655Y-79089943D01*
X108895000Y-79056250D01*
X108895000Y-77943750D01*
X108896655Y-77910057D01*
X108901605Y-77876688D01*
X108909802Y-77843965D01*
X108921166Y-77812203D01*
X108935590Y-77781707D01*
X108952932Y-77752773D01*
X108973028Y-77725677D01*
X108995682Y-77700682D01*
X109020677Y-77678028D01*
X109047773Y-77657932D01*
X109076707Y-77640590D01*
X109107203Y-77626166D01*
X109138965Y-77614802D01*
X109171688Y-77606605D01*
X109205057Y-77601655D01*
X109238750Y-77600000D01*
X109926250Y-77600000D01*
X109959943Y-77601655D01*
X109959943Y-77601655D01*
G37*
D11*
X109582500Y-78500000D03*
D10*
G36*
X111834943Y-77601655D02*
X111868312Y-77606605D01*
X111901035Y-77614802D01*
X111932797Y-77626166D01*
X111963293Y-77640590D01*
X111992227Y-77657932D01*
X112019323Y-77678028D01*
X112044318Y-77700682D01*
X112066972Y-77725677D01*
X112087068Y-77752773D01*
X112104410Y-77781707D01*
X112118834Y-77812203D01*
X112130198Y-77843965D01*
X112138395Y-77876688D01*
X112143345Y-77910057D01*
X112145000Y-77943750D01*
X112145000Y-79056250D01*
X112143345Y-79089943D01*
X112138395Y-79123312D01*
X112130198Y-79156035D01*
X112118834Y-79187797D01*
X112104410Y-79218293D01*
X112087068Y-79247227D01*
X112066972Y-79274323D01*
X112044318Y-79299318D01*
X112019323Y-79321972D01*
X111992227Y-79342068D01*
X111963293Y-79359410D01*
X111932797Y-79373834D01*
X111901035Y-79385198D01*
X111868312Y-79393395D01*
X111834943Y-79398345D01*
X111801250Y-79400000D01*
X111113750Y-79400000D01*
X111080057Y-79398345D01*
X111046688Y-79393395D01*
X111013965Y-79385198D01*
X110982203Y-79373834D01*
X110951707Y-79359410D01*
X110922773Y-79342068D01*
X110895677Y-79321972D01*
X110870682Y-79299318D01*
X110848028Y-79274323D01*
X110827932Y-79247227D01*
X110810590Y-79218293D01*
X110796166Y-79187797D01*
X110784802Y-79156035D01*
X110776605Y-79123312D01*
X110771655Y-79089943D01*
X110770000Y-79056250D01*
X110770000Y-77943750D01*
X110771655Y-77910057D01*
X110776605Y-77876688D01*
X110784802Y-77843965D01*
X110796166Y-77812203D01*
X110810590Y-77781707D01*
X110827932Y-77752773D01*
X110848028Y-77725677D01*
X110870682Y-77700682D01*
X110895677Y-77678028D01*
X110922773Y-77657932D01*
X110951707Y-77640590D01*
X110982203Y-77626166D01*
X111013965Y-77614802D01*
X111046688Y-77606605D01*
X111080057Y-77601655D01*
X111113750Y-77600000D01*
X111801250Y-77600000D01*
X111834943Y-77601655D01*
X111834943Y-77601655D01*
G37*
D11*
X111457500Y-78500000D03*
G04 #@! TD*
D10*
G04 #@! TO.C,R40*
G36*
X107314943Y-77601655D02*
X107348312Y-77606605D01*
X107381035Y-77614802D01*
X107412797Y-77626166D01*
X107443293Y-77640590D01*
X107472227Y-77657932D01*
X107499323Y-77678028D01*
X107524318Y-77700682D01*
X107546972Y-77725677D01*
X107567068Y-77752773D01*
X107584410Y-77781707D01*
X107598834Y-77812203D01*
X107610198Y-77843965D01*
X107618395Y-77876688D01*
X107623345Y-77910057D01*
X107625000Y-77943750D01*
X107625000Y-79056250D01*
X107623345Y-79089943D01*
X107618395Y-79123312D01*
X107610198Y-79156035D01*
X107598834Y-79187797D01*
X107584410Y-79218293D01*
X107567068Y-79247227D01*
X107546972Y-79274323D01*
X107524318Y-79299318D01*
X107499323Y-79321972D01*
X107472227Y-79342068D01*
X107443293Y-79359410D01*
X107412797Y-79373834D01*
X107381035Y-79385198D01*
X107348312Y-79393395D01*
X107314943Y-79398345D01*
X107281250Y-79400000D01*
X106593750Y-79400000D01*
X106560057Y-79398345D01*
X106526688Y-79393395D01*
X106493965Y-79385198D01*
X106462203Y-79373834D01*
X106431707Y-79359410D01*
X106402773Y-79342068D01*
X106375677Y-79321972D01*
X106350682Y-79299318D01*
X106328028Y-79274323D01*
X106307932Y-79247227D01*
X106290590Y-79218293D01*
X106276166Y-79187797D01*
X106264802Y-79156035D01*
X106256605Y-79123312D01*
X106251655Y-79089943D01*
X106250000Y-79056250D01*
X106250000Y-77943750D01*
X106251655Y-77910057D01*
X106256605Y-77876688D01*
X106264802Y-77843965D01*
X106276166Y-77812203D01*
X106290590Y-77781707D01*
X106307932Y-77752773D01*
X106328028Y-77725677D01*
X106350682Y-77700682D01*
X106375677Y-77678028D01*
X106402773Y-77657932D01*
X106431707Y-77640590D01*
X106462203Y-77626166D01*
X106493965Y-77614802D01*
X106526688Y-77606605D01*
X106560057Y-77601655D01*
X106593750Y-77600000D01*
X107281250Y-77600000D01*
X107314943Y-77601655D01*
X107314943Y-77601655D01*
G37*
D11*
X106937500Y-78500000D03*
D10*
G36*
X105439943Y-77601655D02*
X105473312Y-77606605D01*
X105506035Y-77614802D01*
X105537797Y-77626166D01*
X105568293Y-77640590D01*
X105597227Y-77657932D01*
X105624323Y-77678028D01*
X105649318Y-77700682D01*
X105671972Y-77725677D01*
X105692068Y-77752773D01*
X105709410Y-77781707D01*
X105723834Y-77812203D01*
X105735198Y-77843965D01*
X105743395Y-77876688D01*
X105748345Y-77910057D01*
X105750000Y-77943750D01*
X105750000Y-79056250D01*
X105748345Y-79089943D01*
X105743395Y-79123312D01*
X105735198Y-79156035D01*
X105723834Y-79187797D01*
X105709410Y-79218293D01*
X105692068Y-79247227D01*
X105671972Y-79274323D01*
X105649318Y-79299318D01*
X105624323Y-79321972D01*
X105597227Y-79342068D01*
X105568293Y-79359410D01*
X105537797Y-79373834D01*
X105506035Y-79385198D01*
X105473312Y-79393395D01*
X105439943Y-79398345D01*
X105406250Y-79400000D01*
X104718750Y-79400000D01*
X104685057Y-79398345D01*
X104651688Y-79393395D01*
X104618965Y-79385198D01*
X104587203Y-79373834D01*
X104556707Y-79359410D01*
X104527773Y-79342068D01*
X104500677Y-79321972D01*
X104475682Y-79299318D01*
X104453028Y-79274323D01*
X104432932Y-79247227D01*
X104415590Y-79218293D01*
X104401166Y-79187797D01*
X104389802Y-79156035D01*
X104381605Y-79123312D01*
X104376655Y-79089943D01*
X104375000Y-79056250D01*
X104375000Y-77943750D01*
X104376655Y-77910057D01*
X104381605Y-77876688D01*
X104389802Y-77843965D01*
X104401166Y-77812203D01*
X104415590Y-77781707D01*
X104432932Y-77752773D01*
X104453028Y-77725677D01*
X104475682Y-77700682D01*
X104500677Y-77678028D01*
X104527773Y-77657932D01*
X104556707Y-77640590D01*
X104587203Y-77626166D01*
X104618965Y-77614802D01*
X104651688Y-77606605D01*
X104685057Y-77601655D01*
X104718750Y-77600000D01*
X105406250Y-77600000D01*
X105439943Y-77601655D01*
X105439943Y-77601655D01*
G37*
D11*
X105062500Y-78500000D03*
G04 #@! TD*
D10*
G04 #@! TO.C,R41*
G36*
X119089943Y-82251655D02*
X119123312Y-82256605D01*
X119156035Y-82264802D01*
X119187797Y-82276166D01*
X119218293Y-82290590D01*
X119247227Y-82307932D01*
X119274323Y-82328028D01*
X119299318Y-82350682D01*
X119321972Y-82375677D01*
X119342068Y-82402773D01*
X119359410Y-82431707D01*
X119373834Y-82462203D01*
X119385198Y-82493965D01*
X119393395Y-82526688D01*
X119398345Y-82560057D01*
X119400000Y-82593750D01*
X119400000Y-83281250D01*
X119398345Y-83314943D01*
X119393395Y-83348312D01*
X119385198Y-83381035D01*
X119373834Y-83412797D01*
X119359410Y-83443293D01*
X119342068Y-83472227D01*
X119321972Y-83499323D01*
X119299318Y-83524318D01*
X119274323Y-83546972D01*
X119247227Y-83567068D01*
X119218293Y-83584410D01*
X119187797Y-83598834D01*
X119156035Y-83610198D01*
X119123312Y-83618395D01*
X119089943Y-83623345D01*
X119056250Y-83625000D01*
X117943750Y-83625000D01*
X117910057Y-83623345D01*
X117876688Y-83618395D01*
X117843965Y-83610198D01*
X117812203Y-83598834D01*
X117781707Y-83584410D01*
X117752773Y-83567068D01*
X117725677Y-83546972D01*
X117700682Y-83524318D01*
X117678028Y-83499323D01*
X117657932Y-83472227D01*
X117640590Y-83443293D01*
X117626166Y-83412797D01*
X117614802Y-83381035D01*
X117606605Y-83348312D01*
X117601655Y-83314943D01*
X117600000Y-83281250D01*
X117600000Y-82593750D01*
X117601655Y-82560057D01*
X117606605Y-82526688D01*
X117614802Y-82493965D01*
X117626166Y-82462203D01*
X117640590Y-82431707D01*
X117657932Y-82402773D01*
X117678028Y-82375677D01*
X117700682Y-82350682D01*
X117725677Y-82328028D01*
X117752773Y-82307932D01*
X117781707Y-82290590D01*
X117812203Y-82276166D01*
X117843965Y-82264802D01*
X117876688Y-82256605D01*
X117910057Y-82251655D01*
X117943750Y-82250000D01*
X119056250Y-82250000D01*
X119089943Y-82251655D01*
X119089943Y-82251655D01*
G37*
D11*
X118500000Y-82937500D03*
D10*
G36*
X119089943Y-80376655D02*
X119123312Y-80381605D01*
X119156035Y-80389802D01*
X119187797Y-80401166D01*
X119218293Y-80415590D01*
X119247227Y-80432932D01*
X119274323Y-80453028D01*
X119299318Y-80475682D01*
X119321972Y-80500677D01*
X119342068Y-80527773D01*
X119359410Y-80556707D01*
X119373834Y-80587203D01*
X119385198Y-80618965D01*
X119393395Y-80651688D01*
X119398345Y-80685057D01*
X119400000Y-80718750D01*
X119400000Y-81406250D01*
X119398345Y-81439943D01*
X119393395Y-81473312D01*
X119385198Y-81506035D01*
X119373834Y-81537797D01*
X119359410Y-81568293D01*
X119342068Y-81597227D01*
X119321972Y-81624323D01*
X119299318Y-81649318D01*
X119274323Y-81671972D01*
X119247227Y-81692068D01*
X119218293Y-81709410D01*
X119187797Y-81723834D01*
X119156035Y-81735198D01*
X119123312Y-81743395D01*
X119089943Y-81748345D01*
X119056250Y-81750000D01*
X117943750Y-81750000D01*
X117910057Y-81748345D01*
X117876688Y-81743395D01*
X117843965Y-81735198D01*
X117812203Y-81723834D01*
X117781707Y-81709410D01*
X117752773Y-81692068D01*
X117725677Y-81671972D01*
X117700682Y-81649318D01*
X117678028Y-81624323D01*
X117657932Y-81597227D01*
X117640590Y-81568293D01*
X117626166Y-81537797D01*
X117614802Y-81506035D01*
X117606605Y-81473312D01*
X117601655Y-81439943D01*
X117600000Y-81406250D01*
X117600000Y-80718750D01*
X117601655Y-80685057D01*
X117606605Y-80651688D01*
X117614802Y-80618965D01*
X117626166Y-80587203D01*
X117640590Y-80556707D01*
X117657932Y-80527773D01*
X117678028Y-80500677D01*
X117700682Y-80475682D01*
X117725677Y-80453028D01*
X117752773Y-80432932D01*
X117781707Y-80415590D01*
X117812203Y-80401166D01*
X117843965Y-80389802D01*
X117876688Y-80381605D01*
X117910057Y-80376655D01*
X117943750Y-80375000D01*
X119056250Y-80375000D01*
X119089943Y-80376655D01*
X119089943Y-80376655D01*
G37*
D11*
X118500000Y-81062500D03*
G04 #@! TD*
D10*
G04 #@! TO.C,R42*
G36*
X143089943Y-80376655D02*
X143123312Y-80381605D01*
X143156035Y-80389802D01*
X143187797Y-80401166D01*
X143218293Y-80415590D01*
X143247227Y-80432932D01*
X143274323Y-80453028D01*
X143299318Y-80475682D01*
X143321972Y-80500677D01*
X143342068Y-80527773D01*
X143359410Y-80556707D01*
X143373834Y-80587203D01*
X143385198Y-80618965D01*
X143393395Y-80651688D01*
X143398345Y-80685057D01*
X143400000Y-80718750D01*
X143400000Y-81406250D01*
X143398345Y-81439943D01*
X143393395Y-81473312D01*
X143385198Y-81506035D01*
X143373834Y-81537797D01*
X143359410Y-81568293D01*
X143342068Y-81597227D01*
X143321972Y-81624323D01*
X143299318Y-81649318D01*
X143274323Y-81671972D01*
X143247227Y-81692068D01*
X143218293Y-81709410D01*
X143187797Y-81723834D01*
X143156035Y-81735198D01*
X143123312Y-81743395D01*
X143089943Y-81748345D01*
X143056250Y-81750000D01*
X141943750Y-81750000D01*
X141910057Y-81748345D01*
X141876688Y-81743395D01*
X141843965Y-81735198D01*
X141812203Y-81723834D01*
X141781707Y-81709410D01*
X141752773Y-81692068D01*
X141725677Y-81671972D01*
X141700682Y-81649318D01*
X141678028Y-81624323D01*
X141657932Y-81597227D01*
X141640590Y-81568293D01*
X141626166Y-81537797D01*
X141614802Y-81506035D01*
X141606605Y-81473312D01*
X141601655Y-81439943D01*
X141600000Y-81406250D01*
X141600000Y-80718750D01*
X141601655Y-80685057D01*
X141606605Y-80651688D01*
X141614802Y-80618965D01*
X141626166Y-80587203D01*
X141640590Y-80556707D01*
X141657932Y-80527773D01*
X141678028Y-80500677D01*
X141700682Y-80475682D01*
X141725677Y-80453028D01*
X141752773Y-80432932D01*
X141781707Y-80415590D01*
X141812203Y-80401166D01*
X141843965Y-80389802D01*
X141876688Y-80381605D01*
X141910057Y-80376655D01*
X141943750Y-80375000D01*
X143056250Y-80375000D01*
X143089943Y-80376655D01*
X143089943Y-80376655D01*
G37*
D11*
X142500000Y-81062500D03*
D10*
G36*
X143089943Y-82251655D02*
X143123312Y-82256605D01*
X143156035Y-82264802D01*
X143187797Y-82276166D01*
X143218293Y-82290590D01*
X143247227Y-82307932D01*
X143274323Y-82328028D01*
X143299318Y-82350682D01*
X143321972Y-82375677D01*
X143342068Y-82402773D01*
X143359410Y-82431707D01*
X143373834Y-82462203D01*
X143385198Y-82493965D01*
X143393395Y-82526688D01*
X143398345Y-82560057D01*
X143400000Y-82593750D01*
X143400000Y-83281250D01*
X143398345Y-83314943D01*
X143393395Y-83348312D01*
X143385198Y-83381035D01*
X143373834Y-83412797D01*
X143359410Y-83443293D01*
X143342068Y-83472227D01*
X143321972Y-83499323D01*
X143299318Y-83524318D01*
X143274323Y-83546972D01*
X143247227Y-83567068D01*
X143218293Y-83584410D01*
X143187797Y-83598834D01*
X143156035Y-83610198D01*
X143123312Y-83618395D01*
X143089943Y-83623345D01*
X143056250Y-83625000D01*
X141943750Y-83625000D01*
X141910057Y-83623345D01*
X141876688Y-83618395D01*
X141843965Y-83610198D01*
X141812203Y-83598834D01*
X141781707Y-83584410D01*
X141752773Y-83567068D01*
X141725677Y-83546972D01*
X141700682Y-83524318D01*
X141678028Y-83499323D01*
X141657932Y-83472227D01*
X141640590Y-83443293D01*
X141626166Y-83412797D01*
X141614802Y-83381035D01*
X141606605Y-83348312D01*
X141601655Y-83314943D01*
X141600000Y-83281250D01*
X141600000Y-82593750D01*
X141601655Y-82560057D01*
X141606605Y-82526688D01*
X141614802Y-82493965D01*
X141626166Y-82462203D01*
X141640590Y-82431707D01*
X141657932Y-82402773D01*
X141678028Y-82375677D01*
X141700682Y-82350682D01*
X141725677Y-82328028D01*
X141752773Y-82307932D01*
X141781707Y-82290590D01*
X141812203Y-82276166D01*
X141843965Y-82264802D01*
X141876688Y-82256605D01*
X141910057Y-82251655D01*
X141943750Y-82250000D01*
X143056250Y-82250000D01*
X143089943Y-82251655D01*
X143089943Y-82251655D01*
G37*
D11*
X142500000Y-82937500D03*
G04 #@! TD*
D10*
G04 #@! TO.C,R43*
G36*
X116209943Y-77601655D02*
X116243312Y-77606605D01*
X116276035Y-77614802D01*
X116307797Y-77626166D01*
X116338293Y-77640590D01*
X116367227Y-77657932D01*
X116394323Y-77678028D01*
X116419318Y-77700682D01*
X116441972Y-77725677D01*
X116462068Y-77752773D01*
X116479410Y-77781707D01*
X116493834Y-77812203D01*
X116505198Y-77843965D01*
X116513395Y-77876688D01*
X116518345Y-77910057D01*
X116520000Y-77943750D01*
X116520000Y-79056250D01*
X116518345Y-79089943D01*
X116513395Y-79123312D01*
X116505198Y-79156035D01*
X116493834Y-79187797D01*
X116479410Y-79218293D01*
X116462068Y-79247227D01*
X116441972Y-79274323D01*
X116419318Y-79299318D01*
X116394323Y-79321972D01*
X116367227Y-79342068D01*
X116338293Y-79359410D01*
X116307797Y-79373834D01*
X116276035Y-79385198D01*
X116243312Y-79393395D01*
X116209943Y-79398345D01*
X116176250Y-79400000D01*
X115488750Y-79400000D01*
X115455057Y-79398345D01*
X115421688Y-79393395D01*
X115388965Y-79385198D01*
X115357203Y-79373834D01*
X115326707Y-79359410D01*
X115297773Y-79342068D01*
X115270677Y-79321972D01*
X115245682Y-79299318D01*
X115223028Y-79274323D01*
X115202932Y-79247227D01*
X115185590Y-79218293D01*
X115171166Y-79187797D01*
X115159802Y-79156035D01*
X115151605Y-79123312D01*
X115146655Y-79089943D01*
X115145000Y-79056250D01*
X115145000Y-77943750D01*
X115146655Y-77910057D01*
X115151605Y-77876688D01*
X115159802Y-77843965D01*
X115171166Y-77812203D01*
X115185590Y-77781707D01*
X115202932Y-77752773D01*
X115223028Y-77725677D01*
X115245682Y-77700682D01*
X115270677Y-77678028D01*
X115297773Y-77657932D01*
X115326707Y-77640590D01*
X115357203Y-77626166D01*
X115388965Y-77614802D01*
X115421688Y-77606605D01*
X115455057Y-77601655D01*
X115488750Y-77600000D01*
X116176250Y-77600000D01*
X116209943Y-77601655D01*
X116209943Y-77601655D01*
G37*
D11*
X115832500Y-78500000D03*
D10*
G36*
X114334943Y-77601655D02*
X114368312Y-77606605D01*
X114401035Y-77614802D01*
X114432797Y-77626166D01*
X114463293Y-77640590D01*
X114492227Y-77657932D01*
X114519323Y-77678028D01*
X114544318Y-77700682D01*
X114566972Y-77725677D01*
X114587068Y-77752773D01*
X114604410Y-77781707D01*
X114618834Y-77812203D01*
X114630198Y-77843965D01*
X114638395Y-77876688D01*
X114643345Y-77910057D01*
X114645000Y-77943750D01*
X114645000Y-79056250D01*
X114643345Y-79089943D01*
X114638395Y-79123312D01*
X114630198Y-79156035D01*
X114618834Y-79187797D01*
X114604410Y-79218293D01*
X114587068Y-79247227D01*
X114566972Y-79274323D01*
X114544318Y-79299318D01*
X114519323Y-79321972D01*
X114492227Y-79342068D01*
X114463293Y-79359410D01*
X114432797Y-79373834D01*
X114401035Y-79385198D01*
X114368312Y-79393395D01*
X114334943Y-79398345D01*
X114301250Y-79400000D01*
X113613750Y-79400000D01*
X113580057Y-79398345D01*
X113546688Y-79393395D01*
X113513965Y-79385198D01*
X113482203Y-79373834D01*
X113451707Y-79359410D01*
X113422773Y-79342068D01*
X113395677Y-79321972D01*
X113370682Y-79299318D01*
X113348028Y-79274323D01*
X113327932Y-79247227D01*
X113310590Y-79218293D01*
X113296166Y-79187797D01*
X113284802Y-79156035D01*
X113276605Y-79123312D01*
X113271655Y-79089943D01*
X113270000Y-79056250D01*
X113270000Y-77943750D01*
X113271655Y-77910057D01*
X113276605Y-77876688D01*
X113284802Y-77843965D01*
X113296166Y-77812203D01*
X113310590Y-77781707D01*
X113327932Y-77752773D01*
X113348028Y-77725677D01*
X113370682Y-77700682D01*
X113395677Y-77678028D01*
X113422773Y-77657932D01*
X113451707Y-77640590D01*
X113482203Y-77626166D01*
X113513965Y-77614802D01*
X113546688Y-77606605D01*
X113580057Y-77601655D01*
X113613750Y-77600000D01*
X114301250Y-77600000D01*
X114334943Y-77601655D01*
X114334943Y-77601655D01*
G37*
D11*
X113957500Y-78500000D03*
G04 #@! TD*
D10*
G04 #@! TO.C,R44*
G36*
X102814943Y-77601655D02*
X102848312Y-77606605D01*
X102881035Y-77614802D01*
X102912797Y-77626166D01*
X102943293Y-77640590D01*
X102972227Y-77657932D01*
X102999323Y-77678028D01*
X103024318Y-77700682D01*
X103046972Y-77725677D01*
X103067068Y-77752773D01*
X103084410Y-77781707D01*
X103098834Y-77812203D01*
X103110198Y-77843965D01*
X103118395Y-77876688D01*
X103123345Y-77910057D01*
X103125000Y-77943750D01*
X103125000Y-79056250D01*
X103123345Y-79089943D01*
X103118395Y-79123312D01*
X103110198Y-79156035D01*
X103098834Y-79187797D01*
X103084410Y-79218293D01*
X103067068Y-79247227D01*
X103046972Y-79274323D01*
X103024318Y-79299318D01*
X102999323Y-79321972D01*
X102972227Y-79342068D01*
X102943293Y-79359410D01*
X102912797Y-79373834D01*
X102881035Y-79385198D01*
X102848312Y-79393395D01*
X102814943Y-79398345D01*
X102781250Y-79400000D01*
X102093750Y-79400000D01*
X102060057Y-79398345D01*
X102026688Y-79393395D01*
X101993965Y-79385198D01*
X101962203Y-79373834D01*
X101931707Y-79359410D01*
X101902773Y-79342068D01*
X101875677Y-79321972D01*
X101850682Y-79299318D01*
X101828028Y-79274323D01*
X101807932Y-79247227D01*
X101790590Y-79218293D01*
X101776166Y-79187797D01*
X101764802Y-79156035D01*
X101756605Y-79123312D01*
X101751655Y-79089943D01*
X101750000Y-79056250D01*
X101750000Y-77943750D01*
X101751655Y-77910057D01*
X101756605Y-77876688D01*
X101764802Y-77843965D01*
X101776166Y-77812203D01*
X101790590Y-77781707D01*
X101807932Y-77752773D01*
X101828028Y-77725677D01*
X101850682Y-77700682D01*
X101875677Y-77678028D01*
X101902773Y-77657932D01*
X101931707Y-77640590D01*
X101962203Y-77626166D01*
X101993965Y-77614802D01*
X102026688Y-77606605D01*
X102060057Y-77601655D01*
X102093750Y-77600000D01*
X102781250Y-77600000D01*
X102814943Y-77601655D01*
X102814943Y-77601655D01*
G37*
D11*
X102437500Y-78500000D03*
D10*
G36*
X100939943Y-77601655D02*
X100973312Y-77606605D01*
X101006035Y-77614802D01*
X101037797Y-77626166D01*
X101068293Y-77640590D01*
X101097227Y-77657932D01*
X101124323Y-77678028D01*
X101149318Y-77700682D01*
X101171972Y-77725677D01*
X101192068Y-77752773D01*
X101209410Y-77781707D01*
X101223834Y-77812203D01*
X101235198Y-77843965D01*
X101243395Y-77876688D01*
X101248345Y-77910057D01*
X101250000Y-77943750D01*
X101250000Y-79056250D01*
X101248345Y-79089943D01*
X101243395Y-79123312D01*
X101235198Y-79156035D01*
X101223834Y-79187797D01*
X101209410Y-79218293D01*
X101192068Y-79247227D01*
X101171972Y-79274323D01*
X101149318Y-79299318D01*
X101124323Y-79321972D01*
X101097227Y-79342068D01*
X101068293Y-79359410D01*
X101037797Y-79373834D01*
X101006035Y-79385198D01*
X100973312Y-79393395D01*
X100939943Y-79398345D01*
X100906250Y-79400000D01*
X100218750Y-79400000D01*
X100185057Y-79398345D01*
X100151688Y-79393395D01*
X100118965Y-79385198D01*
X100087203Y-79373834D01*
X100056707Y-79359410D01*
X100027773Y-79342068D01*
X100000677Y-79321972D01*
X99975682Y-79299318D01*
X99953028Y-79274323D01*
X99932932Y-79247227D01*
X99915590Y-79218293D01*
X99901166Y-79187797D01*
X99889802Y-79156035D01*
X99881605Y-79123312D01*
X99876655Y-79089943D01*
X99875000Y-79056250D01*
X99875000Y-77943750D01*
X99876655Y-77910057D01*
X99881605Y-77876688D01*
X99889802Y-77843965D01*
X99901166Y-77812203D01*
X99915590Y-77781707D01*
X99932932Y-77752773D01*
X99953028Y-77725677D01*
X99975682Y-77700682D01*
X100000677Y-77678028D01*
X100027773Y-77657932D01*
X100056707Y-77640590D01*
X100087203Y-77626166D01*
X100118965Y-77614802D01*
X100151688Y-77606605D01*
X100185057Y-77601655D01*
X100218750Y-77600000D01*
X100906250Y-77600000D01*
X100939943Y-77601655D01*
X100939943Y-77601655D01*
G37*
D11*
X100562500Y-78500000D03*
G04 #@! TD*
D10*
G04 #@! TO.C,R35*
G36*
X96314943Y-50101655D02*
X96348312Y-50106605D01*
X96381035Y-50114802D01*
X96412797Y-50126166D01*
X96443293Y-50140590D01*
X96472227Y-50157932D01*
X96499323Y-50178028D01*
X96524318Y-50200682D01*
X96546972Y-50225677D01*
X96567068Y-50252773D01*
X96584410Y-50281707D01*
X96598834Y-50312203D01*
X96610198Y-50343965D01*
X96618395Y-50376688D01*
X96623345Y-50410057D01*
X96625000Y-50443750D01*
X96625000Y-51556250D01*
X96623345Y-51589943D01*
X96618395Y-51623312D01*
X96610198Y-51656035D01*
X96598834Y-51687797D01*
X96584410Y-51718293D01*
X96567068Y-51747227D01*
X96546972Y-51774323D01*
X96524318Y-51799318D01*
X96499323Y-51821972D01*
X96472227Y-51842068D01*
X96443293Y-51859410D01*
X96412797Y-51873834D01*
X96381035Y-51885198D01*
X96348312Y-51893395D01*
X96314943Y-51898345D01*
X96281250Y-51900000D01*
X95593750Y-51900000D01*
X95560057Y-51898345D01*
X95526688Y-51893395D01*
X95493965Y-51885198D01*
X95462203Y-51873834D01*
X95431707Y-51859410D01*
X95402773Y-51842068D01*
X95375677Y-51821972D01*
X95350682Y-51799318D01*
X95328028Y-51774323D01*
X95307932Y-51747227D01*
X95290590Y-51718293D01*
X95276166Y-51687797D01*
X95264802Y-51656035D01*
X95256605Y-51623312D01*
X95251655Y-51589943D01*
X95250000Y-51556250D01*
X95250000Y-50443750D01*
X95251655Y-50410057D01*
X95256605Y-50376688D01*
X95264802Y-50343965D01*
X95276166Y-50312203D01*
X95290590Y-50281707D01*
X95307932Y-50252773D01*
X95328028Y-50225677D01*
X95350682Y-50200682D01*
X95375677Y-50178028D01*
X95402773Y-50157932D01*
X95431707Y-50140590D01*
X95462203Y-50126166D01*
X95493965Y-50114802D01*
X95526688Y-50106605D01*
X95560057Y-50101655D01*
X95593750Y-50100000D01*
X96281250Y-50100000D01*
X96314943Y-50101655D01*
X96314943Y-50101655D01*
G37*
D11*
X95937500Y-51000000D03*
D10*
G36*
X94439943Y-50101655D02*
X94473312Y-50106605D01*
X94506035Y-50114802D01*
X94537797Y-50126166D01*
X94568293Y-50140590D01*
X94597227Y-50157932D01*
X94624323Y-50178028D01*
X94649318Y-50200682D01*
X94671972Y-50225677D01*
X94692068Y-50252773D01*
X94709410Y-50281707D01*
X94723834Y-50312203D01*
X94735198Y-50343965D01*
X94743395Y-50376688D01*
X94748345Y-50410057D01*
X94750000Y-50443750D01*
X94750000Y-51556250D01*
X94748345Y-51589943D01*
X94743395Y-51623312D01*
X94735198Y-51656035D01*
X94723834Y-51687797D01*
X94709410Y-51718293D01*
X94692068Y-51747227D01*
X94671972Y-51774323D01*
X94649318Y-51799318D01*
X94624323Y-51821972D01*
X94597227Y-51842068D01*
X94568293Y-51859410D01*
X94537797Y-51873834D01*
X94506035Y-51885198D01*
X94473312Y-51893395D01*
X94439943Y-51898345D01*
X94406250Y-51900000D01*
X93718750Y-51900000D01*
X93685057Y-51898345D01*
X93651688Y-51893395D01*
X93618965Y-51885198D01*
X93587203Y-51873834D01*
X93556707Y-51859410D01*
X93527773Y-51842068D01*
X93500677Y-51821972D01*
X93475682Y-51799318D01*
X93453028Y-51774323D01*
X93432932Y-51747227D01*
X93415590Y-51718293D01*
X93401166Y-51687797D01*
X93389802Y-51656035D01*
X93381605Y-51623312D01*
X93376655Y-51589943D01*
X93375000Y-51556250D01*
X93375000Y-50443750D01*
X93376655Y-50410057D01*
X93381605Y-50376688D01*
X93389802Y-50343965D01*
X93401166Y-50312203D01*
X93415590Y-50281707D01*
X93432932Y-50252773D01*
X93453028Y-50225677D01*
X93475682Y-50200682D01*
X93500677Y-50178028D01*
X93527773Y-50157932D01*
X93556707Y-50140590D01*
X93587203Y-50126166D01*
X93618965Y-50114802D01*
X93651688Y-50106605D01*
X93685057Y-50101655D01*
X93718750Y-50100000D01*
X94406250Y-50100000D01*
X94439943Y-50101655D01*
X94439943Y-50101655D01*
G37*
D11*
X94062500Y-51000000D03*
G04 #@! TD*
D10*
G04 #@! TO.C,R34*
G36*
X102814943Y-68601655D02*
X102848312Y-68606605D01*
X102881035Y-68614802D01*
X102912797Y-68626166D01*
X102943293Y-68640590D01*
X102972227Y-68657932D01*
X102999323Y-68678028D01*
X103024318Y-68700682D01*
X103046972Y-68725677D01*
X103067068Y-68752773D01*
X103084410Y-68781707D01*
X103098834Y-68812203D01*
X103110198Y-68843965D01*
X103118395Y-68876688D01*
X103123345Y-68910057D01*
X103125000Y-68943750D01*
X103125000Y-70056250D01*
X103123345Y-70089943D01*
X103118395Y-70123312D01*
X103110198Y-70156035D01*
X103098834Y-70187797D01*
X103084410Y-70218293D01*
X103067068Y-70247227D01*
X103046972Y-70274323D01*
X103024318Y-70299318D01*
X102999323Y-70321972D01*
X102972227Y-70342068D01*
X102943293Y-70359410D01*
X102912797Y-70373834D01*
X102881035Y-70385198D01*
X102848312Y-70393395D01*
X102814943Y-70398345D01*
X102781250Y-70400000D01*
X102093750Y-70400000D01*
X102060057Y-70398345D01*
X102026688Y-70393395D01*
X101993965Y-70385198D01*
X101962203Y-70373834D01*
X101931707Y-70359410D01*
X101902773Y-70342068D01*
X101875677Y-70321972D01*
X101850682Y-70299318D01*
X101828028Y-70274323D01*
X101807932Y-70247227D01*
X101790590Y-70218293D01*
X101776166Y-70187797D01*
X101764802Y-70156035D01*
X101756605Y-70123312D01*
X101751655Y-70089943D01*
X101750000Y-70056250D01*
X101750000Y-68943750D01*
X101751655Y-68910057D01*
X101756605Y-68876688D01*
X101764802Y-68843965D01*
X101776166Y-68812203D01*
X101790590Y-68781707D01*
X101807932Y-68752773D01*
X101828028Y-68725677D01*
X101850682Y-68700682D01*
X101875677Y-68678028D01*
X101902773Y-68657932D01*
X101931707Y-68640590D01*
X101962203Y-68626166D01*
X101993965Y-68614802D01*
X102026688Y-68606605D01*
X102060057Y-68601655D01*
X102093750Y-68600000D01*
X102781250Y-68600000D01*
X102814943Y-68601655D01*
X102814943Y-68601655D01*
G37*
D11*
X102437500Y-69500000D03*
D10*
G36*
X100939943Y-68601655D02*
X100973312Y-68606605D01*
X101006035Y-68614802D01*
X101037797Y-68626166D01*
X101068293Y-68640590D01*
X101097227Y-68657932D01*
X101124323Y-68678028D01*
X101149318Y-68700682D01*
X101171972Y-68725677D01*
X101192068Y-68752773D01*
X101209410Y-68781707D01*
X101223834Y-68812203D01*
X101235198Y-68843965D01*
X101243395Y-68876688D01*
X101248345Y-68910057D01*
X101250000Y-68943750D01*
X101250000Y-70056250D01*
X101248345Y-70089943D01*
X101243395Y-70123312D01*
X101235198Y-70156035D01*
X101223834Y-70187797D01*
X101209410Y-70218293D01*
X101192068Y-70247227D01*
X101171972Y-70274323D01*
X101149318Y-70299318D01*
X101124323Y-70321972D01*
X101097227Y-70342068D01*
X101068293Y-70359410D01*
X101037797Y-70373834D01*
X101006035Y-70385198D01*
X100973312Y-70393395D01*
X100939943Y-70398345D01*
X100906250Y-70400000D01*
X100218750Y-70400000D01*
X100185057Y-70398345D01*
X100151688Y-70393395D01*
X100118965Y-70385198D01*
X100087203Y-70373834D01*
X100056707Y-70359410D01*
X100027773Y-70342068D01*
X100000677Y-70321972D01*
X99975682Y-70299318D01*
X99953028Y-70274323D01*
X99932932Y-70247227D01*
X99915590Y-70218293D01*
X99901166Y-70187797D01*
X99889802Y-70156035D01*
X99881605Y-70123312D01*
X99876655Y-70089943D01*
X99875000Y-70056250D01*
X99875000Y-68943750D01*
X99876655Y-68910057D01*
X99881605Y-68876688D01*
X99889802Y-68843965D01*
X99901166Y-68812203D01*
X99915590Y-68781707D01*
X99932932Y-68752773D01*
X99953028Y-68725677D01*
X99975682Y-68700682D01*
X100000677Y-68678028D01*
X100027773Y-68657932D01*
X100056707Y-68640590D01*
X100087203Y-68626166D01*
X100118965Y-68614802D01*
X100151688Y-68606605D01*
X100185057Y-68601655D01*
X100218750Y-68600000D01*
X100906250Y-68600000D01*
X100939943Y-68601655D01*
X100939943Y-68601655D01*
G37*
D11*
X100562500Y-69500000D03*
G04 #@! TD*
D10*
G04 #@! TO.C,R33*
G36*
X114334943Y-68601655D02*
X114368312Y-68606605D01*
X114401035Y-68614802D01*
X114432797Y-68626166D01*
X114463293Y-68640590D01*
X114492227Y-68657932D01*
X114519323Y-68678028D01*
X114544318Y-68700682D01*
X114566972Y-68725677D01*
X114587068Y-68752773D01*
X114604410Y-68781707D01*
X114618834Y-68812203D01*
X114630198Y-68843965D01*
X114638395Y-68876688D01*
X114643345Y-68910057D01*
X114645000Y-68943750D01*
X114645000Y-70056250D01*
X114643345Y-70089943D01*
X114638395Y-70123312D01*
X114630198Y-70156035D01*
X114618834Y-70187797D01*
X114604410Y-70218293D01*
X114587068Y-70247227D01*
X114566972Y-70274323D01*
X114544318Y-70299318D01*
X114519323Y-70321972D01*
X114492227Y-70342068D01*
X114463293Y-70359410D01*
X114432797Y-70373834D01*
X114401035Y-70385198D01*
X114368312Y-70393395D01*
X114334943Y-70398345D01*
X114301250Y-70400000D01*
X113613750Y-70400000D01*
X113580057Y-70398345D01*
X113546688Y-70393395D01*
X113513965Y-70385198D01*
X113482203Y-70373834D01*
X113451707Y-70359410D01*
X113422773Y-70342068D01*
X113395677Y-70321972D01*
X113370682Y-70299318D01*
X113348028Y-70274323D01*
X113327932Y-70247227D01*
X113310590Y-70218293D01*
X113296166Y-70187797D01*
X113284802Y-70156035D01*
X113276605Y-70123312D01*
X113271655Y-70089943D01*
X113270000Y-70056250D01*
X113270000Y-68943750D01*
X113271655Y-68910057D01*
X113276605Y-68876688D01*
X113284802Y-68843965D01*
X113296166Y-68812203D01*
X113310590Y-68781707D01*
X113327932Y-68752773D01*
X113348028Y-68725677D01*
X113370682Y-68700682D01*
X113395677Y-68678028D01*
X113422773Y-68657932D01*
X113451707Y-68640590D01*
X113482203Y-68626166D01*
X113513965Y-68614802D01*
X113546688Y-68606605D01*
X113580057Y-68601655D01*
X113613750Y-68600000D01*
X114301250Y-68600000D01*
X114334943Y-68601655D01*
X114334943Y-68601655D01*
G37*
D11*
X113957500Y-69500000D03*
D10*
G36*
X116209943Y-68601655D02*
X116243312Y-68606605D01*
X116276035Y-68614802D01*
X116307797Y-68626166D01*
X116338293Y-68640590D01*
X116367227Y-68657932D01*
X116394323Y-68678028D01*
X116419318Y-68700682D01*
X116441972Y-68725677D01*
X116462068Y-68752773D01*
X116479410Y-68781707D01*
X116493834Y-68812203D01*
X116505198Y-68843965D01*
X116513395Y-68876688D01*
X116518345Y-68910057D01*
X116520000Y-68943750D01*
X116520000Y-70056250D01*
X116518345Y-70089943D01*
X116513395Y-70123312D01*
X116505198Y-70156035D01*
X116493834Y-70187797D01*
X116479410Y-70218293D01*
X116462068Y-70247227D01*
X116441972Y-70274323D01*
X116419318Y-70299318D01*
X116394323Y-70321972D01*
X116367227Y-70342068D01*
X116338293Y-70359410D01*
X116307797Y-70373834D01*
X116276035Y-70385198D01*
X116243312Y-70393395D01*
X116209943Y-70398345D01*
X116176250Y-70400000D01*
X115488750Y-70400000D01*
X115455057Y-70398345D01*
X115421688Y-70393395D01*
X115388965Y-70385198D01*
X115357203Y-70373834D01*
X115326707Y-70359410D01*
X115297773Y-70342068D01*
X115270677Y-70321972D01*
X115245682Y-70299318D01*
X115223028Y-70274323D01*
X115202932Y-70247227D01*
X115185590Y-70218293D01*
X115171166Y-70187797D01*
X115159802Y-70156035D01*
X115151605Y-70123312D01*
X115146655Y-70089943D01*
X115145000Y-70056250D01*
X115145000Y-68943750D01*
X115146655Y-68910057D01*
X115151605Y-68876688D01*
X115159802Y-68843965D01*
X115171166Y-68812203D01*
X115185590Y-68781707D01*
X115202932Y-68752773D01*
X115223028Y-68725677D01*
X115245682Y-68700682D01*
X115270677Y-68678028D01*
X115297773Y-68657932D01*
X115326707Y-68640590D01*
X115357203Y-68626166D01*
X115388965Y-68614802D01*
X115421688Y-68606605D01*
X115455057Y-68601655D01*
X115488750Y-68600000D01*
X116176250Y-68600000D01*
X116209943Y-68601655D01*
X116209943Y-68601655D01*
G37*
D11*
X115832500Y-69500000D03*
G04 #@! TD*
D10*
G04 #@! TO.C,R31*
G36*
X92589943Y-62439155D02*
X92623312Y-62444105D01*
X92656035Y-62452302D01*
X92687797Y-62463666D01*
X92718293Y-62478090D01*
X92747227Y-62495432D01*
X92774323Y-62515528D01*
X92799318Y-62538182D01*
X92821972Y-62563177D01*
X92842068Y-62590273D01*
X92859410Y-62619207D01*
X92873834Y-62649703D01*
X92885198Y-62681465D01*
X92893395Y-62714188D01*
X92898345Y-62747557D01*
X92900000Y-62781250D01*
X92900000Y-63468750D01*
X92898345Y-63502443D01*
X92893395Y-63535812D01*
X92885198Y-63568535D01*
X92873834Y-63600297D01*
X92859410Y-63630793D01*
X92842068Y-63659727D01*
X92821972Y-63686823D01*
X92799318Y-63711818D01*
X92774323Y-63734472D01*
X92747227Y-63754568D01*
X92718293Y-63771910D01*
X92687797Y-63786334D01*
X92656035Y-63797698D01*
X92623312Y-63805895D01*
X92589943Y-63810845D01*
X92556250Y-63812500D01*
X91443750Y-63812500D01*
X91410057Y-63810845D01*
X91376688Y-63805895D01*
X91343965Y-63797698D01*
X91312203Y-63786334D01*
X91281707Y-63771910D01*
X91252773Y-63754568D01*
X91225677Y-63734472D01*
X91200682Y-63711818D01*
X91178028Y-63686823D01*
X91157932Y-63659727D01*
X91140590Y-63630793D01*
X91126166Y-63600297D01*
X91114802Y-63568535D01*
X91106605Y-63535812D01*
X91101655Y-63502443D01*
X91100000Y-63468750D01*
X91100000Y-62781250D01*
X91101655Y-62747557D01*
X91106605Y-62714188D01*
X91114802Y-62681465D01*
X91126166Y-62649703D01*
X91140590Y-62619207D01*
X91157932Y-62590273D01*
X91178028Y-62563177D01*
X91200682Y-62538182D01*
X91225677Y-62515528D01*
X91252773Y-62495432D01*
X91281707Y-62478090D01*
X91312203Y-62463666D01*
X91343965Y-62452302D01*
X91376688Y-62444105D01*
X91410057Y-62439155D01*
X91443750Y-62437500D01*
X92556250Y-62437500D01*
X92589943Y-62439155D01*
X92589943Y-62439155D01*
G37*
D11*
X92000000Y-63125000D03*
D10*
G36*
X92589943Y-64314155D02*
X92623312Y-64319105D01*
X92656035Y-64327302D01*
X92687797Y-64338666D01*
X92718293Y-64353090D01*
X92747227Y-64370432D01*
X92774323Y-64390528D01*
X92799318Y-64413182D01*
X92821972Y-64438177D01*
X92842068Y-64465273D01*
X92859410Y-64494207D01*
X92873834Y-64524703D01*
X92885198Y-64556465D01*
X92893395Y-64589188D01*
X92898345Y-64622557D01*
X92900000Y-64656250D01*
X92900000Y-65343750D01*
X92898345Y-65377443D01*
X92893395Y-65410812D01*
X92885198Y-65443535D01*
X92873834Y-65475297D01*
X92859410Y-65505793D01*
X92842068Y-65534727D01*
X92821972Y-65561823D01*
X92799318Y-65586818D01*
X92774323Y-65609472D01*
X92747227Y-65629568D01*
X92718293Y-65646910D01*
X92687797Y-65661334D01*
X92656035Y-65672698D01*
X92623312Y-65680895D01*
X92589943Y-65685845D01*
X92556250Y-65687500D01*
X91443750Y-65687500D01*
X91410057Y-65685845D01*
X91376688Y-65680895D01*
X91343965Y-65672698D01*
X91312203Y-65661334D01*
X91281707Y-65646910D01*
X91252773Y-65629568D01*
X91225677Y-65609472D01*
X91200682Y-65586818D01*
X91178028Y-65561823D01*
X91157932Y-65534727D01*
X91140590Y-65505793D01*
X91126166Y-65475297D01*
X91114802Y-65443535D01*
X91106605Y-65410812D01*
X91101655Y-65377443D01*
X91100000Y-65343750D01*
X91100000Y-64656250D01*
X91101655Y-64622557D01*
X91106605Y-64589188D01*
X91114802Y-64556465D01*
X91126166Y-64524703D01*
X91140590Y-64494207D01*
X91157932Y-64465273D01*
X91178028Y-64438177D01*
X91200682Y-64413182D01*
X91225677Y-64390528D01*
X91252773Y-64370432D01*
X91281707Y-64353090D01*
X91312203Y-64338666D01*
X91343965Y-64327302D01*
X91376688Y-64319105D01*
X91410057Y-64314155D01*
X91443750Y-64312500D01*
X92556250Y-64312500D01*
X92589943Y-64314155D01*
X92589943Y-64314155D01*
G37*
D11*
X92000000Y-65000000D03*
G04 #@! TD*
D10*
G04 #@! TO.C,R30*
G36*
X95089943Y-60251655D02*
X95123312Y-60256605D01*
X95156035Y-60264802D01*
X95187797Y-60276166D01*
X95218293Y-60290590D01*
X95247227Y-60307932D01*
X95274323Y-60328028D01*
X95299318Y-60350682D01*
X95321972Y-60375677D01*
X95342068Y-60402773D01*
X95359410Y-60431707D01*
X95373834Y-60462203D01*
X95385198Y-60493965D01*
X95393395Y-60526688D01*
X95398345Y-60560057D01*
X95400000Y-60593750D01*
X95400000Y-61281250D01*
X95398345Y-61314943D01*
X95393395Y-61348312D01*
X95385198Y-61381035D01*
X95373834Y-61412797D01*
X95359410Y-61443293D01*
X95342068Y-61472227D01*
X95321972Y-61499323D01*
X95299318Y-61524318D01*
X95274323Y-61546972D01*
X95247227Y-61567068D01*
X95218293Y-61584410D01*
X95187797Y-61598834D01*
X95156035Y-61610198D01*
X95123312Y-61618395D01*
X95089943Y-61623345D01*
X95056250Y-61625000D01*
X93943750Y-61625000D01*
X93910057Y-61623345D01*
X93876688Y-61618395D01*
X93843965Y-61610198D01*
X93812203Y-61598834D01*
X93781707Y-61584410D01*
X93752773Y-61567068D01*
X93725677Y-61546972D01*
X93700682Y-61524318D01*
X93678028Y-61499323D01*
X93657932Y-61472227D01*
X93640590Y-61443293D01*
X93626166Y-61412797D01*
X93614802Y-61381035D01*
X93606605Y-61348312D01*
X93601655Y-61314943D01*
X93600000Y-61281250D01*
X93600000Y-60593750D01*
X93601655Y-60560057D01*
X93606605Y-60526688D01*
X93614802Y-60493965D01*
X93626166Y-60462203D01*
X93640590Y-60431707D01*
X93657932Y-60402773D01*
X93678028Y-60375677D01*
X93700682Y-60350682D01*
X93725677Y-60328028D01*
X93752773Y-60307932D01*
X93781707Y-60290590D01*
X93812203Y-60276166D01*
X93843965Y-60264802D01*
X93876688Y-60256605D01*
X93910057Y-60251655D01*
X93943750Y-60250000D01*
X95056250Y-60250000D01*
X95089943Y-60251655D01*
X95089943Y-60251655D01*
G37*
D11*
X94500000Y-60937500D03*
D10*
G36*
X95089943Y-58376655D02*
X95123312Y-58381605D01*
X95156035Y-58389802D01*
X95187797Y-58401166D01*
X95218293Y-58415590D01*
X95247227Y-58432932D01*
X95274323Y-58453028D01*
X95299318Y-58475682D01*
X95321972Y-58500677D01*
X95342068Y-58527773D01*
X95359410Y-58556707D01*
X95373834Y-58587203D01*
X95385198Y-58618965D01*
X95393395Y-58651688D01*
X95398345Y-58685057D01*
X95400000Y-58718750D01*
X95400000Y-59406250D01*
X95398345Y-59439943D01*
X95393395Y-59473312D01*
X95385198Y-59506035D01*
X95373834Y-59537797D01*
X95359410Y-59568293D01*
X95342068Y-59597227D01*
X95321972Y-59624323D01*
X95299318Y-59649318D01*
X95274323Y-59671972D01*
X95247227Y-59692068D01*
X95218293Y-59709410D01*
X95187797Y-59723834D01*
X95156035Y-59735198D01*
X95123312Y-59743395D01*
X95089943Y-59748345D01*
X95056250Y-59750000D01*
X93943750Y-59750000D01*
X93910057Y-59748345D01*
X93876688Y-59743395D01*
X93843965Y-59735198D01*
X93812203Y-59723834D01*
X93781707Y-59709410D01*
X93752773Y-59692068D01*
X93725677Y-59671972D01*
X93700682Y-59649318D01*
X93678028Y-59624323D01*
X93657932Y-59597227D01*
X93640590Y-59568293D01*
X93626166Y-59537797D01*
X93614802Y-59506035D01*
X93606605Y-59473312D01*
X93601655Y-59439943D01*
X93600000Y-59406250D01*
X93600000Y-58718750D01*
X93601655Y-58685057D01*
X93606605Y-58651688D01*
X93614802Y-58618965D01*
X93626166Y-58587203D01*
X93640590Y-58556707D01*
X93657932Y-58527773D01*
X93678028Y-58500677D01*
X93700682Y-58475682D01*
X93725677Y-58453028D01*
X93752773Y-58432932D01*
X93781707Y-58415590D01*
X93812203Y-58401166D01*
X93843965Y-58389802D01*
X93876688Y-58381605D01*
X93910057Y-58376655D01*
X93943750Y-58375000D01*
X95056250Y-58375000D01*
X95089943Y-58376655D01*
X95089943Y-58376655D01*
G37*
D11*
X94500000Y-59062500D03*
G04 #@! TD*
D10*
G04 #@! TO.C,R29*
G36*
X95089943Y-62376655D02*
X95123312Y-62381605D01*
X95156035Y-62389802D01*
X95187797Y-62401166D01*
X95218293Y-62415590D01*
X95247227Y-62432932D01*
X95274323Y-62453028D01*
X95299318Y-62475682D01*
X95321972Y-62500677D01*
X95342068Y-62527773D01*
X95359410Y-62556707D01*
X95373834Y-62587203D01*
X95385198Y-62618965D01*
X95393395Y-62651688D01*
X95398345Y-62685057D01*
X95400000Y-62718750D01*
X95400000Y-63406250D01*
X95398345Y-63439943D01*
X95393395Y-63473312D01*
X95385198Y-63506035D01*
X95373834Y-63537797D01*
X95359410Y-63568293D01*
X95342068Y-63597227D01*
X95321972Y-63624323D01*
X95299318Y-63649318D01*
X95274323Y-63671972D01*
X95247227Y-63692068D01*
X95218293Y-63709410D01*
X95187797Y-63723834D01*
X95156035Y-63735198D01*
X95123312Y-63743395D01*
X95089943Y-63748345D01*
X95056250Y-63750000D01*
X93943750Y-63750000D01*
X93910057Y-63748345D01*
X93876688Y-63743395D01*
X93843965Y-63735198D01*
X93812203Y-63723834D01*
X93781707Y-63709410D01*
X93752773Y-63692068D01*
X93725677Y-63671972D01*
X93700682Y-63649318D01*
X93678028Y-63624323D01*
X93657932Y-63597227D01*
X93640590Y-63568293D01*
X93626166Y-63537797D01*
X93614802Y-63506035D01*
X93606605Y-63473312D01*
X93601655Y-63439943D01*
X93600000Y-63406250D01*
X93600000Y-62718750D01*
X93601655Y-62685057D01*
X93606605Y-62651688D01*
X93614802Y-62618965D01*
X93626166Y-62587203D01*
X93640590Y-62556707D01*
X93657932Y-62527773D01*
X93678028Y-62500677D01*
X93700682Y-62475682D01*
X93725677Y-62453028D01*
X93752773Y-62432932D01*
X93781707Y-62415590D01*
X93812203Y-62401166D01*
X93843965Y-62389802D01*
X93876688Y-62381605D01*
X93910057Y-62376655D01*
X93943750Y-62375000D01*
X95056250Y-62375000D01*
X95089943Y-62376655D01*
X95089943Y-62376655D01*
G37*
D11*
X94500000Y-63062500D03*
D10*
G36*
X95089943Y-64251655D02*
X95123312Y-64256605D01*
X95156035Y-64264802D01*
X95187797Y-64276166D01*
X95218293Y-64290590D01*
X95247227Y-64307932D01*
X95274323Y-64328028D01*
X95299318Y-64350682D01*
X95321972Y-64375677D01*
X95342068Y-64402773D01*
X95359410Y-64431707D01*
X95373834Y-64462203D01*
X95385198Y-64493965D01*
X95393395Y-64526688D01*
X95398345Y-64560057D01*
X95400000Y-64593750D01*
X95400000Y-65281250D01*
X95398345Y-65314943D01*
X95393395Y-65348312D01*
X95385198Y-65381035D01*
X95373834Y-65412797D01*
X95359410Y-65443293D01*
X95342068Y-65472227D01*
X95321972Y-65499323D01*
X95299318Y-65524318D01*
X95274323Y-65546972D01*
X95247227Y-65567068D01*
X95218293Y-65584410D01*
X95187797Y-65598834D01*
X95156035Y-65610198D01*
X95123312Y-65618395D01*
X95089943Y-65623345D01*
X95056250Y-65625000D01*
X93943750Y-65625000D01*
X93910057Y-65623345D01*
X93876688Y-65618395D01*
X93843965Y-65610198D01*
X93812203Y-65598834D01*
X93781707Y-65584410D01*
X93752773Y-65567068D01*
X93725677Y-65546972D01*
X93700682Y-65524318D01*
X93678028Y-65499323D01*
X93657932Y-65472227D01*
X93640590Y-65443293D01*
X93626166Y-65412797D01*
X93614802Y-65381035D01*
X93606605Y-65348312D01*
X93601655Y-65314943D01*
X93600000Y-65281250D01*
X93600000Y-64593750D01*
X93601655Y-64560057D01*
X93606605Y-64526688D01*
X93614802Y-64493965D01*
X93626166Y-64462203D01*
X93640590Y-64431707D01*
X93657932Y-64402773D01*
X93678028Y-64375677D01*
X93700682Y-64350682D01*
X93725677Y-64328028D01*
X93752773Y-64307932D01*
X93781707Y-64290590D01*
X93812203Y-64276166D01*
X93843965Y-64264802D01*
X93876688Y-64256605D01*
X93910057Y-64251655D01*
X93943750Y-64250000D01*
X95056250Y-64250000D01*
X95089943Y-64251655D01*
X95089943Y-64251655D01*
G37*
D11*
X94500000Y-64937500D03*
G04 #@! TD*
D10*
G04 #@! TO.C,R28*
G36*
X97589943Y-60251655D02*
X97623312Y-60256605D01*
X97656035Y-60264802D01*
X97687797Y-60276166D01*
X97718293Y-60290590D01*
X97747227Y-60307932D01*
X97774323Y-60328028D01*
X97799318Y-60350682D01*
X97821972Y-60375677D01*
X97842068Y-60402773D01*
X97859410Y-60431707D01*
X97873834Y-60462203D01*
X97885198Y-60493965D01*
X97893395Y-60526688D01*
X97898345Y-60560057D01*
X97900000Y-60593750D01*
X97900000Y-61281250D01*
X97898345Y-61314943D01*
X97893395Y-61348312D01*
X97885198Y-61381035D01*
X97873834Y-61412797D01*
X97859410Y-61443293D01*
X97842068Y-61472227D01*
X97821972Y-61499323D01*
X97799318Y-61524318D01*
X97774323Y-61546972D01*
X97747227Y-61567068D01*
X97718293Y-61584410D01*
X97687797Y-61598834D01*
X97656035Y-61610198D01*
X97623312Y-61618395D01*
X97589943Y-61623345D01*
X97556250Y-61625000D01*
X96443750Y-61625000D01*
X96410057Y-61623345D01*
X96376688Y-61618395D01*
X96343965Y-61610198D01*
X96312203Y-61598834D01*
X96281707Y-61584410D01*
X96252773Y-61567068D01*
X96225677Y-61546972D01*
X96200682Y-61524318D01*
X96178028Y-61499323D01*
X96157932Y-61472227D01*
X96140590Y-61443293D01*
X96126166Y-61412797D01*
X96114802Y-61381035D01*
X96106605Y-61348312D01*
X96101655Y-61314943D01*
X96100000Y-61281250D01*
X96100000Y-60593750D01*
X96101655Y-60560057D01*
X96106605Y-60526688D01*
X96114802Y-60493965D01*
X96126166Y-60462203D01*
X96140590Y-60431707D01*
X96157932Y-60402773D01*
X96178028Y-60375677D01*
X96200682Y-60350682D01*
X96225677Y-60328028D01*
X96252773Y-60307932D01*
X96281707Y-60290590D01*
X96312203Y-60276166D01*
X96343965Y-60264802D01*
X96376688Y-60256605D01*
X96410057Y-60251655D01*
X96443750Y-60250000D01*
X97556250Y-60250000D01*
X97589943Y-60251655D01*
X97589943Y-60251655D01*
G37*
D11*
X97000000Y-60937500D03*
D10*
G36*
X97589943Y-58376655D02*
X97623312Y-58381605D01*
X97656035Y-58389802D01*
X97687797Y-58401166D01*
X97718293Y-58415590D01*
X97747227Y-58432932D01*
X97774323Y-58453028D01*
X97799318Y-58475682D01*
X97821972Y-58500677D01*
X97842068Y-58527773D01*
X97859410Y-58556707D01*
X97873834Y-58587203D01*
X97885198Y-58618965D01*
X97893395Y-58651688D01*
X97898345Y-58685057D01*
X97900000Y-58718750D01*
X97900000Y-59406250D01*
X97898345Y-59439943D01*
X97893395Y-59473312D01*
X97885198Y-59506035D01*
X97873834Y-59537797D01*
X97859410Y-59568293D01*
X97842068Y-59597227D01*
X97821972Y-59624323D01*
X97799318Y-59649318D01*
X97774323Y-59671972D01*
X97747227Y-59692068D01*
X97718293Y-59709410D01*
X97687797Y-59723834D01*
X97656035Y-59735198D01*
X97623312Y-59743395D01*
X97589943Y-59748345D01*
X97556250Y-59750000D01*
X96443750Y-59750000D01*
X96410057Y-59748345D01*
X96376688Y-59743395D01*
X96343965Y-59735198D01*
X96312203Y-59723834D01*
X96281707Y-59709410D01*
X96252773Y-59692068D01*
X96225677Y-59671972D01*
X96200682Y-59649318D01*
X96178028Y-59624323D01*
X96157932Y-59597227D01*
X96140590Y-59568293D01*
X96126166Y-59537797D01*
X96114802Y-59506035D01*
X96106605Y-59473312D01*
X96101655Y-59439943D01*
X96100000Y-59406250D01*
X96100000Y-58718750D01*
X96101655Y-58685057D01*
X96106605Y-58651688D01*
X96114802Y-58618965D01*
X96126166Y-58587203D01*
X96140590Y-58556707D01*
X96157932Y-58527773D01*
X96178028Y-58500677D01*
X96200682Y-58475682D01*
X96225677Y-58453028D01*
X96252773Y-58432932D01*
X96281707Y-58415590D01*
X96312203Y-58401166D01*
X96343965Y-58389802D01*
X96376688Y-58381605D01*
X96410057Y-58376655D01*
X96443750Y-58375000D01*
X97556250Y-58375000D01*
X97589943Y-58376655D01*
X97589943Y-58376655D01*
G37*
D11*
X97000000Y-59062500D03*
G04 #@! TD*
D10*
G04 #@! TO.C,R27*
G36*
X97589943Y-62376655D02*
X97623312Y-62381605D01*
X97656035Y-62389802D01*
X97687797Y-62401166D01*
X97718293Y-62415590D01*
X97747227Y-62432932D01*
X97774323Y-62453028D01*
X97799318Y-62475682D01*
X97821972Y-62500677D01*
X97842068Y-62527773D01*
X97859410Y-62556707D01*
X97873834Y-62587203D01*
X97885198Y-62618965D01*
X97893395Y-62651688D01*
X97898345Y-62685057D01*
X97900000Y-62718750D01*
X97900000Y-63406250D01*
X97898345Y-63439943D01*
X97893395Y-63473312D01*
X97885198Y-63506035D01*
X97873834Y-63537797D01*
X97859410Y-63568293D01*
X97842068Y-63597227D01*
X97821972Y-63624323D01*
X97799318Y-63649318D01*
X97774323Y-63671972D01*
X97747227Y-63692068D01*
X97718293Y-63709410D01*
X97687797Y-63723834D01*
X97656035Y-63735198D01*
X97623312Y-63743395D01*
X97589943Y-63748345D01*
X97556250Y-63750000D01*
X96443750Y-63750000D01*
X96410057Y-63748345D01*
X96376688Y-63743395D01*
X96343965Y-63735198D01*
X96312203Y-63723834D01*
X96281707Y-63709410D01*
X96252773Y-63692068D01*
X96225677Y-63671972D01*
X96200682Y-63649318D01*
X96178028Y-63624323D01*
X96157932Y-63597227D01*
X96140590Y-63568293D01*
X96126166Y-63537797D01*
X96114802Y-63506035D01*
X96106605Y-63473312D01*
X96101655Y-63439943D01*
X96100000Y-63406250D01*
X96100000Y-62718750D01*
X96101655Y-62685057D01*
X96106605Y-62651688D01*
X96114802Y-62618965D01*
X96126166Y-62587203D01*
X96140590Y-62556707D01*
X96157932Y-62527773D01*
X96178028Y-62500677D01*
X96200682Y-62475682D01*
X96225677Y-62453028D01*
X96252773Y-62432932D01*
X96281707Y-62415590D01*
X96312203Y-62401166D01*
X96343965Y-62389802D01*
X96376688Y-62381605D01*
X96410057Y-62376655D01*
X96443750Y-62375000D01*
X97556250Y-62375000D01*
X97589943Y-62376655D01*
X97589943Y-62376655D01*
G37*
D11*
X97000000Y-63062500D03*
D10*
G36*
X97589943Y-64251655D02*
X97623312Y-64256605D01*
X97656035Y-64264802D01*
X97687797Y-64276166D01*
X97718293Y-64290590D01*
X97747227Y-64307932D01*
X97774323Y-64328028D01*
X97799318Y-64350682D01*
X97821972Y-64375677D01*
X97842068Y-64402773D01*
X97859410Y-64431707D01*
X97873834Y-64462203D01*
X97885198Y-64493965D01*
X97893395Y-64526688D01*
X97898345Y-64560057D01*
X97900000Y-64593750D01*
X97900000Y-65281250D01*
X97898345Y-65314943D01*
X97893395Y-65348312D01*
X97885198Y-65381035D01*
X97873834Y-65412797D01*
X97859410Y-65443293D01*
X97842068Y-65472227D01*
X97821972Y-65499323D01*
X97799318Y-65524318D01*
X97774323Y-65546972D01*
X97747227Y-65567068D01*
X97718293Y-65584410D01*
X97687797Y-65598834D01*
X97656035Y-65610198D01*
X97623312Y-65618395D01*
X97589943Y-65623345D01*
X97556250Y-65625000D01*
X96443750Y-65625000D01*
X96410057Y-65623345D01*
X96376688Y-65618395D01*
X96343965Y-65610198D01*
X96312203Y-65598834D01*
X96281707Y-65584410D01*
X96252773Y-65567068D01*
X96225677Y-65546972D01*
X96200682Y-65524318D01*
X96178028Y-65499323D01*
X96157932Y-65472227D01*
X96140590Y-65443293D01*
X96126166Y-65412797D01*
X96114802Y-65381035D01*
X96106605Y-65348312D01*
X96101655Y-65314943D01*
X96100000Y-65281250D01*
X96100000Y-64593750D01*
X96101655Y-64560057D01*
X96106605Y-64526688D01*
X96114802Y-64493965D01*
X96126166Y-64462203D01*
X96140590Y-64431707D01*
X96157932Y-64402773D01*
X96178028Y-64375677D01*
X96200682Y-64350682D01*
X96225677Y-64328028D01*
X96252773Y-64307932D01*
X96281707Y-64290590D01*
X96312203Y-64276166D01*
X96343965Y-64264802D01*
X96376688Y-64256605D01*
X96410057Y-64251655D01*
X96443750Y-64250000D01*
X97556250Y-64250000D01*
X97589943Y-64251655D01*
X97589943Y-64251655D01*
G37*
D11*
X97000000Y-64937500D03*
G04 #@! TD*
D10*
G04 #@! TO.C,R26*
G36*
X143089943Y-73251655D02*
X143123312Y-73256605D01*
X143156035Y-73264802D01*
X143187797Y-73276166D01*
X143218293Y-73290590D01*
X143247227Y-73307932D01*
X143274323Y-73328028D01*
X143299318Y-73350682D01*
X143321972Y-73375677D01*
X143342068Y-73402773D01*
X143359410Y-73431707D01*
X143373834Y-73462203D01*
X143385198Y-73493965D01*
X143393395Y-73526688D01*
X143398345Y-73560057D01*
X143400000Y-73593750D01*
X143400000Y-74281250D01*
X143398345Y-74314943D01*
X143393395Y-74348312D01*
X143385198Y-74381035D01*
X143373834Y-74412797D01*
X143359410Y-74443293D01*
X143342068Y-74472227D01*
X143321972Y-74499323D01*
X143299318Y-74524318D01*
X143274323Y-74546972D01*
X143247227Y-74567068D01*
X143218293Y-74584410D01*
X143187797Y-74598834D01*
X143156035Y-74610198D01*
X143123312Y-74618395D01*
X143089943Y-74623345D01*
X143056250Y-74625000D01*
X141943750Y-74625000D01*
X141910057Y-74623345D01*
X141876688Y-74618395D01*
X141843965Y-74610198D01*
X141812203Y-74598834D01*
X141781707Y-74584410D01*
X141752773Y-74567068D01*
X141725677Y-74546972D01*
X141700682Y-74524318D01*
X141678028Y-74499323D01*
X141657932Y-74472227D01*
X141640590Y-74443293D01*
X141626166Y-74412797D01*
X141614802Y-74381035D01*
X141606605Y-74348312D01*
X141601655Y-74314943D01*
X141600000Y-74281250D01*
X141600000Y-73593750D01*
X141601655Y-73560057D01*
X141606605Y-73526688D01*
X141614802Y-73493965D01*
X141626166Y-73462203D01*
X141640590Y-73431707D01*
X141657932Y-73402773D01*
X141678028Y-73375677D01*
X141700682Y-73350682D01*
X141725677Y-73328028D01*
X141752773Y-73307932D01*
X141781707Y-73290590D01*
X141812203Y-73276166D01*
X141843965Y-73264802D01*
X141876688Y-73256605D01*
X141910057Y-73251655D01*
X141943750Y-73250000D01*
X143056250Y-73250000D01*
X143089943Y-73251655D01*
X143089943Y-73251655D01*
G37*
D11*
X142500000Y-73937500D03*
D10*
G36*
X143089943Y-71376655D02*
X143123312Y-71381605D01*
X143156035Y-71389802D01*
X143187797Y-71401166D01*
X143218293Y-71415590D01*
X143247227Y-71432932D01*
X143274323Y-71453028D01*
X143299318Y-71475682D01*
X143321972Y-71500677D01*
X143342068Y-71527773D01*
X143359410Y-71556707D01*
X143373834Y-71587203D01*
X143385198Y-71618965D01*
X143393395Y-71651688D01*
X143398345Y-71685057D01*
X143400000Y-71718750D01*
X143400000Y-72406250D01*
X143398345Y-72439943D01*
X143393395Y-72473312D01*
X143385198Y-72506035D01*
X143373834Y-72537797D01*
X143359410Y-72568293D01*
X143342068Y-72597227D01*
X143321972Y-72624323D01*
X143299318Y-72649318D01*
X143274323Y-72671972D01*
X143247227Y-72692068D01*
X143218293Y-72709410D01*
X143187797Y-72723834D01*
X143156035Y-72735198D01*
X143123312Y-72743395D01*
X143089943Y-72748345D01*
X143056250Y-72750000D01*
X141943750Y-72750000D01*
X141910057Y-72748345D01*
X141876688Y-72743395D01*
X141843965Y-72735198D01*
X141812203Y-72723834D01*
X141781707Y-72709410D01*
X141752773Y-72692068D01*
X141725677Y-72671972D01*
X141700682Y-72649318D01*
X141678028Y-72624323D01*
X141657932Y-72597227D01*
X141640590Y-72568293D01*
X141626166Y-72537797D01*
X141614802Y-72506035D01*
X141606605Y-72473312D01*
X141601655Y-72439943D01*
X141600000Y-72406250D01*
X141600000Y-71718750D01*
X141601655Y-71685057D01*
X141606605Y-71651688D01*
X141614802Y-71618965D01*
X141626166Y-71587203D01*
X141640590Y-71556707D01*
X141657932Y-71527773D01*
X141678028Y-71500677D01*
X141700682Y-71475682D01*
X141725677Y-71453028D01*
X141752773Y-71432932D01*
X141781707Y-71415590D01*
X141812203Y-71401166D01*
X141843965Y-71389802D01*
X141876688Y-71381605D01*
X141910057Y-71376655D01*
X141943750Y-71375000D01*
X143056250Y-71375000D01*
X143089943Y-71376655D01*
X143089943Y-71376655D01*
G37*
D11*
X142500000Y-72062500D03*
G04 #@! TD*
D10*
G04 #@! TO.C,R25*
G36*
X119089943Y-71376655D02*
X119123312Y-71381605D01*
X119156035Y-71389802D01*
X119187797Y-71401166D01*
X119218293Y-71415590D01*
X119247227Y-71432932D01*
X119274323Y-71453028D01*
X119299318Y-71475682D01*
X119321972Y-71500677D01*
X119342068Y-71527773D01*
X119359410Y-71556707D01*
X119373834Y-71587203D01*
X119385198Y-71618965D01*
X119393395Y-71651688D01*
X119398345Y-71685057D01*
X119400000Y-71718750D01*
X119400000Y-72406250D01*
X119398345Y-72439943D01*
X119393395Y-72473312D01*
X119385198Y-72506035D01*
X119373834Y-72537797D01*
X119359410Y-72568293D01*
X119342068Y-72597227D01*
X119321972Y-72624323D01*
X119299318Y-72649318D01*
X119274323Y-72671972D01*
X119247227Y-72692068D01*
X119218293Y-72709410D01*
X119187797Y-72723834D01*
X119156035Y-72735198D01*
X119123312Y-72743395D01*
X119089943Y-72748345D01*
X119056250Y-72750000D01*
X117943750Y-72750000D01*
X117910057Y-72748345D01*
X117876688Y-72743395D01*
X117843965Y-72735198D01*
X117812203Y-72723834D01*
X117781707Y-72709410D01*
X117752773Y-72692068D01*
X117725677Y-72671972D01*
X117700682Y-72649318D01*
X117678028Y-72624323D01*
X117657932Y-72597227D01*
X117640590Y-72568293D01*
X117626166Y-72537797D01*
X117614802Y-72506035D01*
X117606605Y-72473312D01*
X117601655Y-72439943D01*
X117600000Y-72406250D01*
X117600000Y-71718750D01*
X117601655Y-71685057D01*
X117606605Y-71651688D01*
X117614802Y-71618965D01*
X117626166Y-71587203D01*
X117640590Y-71556707D01*
X117657932Y-71527773D01*
X117678028Y-71500677D01*
X117700682Y-71475682D01*
X117725677Y-71453028D01*
X117752773Y-71432932D01*
X117781707Y-71415590D01*
X117812203Y-71401166D01*
X117843965Y-71389802D01*
X117876688Y-71381605D01*
X117910057Y-71376655D01*
X117943750Y-71375000D01*
X119056250Y-71375000D01*
X119089943Y-71376655D01*
X119089943Y-71376655D01*
G37*
D11*
X118500000Y-72062500D03*
D10*
G36*
X119089943Y-73251655D02*
X119123312Y-73256605D01*
X119156035Y-73264802D01*
X119187797Y-73276166D01*
X119218293Y-73290590D01*
X119247227Y-73307932D01*
X119274323Y-73328028D01*
X119299318Y-73350682D01*
X119321972Y-73375677D01*
X119342068Y-73402773D01*
X119359410Y-73431707D01*
X119373834Y-73462203D01*
X119385198Y-73493965D01*
X119393395Y-73526688D01*
X119398345Y-73560057D01*
X119400000Y-73593750D01*
X119400000Y-74281250D01*
X119398345Y-74314943D01*
X119393395Y-74348312D01*
X119385198Y-74381035D01*
X119373834Y-74412797D01*
X119359410Y-74443293D01*
X119342068Y-74472227D01*
X119321972Y-74499323D01*
X119299318Y-74524318D01*
X119274323Y-74546972D01*
X119247227Y-74567068D01*
X119218293Y-74584410D01*
X119187797Y-74598834D01*
X119156035Y-74610198D01*
X119123312Y-74618395D01*
X119089943Y-74623345D01*
X119056250Y-74625000D01*
X117943750Y-74625000D01*
X117910057Y-74623345D01*
X117876688Y-74618395D01*
X117843965Y-74610198D01*
X117812203Y-74598834D01*
X117781707Y-74584410D01*
X117752773Y-74567068D01*
X117725677Y-74546972D01*
X117700682Y-74524318D01*
X117678028Y-74499323D01*
X117657932Y-74472227D01*
X117640590Y-74443293D01*
X117626166Y-74412797D01*
X117614802Y-74381035D01*
X117606605Y-74348312D01*
X117601655Y-74314943D01*
X117600000Y-74281250D01*
X117600000Y-73593750D01*
X117601655Y-73560057D01*
X117606605Y-73526688D01*
X117614802Y-73493965D01*
X117626166Y-73462203D01*
X117640590Y-73431707D01*
X117657932Y-73402773D01*
X117678028Y-73375677D01*
X117700682Y-73350682D01*
X117725677Y-73328028D01*
X117752773Y-73307932D01*
X117781707Y-73290590D01*
X117812203Y-73276166D01*
X117843965Y-73264802D01*
X117876688Y-73256605D01*
X117910057Y-73251655D01*
X117943750Y-73250000D01*
X119056250Y-73250000D01*
X119089943Y-73251655D01*
X119089943Y-73251655D01*
G37*
D11*
X118500000Y-73937500D03*
G04 #@! TD*
D10*
G04 #@! TO.C,R24*
G36*
X80589943Y-50314155D02*
X80623312Y-50319105D01*
X80656035Y-50327302D01*
X80687797Y-50338666D01*
X80718293Y-50353090D01*
X80747227Y-50370432D01*
X80774323Y-50390528D01*
X80799318Y-50413182D01*
X80821972Y-50438177D01*
X80842068Y-50465273D01*
X80859410Y-50494207D01*
X80873834Y-50524703D01*
X80885198Y-50556465D01*
X80893395Y-50589188D01*
X80898345Y-50622557D01*
X80900000Y-50656250D01*
X80900000Y-51343750D01*
X80898345Y-51377443D01*
X80893395Y-51410812D01*
X80885198Y-51443535D01*
X80873834Y-51475297D01*
X80859410Y-51505793D01*
X80842068Y-51534727D01*
X80821972Y-51561823D01*
X80799318Y-51586818D01*
X80774323Y-51609472D01*
X80747227Y-51629568D01*
X80718293Y-51646910D01*
X80687797Y-51661334D01*
X80656035Y-51672698D01*
X80623312Y-51680895D01*
X80589943Y-51685845D01*
X80556250Y-51687500D01*
X79443750Y-51687500D01*
X79410057Y-51685845D01*
X79376688Y-51680895D01*
X79343965Y-51672698D01*
X79312203Y-51661334D01*
X79281707Y-51646910D01*
X79252773Y-51629568D01*
X79225677Y-51609472D01*
X79200682Y-51586818D01*
X79178028Y-51561823D01*
X79157932Y-51534727D01*
X79140590Y-51505793D01*
X79126166Y-51475297D01*
X79114802Y-51443535D01*
X79106605Y-51410812D01*
X79101655Y-51377443D01*
X79100000Y-51343750D01*
X79100000Y-50656250D01*
X79101655Y-50622557D01*
X79106605Y-50589188D01*
X79114802Y-50556465D01*
X79126166Y-50524703D01*
X79140590Y-50494207D01*
X79157932Y-50465273D01*
X79178028Y-50438177D01*
X79200682Y-50413182D01*
X79225677Y-50390528D01*
X79252773Y-50370432D01*
X79281707Y-50353090D01*
X79312203Y-50338666D01*
X79343965Y-50327302D01*
X79376688Y-50319105D01*
X79410057Y-50314155D01*
X79443750Y-50312500D01*
X80556250Y-50312500D01*
X80589943Y-50314155D01*
X80589943Y-50314155D01*
G37*
D11*
X80000000Y-51000000D03*
D10*
G36*
X80589943Y-52189155D02*
X80623312Y-52194105D01*
X80656035Y-52202302D01*
X80687797Y-52213666D01*
X80718293Y-52228090D01*
X80747227Y-52245432D01*
X80774323Y-52265528D01*
X80799318Y-52288182D01*
X80821972Y-52313177D01*
X80842068Y-52340273D01*
X80859410Y-52369207D01*
X80873834Y-52399703D01*
X80885198Y-52431465D01*
X80893395Y-52464188D01*
X80898345Y-52497557D01*
X80900000Y-52531250D01*
X80900000Y-53218750D01*
X80898345Y-53252443D01*
X80893395Y-53285812D01*
X80885198Y-53318535D01*
X80873834Y-53350297D01*
X80859410Y-53380793D01*
X80842068Y-53409727D01*
X80821972Y-53436823D01*
X80799318Y-53461818D01*
X80774323Y-53484472D01*
X80747227Y-53504568D01*
X80718293Y-53521910D01*
X80687797Y-53536334D01*
X80656035Y-53547698D01*
X80623312Y-53555895D01*
X80589943Y-53560845D01*
X80556250Y-53562500D01*
X79443750Y-53562500D01*
X79410057Y-53560845D01*
X79376688Y-53555895D01*
X79343965Y-53547698D01*
X79312203Y-53536334D01*
X79281707Y-53521910D01*
X79252773Y-53504568D01*
X79225677Y-53484472D01*
X79200682Y-53461818D01*
X79178028Y-53436823D01*
X79157932Y-53409727D01*
X79140590Y-53380793D01*
X79126166Y-53350297D01*
X79114802Y-53318535D01*
X79106605Y-53285812D01*
X79101655Y-53252443D01*
X79100000Y-53218750D01*
X79100000Y-52531250D01*
X79101655Y-52497557D01*
X79106605Y-52464188D01*
X79114802Y-52431465D01*
X79126166Y-52399703D01*
X79140590Y-52369207D01*
X79157932Y-52340273D01*
X79178028Y-52313177D01*
X79200682Y-52288182D01*
X79225677Y-52265528D01*
X79252773Y-52245432D01*
X79281707Y-52228090D01*
X79312203Y-52213666D01*
X79343965Y-52202302D01*
X79376688Y-52194105D01*
X79410057Y-52189155D01*
X79443750Y-52187500D01*
X80556250Y-52187500D01*
X80589943Y-52189155D01*
X80589943Y-52189155D01*
G37*
D11*
X80000000Y-52875000D03*
G04 #@! TD*
D10*
G04 #@! TO.C,R15*
G36*
X105502443Y-59601655D02*
X105535812Y-59606605D01*
X105568535Y-59614802D01*
X105600297Y-59626166D01*
X105630793Y-59640590D01*
X105659727Y-59657932D01*
X105686823Y-59678028D01*
X105711818Y-59700682D01*
X105734472Y-59725677D01*
X105754568Y-59752773D01*
X105771910Y-59781707D01*
X105786334Y-59812203D01*
X105797698Y-59843965D01*
X105805895Y-59876688D01*
X105810845Y-59910057D01*
X105812500Y-59943750D01*
X105812500Y-61056250D01*
X105810845Y-61089943D01*
X105805895Y-61123312D01*
X105797698Y-61156035D01*
X105786334Y-61187797D01*
X105771910Y-61218293D01*
X105754568Y-61247227D01*
X105734472Y-61274323D01*
X105711818Y-61299318D01*
X105686823Y-61321972D01*
X105659727Y-61342068D01*
X105630793Y-61359410D01*
X105600297Y-61373834D01*
X105568535Y-61385198D01*
X105535812Y-61393395D01*
X105502443Y-61398345D01*
X105468750Y-61400000D01*
X104781250Y-61400000D01*
X104747557Y-61398345D01*
X104714188Y-61393395D01*
X104681465Y-61385198D01*
X104649703Y-61373834D01*
X104619207Y-61359410D01*
X104590273Y-61342068D01*
X104563177Y-61321972D01*
X104538182Y-61299318D01*
X104515528Y-61274323D01*
X104495432Y-61247227D01*
X104478090Y-61218293D01*
X104463666Y-61187797D01*
X104452302Y-61156035D01*
X104444105Y-61123312D01*
X104439155Y-61089943D01*
X104437500Y-61056250D01*
X104437500Y-59943750D01*
X104439155Y-59910057D01*
X104444105Y-59876688D01*
X104452302Y-59843965D01*
X104463666Y-59812203D01*
X104478090Y-59781707D01*
X104495432Y-59752773D01*
X104515528Y-59725677D01*
X104538182Y-59700682D01*
X104563177Y-59678028D01*
X104590273Y-59657932D01*
X104619207Y-59640590D01*
X104649703Y-59626166D01*
X104681465Y-59614802D01*
X104714188Y-59606605D01*
X104747557Y-59601655D01*
X104781250Y-59600000D01*
X105468750Y-59600000D01*
X105502443Y-59601655D01*
X105502443Y-59601655D01*
G37*
D11*
X105125000Y-60500000D03*
D10*
G36*
X107377443Y-59601655D02*
X107410812Y-59606605D01*
X107443535Y-59614802D01*
X107475297Y-59626166D01*
X107505793Y-59640590D01*
X107534727Y-59657932D01*
X107561823Y-59678028D01*
X107586818Y-59700682D01*
X107609472Y-59725677D01*
X107629568Y-59752773D01*
X107646910Y-59781707D01*
X107661334Y-59812203D01*
X107672698Y-59843965D01*
X107680895Y-59876688D01*
X107685845Y-59910057D01*
X107687500Y-59943750D01*
X107687500Y-61056250D01*
X107685845Y-61089943D01*
X107680895Y-61123312D01*
X107672698Y-61156035D01*
X107661334Y-61187797D01*
X107646910Y-61218293D01*
X107629568Y-61247227D01*
X107609472Y-61274323D01*
X107586818Y-61299318D01*
X107561823Y-61321972D01*
X107534727Y-61342068D01*
X107505793Y-61359410D01*
X107475297Y-61373834D01*
X107443535Y-61385198D01*
X107410812Y-61393395D01*
X107377443Y-61398345D01*
X107343750Y-61400000D01*
X106656250Y-61400000D01*
X106622557Y-61398345D01*
X106589188Y-61393395D01*
X106556465Y-61385198D01*
X106524703Y-61373834D01*
X106494207Y-61359410D01*
X106465273Y-61342068D01*
X106438177Y-61321972D01*
X106413182Y-61299318D01*
X106390528Y-61274323D01*
X106370432Y-61247227D01*
X106353090Y-61218293D01*
X106338666Y-61187797D01*
X106327302Y-61156035D01*
X106319105Y-61123312D01*
X106314155Y-61089943D01*
X106312500Y-61056250D01*
X106312500Y-59943750D01*
X106314155Y-59910057D01*
X106319105Y-59876688D01*
X106327302Y-59843965D01*
X106338666Y-59812203D01*
X106353090Y-59781707D01*
X106370432Y-59752773D01*
X106390528Y-59725677D01*
X106413182Y-59700682D01*
X106438177Y-59678028D01*
X106465273Y-59657932D01*
X106494207Y-59640590D01*
X106524703Y-59626166D01*
X106556465Y-59614802D01*
X106589188Y-59606605D01*
X106622557Y-59601655D01*
X106656250Y-59600000D01*
X107343750Y-59600000D01*
X107377443Y-59601655D01*
X107377443Y-59601655D01*
G37*
D11*
X107000000Y-60500000D03*
G04 #@! TD*
D10*
G04 #@! TO.C,R23*
G36*
X105502443Y-68601655D02*
X105535812Y-68606605D01*
X105568535Y-68614802D01*
X105600297Y-68626166D01*
X105630793Y-68640590D01*
X105659727Y-68657932D01*
X105686823Y-68678028D01*
X105711818Y-68700682D01*
X105734472Y-68725677D01*
X105754568Y-68752773D01*
X105771910Y-68781707D01*
X105786334Y-68812203D01*
X105797698Y-68843965D01*
X105805895Y-68876688D01*
X105810845Y-68910057D01*
X105812500Y-68943750D01*
X105812500Y-70056250D01*
X105810845Y-70089943D01*
X105805895Y-70123312D01*
X105797698Y-70156035D01*
X105786334Y-70187797D01*
X105771910Y-70218293D01*
X105754568Y-70247227D01*
X105734472Y-70274323D01*
X105711818Y-70299318D01*
X105686823Y-70321972D01*
X105659727Y-70342068D01*
X105630793Y-70359410D01*
X105600297Y-70373834D01*
X105568535Y-70385198D01*
X105535812Y-70393395D01*
X105502443Y-70398345D01*
X105468750Y-70400000D01*
X104781250Y-70400000D01*
X104747557Y-70398345D01*
X104714188Y-70393395D01*
X104681465Y-70385198D01*
X104649703Y-70373834D01*
X104619207Y-70359410D01*
X104590273Y-70342068D01*
X104563177Y-70321972D01*
X104538182Y-70299318D01*
X104515528Y-70274323D01*
X104495432Y-70247227D01*
X104478090Y-70218293D01*
X104463666Y-70187797D01*
X104452302Y-70156035D01*
X104444105Y-70123312D01*
X104439155Y-70089943D01*
X104437500Y-70056250D01*
X104437500Y-68943750D01*
X104439155Y-68910057D01*
X104444105Y-68876688D01*
X104452302Y-68843965D01*
X104463666Y-68812203D01*
X104478090Y-68781707D01*
X104495432Y-68752773D01*
X104515528Y-68725677D01*
X104538182Y-68700682D01*
X104563177Y-68678028D01*
X104590273Y-68657932D01*
X104619207Y-68640590D01*
X104649703Y-68626166D01*
X104681465Y-68614802D01*
X104714188Y-68606605D01*
X104747557Y-68601655D01*
X104781250Y-68600000D01*
X105468750Y-68600000D01*
X105502443Y-68601655D01*
X105502443Y-68601655D01*
G37*
D11*
X105125000Y-69500000D03*
D10*
G36*
X107377443Y-68601655D02*
X107410812Y-68606605D01*
X107443535Y-68614802D01*
X107475297Y-68626166D01*
X107505793Y-68640590D01*
X107534727Y-68657932D01*
X107561823Y-68678028D01*
X107586818Y-68700682D01*
X107609472Y-68725677D01*
X107629568Y-68752773D01*
X107646910Y-68781707D01*
X107661334Y-68812203D01*
X107672698Y-68843965D01*
X107680895Y-68876688D01*
X107685845Y-68910057D01*
X107687500Y-68943750D01*
X107687500Y-70056250D01*
X107685845Y-70089943D01*
X107680895Y-70123312D01*
X107672698Y-70156035D01*
X107661334Y-70187797D01*
X107646910Y-70218293D01*
X107629568Y-70247227D01*
X107609472Y-70274323D01*
X107586818Y-70299318D01*
X107561823Y-70321972D01*
X107534727Y-70342068D01*
X107505793Y-70359410D01*
X107475297Y-70373834D01*
X107443535Y-70385198D01*
X107410812Y-70393395D01*
X107377443Y-70398345D01*
X107343750Y-70400000D01*
X106656250Y-70400000D01*
X106622557Y-70398345D01*
X106589188Y-70393395D01*
X106556465Y-70385198D01*
X106524703Y-70373834D01*
X106494207Y-70359410D01*
X106465273Y-70342068D01*
X106438177Y-70321972D01*
X106413182Y-70299318D01*
X106390528Y-70274323D01*
X106370432Y-70247227D01*
X106353090Y-70218293D01*
X106338666Y-70187797D01*
X106327302Y-70156035D01*
X106319105Y-70123312D01*
X106314155Y-70089943D01*
X106312500Y-70056250D01*
X106312500Y-68943750D01*
X106314155Y-68910057D01*
X106319105Y-68876688D01*
X106327302Y-68843965D01*
X106338666Y-68812203D01*
X106353090Y-68781707D01*
X106370432Y-68752773D01*
X106390528Y-68725677D01*
X106413182Y-68700682D01*
X106438177Y-68678028D01*
X106465273Y-68657932D01*
X106494207Y-68640590D01*
X106524703Y-68626166D01*
X106556465Y-68614802D01*
X106589188Y-68606605D01*
X106622557Y-68601655D01*
X106656250Y-68600000D01*
X107343750Y-68600000D01*
X107377443Y-68601655D01*
X107377443Y-68601655D01*
G37*
D11*
X107000000Y-69500000D03*
G04 #@! TD*
D22*
G04 #@! TO.C,REF\002A\002A*
X156000000Y-86750000D03*
G04 #@! TD*
M02*
